G04 #@! TF.GenerationSoftware,KiCad,Pcbnew,(5.1.4)-1*
G04 #@! TF.CreationDate,2023-08-30T00:45:50+02:00*
G04 #@! TF.ProjectId,BeeWeight_MKRWAN_V4,42656557-6569-4676-9874-5f4d4b525741,V4*
G04 #@! TF.SameCoordinates,Original*
G04 #@! TF.FileFunction,Soldermask,Top*
G04 #@! TF.FilePolarity,Negative*
%FSLAX46Y46*%
G04 Gerber Fmt 4.6, Leading zero omitted, Abs format (unit mm)*
G04 Created by KiCad (PCBNEW (5.1.4)-1) date 2023-08-30 00:45:50*
%MOMM*%
%LPD*%
G04 APERTURE LIST*
%ADD10C,0.100000*%
G04 APERTURE END LIST*
D10*
G36*
X160057921Y-114854271D02*
G01*
X160096798Y-114866064D01*
X160132618Y-114885211D01*
X160164019Y-114910981D01*
X160189789Y-114942382D01*
X160208936Y-114978202D01*
X160220729Y-115017079D01*
X160225000Y-115060447D01*
X160225000Y-115689553D01*
X160220729Y-115732921D01*
X160208936Y-115771798D01*
X160189789Y-115807618D01*
X160164019Y-115839019D01*
X160132618Y-115864789D01*
X160096798Y-115883936D01*
X160057921Y-115895729D01*
X160014553Y-115900000D01*
X159485447Y-115900000D01*
X159442079Y-115895729D01*
X159403202Y-115883936D01*
X159367382Y-115864789D01*
X159335981Y-115839019D01*
X159310211Y-115807618D01*
X159291064Y-115771798D01*
X159279271Y-115732921D01*
X159275000Y-115689553D01*
X159275000Y-115060447D01*
X159279271Y-115017079D01*
X159291064Y-114978202D01*
X159310211Y-114942382D01*
X159335981Y-114910981D01*
X159367382Y-114885211D01*
X159403202Y-114866064D01*
X159442079Y-114854271D01*
X159485447Y-114850000D01*
X160014553Y-114850000D01*
X160057921Y-114854271D01*
X160057921Y-114854271D01*
G37*
G36*
X165154762Y-114000469D02*
G01*
X165165883Y-114002118D01*
X165196065Y-114002118D01*
X165201957Y-114002698D01*
X165292303Y-114020669D01*
X165295138Y-114021529D01*
X165295142Y-114021530D01*
X165295146Y-114021532D01*
X165297978Y-114022391D01*
X165383084Y-114057642D01*
X165385694Y-114059037D01*
X165385698Y-114059039D01*
X165385702Y-114059042D01*
X165388310Y-114060436D01*
X165464904Y-114111615D01*
X165467189Y-114113490D01*
X165467197Y-114113495D01*
X165467204Y-114113502D01*
X165469487Y-114115375D01*
X165534625Y-114180513D01*
X165536498Y-114182796D01*
X165536505Y-114182803D01*
X165536510Y-114182811D01*
X165538385Y-114185096D01*
X165589564Y-114261690D01*
X165590958Y-114264298D01*
X165590961Y-114264302D01*
X165590963Y-114264306D01*
X165592358Y-114266916D01*
X165627609Y-114352022D01*
X165629331Y-114357697D01*
X165647302Y-114448043D01*
X165647882Y-114453935D01*
X165647882Y-114484117D01*
X165649531Y-114495238D01*
X165650290Y-114502944D01*
X165650290Y-114997056D01*
X165649531Y-115004762D01*
X165647882Y-115015883D01*
X165647882Y-115046065D01*
X165647302Y-115051957D01*
X165629331Y-115142303D01*
X165627609Y-115147978D01*
X165592358Y-115233084D01*
X165590963Y-115235694D01*
X165590961Y-115235698D01*
X165590958Y-115235702D01*
X165589564Y-115238310D01*
X165538385Y-115314904D01*
X165536510Y-115317189D01*
X165536505Y-115317197D01*
X165536498Y-115317204D01*
X165534625Y-115319487D01*
X165469487Y-115384625D01*
X165467204Y-115386498D01*
X165467197Y-115386505D01*
X165467189Y-115386510D01*
X165464904Y-115388385D01*
X165388310Y-115439564D01*
X165385702Y-115440958D01*
X165385698Y-115440961D01*
X165385694Y-115440963D01*
X165383084Y-115442358D01*
X165297978Y-115477609D01*
X165295146Y-115478468D01*
X165295142Y-115478470D01*
X165295138Y-115478471D01*
X165292303Y-115479331D01*
X165201957Y-115497302D01*
X165196065Y-115497882D01*
X165165883Y-115497882D01*
X165154762Y-115499531D01*
X165147056Y-115500290D01*
X164652944Y-115500290D01*
X164650001Y-115500000D01*
X164650000Y-115500000D01*
X164650000Y-115499999D01*
X164649710Y-115497056D01*
X164649710Y-114002944D01*
X164650000Y-114000001D01*
X164650000Y-114000000D01*
X164650001Y-114000000D01*
X164652944Y-113999710D01*
X165147056Y-113999710D01*
X165154762Y-114000469D01*
X165154762Y-114000469D01*
G37*
G36*
X164349999Y-114000000D02*
G01*
X164350000Y-114000000D01*
X164350000Y-114000001D01*
X164350290Y-114002944D01*
X164350290Y-115497056D01*
X164350000Y-115499999D01*
X164350000Y-115500000D01*
X164349999Y-115500000D01*
X164347056Y-115500290D01*
X163852944Y-115500290D01*
X163845238Y-115499531D01*
X163834117Y-115497882D01*
X163803935Y-115497882D01*
X163798043Y-115497302D01*
X163707697Y-115479331D01*
X163704862Y-115478471D01*
X163704858Y-115478470D01*
X163704854Y-115478468D01*
X163702022Y-115477609D01*
X163616916Y-115442358D01*
X163614306Y-115440963D01*
X163614302Y-115440961D01*
X163614298Y-115440958D01*
X163611690Y-115439564D01*
X163535096Y-115388385D01*
X163532811Y-115386510D01*
X163532803Y-115386505D01*
X163532796Y-115386498D01*
X163530513Y-115384625D01*
X163465375Y-115319487D01*
X163463502Y-115317204D01*
X163463495Y-115317197D01*
X163463490Y-115317189D01*
X163461615Y-115314904D01*
X163410436Y-115238310D01*
X163409042Y-115235702D01*
X163409039Y-115235698D01*
X163409037Y-115235694D01*
X163407642Y-115233084D01*
X163372391Y-115147978D01*
X163370669Y-115142303D01*
X163352698Y-115051957D01*
X163352118Y-115046065D01*
X163352118Y-115015883D01*
X163350469Y-115004762D01*
X163350000Y-115000000D01*
X163349710Y-114997056D01*
X163349710Y-114502944D01*
X163350469Y-114495238D01*
X163352118Y-114484117D01*
X163352118Y-114453935D01*
X163352698Y-114448043D01*
X163370669Y-114357697D01*
X163372391Y-114352022D01*
X163407642Y-114266916D01*
X163409037Y-114264306D01*
X163409039Y-114264302D01*
X163409042Y-114264298D01*
X163410436Y-114261690D01*
X163461615Y-114185096D01*
X163463490Y-114182811D01*
X163463495Y-114182803D01*
X163463502Y-114182796D01*
X163465375Y-114180513D01*
X163530513Y-114115375D01*
X163532796Y-114113502D01*
X163532803Y-114113495D01*
X163532811Y-114113490D01*
X163535096Y-114111615D01*
X163611690Y-114060436D01*
X163614298Y-114059042D01*
X163614302Y-114059039D01*
X163614306Y-114059037D01*
X163616916Y-114057642D01*
X163702022Y-114022391D01*
X163704854Y-114021532D01*
X163704858Y-114021530D01*
X163704862Y-114021529D01*
X163707697Y-114020669D01*
X163798043Y-114002698D01*
X163803935Y-114002118D01*
X163834117Y-114002118D01*
X163845238Y-114000469D01*
X163852944Y-113999710D01*
X164347056Y-113999710D01*
X164349999Y-114000000D01*
X164349999Y-114000000D01*
G37*
G36*
X158450000Y-115375000D02*
G01*
X157900000Y-115375000D01*
X157900000Y-115125000D01*
X158450000Y-115125000D01*
X158450000Y-115375000D01*
X158450000Y-115375000D01*
G37*
G36*
X156100000Y-115375000D02*
G01*
X155550000Y-115375000D01*
X155550000Y-115125000D01*
X156100000Y-115125000D01*
X156100000Y-115375000D01*
X156100000Y-115375000D01*
G37*
G36*
X157500000Y-115350000D02*
G01*
X156500000Y-115350000D01*
X156500000Y-113650000D01*
X157500000Y-113650000D01*
X157500000Y-115350000D01*
X157500000Y-115350000D01*
G37*
G36*
X156100000Y-114875000D02*
G01*
X155550000Y-114875000D01*
X155550000Y-114625000D01*
X156100000Y-114625000D01*
X156100000Y-114875000D01*
X156100000Y-114875000D01*
G37*
G36*
X158450000Y-114875000D02*
G01*
X157900000Y-114875000D01*
X157900000Y-114625000D01*
X158450000Y-114625000D01*
X158450000Y-114875000D01*
X158450000Y-114875000D01*
G37*
G36*
X185003581Y-112716293D02*
G01*
X185090520Y-112733586D01*
X185254310Y-112801430D01*
X185254312Y-112801431D01*
X185328014Y-112850677D01*
X185401717Y-112899924D01*
X185527076Y-113025283D01*
X185527077Y-113025285D01*
X185617747Y-113160981D01*
X185625570Y-113172690D01*
X185693414Y-113336480D01*
X185728000Y-113510358D01*
X185728000Y-113687642D01*
X185693414Y-113861520D01*
X185636053Y-114000001D01*
X185625569Y-114025312D01*
X185603033Y-114059039D01*
X185527076Y-114172717D01*
X185401717Y-114298076D01*
X185328013Y-114347323D01*
X185254312Y-114396569D01*
X185254311Y-114396570D01*
X185254310Y-114396570D01*
X185090520Y-114464414D01*
X185003581Y-114481707D01*
X184916644Y-114499000D01*
X184739356Y-114499000D01*
X184652419Y-114481707D01*
X184565480Y-114464414D01*
X184401690Y-114396570D01*
X184401689Y-114396570D01*
X184401688Y-114396569D01*
X184327987Y-114347323D01*
X184254283Y-114298076D01*
X184128924Y-114172717D01*
X184052967Y-114059039D01*
X184030431Y-114025312D01*
X184019947Y-114000001D01*
X183962586Y-113861520D01*
X183928000Y-113687642D01*
X183928000Y-113510358D01*
X183962586Y-113336480D01*
X184030430Y-113172690D01*
X184038254Y-113160981D01*
X184128923Y-113025285D01*
X184128924Y-113025283D01*
X184254283Y-112899924D01*
X184327986Y-112850677D01*
X184401688Y-112801431D01*
X184401690Y-112801430D01*
X184565480Y-112733586D01*
X184652419Y-112716293D01*
X184739356Y-112699000D01*
X184916644Y-112699000D01*
X185003581Y-112716293D01*
X185003581Y-112716293D01*
G37*
G36*
X156100000Y-114375000D02*
G01*
X155550000Y-114375000D01*
X155550000Y-114125000D01*
X156100000Y-114125000D01*
X156100000Y-114375000D01*
X156100000Y-114375000D01*
G37*
G36*
X158450000Y-114375000D02*
G01*
X157900000Y-114375000D01*
X157900000Y-114125000D01*
X158450000Y-114125000D01*
X158450000Y-114375000D01*
X158450000Y-114375000D01*
G37*
G36*
X160057921Y-113104271D02*
G01*
X160096798Y-113116064D01*
X160132618Y-113135211D01*
X160164019Y-113160981D01*
X160189789Y-113192382D01*
X160208936Y-113228202D01*
X160220729Y-113267079D01*
X160225000Y-113310447D01*
X160225000Y-113939553D01*
X160220729Y-113982921D01*
X160208936Y-114021798D01*
X160189789Y-114057618D01*
X160164019Y-114089019D01*
X160132618Y-114114789D01*
X160096798Y-114133936D01*
X160057921Y-114145729D01*
X160014553Y-114150000D01*
X159485447Y-114150000D01*
X159442079Y-114145729D01*
X159403202Y-114133936D01*
X159367382Y-114114789D01*
X159335981Y-114089019D01*
X159310211Y-114057618D01*
X159291064Y-114021798D01*
X159279271Y-113982921D01*
X159275000Y-113939553D01*
X159275000Y-113310447D01*
X159279271Y-113267079D01*
X159291064Y-113228202D01*
X159310211Y-113192382D01*
X159335981Y-113160981D01*
X159367382Y-113135211D01*
X159403202Y-113116064D01*
X159442079Y-113104271D01*
X159485447Y-113100000D01*
X160014553Y-113100000D01*
X160057921Y-113104271D01*
X160057921Y-113104271D01*
G37*
G36*
X156100000Y-113875000D02*
G01*
X155550000Y-113875000D01*
X155550000Y-113625000D01*
X156100000Y-113625000D01*
X156100000Y-113875000D01*
X156100000Y-113875000D01*
G37*
G36*
X158450000Y-113875000D02*
G01*
X157900000Y-113875000D01*
X157900000Y-113625000D01*
X158450000Y-113625000D01*
X158450000Y-113875000D01*
X158450000Y-113875000D01*
G37*
G36*
X163950000Y-112550000D02*
G01*
X163050000Y-112550000D01*
X163050000Y-111750000D01*
X163950000Y-111750000D01*
X163950000Y-112550000D01*
X163950000Y-112550000D01*
G37*
G36*
X165950000Y-111600000D02*
G01*
X165050000Y-111600000D01*
X165050000Y-110800000D01*
X165950000Y-110800000D01*
X165950000Y-111600000D01*
X165950000Y-111600000D01*
G37*
G36*
X179803581Y-109216293D02*
G01*
X179890520Y-109233586D01*
X180054310Y-109301430D01*
X180054312Y-109301431D01*
X180057860Y-109303802D01*
X180201717Y-109399924D01*
X180327076Y-109525283D01*
X180425570Y-109672690D01*
X180493414Y-109836480D01*
X180528000Y-110010358D01*
X180528000Y-110187642D01*
X180493414Y-110361520D01*
X180425570Y-110525310D01*
X180327076Y-110672717D01*
X180201717Y-110798076D01*
X180128014Y-110847323D01*
X180054312Y-110896569D01*
X180054311Y-110896570D01*
X180054310Y-110896570D01*
X179890520Y-110964414D01*
X179803581Y-110981707D01*
X179716644Y-110999000D01*
X179539356Y-110999000D01*
X179452419Y-110981707D01*
X179365480Y-110964414D01*
X179201690Y-110896570D01*
X179201689Y-110896570D01*
X179201688Y-110896569D01*
X179127987Y-110847323D01*
X179054283Y-110798076D01*
X178928924Y-110672717D01*
X178830430Y-110525310D01*
X178762586Y-110361520D01*
X178728000Y-110187642D01*
X178728000Y-110010358D01*
X178762586Y-109836480D01*
X178830430Y-109672690D01*
X178928924Y-109525283D01*
X179054283Y-109399924D01*
X179198140Y-109303802D01*
X179201688Y-109301431D01*
X179201690Y-109301430D01*
X179365480Y-109233586D01*
X179452419Y-109216293D01*
X179539356Y-109199000D01*
X179716644Y-109199000D01*
X179803581Y-109216293D01*
X179803581Y-109216293D01*
G37*
G36*
X163950000Y-110650000D02*
G01*
X163050000Y-110650000D01*
X163050000Y-109850000D01*
X163950000Y-109850000D01*
X163950000Y-110650000D01*
X163950000Y-110650000D01*
G37*
G36*
X159726015Y-108254437D02*
G01*
X159766494Y-108266716D01*
X159803802Y-108286658D01*
X159836504Y-108313496D01*
X159863342Y-108346198D01*
X159883284Y-108383506D01*
X159895563Y-108423985D01*
X159900000Y-108469034D01*
X159900000Y-109180966D01*
X159895563Y-109226015D01*
X159883284Y-109266494D01*
X159863342Y-109303802D01*
X159836504Y-109336504D01*
X159803802Y-109363342D01*
X159766494Y-109383284D01*
X159726015Y-109395563D01*
X159680966Y-109400000D01*
X158719034Y-109400000D01*
X158673985Y-109395563D01*
X158633506Y-109383284D01*
X158596198Y-109363342D01*
X158563496Y-109336504D01*
X158536658Y-109303802D01*
X158516716Y-109266494D01*
X158504437Y-109226015D01*
X158500000Y-109180966D01*
X158500000Y-108469034D01*
X158504437Y-108423985D01*
X158516716Y-108383506D01*
X158536658Y-108346198D01*
X158563496Y-108313496D01*
X158596198Y-108286658D01*
X158633506Y-108266716D01*
X158673985Y-108254437D01*
X158719034Y-108250000D01*
X159680966Y-108250000D01*
X159726015Y-108254437D01*
X159726015Y-108254437D01*
G37*
G36*
X157526015Y-108254437D02*
G01*
X157566494Y-108266716D01*
X157603802Y-108286658D01*
X157636504Y-108313496D01*
X157663342Y-108346198D01*
X157683284Y-108383506D01*
X157695563Y-108423985D01*
X157700000Y-108469034D01*
X157700000Y-109180966D01*
X157695563Y-109226015D01*
X157683284Y-109266494D01*
X157663342Y-109303802D01*
X157636504Y-109336504D01*
X157603802Y-109363342D01*
X157566494Y-109383284D01*
X157526015Y-109395563D01*
X157480966Y-109400000D01*
X156519034Y-109400000D01*
X156473985Y-109395563D01*
X156433506Y-109383284D01*
X156396198Y-109363342D01*
X156363496Y-109336504D01*
X156336658Y-109303802D01*
X156316716Y-109266494D01*
X156304437Y-109226015D01*
X156300000Y-109180966D01*
X156300000Y-108469034D01*
X156304437Y-108423985D01*
X156316716Y-108383506D01*
X156336658Y-108346198D01*
X156363496Y-108313496D01*
X156396198Y-108286658D01*
X156433506Y-108266716D01*
X156473985Y-108254437D01*
X156519034Y-108250000D01*
X157480966Y-108250000D01*
X157526015Y-108254437D01*
X157526015Y-108254437D01*
G37*
G36*
X161651015Y-107054437D02*
G01*
X161691494Y-107066716D01*
X161728802Y-107086658D01*
X161761504Y-107113496D01*
X161788342Y-107146198D01*
X161808284Y-107183506D01*
X161820563Y-107223985D01*
X161825000Y-107269034D01*
X161825000Y-108230966D01*
X161820563Y-108276015D01*
X161808284Y-108316494D01*
X161788342Y-108353802D01*
X161761504Y-108386504D01*
X161728802Y-108413342D01*
X161691494Y-108433284D01*
X161651015Y-108445563D01*
X161605966Y-108450000D01*
X160894034Y-108450000D01*
X160848985Y-108445563D01*
X160808506Y-108433284D01*
X160771198Y-108413342D01*
X160738496Y-108386504D01*
X160711658Y-108353802D01*
X160691716Y-108316494D01*
X160679437Y-108276015D01*
X160675000Y-108230966D01*
X160675000Y-107269034D01*
X160679437Y-107223985D01*
X160691716Y-107183506D01*
X160711658Y-107146198D01*
X160738496Y-107113496D01*
X160771198Y-107086658D01*
X160808506Y-107066716D01*
X160848985Y-107054437D01*
X160894034Y-107050000D01*
X161605966Y-107050000D01*
X161651015Y-107054437D01*
X161651015Y-107054437D01*
G37*
G36*
X163701015Y-107054437D02*
G01*
X163741494Y-107066716D01*
X163778802Y-107086658D01*
X163811504Y-107113496D01*
X163838342Y-107146198D01*
X163858284Y-107183506D01*
X163870563Y-107223985D01*
X163875000Y-107269034D01*
X163875000Y-108230966D01*
X163870563Y-108276015D01*
X163858284Y-108316494D01*
X163838342Y-108353802D01*
X163811504Y-108386504D01*
X163778802Y-108413342D01*
X163741494Y-108433284D01*
X163701015Y-108445563D01*
X163655966Y-108450000D01*
X162944034Y-108450000D01*
X162898985Y-108445563D01*
X162858506Y-108433284D01*
X162821198Y-108413342D01*
X162788496Y-108386504D01*
X162761658Y-108353802D01*
X162741716Y-108316494D01*
X162729437Y-108276015D01*
X162725000Y-108230966D01*
X162725000Y-107269034D01*
X162729437Y-107223985D01*
X162741716Y-107183506D01*
X162761658Y-107146198D01*
X162788496Y-107113496D01*
X162821198Y-107086658D01*
X162858506Y-107066716D01*
X162898985Y-107054437D01*
X162944034Y-107050000D01*
X163655966Y-107050000D01*
X163701015Y-107054437D01*
X163701015Y-107054437D01*
G37*
G36*
X153164775Y-106263496D02*
G01*
X153257270Y-106281894D01*
X153417784Y-106348381D01*
X153562242Y-106444906D01*
X153685094Y-106567758D01*
X153781619Y-106712216D01*
X153848106Y-106872730D01*
X153848106Y-106872732D01*
X153882000Y-107043129D01*
X153882000Y-107216871D01*
X153875166Y-107251227D01*
X153848106Y-107387270D01*
X153781619Y-107547784D01*
X153685094Y-107692242D01*
X153562242Y-107815094D01*
X153417784Y-107911619D01*
X153257270Y-107978106D01*
X153172070Y-107995053D01*
X153086871Y-108012000D01*
X152913129Y-108012000D01*
X152827930Y-107995053D01*
X152742730Y-107978106D01*
X152582216Y-107911619D01*
X152437758Y-107815094D01*
X152314906Y-107692242D01*
X152218381Y-107547784D01*
X152151894Y-107387270D01*
X152124834Y-107251227D01*
X152118000Y-107216871D01*
X152118000Y-107043129D01*
X152151894Y-106872732D01*
X152151894Y-106872730D01*
X152218381Y-106712216D01*
X152314906Y-106567758D01*
X152437758Y-106444906D01*
X152582216Y-106348381D01*
X152742730Y-106281894D01*
X152835225Y-106263496D01*
X152913129Y-106248000D01*
X153086871Y-106248000D01*
X153164775Y-106263496D01*
X153164775Y-106263496D01*
G37*
G36*
X173484775Y-106263496D02*
G01*
X173577270Y-106281894D01*
X173737784Y-106348381D01*
X173882242Y-106444906D01*
X174005094Y-106567758D01*
X174101619Y-106712216D01*
X174168106Y-106872730D01*
X174168106Y-106872732D01*
X174202000Y-107043129D01*
X174202000Y-107216871D01*
X174195166Y-107251227D01*
X174168106Y-107387270D01*
X174101619Y-107547784D01*
X174005094Y-107692242D01*
X173882242Y-107815094D01*
X173737784Y-107911619D01*
X173577270Y-107978106D01*
X173492070Y-107995053D01*
X173406871Y-108012000D01*
X173233129Y-108012000D01*
X173147930Y-107995053D01*
X173062730Y-107978106D01*
X172902216Y-107911619D01*
X172757758Y-107815094D01*
X172634906Y-107692242D01*
X172538381Y-107547784D01*
X172471894Y-107387270D01*
X172444834Y-107251227D01*
X172438000Y-107216871D01*
X172438000Y-107043129D01*
X172471894Y-106872732D01*
X172471894Y-106872730D01*
X172538381Y-106712216D01*
X172634906Y-106567758D01*
X172757758Y-106444906D01*
X172902216Y-106348381D01*
X173062730Y-106281894D01*
X173155225Y-106263496D01*
X173233129Y-106248000D01*
X173406871Y-106248000D01*
X173484775Y-106263496D01*
X173484775Y-106263496D01*
G37*
G36*
X185003581Y-105716293D02*
G01*
X185090520Y-105733586D01*
X185254310Y-105801430D01*
X185254312Y-105801431D01*
X185328013Y-105850677D01*
X185401717Y-105899924D01*
X185527076Y-106025283D01*
X185625570Y-106172690D01*
X185693414Y-106336480D01*
X185728000Y-106510358D01*
X185728000Y-106687642D01*
X185693414Y-106861520D01*
X185625570Y-107025310D01*
X185625569Y-107025312D01*
X185596357Y-107069030D01*
X185527076Y-107172717D01*
X185401717Y-107298076D01*
X185349024Y-107333284D01*
X185254312Y-107396569D01*
X185254311Y-107396570D01*
X185254310Y-107396570D01*
X185090520Y-107464414D01*
X185003581Y-107481707D01*
X184916644Y-107499000D01*
X184739356Y-107499000D01*
X184652419Y-107481707D01*
X184565480Y-107464414D01*
X184401690Y-107396570D01*
X184401689Y-107396570D01*
X184401688Y-107396569D01*
X184306976Y-107333284D01*
X184254283Y-107298076D01*
X184128924Y-107172717D01*
X184059643Y-107069030D01*
X184030431Y-107025312D01*
X184030430Y-107025310D01*
X183962586Y-106861520D01*
X183928000Y-106687642D01*
X183928000Y-106510358D01*
X183962586Y-106336480D01*
X184030430Y-106172690D01*
X184128924Y-106025283D01*
X184254283Y-105899924D01*
X184327987Y-105850677D01*
X184401688Y-105801431D01*
X184401690Y-105801430D01*
X184565480Y-105733586D01*
X184652419Y-105716293D01*
X184739356Y-105699000D01*
X184916644Y-105699000D01*
X185003581Y-105716293D01*
X185003581Y-105716293D01*
G37*
G36*
X159726015Y-106204437D02*
G01*
X159766494Y-106216716D01*
X159803802Y-106236658D01*
X159836504Y-106263496D01*
X159863342Y-106296198D01*
X159883284Y-106333506D01*
X159895563Y-106373985D01*
X159900000Y-106419034D01*
X159900000Y-107130966D01*
X159895563Y-107176015D01*
X159883284Y-107216494D01*
X159863342Y-107253802D01*
X159836504Y-107286504D01*
X159803802Y-107313342D01*
X159766494Y-107333284D01*
X159726015Y-107345563D01*
X159680966Y-107350000D01*
X158719034Y-107350000D01*
X158673985Y-107345563D01*
X158633506Y-107333284D01*
X158596198Y-107313342D01*
X158563496Y-107286504D01*
X158536658Y-107253802D01*
X158516716Y-107216494D01*
X158504437Y-107176015D01*
X158500000Y-107130966D01*
X158500000Y-106419034D01*
X158504437Y-106373985D01*
X158516716Y-106333506D01*
X158536658Y-106296198D01*
X158563496Y-106263496D01*
X158596198Y-106236658D01*
X158633506Y-106216716D01*
X158673985Y-106204437D01*
X158719034Y-106200000D01*
X159680966Y-106200000D01*
X159726015Y-106204437D01*
X159726015Y-106204437D01*
G37*
G36*
X157526015Y-106204437D02*
G01*
X157566494Y-106216716D01*
X157603802Y-106236658D01*
X157636504Y-106263496D01*
X157663342Y-106296198D01*
X157683284Y-106333506D01*
X157695563Y-106373985D01*
X157700000Y-106419034D01*
X157700000Y-107130966D01*
X157695563Y-107176015D01*
X157683284Y-107216494D01*
X157663342Y-107253802D01*
X157636504Y-107286504D01*
X157603802Y-107313342D01*
X157566494Y-107333284D01*
X157526015Y-107345563D01*
X157480966Y-107350000D01*
X156519034Y-107350000D01*
X156473985Y-107345563D01*
X156433506Y-107333284D01*
X156396198Y-107313342D01*
X156363496Y-107286504D01*
X156336658Y-107253802D01*
X156316716Y-107216494D01*
X156304437Y-107176015D01*
X156300000Y-107130966D01*
X156300000Y-106419034D01*
X156304437Y-106373985D01*
X156316716Y-106333506D01*
X156336658Y-106296198D01*
X156363496Y-106263496D01*
X156396198Y-106236658D01*
X156433506Y-106216716D01*
X156473985Y-106204437D01*
X156519034Y-106200000D01*
X157480966Y-106200000D01*
X157526015Y-106204437D01*
X157526015Y-106204437D01*
G37*
G36*
X153172070Y-103724947D02*
G01*
X153257270Y-103741894D01*
X153417784Y-103808381D01*
X153562242Y-103904906D01*
X153685094Y-104027758D01*
X153781619Y-104172216D01*
X153848106Y-104332730D01*
X153882000Y-104503131D01*
X153882000Y-104676869D01*
X153848106Y-104847270D01*
X153781619Y-105007784D01*
X153685094Y-105152242D01*
X153562242Y-105275094D01*
X153417784Y-105371619D01*
X153257270Y-105438106D01*
X153172069Y-105455053D01*
X153086871Y-105472000D01*
X152913129Y-105472000D01*
X152827931Y-105455053D01*
X152742730Y-105438106D01*
X152582216Y-105371619D01*
X152437758Y-105275094D01*
X152314906Y-105152242D01*
X152218381Y-105007784D01*
X152151894Y-104847270D01*
X152118000Y-104676869D01*
X152118000Y-104503131D01*
X152151894Y-104332730D01*
X152218381Y-104172216D01*
X152314906Y-104027758D01*
X152437758Y-103904906D01*
X152582216Y-103808381D01*
X152742730Y-103741894D01*
X152827930Y-103724947D01*
X152913129Y-103708000D01*
X153086871Y-103708000D01*
X153172070Y-103724947D01*
X153172070Y-103724947D01*
G37*
G36*
X173492070Y-103724947D02*
G01*
X173577270Y-103741894D01*
X173737784Y-103808381D01*
X173882242Y-103904906D01*
X174005094Y-104027758D01*
X174101619Y-104172216D01*
X174168106Y-104332730D01*
X174202000Y-104503131D01*
X174202000Y-104676869D01*
X174168106Y-104847270D01*
X174101619Y-105007784D01*
X174005094Y-105152242D01*
X173882242Y-105275094D01*
X173737784Y-105371619D01*
X173577270Y-105438106D01*
X173492069Y-105455053D01*
X173406871Y-105472000D01*
X173233129Y-105472000D01*
X173147931Y-105455053D01*
X173062730Y-105438106D01*
X172902216Y-105371619D01*
X172757758Y-105275094D01*
X172634906Y-105152242D01*
X172538381Y-105007784D01*
X172471894Y-104847270D01*
X172438000Y-104676869D01*
X172438000Y-104503131D01*
X172471894Y-104332730D01*
X172538381Y-104172216D01*
X172634906Y-104027758D01*
X172757758Y-103904906D01*
X172902216Y-103808381D01*
X173062730Y-103741894D01*
X173147930Y-103724947D01*
X173233129Y-103708000D01*
X173406871Y-103708000D01*
X173492070Y-103724947D01*
X173492070Y-103724947D01*
G37*
G36*
X179803581Y-102216293D02*
G01*
X179890520Y-102233586D01*
X180054310Y-102301430D01*
X180054312Y-102301431D01*
X180128013Y-102350677D01*
X180201717Y-102399924D01*
X180327076Y-102525283D01*
X180425570Y-102672690D01*
X180493414Y-102836480D01*
X180528000Y-103010358D01*
X180528000Y-103187642D01*
X180493414Y-103361520D01*
X180425570Y-103525310D01*
X180327076Y-103672717D01*
X180201717Y-103798076D01*
X180186294Y-103808381D01*
X180054312Y-103896569D01*
X180054311Y-103896570D01*
X180054310Y-103896570D01*
X179890520Y-103964414D01*
X179803581Y-103981707D01*
X179716644Y-103999000D01*
X179539356Y-103999000D01*
X179452419Y-103981707D01*
X179365480Y-103964414D01*
X179201690Y-103896570D01*
X179201689Y-103896570D01*
X179201688Y-103896569D01*
X179069706Y-103808381D01*
X179054283Y-103798076D01*
X178928924Y-103672717D01*
X178830430Y-103525310D01*
X178762586Y-103361520D01*
X178728000Y-103187642D01*
X178728000Y-103010358D01*
X178762586Y-102836480D01*
X178830430Y-102672690D01*
X178928924Y-102525283D01*
X179054283Y-102399924D01*
X179127987Y-102350677D01*
X179201688Y-102301431D01*
X179201690Y-102301430D01*
X179365480Y-102233586D01*
X179452419Y-102216293D01*
X179539356Y-102199000D01*
X179716644Y-102199000D01*
X179803581Y-102216293D01*
X179803581Y-102216293D01*
G37*
G36*
X153172070Y-101184947D02*
G01*
X153257270Y-101201894D01*
X153417784Y-101268381D01*
X153562242Y-101364906D01*
X153685094Y-101487758D01*
X153781619Y-101632216D01*
X153848106Y-101792730D01*
X153882000Y-101963131D01*
X153882000Y-102136869D01*
X153848106Y-102307270D01*
X153781619Y-102467784D01*
X153685094Y-102612242D01*
X153562242Y-102735094D01*
X153417784Y-102831619D01*
X153257270Y-102898106D01*
X153172069Y-102915053D01*
X153086871Y-102932000D01*
X152913129Y-102932000D01*
X152827931Y-102915053D01*
X152742730Y-102898106D01*
X152582216Y-102831619D01*
X152437758Y-102735094D01*
X152314906Y-102612242D01*
X152218381Y-102467784D01*
X152151894Y-102307270D01*
X152118000Y-102136869D01*
X152118000Y-101963131D01*
X152151894Y-101792730D01*
X152218381Y-101632216D01*
X152314906Y-101487758D01*
X152437758Y-101364906D01*
X152582216Y-101268381D01*
X152742730Y-101201894D01*
X152827930Y-101184947D01*
X152913129Y-101168000D01*
X153086871Y-101168000D01*
X153172070Y-101184947D01*
X153172070Y-101184947D01*
G37*
G36*
X173492070Y-101184947D02*
G01*
X173577270Y-101201894D01*
X173737784Y-101268381D01*
X173882242Y-101364906D01*
X174005094Y-101487758D01*
X174101619Y-101632216D01*
X174168106Y-101792730D01*
X174202000Y-101963131D01*
X174202000Y-102136869D01*
X174168106Y-102307270D01*
X174101619Y-102467784D01*
X174005094Y-102612242D01*
X173882242Y-102735094D01*
X173737784Y-102831619D01*
X173577270Y-102898106D01*
X173492069Y-102915053D01*
X173406871Y-102932000D01*
X173233129Y-102932000D01*
X173147931Y-102915053D01*
X173062730Y-102898106D01*
X172902216Y-102831619D01*
X172757758Y-102735094D01*
X172634906Y-102612242D01*
X172538381Y-102467784D01*
X172471894Y-102307270D01*
X172438000Y-102136869D01*
X172438000Y-101963131D01*
X172471894Y-101792730D01*
X172538381Y-101632216D01*
X172634906Y-101487758D01*
X172757758Y-101364906D01*
X172902216Y-101268381D01*
X173062730Y-101201894D01*
X173147930Y-101184947D01*
X173233129Y-101168000D01*
X173406871Y-101168000D01*
X173492070Y-101184947D01*
X173492070Y-101184947D01*
G37*
G36*
X153172069Y-98644947D02*
G01*
X153257270Y-98661894D01*
X153417784Y-98728381D01*
X153562242Y-98824906D01*
X153685094Y-98947758D01*
X153781619Y-99092216D01*
X153848106Y-99252730D01*
X153882000Y-99423131D01*
X153882000Y-99596869D01*
X153848106Y-99767270D01*
X153781619Y-99927784D01*
X153685094Y-100072242D01*
X153562242Y-100195094D01*
X153417784Y-100291619D01*
X153257270Y-100358106D01*
X153172069Y-100375053D01*
X153086871Y-100392000D01*
X152913129Y-100392000D01*
X152827930Y-100375053D01*
X152742730Y-100358106D01*
X152582216Y-100291619D01*
X152437758Y-100195094D01*
X152314906Y-100072242D01*
X152218381Y-99927784D01*
X152151894Y-99767270D01*
X152118000Y-99596869D01*
X152118000Y-99423131D01*
X152151894Y-99252730D01*
X152218381Y-99092216D01*
X152314906Y-98947758D01*
X152437758Y-98824906D01*
X152582216Y-98728381D01*
X152742730Y-98661894D01*
X152827930Y-98644947D01*
X152913129Y-98628000D01*
X153086871Y-98628000D01*
X153172069Y-98644947D01*
X153172069Y-98644947D01*
G37*
G36*
X173492069Y-98644947D02*
G01*
X173577270Y-98661894D01*
X173737784Y-98728381D01*
X173882242Y-98824906D01*
X174005094Y-98947758D01*
X174101619Y-99092216D01*
X174168106Y-99252730D01*
X174202000Y-99423131D01*
X174202000Y-99596869D01*
X174168106Y-99767270D01*
X174101619Y-99927784D01*
X174005094Y-100072242D01*
X173882242Y-100195094D01*
X173737784Y-100291619D01*
X173577270Y-100358106D01*
X173492069Y-100375053D01*
X173406871Y-100392000D01*
X173233129Y-100392000D01*
X173147930Y-100375053D01*
X173062730Y-100358106D01*
X172902216Y-100291619D01*
X172757758Y-100195094D01*
X172634906Y-100072242D01*
X172538381Y-99927784D01*
X172471894Y-99767270D01*
X172438000Y-99596869D01*
X172438000Y-99423131D01*
X172471894Y-99252730D01*
X172538381Y-99092216D01*
X172634906Y-98947758D01*
X172757758Y-98824906D01*
X172902216Y-98728381D01*
X173062730Y-98661894D01*
X173147930Y-98644947D01*
X173233129Y-98628000D01*
X173406871Y-98628000D01*
X173492069Y-98644947D01*
X173492069Y-98644947D01*
G37*
G36*
X153172070Y-96104947D02*
G01*
X153257270Y-96121894D01*
X153417784Y-96188381D01*
X153562242Y-96284906D01*
X153685094Y-96407758D01*
X153781619Y-96552216D01*
X153848106Y-96712730D01*
X153865053Y-96797930D01*
X153879954Y-96872842D01*
X153882000Y-96883131D01*
X153882000Y-97056869D01*
X153848106Y-97227270D01*
X153781619Y-97387784D01*
X153685094Y-97532242D01*
X153562242Y-97655094D01*
X153417784Y-97751619D01*
X153257270Y-97818106D01*
X153172069Y-97835053D01*
X153086871Y-97852000D01*
X152913129Y-97852000D01*
X152827931Y-97835053D01*
X152742730Y-97818106D01*
X152582216Y-97751619D01*
X152437758Y-97655094D01*
X152314906Y-97532242D01*
X152218381Y-97387784D01*
X152151894Y-97227270D01*
X152118000Y-97056869D01*
X152118000Y-96883131D01*
X152120047Y-96872842D01*
X152134947Y-96797930D01*
X152151894Y-96712730D01*
X152218381Y-96552216D01*
X152314906Y-96407758D01*
X152437758Y-96284906D01*
X152582216Y-96188381D01*
X152742730Y-96121894D01*
X152827930Y-96104947D01*
X152913129Y-96088000D01*
X153086871Y-96088000D01*
X153172070Y-96104947D01*
X153172070Y-96104947D01*
G37*
G36*
X173492070Y-96104947D02*
G01*
X173577270Y-96121894D01*
X173737784Y-96188381D01*
X173882242Y-96284906D01*
X174005094Y-96407758D01*
X174101619Y-96552216D01*
X174168106Y-96712730D01*
X174185053Y-96797930D01*
X174199954Y-96872842D01*
X174202000Y-96883131D01*
X174202000Y-97056869D01*
X174168106Y-97227270D01*
X174101619Y-97387784D01*
X174005094Y-97532242D01*
X173882242Y-97655094D01*
X173737784Y-97751619D01*
X173577270Y-97818106D01*
X173492069Y-97835053D01*
X173406871Y-97852000D01*
X173233129Y-97852000D01*
X173147931Y-97835053D01*
X173062730Y-97818106D01*
X172902216Y-97751619D01*
X172757758Y-97655094D01*
X172634906Y-97532242D01*
X172538381Y-97387784D01*
X172471894Y-97227270D01*
X172438000Y-97056869D01*
X172438000Y-96883131D01*
X172440047Y-96872842D01*
X172454947Y-96797930D01*
X172471894Y-96712730D01*
X172538381Y-96552216D01*
X172634906Y-96407758D01*
X172757758Y-96284906D01*
X172902216Y-96188381D01*
X173062730Y-96121894D01*
X173147930Y-96104947D01*
X173233129Y-96088000D01*
X173406871Y-96088000D01*
X173492070Y-96104947D01*
X173492070Y-96104947D01*
G37*
G36*
X184753581Y-95901493D02*
G01*
X184840520Y-95918786D01*
X185004310Y-95986630D01*
X185004312Y-95986631D01*
X185078014Y-96035877D01*
X185151717Y-96085124D01*
X185277076Y-96210483D01*
X185375570Y-96357890D01*
X185443414Y-96521680D01*
X185458356Y-96596798D01*
X185478000Y-96695556D01*
X185478000Y-96872844D01*
X185460707Y-96959781D01*
X185443414Y-97046720D01*
X185439209Y-97056871D01*
X185375569Y-97210512D01*
X185326323Y-97284214D01*
X185277076Y-97357917D01*
X185151717Y-97483276D01*
X185078437Y-97532240D01*
X185004312Y-97581769D01*
X185004311Y-97581770D01*
X185004310Y-97581770D01*
X184840520Y-97649614D01*
X184753581Y-97666907D01*
X184666644Y-97684200D01*
X184489356Y-97684200D01*
X184402419Y-97666907D01*
X184315480Y-97649614D01*
X184151690Y-97581770D01*
X184151689Y-97581770D01*
X184151688Y-97581769D01*
X184077563Y-97532240D01*
X184004283Y-97483276D01*
X183878924Y-97357917D01*
X183829677Y-97284214D01*
X183780431Y-97210512D01*
X183716791Y-97056871D01*
X183712586Y-97046720D01*
X183695293Y-96959781D01*
X183678000Y-96872844D01*
X183678000Y-96695556D01*
X183697644Y-96596798D01*
X183712586Y-96521680D01*
X183780430Y-96357890D01*
X183878924Y-96210483D01*
X184004283Y-96085124D01*
X184077986Y-96035877D01*
X184151688Y-95986631D01*
X184151690Y-95986630D01*
X184315480Y-95918786D01*
X184402419Y-95901493D01*
X184489356Y-95884200D01*
X184666644Y-95884200D01*
X184753581Y-95901493D01*
X184753581Y-95901493D01*
G37*
G36*
X162007921Y-95679271D02*
G01*
X162046798Y-95691064D01*
X162082618Y-95710211D01*
X162114019Y-95735981D01*
X162139789Y-95767382D01*
X162158936Y-95803202D01*
X162170729Y-95842079D01*
X162175000Y-95885447D01*
X162175000Y-96514553D01*
X162170729Y-96557921D01*
X162158936Y-96596798D01*
X162139789Y-96632618D01*
X162114019Y-96664019D01*
X162082618Y-96689789D01*
X162046798Y-96708936D01*
X162007921Y-96720729D01*
X161964553Y-96725000D01*
X161435447Y-96725000D01*
X161392079Y-96720729D01*
X161353202Y-96708936D01*
X161317382Y-96689789D01*
X161285981Y-96664019D01*
X161260211Y-96632618D01*
X161241064Y-96596798D01*
X161229271Y-96557921D01*
X161225000Y-96514553D01*
X161225000Y-95885447D01*
X161229271Y-95842079D01*
X161241064Y-95803202D01*
X161260211Y-95767382D01*
X161285981Y-95735981D01*
X161317382Y-95710211D01*
X161353202Y-95691064D01*
X161392079Y-95679271D01*
X161435447Y-95675000D01*
X161964553Y-95675000D01*
X162007921Y-95679271D01*
X162007921Y-95679271D01*
G37*
G36*
X164107921Y-95679271D02*
G01*
X164146798Y-95691064D01*
X164182618Y-95710211D01*
X164214019Y-95735981D01*
X164239789Y-95767382D01*
X164258936Y-95803202D01*
X164270729Y-95842079D01*
X164275000Y-95885447D01*
X164275000Y-96514553D01*
X164270729Y-96557921D01*
X164258936Y-96596798D01*
X164239789Y-96632618D01*
X164214019Y-96664019D01*
X164182618Y-96689789D01*
X164146798Y-96708936D01*
X164107921Y-96720729D01*
X164064553Y-96725000D01*
X163535447Y-96725000D01*
X163492079Y-96720729D01*
X163453202Y-96708936D01*
X163417382Y-96689789D01*
X163385981Y-96664019D01*
X163360211Y-96632618D01*
X163341064Y-96596798D01*
X163329271Y-96557921D01*
X163325000Y-96514553D01*
X163325000Y-95885447D01*
X163329271Y-95842079D01*
X163341064Y-95803202D01*
X163360211Y-95767382D01*
X163385981Y-95735981D01*
X163417382Y-95710211D01*
X163453202Y-95691064D01*
X163492079Y-95679271D01*
X163535447Y-95675000D01*
X164064553Y-95675000D01*
X164107921Y-95679271D01*
X164107921Y-95679271D01*
G37*
G36*
X173492070Y-93564947D02*
G01*
X173577270Y-93581894D01*
X173737784Y-93648381D01*
X173882242Y-93744906D01*
X174005094Y-93867758D01*
X174101619Y-94012216D01*
X174168106Y-94172730D01*
X174202000Y-94343131D01*
X174202000Y-94516869D01*
X174168106Y-94687270D01*
X174101619Y-94847784D01*
X174005094Y-94992242D01*
X173882242Y-95115094D01*
X173737784Y-95211619D01*
X173577270Y-95278106D01*
X173492069Y-95295053D01*
X173406871Y-95312000D01*
X173233129Y-95312000D01*
X173147931Y-95295053D01*
X173062730Y-95278106D01*
X172902216Y-95211619D01*
X172757758Y-95115094D01*
X172634906Y-94992242D01*
X172538381Y-94847784D01*
X172471894Y-94687270D01*
X172438000Y-94516869D01*
X172438000Y-94343131D01*
X172471894Y-94172730D01*
X172538381Y-94012216D01*
X172634906Y-93867758D01*
X172757758Y-93744906D01*
X172902216Y-93648381D01*
X173062730Y-93581894D01*
X173147930Y-93564947D01*
X173233129Y-93548000D01*
X173406871Y-93548000D01*
X173492070Y-93564947D01*
X173492070Y-93564947D01*
G37*
G36*
X153172070Y-93564947D02*
G01*
X153257270Y-93581894D01*
X153417784Y-93648381D01*
X153562242Y-93744906D01*
X153685094Y-93867758D01*
X153781619Y-94012216D01*
X153848106Y-94172730D01*
X153882000Y-94343131D01*
X153882000Y-94516869D01*
X153848106Y-94687270D01*
X153781619Y-94847784D01*
X153685094Y-94992242D01*
X153562242Y-95115094D01*
X153417784Y-95211619D01*
X153257270Y-95278106D01*
X153172069Y-95295053D01*
X153086871Y-95312000D01*
X152913129Y-95312000D01*
X152827931Y-95295053D01*
X152742730Y-95278106D01*
X152582216Y-95211619D01*
X152437758Y-95115094D01*
X152314906Y-94992242D01*
X152218381Y-94847784D01*
X152151894Y-94687270D01*
X152118000Y-94516869D01*
X152118000Y-94343131D01*
X152151894Y-94172730D01*
X152218381Y-94012216D01*
X152314906Y-93867758D01*
X152437758Y-93744906D01*
X152582216Y-93648381D01*
X152742730Y-93581894D01*
X152827930Y-93564947D01*
X152913129Y-93548000D01*
X153086871Y-93548000D01*
X153172070Y-93564947D01*
X153172070Y-93564947D01*
G37*
G36*
X164107921Y-93929271D02*
G01*
X164146798Y-93941064D01*
X164182618Y-93960211D01*
X164214019Y-93985981D01*
X164239789Y-94017382D01*
X164258936Y-94053202D01*
X164270729Y-94092079D01*
X164275000Y-94135447D01*
X164275000Y-94764553D01*
X164270729Y-94807921D01*
X164258936Y-94846798D01*
X164239789Y-94882618D01*
X164214019Y-94914019D01*
X164182618Y-94939789D01*
X164146798Y-94958936D01*
X164107921Y-94970729D01*
X164064553Y-94975000D01*
X163535447Y-94975000D01*
X163492079Y-94970729D01*
X163453202Y-94958936D01*
X163417382Y-94939789D01*
X163385981Y-94914019D01*
X163360211Y-94882618D01*
X163341064Y-94846798D01*
X163329271Y-94807921D01*
X163325000Y-94764553D01*
X163325000Y-94135447D01*
X163329271Y-94092079D01*
X163341064Y-94053202D01*
X163360211Y-94017382D01*
X163385981Y-93985981D01*
X163417382Y-93960211D01*
X163453202Y-93941064D01*
X163492079Y-93929271D01*
X163535447Y-93925000D01*
X164064553Y-93925000D01*
X164107921Y-93929271D01*
X164107921Y-93929271D01*
G37*
G36*
X162007921Y-93929271D02*
G01*
X162046798Y-93941064D01*
X162082618Y-93960211D01*
X162114019Y-93985981D01*
X162139789Y-94017382D01*
X162158936Y-94053202D01*
X162170729Y-94092079D01*
X162175000Y-94135447D01*
X162175000Y-94764553D01*
X162170729Y-94807921D01*
X162158936Y-94846798D01*
X162139789Y-94882618D01*
X162114019Y-94914019D01*
X162082618Y-94939789D01*
X162046798Y-94958936D01*
X162007921Y-94970729D01*
X161964553Y-94975000D01*
X161435447Y-94975000D01*
X161392079Y-94970729D01*
X161353202Y-94958936D01*
X161317382Y-94939789D01*
X161285981Y-94914019D01*
X161260211Y-94882618D01*
X161241064Y-94846798D01*
X161229271Y-94807921D01*
X161225000Y-94764553D01*
X161225000Y-94135447D01*
X161229271Y-94092079D01*
X161241064Y-94053202D01*
X161260211Y-94017382D01*
X161285981Y-93985981D01*
X161317382Y-93960211D01*
X161353202Y-93941064D01*
X161392079Y-93929271D01*
X161435447Y-93925000D01*
X161964553Y-93925000D01*
X162007921Y-93929271D01*
X162007921Y-93929271D01*
G37*
G36*
X179553581Y-92401493D02*
G01*
X179640520Y-92418786D01*
X179804310Y-92486630D01*
X179804312Y-92486631D01*
X179878013Y-92535877D01*
X179951717Y-92585124D01*
X180077076Y-92710483D01*
X180175570Y-92857890D01*
X180243414Y-93021680D01*
X180243414Y-93021682D01*
X180274819Y-93179563D01*
X180278000Y-93195558D01*
X180278000Y-93372842D01*
X180243414Y-93546720D01*
X180201304Y-93648382D01*
X180175569Y-93710512D01*
X180126323Y-93784214D01*
X180077076Y-93857917D01*
X179951717Y-93983276D01*
X179908405Y-94012216D01*
X179804312Y-94081769D01*
X179804311Y-94081770D01*
X179804310Y-94081770D01*
X179640520Y-94149614D01*
X179553581Y-94166907D01*
X179466644Y-94184200D01*
X179289356Y-94184200D01*
X179202419Y-94166907D01*
X179115480Y-94149614D01*
X178951690Y-94081770D01*
X178951689Y-94081770D01*
X178951688Y-94081769D01*
X178847595Y-94012216D01*
X178804283Y-93983276D01*
X178678924Y-93857917D01*
X178629677Y-93784214D01*
X178580431Y-93710512D01*
X178554696Y-93648382D01*
X178512586Y-93546720D01*
X178478000Y-93372842D01*
X178478000Y-93195558D01*
X178481182Y-93179563D01*
X178512586Y-93021682D01*
X178512586Y-93021680D01*
X178580430Y-92857890D01*
X178678924Y-92710483D01*
X178804283Y-92585124D01*
X178877987Y-92535877D01*
X178951688Y-92486631D01*
X178951690Y-92486630D01*
X179115480Y-92418786D01*
X179202419Y-92401493D01*
X179289356Y-92384200D01*
X179466644Y-92384200D01*
X179553581Y-92401493D01*
X179553581Y-92401493D01*
G37*
G36*
X158557921Y-93179271D02*
G01*
X158596798Y-93191064D01*
X158632618Y-93210211D01*
X158664019Y-93235981D01*
X158689789Y-93267382D01*
X158708936Y-93303202D01*
X158720729Y-93342079D01*
X158725000Y-93385447D01*
X158725000Y-93914553D01*
X158720729Y-93957921D01*
X158708936Y-93996798D01*
X158689789Y-94032618D01*
X158664019Y-94064019D01*
X158632618Y-94089789D01*
X158596798Y-94108936D01*
X158557921Y-94120729D01*
X158514553Y-94125000D01*
X157885447Y-94125000D01*
X157842079Y-94120729D01*
X157803202Y-94108936D01*
X157767382Y-94089789D01*
X157735981Y-94064019D01*
X157710211Y-94032618D01*
X157691064Y-93996798D01*
X157679271Y-93957921D01*
X157675000Y-93914553D01*
X157675000Y-93385447D01*
X157679271Y-93342079D01*
X157691064Y-93303202D01*
X157710211Y-93267382D01*
X157735981Y-93235981D01*
X157767382Y-93210211D01*
X157803202Y-93191064D01*
X157842079Y-93179271D01*
X157885447Y-93175000D01*
X158514553Y-93175000D01*
X158557921Y-93179271D01*
X158557921Y-93179271D01*
G37*
G36*
X160307921Y-93179271D02*
G01*
X160346798Y-93191064D01*
X160382618Y-93210211D01*
X160414019Y-93235981D01*
X160439789Y-93267382D01*
X160458936Y-93303202D01*
X160470729Y-93342079D01*
X160475000Y-93385447D01*
X160475000Y-93914553D01*
X160470729Y-93957921D01*
X160458936Y-93996798D01*
X160439789Y-94032618D01*
X160414019Y-94064019D01*
X160382618Y-94089789D01*
X160346798Y-94108936D01*
X160307921Y-94120729D01*
X160264553Y-94125000D01*
X159635447Y-94125000D01*
X159592079Y-94120729D01*
X159553202Y-94108936D01*
X159517382Y-94089789D01*
X159485981Y-94064019D01*
X159460211Y-94032618D01*
X159441064Y-93996798D01*
X159429271Y-93957921D01*
X159425000Y-93914553D01*
X159425000Y-93385447D01*
X159429271Y-93342079D01*
X159441064Y-93303202D01*
X159460211Y-93267382D01*
X159485981Y-93235981D01*
X159517382Y-93210211D01*
X159553202Y-93191064D01*
X159592079Y-93179271D01*
X159635447Y-93175000D01*
X160264553Y-93175000D01*
X160307921Y-93179271D01*
X160307921Y-93179271D01*
G37*
G36*
X153172070Y-91024947D02*
G01*
X153257270Y-91041894D01*
X153417784Y-91108381D01*
X153562242Y-91204906D01*
X153685094Y-91327758D01*
X153781619Y-91472216D01*
X153848106Y-91632730D01*
X153882000Y-91803131D01*
X153882000Y-91976869D01*
X153848106Y-92147270D01*
X153781619Y-92307784D01*
X153685094Y-92452242D01*
X153562242Y-92575094D01*
X153417784Y-92671619D01*
X153257270Y-92738106D01*
X153172069Y-92755053D01*
X153086871Y-92772000D01*
X152913129Y-92772000D01*
X152827931Y-92755053D01*
X152742730Y-92738106D01*
X152582216Y-92671619D01*
X152437758Y-92575094D01*
X152314906Y-92452242D01*
X152218381Y-92307784D01*
X152151894Y-92147270D01*
X152118000Y-91976869D01*
X152118000Y-91803131D01*
X152151894Y-91632730D01*
X152218381Y-91472216D01*
X152314906Y-91327758D01*
X152437758Y-91204906D01*
X152582216Y-91108381D01*
X152742730Y-91041894D01*
X152827930Y-91024947D01*
X152913129Y-91008000D01*
X153086871Y-91008000D01*
X153172070Y-91024947D01*
X153172070Y-91024947D01*
G37*
G36*
X173492070Y-91024947D02*
G01*
X173577270Y-91041894D01*
X173737784Y-91108381D01*
X173882242Y-91204906D01*
X174005094Y-91327758D01*
X174101619Y-91472216D01*
X174168106Y-91632730D01*
X174202000Y-91803131D01*
X174202000Y-91976869D01*
X174168106Y-92147270D01*
X174101619Y-92307784D01*
X174005094Y-92452242D01*
X173882242Y-92575094D01*
X173737784Y-92671619D01*
X173577270Y-92738106D01*
X173492069Y-92755053D01*
X173406871Y-92772000D01*
X173233129Y-92772000D01*
X173147931Y-92755053D01*
X173062730Y-92738106D01*
X172902216Y-92671619D01*
X172757758Y-92575094D01*
X172634906Y-92452242D01*
X172538381Y-92307784D01*
X172471894Y-92147270D01*
X172438000Y-91976869D01*
X172438000Y-91803131D01*
X172471894Y-91632730D01*
X172538381Y-91472216D01*
X172634906Y-91327758D01*
X172757758Y-91204906D01*
X172902216Y-91108381D01*
X173062730Y-91041894D01*
X173147930Y-91024947D01*
X173233129Y-91008000D01*
X173406871Y-91008000D01*
X173492070Y-91024947D01*
X173492070Y-91024947D01*
G37*
G36*
X165000000Y-92375000D02*
G01*
X164550000Y-92375000D01*
X164550000Y-90625000D01*
X165000000Y-90625000D01*
X165000000Y-92375000D01*
X165000000Y-92375000D01*
G37*
G36*
X163050000Y-92375000D02*
G01*
X162600000Y-92375000D01*
X162600000Y-90625000D01*
X163050000Y-90625000D01*
X163050000Y-92375000D01*
X163050000Y-92375000D01*
G37*
G36*
X161750000Y-92375000D02*
G01*
X161300000Y-92375000D01*
X161300000Y-90625000D01*
X161750000Y-90625000D01*
X161750000Y-92375000D01*
X161750000Y-92375000D01*
G37*
G36*
X165650000Y-92375000D02*
G01*
X165200000Y-92375000D01*
X165200000Y-90625000D01*
X165650000Y-90625000D01*
X165650000Y-92375000D01*
X165650000Y-92375000D01*
G37*
G36*
X163700000Y-92375000D02*
G01*
X163250000Y-92375000D01*
X163250000Y-90625000D01*
X163700000Y-90625000D01*
X163700000Y-92375000D01*
X163700000Y-92375000D01*
G37*
G36*
X161100000Y-92375000D02*
G01*
X160650000Y-92375000D01*
X160650000Y-90625000D01*
X161100000Y-90625000D01*
X161100000Y-92375000D01*
X161100000Y-92375000D01*
G37*
G36*
X162400000Y-92375000D02*
G01*
X161950000Y-92375000D01*
X161950000Y-90625000D01*
X162400000Y-90625000D01*
X162400000Y-92375000D01*
X162400000Y-92375000D01*
G37*
G36*
X166950000Y-92375000D02*
G01*
X166500000Y-92375000D01*
X166500000Y-90625000D01*
X166950000Y-90625000D01*
X166950000Y-92375000D01*
X166950000Y-92375000D01*
G37*
G36*
X168250000Y-92375000D02*
G01*
X167800000Y-92375000D01*
X167800000Y-90625000D01*
X168250000Y-90625000D01*
X168250000Y-92375000D01*
X168250000Y-92375000D01*
G37*
G36*
X168900000Y-92375000D02*
G01*
X168450000Y-92375000D01*
X168450000Y-90625000D01*
X168900000Y-90625000D01*
X168900000Y-92375000D01*
X168900000Y-92375000D01*
G37*
G36*
X167600000Y-92375000D02*
G01*
X167150000Y-92375000D01*
X167150000Y-90625000D01*
X167600000Y-90625000D01*
X167600000Y-92375000D01*
X167600000Y-92375000D01*
G37*
G36*
X164350000Y-92375000D02*
G01*
X163900000Y-92375000D01*
X163900000Y-90625000D01*
X164350000Y-90625000D01*
X164350000Y-92375000D01*
X164350000Y-92375000D01*
G37*
G36*
X169550000Y-92375000D02*
G01*
X169100000Y-92375000D01*
X169100000Y-90625000D01*
X169550000Y-90625000D01*
X169550000Y-92375000D01*
X169550000Y-92375000D01*
G37*
G36*
X166300000Y-92375000D02*
G01*
X165850000Y-92375000D01*
X165850000Y-90625000D01*
X166300000Y-90625000D01*
X166300000Y-92375000D01*
X166300000Y-92375000D01*
G37*
G36*
X158457921Y-90929271D02*
G01*
X158496798Y-90941064D01*
X158532618Y-90960211D01*
X158564019Y-90985981D01*
X158589789Y-91017382D01*
X158608936Y-91053202D01*
X158620729Y-91092079D01*
X158625000Y-91135447D01*
X158625000Y-91764553D01*
X158620729Y-91807921D01*
X158608936Y-91846798D01*
X158589789Y-91882618D01*
X158564019Y-91914019D01*
X158532618Y-91939789D01*
X158496798Y-91958936D01*
X158457921Y-91970729D01*
X158414553Y-91975000D01*
X157885447Y-91975000D01*
X157842079Y-91970729D01*
X157803202Y-91958936D01*
X157767382Y-91939789D01*
X157735981Y-91914019D01*
X157710211Y-91882618D01*
X157691064Y-91846798D01*
X157679271Y-91807921D01*
X157675000Y-91764553D01*
X157675000Y-91135447D01*
X157679271Y-91092079D01*
X157691064Y-91053202D01*
X157710211Y-91017382D01*
X157735981Y-90985981D01*
X157767382Y-90960211D01*
X157803202Y-90941064D01*
X157842079Y-90929271D01*
X157885447Y-90925000D01*
X158414553Y-90925000D01*
X158457921Y-90929271D01*
X158457921Y-90929271D01*
G37*
G36*
X184753581Y-88901493D02*
G01*
X184840520Y-88918786D01*
X185004310Y-88986630D01*
X185004312Y-88986631D01*
X185078013Y-89035877D01*
X185151717Y-89085124D01*
X185277076Y-89210483D01*
X185326323Y-89284187D01*
X185365006Y-89342079D01*
X185375570Y-89357890D01*
X185443414Y-89521680D01*
X185443414Y-89521682D01*
X185478000Y-89695556D01*
X185478000Y-89872844D01*
X185470163Y-89912242D01*
X185443414Y-90046720D01*
X185375570Y-90210510D01*
X185277076Y-90357917D01*
X185151717Y-90483276D01*
X185078013Y-90532523D01*
X185004312Y-90581769D01*
X185004311Y-90581770D01*
X185004310Y-90581770D01*
X184840520Y-90649614D01*
X184753581Y-90666907D01*
X184666644Y-90684200D01*
X184489356Y-90684200D01*
X184402419Y-90666907D01*
X184315480Y-90649614D01*
X184151690Y-90581770D01*
X184151689Y-90581770D01*
X184151688Y-90581769D01*
X184077986Y-90532523D01*
X184004283Y-90483276D01*
X183878924Y-90357917D01*
X183780430Y-90210510D01*
X183712586Y-90046720D01*
X183685837Y-89912242D01*
X183678000Y-89872844D01*
X183678000Y-89695556D01*
X183712586Y-89521682D01*
X183712586Y-89521680D01*
X183780430Y-89357890D01*
X183790995Y-89342079D01*
X183829677Y-89284187D01*
X183878924Y-89210483D01*
X184004283Y-89085124D01*
X184077987Y-89035877D01*
X184151688Y-88986631D01*
X184151690Y-88986630D01*
X184315480Y-88918786D01*
X184402419Y-88901493D01*
X184489356Y-88884200D01*
X184666644Y-88884200D01*
X184753581Y-88901493D01*
X184753581Y-88901493D01*
G37*
G36*
X173492070Y-88484947D02*
G01*
X173577270Y-88501894D01*
X173737784Y-88568381D01*
X173882242Y-88664906D01*
X174005094Y-88787758D01*
X174101619Y-88932216D01*
X174168106Y-89092730D01*
X174168106Y-89092732D01*
X174198307Y-89244562D01*
X174202000Y-89263131D01*
X174202000Y-89436869D01*
X174168106Y-89607270D01*
X174101619Y-89767784D01*
X174005094Y-89912242D01*
X173882242Y-90035094D01*
X173737784Y-90131619D01*
X173577270Y-90198106D01*
X173514909Y-90210510D01*
X173406871Y-90232000D01*
X173233129Y-90232000D01*
X173125091Y-90210510D01*
X173062730Y-90198106D01*
X172902216Y-90131619D01*
X172757758Y-90035094D01*
X172634906Y-89912242D01*
X172538381Y-89767784D01*
X172471894Y-89607270D01*
X172438000Y-89436869D01*
X172438000Y-89263131D01*
X172441694Y-89244562D01*
X172471894Y-89092732D01*
X172471894Y-89092730D01*
X172538381Y-88932216D01*
X172634906Y-88787758D01*
X172757758Y-88664906D01*
X172902216Y-88568381D01*
X173062730Y-88501894D01*
X173147930Y-88484947D01*
X173233129Y-88468000D01*
X173406871Y-88468000D01*
X173492070Y-88484947D01*
X173492070Y-88484947D01*
G37*
G36*
X153172070Y-88484947D02*
G01*
X153257270Y-88501894D01*
X153417784Y-88568381D01*
X153562242Y-88664906D01*
X153685094Y-88787758D01*
X153781619Y-88932216D01*
X153848106Y-89092730D01*
X153848106Y-89092732D01*
X153878307Y-89244562D01*
X153882000Y-89263131D01*
X153882000Y-89436869D01*
X153848106Y-89607270D01*
X153781619Y-89767784D01*
X153685094Y-89912242D01*
X153562242Y-90035094D01*
X153417784Y-90131619D01*
X153257270Y-90198106D01*
X153194909Y-90210510D01*
X153086871Y-90232000D01*
X152913129Y-90232000D01*
X152805091Y-90210510D01*
X152742730Y-90198106D01*
X152582216Y-90131619D01*
X152437758Y-90035094D01*
X152314906Y-89912242D01*
X152218381Y-89767784D01*
X152151894Y-89607270D01*
X152118000Y-89436869D01*
X152118000Y-89263131D01*
X152121694Y-89244562D01*
X152151894Y-89092732D01*
X152151894Y-89092730D01*
X152218381Y-88932216D01*
X152314906Y-88787758D01*
X152437758Y-88664906D01*
X152582216Y-88568381D01*
X152742730Y-88501894D01*
X152827930Y-88484947D01*
X152913129Y-88468000D01*
X153086871Y-88468000D01*
X153172070Y-88484947D01*
X153172070Y-88484947D01*
G37*
G36*
X158457921Y-89179271D02*
G01*
X158496798Y-89191064D01*
X158532618Y-89210211D01*
X158564019Y-89235981D01*
X158589789Y-89267382D01*
X158608936Y-89303202D01*
X158620729Y-89342079D01*
X158625000Y-89385447D01*
X158625000Y-90014553D01*
X158620729Y-90057921D01*
X158608936Y-90096798D01*
X158589789Y-90132618D01*
X158564019Y-90164019D01*
X158532618Y-90189789D01*
X158496798Y-90208936D01*
X158457921Y-90220729D01*
X158414553Y-90225000D01*
X157885447Y-90225000D01*
X157842079Y-90220729D01*
X157803202Y-90208936D01*
X157767382Y-90189789D01*
X157735981Y-90164019D01*
X157710211Y-90132618D01*
X157691064Y-90096798D01*
X157679271Y-90057921D01*
X157675000Y-90014553D01*
X157675000Y-89385447D01*
X157679271Y-89342079D01*
X157691064Y-89303202D01*
X157710211Y-89267382D01*
X157735981Y-89235981D01*
X157767382Y-89210211D01*
X157803202Y-89191064D01*
X157842079Y-89179271D01*
X157885447Y-89175000D01*
X158414553Y-89175000D01*
X158457921Y-89179271D01*
X158457921Y-89179271D01*
G37*
G36*
X173492070Y-85944947D02*
G01*
X173577270Y-85961894D01*
X173737784Y-86028381D01*
X173882242Y-86124906D01*
X174005094Y-86247758D01*
X174101619Y-86392216D01*
X174168106Y-86552730D01*
X174202000Y-86723131D01*
X174202000Y-86896869D01*
X174168106Y-87067270D01*
X174101619Y-87227784D01*
X174005094Y-87372242D01*
X173882242Y-87495094D01*
X173737784Y-87591619D01*
X173577270Y-87658106D01*
X173492069Y-87675053D01*
X173406871Y-87692000D01*
X173233129Y-87692000D01*
X173147931Y-87675053D01*
X173062730Y-87658106D01*
X172902216Y-87591619D01*
X172757758Y-87495094D01*
X172634906Y-87372242D01*
X172538381Y-87227784D01*
X172471894Y-87067270D01*
X172438000Y-86896869D01*
X172438000Y-86723131D01*
X172471894Y-86552730D01*
X172538381Y-86392216D01*
X172634906Y-86247758D01*
X172757758Y-86124906D01*
X172902216Y-86028381D01*
X173062730Y-85961894D01*
X173147930Y-85944947D01*
X173233129Y-85928000D01*
X173406871Y-85928000D01*
X173492070Y-85944947D01*
X173492070Y-85944947D01*
G37*
G36*
X153172070Y-85944947D02*
G01*
X153257270Y-85961894D01*
X153417784Y-86028381D01*
X153562242Y-86124906D01*
X153685094Y-86247758D01*
X153781619Y-86392216D01*
X153848106Y-86552730D01*
X153882000Y-86723131D01*
X153882000Y-86896869D01*
X153848106Y-87067270D01*
X153781619Y-87227784D01*
X153685094Y-87372242D01*
X153562242Y-87495094D01*
X153417784Y-87591619D01*
X153257270Y-87658106D01*
X153172069Y-87675053D01*
X153086871Y-87692000D01*
X152913129Y-87692000D01*
X152827931Y-87675053D01*
X152742730Y-87658106D01*
X152582216Y-87591619D01*
X152437758Y-87495094D01*
X152314906Y-87372242D01*
X152218381Y-87227784D01*
X152151894Y-87067270D01*
X152118000Y-86896869D01*
X152118000Y-86723131D01*
X152151894Y-86552730D01*
X152218381Y-86392216D01*
X152314906Y-86247758D01*
X152437758Y-86124906D01*
X152582216Y-86028381D01*
X152742730Y-85961894D01*
X152827930Y-85944947D01*
X152913129Y-85928000D01*
X153086871Y-85928000D01*
X153172070Y-85944947D01*
X153172070Y-85944947D01*
G37*
G36*
X179553581Y-85401493D02*
G01*
X179640520Y-85418786D01*
X179800884Y-85485211D01*
X179804312Y-85486631D01*
X179840754Y-85510981D01*
X179951717Y-85585124D01*
X180077076Y-85710483D01*
X180175570Y-85857890D01*
X180243414Y-86021680D01*
X180243414Y-86021682D01*
X180278000Y-86195556D01*
X180278000Y-86372844D01*
X180271083Y-86407618D01*
X180243414Y-86546720D01*
X180175570Y-86710510D01*
X180175569Y-86710512D01*
X180167137Y-86723131D01*
X180077076Y-86857917D01*
X179951717Y-86983276D01*
X179878014Y-87032523D01*
X179804312Y-87081769D01*
X179804311Y-87081770D01*
X179804310Y-87081770D01*
X179640520Y-87149614D01*
X179553581Y-87166907D01*
X179466644Y-87184200D01*
X179289356Y-87184200D01*
X179202419Y-87166907D01*
X179115480Y-87149614D01*
X178951690Y-87081770D01*
X178951689Y-87081770D01*
X178951688Y-87081769D01*
X178877986Y-87032523D01*
X178804283Y-86983276D01*
X178678924Y-86857917D01*
X178588863Y-86723131D01*
X178580431Y-86710512D01*
X178580430Y-86710510D01*
X178512586Y-86546720D01*
X178484917Y-86407618D01*
X178478000Y-86372844D01*
X178478000Y-86195556D01*
X178512586Y-86021682D01*
X178512586Y-86021680D01*
X178580430Y-85857890D01*
X178678924Y-85710483D01*
X178804283Y-85585124D01*
X178915246Y-85510981D01*
X178951688Y-85486631D01*
X178955116Y-85485211D01*
X179115480Y-85418786D01*
X179202419Y-85401493D01*
X179289356Y-85384200D01*
X179466644Y-85384200D01*
X179553581Y-85401493D01*
X179553581Y-85401493D01*
G37*
G36*
X171507921Y-85454271D02*
G01*
X171546798Y-85466064D01*
X171582618Y-85485211D01*
X171614019Y-85510981D01*
X171639789Y-85542382D01*
X171658936Y-85578202D01*
X171670729Y-85617079D01*
X171675000Y-85660447D01*
X171675000Y-86289553D01*
X171670729Y-86332921D01*
X171658936Y-86371798D01*
X171639789Y-86407618D01*
X171614019Y-86439019D01*
X171582618Y-86464789D01*
X171546798Y-86483936D01*
X171507921Y-86495729D01*
X171464553Y-86500000D01*
X170935447Y-86500000D01*
X170892079Y-86495729D01*
X170853202Y-86483936D01*
X170817382Y-86464789D01*
X170785981Y-86439019D01*
X170760211Y-86407618D01*
X170741064Y-86371798D01*
X170729271Y-86332921D01*
X170725000Y-86289553D01*
X170725000Y-85660447D01*
X170729271Y-85617079D01*
X170741064Y-85578202D01*
X170760211Y-85542382D01*
X170785981Y-85510981D01*
X170817382Y-85485211D01*
X170853202Y-85466064D01*
X170892079Y-85454271D01*
X170935447Y-85450000D01*
X171464553Y-85450000D01*
X171507921Y-85454271D01*
X171507921Y-85454271D01*
G37*
G36*
X158457921Y-85454271D02*
G01*
X158496798Y-85466064D01*
X158532618Y-85485211D01*
X158564019Y-85510981D01*
X158589789Y-85542382D01*
X158608936Y-85578202D01*
X158620729Y-85617079D01*
X158625000Y-85660447D01*
X158625000Y-86289553D01*
X158620729Y-86332921D01*
X158608936Y-86371798D01*
X158589789Y-86407618D01*
X158564019Y-86439019D01*
X158532618Y-86464789D01*
X158496798Y-86483936D01*
X158457921Y-86495729D01*
X158414553Y-86500000D01*
X157885447Y-86500000D01*
X157842079Y-86495729D01*
X157803202Y-86483936D01*
X157767382Y-86464789D01*
X157735981Y-86439019D01*
X157710211Y-86407618D01*
X157691064Y-86371798D01*
X157679271Y-86332921D01*
X157675000Y-86289553D01*
X157675000Y-85660447D01*
X157679271Y-85617079D01*
X157691064Y-85578202D01*
X157710211Y-85542382D01*
X157735981Y-85510981D01*
X157767382Y-85485211D01*
X157803202Y-85466064D01*
X157842079Y-85454271D01*
X157885447Y-85450000D01*
X158414553Y-85450000D01*
X158457921Y-85454271D01*
X158457921Y-85454271D01*
G37*
G36*
X166300000Y-85175000D02*
G01*
X165850000Y-85175000D01*
X165850000Y-83425000D01*
X166300000Y-83425000D01*
X166300000Y-85175000D01*
X166300000Y-85175000D01*
G37*
G36*
X162400000Y-85175000D02*
G01*
X161950000Y-85175000D01*
X161950000Y-83425000D01*
X162400000Y-83425000D01*
X162400000Y-85175000D01*
X162400000Y-85175000D01*
G37*
G36*
X161100000Y-85175000D02*
G01*
X160650000Y-85175000D01*
X160650000Y-83425000D01*
X161100000Y-83425000D01*
X161100000Y-85175000D01*
X161100000Y-85175000D01*
G37*
G36*
X163050000Y-85175000D02*
G01*
X162600000Y-85175000D01*
X162600000Y-83425000D01*
X163050000Y-83425000D01*
X163050000Y-85175000D01*
X163050000Y-85175000D01*
G37*
G36*
X168250000Y-85175000D02*
G01*
X167800000Y-85175000D01*
X167800000Y-83425000D01*
X168250000Y-83425000D01*
X168250000Y-85175000D01*
X168250000Y-85175000D01*
G37*
G36*
X169550000Y-85175000D02*
G01*
X169100000Y-85175000D01*
X169100000Y-83425000D01*
X169550000Y-83425000D01*
X169550000Y-85175000D01*
X169550000Y-85175000D01*
G37*
G36*
X161750000Y-85175000D02*
G01*
X161300000Y-85175000D01*
X161300000Y-83425000D01*
X161750000Y-83425000D01*
X161750000Y-85175000D01*
X161750000Y-85175000D01*
G37*
G36*
X166950000Y-85175000D02*
G01*
X166500000Y-85175000D01*
X166500000Y-83425000D01*
X166950000Y-83425000D01*
X166950000Y-85175000D01*
X166950000Y-85175000D01*
G37*
G36*
X165000000Y-85175000D02*
G01*
X164550000Y-85175000D01*
X164550000Y-83425000D01*
X165000000Y-83425000D01*
X165000000Y-85175000D01*
X165000000Y-85175000D01*
G37*
G36*
X165650000Y-85175000D02*
G01*
X165200000Y-85175000D01*
X165200000Y-83425000D01*
X165650000Y-83425000D01*
X165650000Y-85175000D01*
X165650000Y-85175000D01*
G37*
G36*
X164350000Y-85175000D02*
G01*
X163900000Y-85175000D01*
X163900000Y-83425000D01*
X164350000Y-83425000D01*
X164350000Y-85175000D01*
X164350000Y-85175000D01*
G37*
G36*
X168900000Y-85175000D02*
G01*
X168450000Y-85175000D01*
X168450000Y-83425000D01*
X168900000Y-83425000D01*
X168900000Y-85175000D01*
X168900000Y-85175000D01*
G37*
G36*
X167600000Y-85175000D02*
G01*
X167150000Y-85175000D01*
X167150000Y-83425000D01*
X167600000Y-83425000D01*
X167600000Y-85175000D01*
X167600000Y-85175000D01*
G37*
G36*
X163700000Y-85175000D02*
G01*
X163250000Y-85175000D01*
X163250000Y-83425000D01*
X163700000Y-83425000D01*
X163700000Y-85175000D01*
X163700000Y-85175000D01*
G37*
G36*
X173492070Y-83404947D02*
G01*
X173577270Y-83421894D01*
X173737784Y-83488381D01*
X173882242Y-83584906D01*
X174005094Y-83707758D01*
X174101619Y-83852216D01*
X174168106Y-84012730D01*
X174202000Y-84183131D01*
X174202000Y-84356869D01*
X174168106Y-84527270D01*
X174101619Y-84687784D01*
X174005094Y-84832242D01*
X173882242Y-84955094D01*
X173737784Y-85051619D01*
X173577270Y-85118106D01*
X173492069Y-85135053D01*
X173406871Y-85152000D01*
X173233129Y-85152000D01*
X173147931Y-85135053D01*
X173062730Y-85118106D01*
X172902216Y-85051619D01*
X172757758Y-84955094D01*
X172634906Y-84832242D01*
X172538381Y-84687784D01*
X172471894Y-84527270D01*
X172438000Y-84356869D01*
X172438000Y-84183131D01*
X172471894Y-84012730D01*
X172538381Y-83852216D01*
X172634906Y-83707758D01*
X172757758Y-83584906D01*
X172902216Y-83488381D01*
X173062730Y-83421894D01*
X173147930Y-83404947D01*
X173233129Y-83388000D01*
X173406871Y-83388000D01*
X173492070Y-83404947D01*
X173492070Y-83404947D01*
G37*
G36*
X153172070Y-83404947D02*
G01*
X153257270Y-83421894D01*
X153417784Y-83488381D01*
X153562242Y-83584906D01*
X153685094Y-83707758D01*
X153781619Y-83852216D01*
X153848106Y-84012730D01*
X153882000Y-84183131D01*
X153882000Y-84356869D01*
X153848106Y-84527270D01*
X153781619Y-84687784D01*
X153685094Y-84832242D01*
X153562242Y-84955094D01*
X153417784Y-85051619D01*
X153257270Y-85118106D01*
X153172069Y-85135053D01*
X153086871Y-85152000D01*
X152913129Y-85152000D01*
X152827931Y-85135053D01*
X152742730Y-85118106D01*
X152582216Y-85051619D01*
X152437758Y-84955094D01*
X152314906Y-84832242D01*
X152218381Y-84687784D01*
X152151894Y-84527270D01*
X152118000Y-84356869D01*
X152118000Y-84183131D01*
X152151894Y-84012730D01*
X152218381Y-83852216D01*
X152314906Y-83707758D01*
X152437758Y-83584906D01*
X152582216Y-83488381D01*
X152742730Y-83421894D01*
X152827930Y-83404947D01*
X152913129Y-83388000D01*
X153086871Y-83388000D01*
X153172070Y-83404947D01*
X153172070Y-83404947D01*
G37*
G36*
X158457921Y-83704271D02*
G01*
X158496798Y-83716064D01*
X158532618Y-83735211D01*
X158564019Y-83760981D01*
X158589789Y-83792382D01*
X158608936Y-83828202D01*
X158620729Y-83867079D01*
X158625000Y-83910447D01*
X158625000Y-84539553D01*
X158620729Y-84582921D01*
X158608936Y-84621798D01*
X158589789Y-84657618D01*
X158564019Y-84689019D01*
X158532618Y-84714789D01*
X158496798Y-84733936D01*
X158457921Y-84745729D01*
X158414553Y-84750000D01*
X157885447Y-84750000D01*
X157842079Y-84745729D01*
X157803202Y-84733936D01*
X157767382Y-84714789D01*
X157735981Y-84689019D01*
X157710211Y-84657618D01*
X157691064Y-84621798D01*
X157679271Y-84582921D01*
X157675000Y-84539553D01*
X157675000Y-83910447D01*
X157679271Y-83867079D01*
X157691064Y-83828202D01*
X157710211Y-83792382D01*
X157735981Y-83760981D01*
X157767382Y-83735211D01*
X157803202Y-83716064D01*
X157842079Y-83704271D01*
X157885447Y-83700000D01*
X158414553Y-83700000D01*
X158457921Y-83704271D01*
X158457921Y-83704271D01*
G37*
G36*
X171507921Y-83704271D02*
G01*
X171546798Y-83716064D01*
X171582618Y-83735211D01*
X171614019Y-83760981D01*
X171639789Y-83792382D01*
X171658936Y-83828202D01*
X171670729Y-83867079D01*
X171675000Y-83910447D01*
X171675000Y-84539553D01*
X171670729Y-84582921D01*
X171658936Y-84621798D01*
X171639789Y-84657618D01*
X171614019Y-84689019D01*
X171582618Y-84714789D01*
X171546798Y-84733936D01*
X171507921Y-84745729D01*
X171464553Y-84750000D01*
X170935447Y-84750000D01*
X170892079Y-84745729D01*
X170853202Y-84733936D01*
X170817382Y-84714789D01*
X170785981Y-84689019D01*
X170760211Y-84657618D01*
X170741064Y-84621798D01*
X170729271Y-84582921D01*
X170725000Y-84539553D01*
X170725000Y-83910447D01*
X170729271Y-83867079D01*
X170741064Y-83828202D01*
X170760211Y-83792382D01*
X170785981Y-83760981D01*
X170817382Y-83735211D01*
X170853202Y-83716064D01*
X170892079Y-83704271D01*
X170935447Y-83700000D01*
X171464553Y-83700000D01*
X171507921Y-83704271D01*
X171507921Y-83704271D01*
G37*
G36*
X160307921Y-81679271D02*
G01*
X160346798Y-81691064D01*
X160382618Y-81710211D01*
X160414019Y-81735981D01*
X160439789Y-81767382D01*
X160458936Y-81803202D01*
X160470729Y-81842079D01*
X160475000Y-81885447D01*
X160475000Y-82414553D01*
X160470729Y-82457921D01*
X160458936Y-82496798D01*
X160439789Y-82532618D01*
X160414019Y-82564019D01*
X160382618Y-82589789D01*
X160346798Y-82608936D01*
X160307921Y-82620729D01*
X160264553Y-82625000D01*
X159635447Y-82625000D01*
X159592079Y-82620729D01*
X159553202Y-82608936D01*
X159517382Y-82589789D01*
X159485981Y-82564019D01*
X159460211Y-82532618D01*
X159441064Y-82496798D01*
X159429271Y-82457921D01*
X159425000Y-82414553D01*
X159425000Y-81885447D01*
X159429271Y-81842079D01*
X159441064Y-81803202D01*
X159460211Y-81767382D01*
X159485981Y-81735981D01*
X159517382Y-81710211D01*
X159553202Y-81691064D01*
X159592079Y-81679271D01*
X159635447Y-81675000D01*
X160264553Y-81675000D01*
X160307921Y-81679271D01*
X160307921Y-81679271D01*
G37*
G36*
X158557921Y-81679271D02*
G01*
X158596798Y-81691064D01*
X158632618Y-81710211D01*
X158664019Y-81735981D01*
X158689789Y-81767382D01*
X158708936Y-81803202D01*
X158720729Y-81842079D01*
X158725000Y-81885447D01*
X158725000Y-82414553D01*
X158720729Y-82457921D01*
X158708936Y-82496798D01*
X158689789Y-82532618D01*
X158664019Y-82564019D01*
X158632618Y-82589789D01*
X158596798Y-82608936D01*
X158557921Y-82620729D01*
X158514553Y-82625000D01*
X157885447Y-82625000D01*
X157842079Y-82620729D01*
X157803202Y-82608936D01*
X157767382Y-82589789D01*
X157735981Y-82564019D01*
X157710211Y-82532618D01*
X157691064Y-82496798D01*
X157679271Y-82457921D01*
X157675000Y-82414553D01*
X157675000Y-81885447D01*
X157679271Y-81842079D01*
X157691064Y-81803202D01*
X157710211Y-81767382D01*
X157735981Y-81735981D01*
X157767382Y-81710211D01*
X157803202Y-81691064D01*
X157842079Y-81679271D01*
X157885447Y-81675000D01*
X158514553Y-81675000D01*
X158557921Y-81679271D01*
X158557921Y-81679271D01*
G37*
G36*
X153172070Y-80864947D02*
G01*
X153257270Y-80881894D01*
X153417784Y-80948381D01*
X153562242Y-81044906D01*
X153685094Y-81167758D01*
X153781619Y-81312216D01*
X153848106Y-81472730D01*
X153854167Y-81503202D01*
X153882000Y-81643129D01*
X153882000Y-81816871D01*
X153868359Y-81885447D01*
X153848106Y-81987270D01*
X153781619Y-82147784D01*
X153685094Y-82292242D01*
X153562242Y-82415094D01*
X153417784Y-82511619D01*
X153257270Y-82578106D01*
X153172070Y-82595053D01*
X153086871Y-82612000D01*
X152913129Y-82612000D01*
X152827930Y-82595053D01*
X152742730Y-82578106D01*
X152582216Y-82511619D01*
X152437758Y-82415094D01*
X152314906Y-82292242D01*
X152218381Y-82147784D01*
X152151894Y-81987270D01*
X152131641Y-81885447D01*
X152118000Y-81816871D01*
X152118000Y-81643129D01*
X152145833Y-81503202D01*
X152151894Y-81472730D01*
X152218381Y-81312216D01*
X152314906Y-81167758D01*
X152437758Y-81044906D01*
X152582216Y-80948381D01*
X152742730Y-80881894D01*
X152827930Y-80864947D01*
X152913129Y-80848000D01*
X153086871Y-80848000D01*
X153172070Y-80864947D01*
X153172070Y-80864947D01*
G37*
G36*
X173492070Y-80864947D02*
G01*
X173577270Y-80881894D01*
X173737784Y-80948381D01*
X173882242Y-81044906D01*
X174005094Y-81167758D01*
X174101619Y-81312216D01*
X174168106Y-81472730D01*
X174174167Y-81503202D01*
X174202000Y-81643129D01*
X174202000Y-81816871D01*
X174188359Y-81885447D01*
X174168106Y-81987270D01*
X174101619Y-82147784D01*
X174005094Y-82292242D01*
X173882242Y-82415094D01*
X173737784Y-82511619D01*
X173577270Y-82578106D01*
X173492070Y-82595053D01*
X173406871Y-82612000D01*
X173233129Y-82612000D01*
X173147930Y-82595053D01*
X173062730Y-82578106D01*
X172902216Y-82511619D01*
X172757758Y-82415094D01*
X172634906Y-82292242D01*
X172538381Y-82147784D01*
X172471894Y-81987270D01*
X172451641Y-81885447D01*
X172438000Y-81816871D01*
X172438000Y-81643129D01*
X172465833Y-81503202D01*
X172471894Y-81472730D01*
X172538381Y-81312216D01*
X172634906Y-81167758D01*
X172757758Y-81044906D01*
X172902216Y-80948381D01*
X173062730Y-80881894D01*
X173147930Y-80864947D01*
X173233129Y-80848000D01*
X173406871Y-80848000D01*
X173492070Y-80864947D01*
X173492070Y-80864947D01*
G37*
G36*
X163757921Y-81379271D02*
G01*
X163796798Y-81391064D01*
X163832618Y-81410211D01*
X163864019Y-81435981D01*
X163889789Y-81467382D01*
X163908936Y-81503202D01*
X163920729Y-81542079D01*
X163925000Y-81585447D01*
X163925000Y-82214553D01*
X163920729Y-82257921D01*
X163908936Y-82296798D01*
X163889789Y-82332618D01*
X163864019Y-82364019D01*
X163832618Y-82389789D01*
X163796798Y-82408936D01*
X163757921Y-82420729D01*
X163714553Y-82425000D01*
X163185447Y-82425000D01*
X163142079Y-82420729D01*
X163103202Y-82408936D01*
X163067382Y-82389789D01*
X163035981Y-82364019D01*
X163010211Y-82332618D01*
X162991064Y-82296798D01*
X162979271Y-82257921D01*
X162975000Y-82214553D01*
X162975000Y-81585447D01*
X162979271Y-81542079D01*
X162991064Y-81503202D01*
X163010211Y-81467382D01*
X163035981Y-81435981D01*
X163067382Y-81410211D01*
X163103202Y-81391064D01*
X163142079Y-81379271D01*
X163185447Y-81375000D01*
X163714553Y-81375000D01*
X163757921Y-81379271D01*
X163757921Y-81379271D01*
G37*
G36*
X162007921Y-81379271D02*
G01*
X162046798Y-81391064D01*
X162082618Y-81410211D01*
X162114019Y-81435981D01*
X162139789Y-81467382D01*
X162158936Y-81503202D01*
X162170729Y-81542079D01*
X162175000Y-81585447D01*
X162175000Y-82214553D01*
X162170729Y-82257921D01*
X162158936Y-82296798D01*
X162139789Y-82332618D01*
X162114019Y-82364019D01*
X162082618Y-82389789D01*
X162046798Y-82408936D01*
X162007921Y-82420729D01*
X161964553Y-82425000D01*
X161435447Y-82425000D01*
X161392079Y-82420729D01*
X161353202Y-82408936D01*
X161317382Y-82389789D01*
X161285981Y-82364019D01*
X161260211Y-82332618D01*
X161241064Y-82296798D01*
X161229271Y-82257921D01*
X161225000Y-82214553D01*
X161225000Y-81585447D01*
X161229271Y-81542079D01*
X161241064Y-81503202D01*
X161260211Y-81467382D01*
X161285981Y-81435981D01*
X161317382Y-81410211D01*
X161353202Y-81391064D01*
X161392079Y-81379271D01*
X161435447Y-81375000D01*
X161964553Y-81375000D01*
X162007921Y-81379271D01*
X162007921Y-81379271D01*
G37*
G36*
X162007921Y-79629271D02*
G01*
X162046798Y-79641064D01*
X162082618Y-79660211D01*
X162114019Y-79685981D01*
X162139789Y-79717382D01*
X162158936Y-79753202D01*
X162170729Y-79792079D01*
X162175000Y-79835447D01*
X162175000Y-80464553D01*
X162170729Y-80507921D01*
X162158936Y-80546798D01*
X162139789Y-80582618D01*
X162114019Y-80614019D01*
X162082618Y-80639789D01*
X162046798Y-80658936D01*
X162007921Y-80670729D01*
X161964553Y-80675000D01*
X161435447Y-80675000D01*
X161392079Y-80670729D01*
X161353202Y-80658936D01*
X161317382Y-80639789D01*
X161285981Y-80614019D01*
X161260211Y-80582618D01*
X161241064Y-80546798D01*
X161229271Y-80507921D01*
X161225000Y-80464553D01*
X161225000Y-79835447D01*
X161229271Y-79792079D01*
X161241064Y-79753202D01*
X161260211Y-79717382D01*
X161285981Y-79685981D01*
X161317382Y-79660211D01*
X161353202Y-79641064D01*
X161392079Y-79629271D01*
X161435447Y-79625000D01*
X161964553Y-79625000D01*
X162007921Y-79629271D01*
X162007921Y-79629271D01*
G37*
G36*
X163757921Y-79629271D02*
G01*
X163796798Y-79641064D01*
X163832618Y-79660211D01*
X163864019Y-79685981D01*
X163889789Y-79717382D01*
X163908936Y-79753202D01*
X163920729Y-79792079D01*
X163925000Y-79835447D01*
X163925000Y-80464553D01*
X163920729Y-80507921D01*
X163908936Y-80546798D01*
X163889789Y-80582618D01*
X163864019Y-80614019D01*
X163832618Y-80639789D01*
X163796798Y-80658936D01*
X163757921Y-80670729D01*
X163714553Y-80675000D01*
X163185447Y-80675000D01*
X163142079Y-80670729D01*
X163103202Y-80658936D01*
X163067382Y-80639789D01*
X163035981Y-80614019D01*
X163010211Y-80582618D01*
X162991064Y-80546798D01*
X162979271Y-80507921D01*
X162975000Y-80464553D01*
X162975000Y-79835447D01*
X162979271Y-79792079D01*
X162991064Y-79753202D01*
X163010211Y-79717382D01*
X163035981Y-79685981D01*
X163067382Y-79660211D01*
X163103202Y-79641064D01*
X163142079Y-79629271D01*
X163185447Y-79625000D01*
X163714553Y-79625000D01*
X163757921Y-79629271D01*
X163757921Y-79629271D01*
G37*
G36*
X184775581Y-78867293D02*
G01*
X184862520Y-78884586D01*
X185026310Y-78952430D01*
X185026312Y-78952431D01*
X185100014Y-79001677D01*
X185173717Y-79050924D01*
X185299076Y-79176283D01*
X185397570Y-79323690D01*
X185465414Y-79487480D01*
X185465414Y-79487482D01*
X185500000Y-79661356D01*
X185500000Y-79838644D01*
X185492749Y-79875095D01*
X185465414Y-80012520D01*
X185397570Y-80176310D01*
X185299076Y-80323717D01*
X185173717Y-80449076D01*
X185160479Y-80457921D01*
X185026312Y-80547569D01*
X185026311Y-80547570D01*
X185026310Y-80547570D01*
X184862520Y-80615414D01*
X184775581Y-80632707D01*
X184688644Y-80650000D01*
X184511356Y-80650000D01*
X184424419Y-80632707D01*
X184337480Y-80615414D01*
X184173690Y-80547570D01*
X184173689Y-80547570D01*
X184173688Y-80547569D01*
X184039521Y-80457921D01*
X184026283Y-80449076D01*
X183900924Y-80323717D01*
X183802430Y-80176310D01*
X183734586Y-80012520D01*
X183707251Y-79875095D01*
X183700000Y-79838644D01*
X183700000Y-79661356D01*
X183734586Y-79487482D01*
X183734586Y-79487480D01*
X183802430Y-79323690D01*
X183900924Y-79176283D01*
X184026283Y-79050924D01*
X184099986Y-79001677D01*
X184173688Y-78952431D01*
X184173690Y-78952430D01*
X184337480Y-78884586D01*
X184424419Y-78867293D01*
X184511356Y-78850000D01*
X184688644Y-78850000D01*
X184775581Y-78867293D01*
X184775581Y-78867293D01*
G37*
G36*
X168932921Y-79679271D02*
G01*
X168971798Y-79691064D01*
X169007618Y-79710211D01*
X169039019Y-79735981D01*
X169064789Y-79767382D01*
X169083936Y-79803202D01*
X169095729Y-79842079D01*
X169100000Y-79885447D01*
X169100000Y-80414553D01*
X169095729Y-80457921D01*
X169083936Y-80496798D01*
X169064789Y-80532618D01*
X169039019Y-80564019D01*
X169007618Y-80589789D01*
X168971798Y-80608936D01*
X168932921Y-80620729D01*
X168889553Y-80625000D01*
X168260447Y-80625000D01*
X168217079Y-80620729D01*
X168178202Y-80608936D01*
X168142382Y-80589789D01*
X168110981Y-80564019D01*
X168085211Y-80532618D01*
X168066064Y-80496798D01*
X168054271Y-80457921D01*
X168050000Y-80414553D01*
X168050000Y-79885447D01*
X168054271Y-79842079D01*
X168066064Y-79803202D01*
X168085211Y-79767382D01*
X168110981Y-79735981D01*
X168142382Y-79710211D01*
X168178202Y-79691064D01*
X168217079Y-79679271D01*
X168260447Y-79675000D01*
X168889553Y-79675000D01*
X168932921Y-79679271D01*
X168932921Y-79679271D01*
G37*
G36*
X170682921Y-79679271D02*
G01*
X170721798Y-79691064D01*
X170757618Y-79710211D01*
X170789019Y-79735981D01*
X170814789Y-79767382D01*
X170833936Y-79803202D01*
X170845729Y-79842079D01*
X170850000Y-79885447D01*
X170850000Y-80414553D01*
X170845729Y-80457921D01*
X170833936Y-80496798D01*
X170814789Y-80532618D01*
X170789019Y-80564019D01*
X170757618Y-80589789D01*
X170721798Y-80608936D01*
X170682921Y-80620729D01*
X170639553Y-80625000D01*
X170010447Y-80625000D01*
X169967079Y-80620729D01*
X169928202Y-80608936D01*
X169892382Y-80589789D01*
X169860981Y-80564019D01*
X169835211Y-80532618D01*
X169816064Y-80496798D01*
X169804271Y-80457921D01*
X169800000Y-80414553D01*
X169800000Y-79885447D01*
X169804271Y-79842079D01*
X169816064Y-79803202D01*
X169835211Y-79767382D01*
X169860981Y-79735981D01*
X169892382Y-79710211D01*
X169928202Y-79691064D01*
X169967079Y-79679271D01*
X170010447Y-79675000D01*
X170639553Y-79675000D01*
X170682921Y-79679271D01*
X170682921Y-79679271D01*
G37*
G36*
X167307921Y-79679271D02*
G01*
X167346798Y-79691064D01*
X167382618Y-79710211D01*
X167414019Y-79735981D01*
X167439789Y-79767382D01*
X167458936Y-79803202D01*
X167470729Y-79842079D01*
X167475000Y-79885447D01*
X167475000Y-80414553D01*
X167470729Y-80457921D01*
X167458936Y-80496798D01*
X167439789Y-80532618D01*
X167414019Y-80564019D01*
X167382618Y-80589789D01*
X167346798Y-80608936D01*
X167307921Y-80620729D01*
X167264553Y-80625000D01*
X166635447Y-80625000D01*
X166592079Y-80620729D01*
X166553202Y-80608936D01*
X166517382Y-80589789D01*
X166485981Y-80564019D01*
X166460211Y-80532618D01*
X166441064Y-80496798D01*
X166429271Y-80457921D01*
X166425000Y-80414553D01*
X166425000Y-79885447D01*
X166429271Y-79842079D01*
X166441064Y-79803202D01*
X166460211Y-79767382D01*
X166485981Y-79735981D01*
X166517382Y-79710211D01*
X166553202Y-79691064D01*
X166592079Y-79679271D01*
X166635447Y-79675000D01*
X167264553Y-79675000D01*
X167307921Y-79679271D01*
X167307921Y-79679271D01*
G37*
G36*
X165557921Y-79679271D02*
G01*
X165596798Y-79691064D01*
X165632618Y-79710211D01*
X165664019Y-79735981D01*
X165689789Y-79767382D01*
X165708936Y-79803202D01*
X165720729Y-79842079D01*
X165725000Y-79885447D01*
X165725000Y-80414553D01*
X165720729Y-80457921D01*
X165708936Y-80496798D01*
X165689789Y-80532618D01*
X165664019Y-80564019D01*
X165632618Y-80589789D01*
X165596798Y-80608936D01*
X165557921Y-80620729D01*
X165514553Y-80625000D01*
X164885447Y-80625000D01*
X164842079Y-80620729D01*
X164803202Y-80608936D01*
X164767382Y-80589789D01*
X164735981Y-80564019D01*
X164710211Y-80532618D01*
X164691064Y-80496798D01*
X164679271Y-80457921D01*
X164675000Y-80414553D01*
X164675000Y-79885447D01*
X164679271Y-79842079D01*
X164691064Y-79803202D01*
X164710211Y-79767382D01*
X164735981Y-79735981D01*
X164767382Y-79710211D01*
X164803202Y-79691064D01*
X164842079Y-79679271D01*
X164885447Y-79675000D01*
X165514553Y-79675000D01*
X165557921Y-79679271D01*
X165557921Y-79679271D01*
G37*
G36*
X173492070Y-78324947D02*
G01*
X173577270Y-78341894D01*
X173737784Y-78408381D01*
X173882242Y-78504906D01*
X174005094Y-78627758D01*
X174101619Y-78772216D01*
X174168106Y-78932730D01*
X174185053Y-79017931D01*
X174202000Y-79103129D01*
X174202000Y-79276871D01*
X174192687Y-79323690D01*
X174168106Y-79447270D01*
X174101619Y-79607784D01*
X174005094Y-79752242D01*
X173882242Y-79875094D01*
X173737784Y-79971619D01*
X173577270Y-80038106D01*
X173492069Y-80055053D01*
X173406871Y-80072000D01*
X173233129Y-80072000D01*
X173147931Y-80055053D01*
X173062730Y-80038106D01*
X172902216Y-79971619D01*
X172757758Y-79875094D01*
X172634906Y-79752242D01*
X172538381Y-79607784D01*
X172471894Y-79447270D01*
X172447313Y-79323690D01*
X172438000Y-79276871D01*
X172438000Y-79103129D01*
X172454947Y-79017931D01*
X172471894Y-78932730D01*
X172538381Y-78772216D01*
X172634906Y-78627758D01*
X172757758Y-78504906D01*
X172902216Y-78408381D01*
X173062730Y-78341894D01*
X173147930Y-78324947D01*
X173233129Y-78308000D01*
X173406871Y-78308000D01*
X173492070Y-78324947D01*
X173492070Y-78324947D01*
G37*
G36*
X153172070Y-78324947D02*
G01*
X153257270Y-78341894D01*
X153417784Y-78408381D01*
X153562242Y-78504906D01*
X153685094Y-78627758D01*
X153781619Y-78772216D01*
X153848106Y-78932730D01*
X153865053Y-79017931D01*
X153882000Y-79103129D01*
X153882000Y-79276871D01*
X153872687Y-79323690D01*
X153848106Y-79447270D01*
X153781619Y-79607784D01*
X153685094Y-79752242D01*
X153562242Y-79875094D01*
X153417784Y-79971619D01*
X153257270Y-80038106D01*
X153172069Y-80055053D01*
X153086871Y-80072000D01*
X152913129Y-80072000D01*
X152827931Y-80055053D01*
X152742730Y-80038106D01*
X152582216Y-79971619D01*
X152437758Y-79875094D01*
X152314906Y-79752242D01*
X152218381Y-79607784D01*
X152151894Y-79447270D01*
X152127313Y-79323690D01*
X152118000Y-79276871D01*
X152118000Y-79103129D01*
X152134947Y-79017931D01*
X152151894Y-78932730D01*
X152218381Y-78772216D01*
X152314906Y-78627758D01*
X152437758Y-78504906D01*
X152582216Y-78408381D01*
X152742730Y-78341894D01*
X152827930Y-78324947D01*
X152913129Y-78308000D01*
X153086871Y-78308000D01*
X153172070Y-78324947D01*
X153172070Y-78324947D01*
G37*
G36*
X153172069Y-75784947D02*
G01*
X153257270Y-75801894D01*
X153417784Y-75868381D01*
X153562242Y-75964906D01*
X153685094Y-76087758D01*
X153781619Y-76232216D01*
X153848106Y-76392730D01*
X153848106Y-76392732D01*
X153882000Y-76563129D01*
X153882000Y-76736871D01*
X153865053Y-76822069D01*
X153848106Y-76907270D01*
X153781619Y-77067784D01*
X153685094Y-77212242D01*
X153562242Y-77335094D01*
X153417784Y-77431619D01*
X153257270Y-77498106D01*
X153172069Y-77515053D01*
X153086871Y-77532000D01*
X152913129Y-77532000D01*
X152827931Y-77515053D01*
X152742730Y-77498106D01*
X152582216Y-77431619D01*
X152437758Y-77335094D01*
X152314906Y-77212242D01*
X152218381Y-77067784D01*
X152151894Y-76907270D01*
X152134947Y-76822069D01*
X152118000Y-76736871D01*
X152118000Y-76563129D01*
X152151894Y-76392732D01*
X152151894Y-76392730D01*
X152218381Y-76232216D01*
X152314906Y-76087758D01*
X152437758Y-75964906D01*
X152582216Y-75868381D01*
X152742730Y-75801894D01*
X152827931Y-75784947D01*
X152913129Y-75768000D01*
X153086871Y-75768000D01*
X153172069Y-75784947D01*
X153172069Y-75784947D01*
G37*
G36*
X173492069Y-75784947D02*
G01*
X173577270Y-75801894D01*
X173737784Y-75868381D01*
X173882242Y-75964906D01*
X174005094Y-76087758D01*
X174101619Y-76232216D01*
X174168106Y-76392730D01*
X174168106Y-76392732D01*
X174202000Y-76563129D01*
X174202000Y-76736871D01*
X174185053Y-76822069D01*
X174168106Y-76907270D01*
X174101619Y-77067784D01*
X174005094Y-77212242D01*
X173882242Y-77335094D01*
X173737784Y-77431619D01*
X173577270Y-77498106D01*
X173492069Y-77515053D01*
X173406871Y-77532000D01*
X173233129Y-77532000D01*
X173147931Y-77515053D01*
X173062730Y-77498106D01*
X172902216Y-77431619D01*
X172757758Y-77335094D01*
X172634906Y-77212242D01*
X172538381Y-77067784D01*
X172471894Y-76907270D01*
X172454947Y-76822069D01*
X172438000Y-76736871D01*
X172438000Y-76563129D01*
X172471894Y-76392732D01*
X172471894Y-76392730D01*
X172538381Y-76232216D01*
X172634906Y-76087758D01*
X172757758Y-75964906D01*
X172902216Y-75868381D01*
X173062730Y-75801894D01*
X173147931Y-75784947D01*
X173233129Y-75768000D01*
X173406871Y-75768000D01*
X173492069Y-75784947D01*
X173492069Y-75784947D01*
G37*
G36*
X179575581Y-75367293D02*
G01*
X179662520Y-75384586D01*
X179826310Y-75452430D01*
X179826312Y-75452431D01*
X179859677Y-75474725D01*
X179973717Y-75550924D01*
X180099076Y-75676283D01*
X180099077Y-75676285D01*
X180183007Y-75801894D01*
X180197570Y-75823690D01*
X180265414Y-75987480D01*
X180265414Y-75987482D01*
X180300000Y-76161356D01*
X180300000Y-76338644D01*
X180289241Y-76392732D01*
X180265414Y-76512520D01*
X180197570Y-76676310D01*
X180099076Y-76823717D01*
X179973717Y-76949076D01*
X179900013Y-76998323D01*
X179826312Y-77047569D01*
X179826311Y-77047570D01*
X179826310Y-77047570D01*
X179662520Y-77115414D01*
X179575581Y-77132707D01*
X179488644Y-77150000D01*
X179311356Y-77150000D01*
X179224419Y-77132707D01*
X179137480Y-77115414D01*
X178973690Y-77047570D01*
X178973689Y-77047570D01*
X178973688Y-77047569D01*
X178899987Y-76998323D01*
X178826283Y-76949076D01*
X178700924Y-76823717D01*
X178602430Y-76676310D01*
X178534586Y-76512520D01*
X178510759Y-76392732D01*
X178500000Y-76338644D01*
X178500000Y-76161356D01*
X178534586Y-75987482D01*
X178534586Y-75987480D01*
X178602430Y-75823690D01*
X178616994Y-75801894D01*
X178700923Y-75676285D01*
X178700924Y-75676283D01*
X178826283Y-75550924D01*
X178940323Y-75474725D01*
X178973688Y-75452431D01*
X178973690Y-75452430D01*
X179137480Y-75384586D01*
X179224419Y-75367293D01*
X179311356Y-75350000D01*
X179488644Y-75350000D01*
X179575581Y-75367293D01*
X179575581Y-75367293D01*
G37*
G36*
X168324522Y-75397761D02*
G01*
X168422667Y-75417283D01*
X168561342Y-75474724D01*
X168561344Y-75474725D01*
X168623745Y-75516420D01*
X168686147Y-75558116D01*
X168792284Y-75664253D01*
X168875676Y-75789058D01*
X168933117Y-75927733D01*
X168962400Y-76074950D01*
X168962400Y-76225050D01*
X168933117Y-76372267D01*
X168875676Y-76510942D01*
X168792284Y-76635747D01*
X168686147Y-76741884D01*
X168623744Y-76783580D01*
X168561344Y-76825275D01*
X168561343Y-76825276D01*
X168561342Y-76825276D01*
X168422667Y-76882717D01*
X168324522Y-76902239D01*
X168275451Y-76912000D01*
X168125349Y-76912000D01*
X168076278Y-76902239D01*
X167978133Y-76882717D01*
X167839458Y-76825276D01*
X167839457Y-76825276D01*
X167839456Y-76825275D01*
X167777056Y-76783580D01*
X167714653Y-76741884D01*
X167608516Y-76635747D01*
X167525124Y-76510942D01*
X167467683Y-76372267D01*
X167438400Y-76225050D01*
X167438400Y-76074950D01*
X167467683Y-75927733D01*
X167525124Y-75789058D01*
X167608516Y-75664253D01*
X167714653Y-75558116D01*
X167777056Y-75516420D01*
X167839456Y-75474725D01*
X167839458Y-75474724D01*
X167978133Y-75417283D01*
X168076278Y-75397761D01*
X168125349Y-75388000D01*
X168275451Y-75388000D01*
X168324522Y-75397761D01*
X168324522Y-75397761D01*
G37*
G36*
X163447722Y-75397761D02*
G01*
X163545867Y-75417283D01*
X163684542Y-75474724D01*
X163684544Y-75474725D01*
X163746945Y-75516420D01*
X163809347Y-75558116D01*
X163915484Y-75664253D01*
X163998876Y-75789058D01*
X164056317Y-75927733D01*
X164085600Y-76074950D01*
X164085600Y-76225050D01*
X164056317Y-76372267D01*
X163998876Y-76510942D01*
X163915484Y-76635747D01*
X163809347Y-76741884D01*
X163746944Y-76783580D01*
X163684544Y-76825275D01*
X163684543Y-76825276D01*
X163684542Y-76825276D01*
X163545867Y-76882717D01*
X163447722Y-76902239D01*
X163398651Y-76912000D01*
X163248549Y-76912000D01*
X163199478Y-76902239D01*
X163101333Y-76882717D01*
X162962658Y-76825276D01*
X162962657Y-76825276D01*
X162962656Y-76825275D01*
X162900256Y-76783580D01*
X162837853Y-76741884D01*
X162731716Y-76635747D01*
X162648324Y-76510942D01*
X162590883Y-76372267D01*
X162561600Y-76225050D01*
X162561600Y-76074950D01*
X162590883Y-75927733D01*
X162648324Y-75789058D01*
X162731716Y-75664253D01*
X162837853Y-75558116D01*
X162900256Y-75516420D01*
X162962656Y-75474725D01*
X162962658Y-75474724D01*
X163101333Y-75417283D01*
X163199478Y-75397761D01*
X163248549Y-75388000D01*
X163398651Y-75388000D01*
X163447722Y-75397761D01*
X163447722Y-75397761D01*
G37*
G36*
X173492069Y-73244947D02*
G01*
X173577270Y-73261894D01*
X173737784Y-73328381D01*
X173882242Y-73424906D01*
X174005094Y-73547758D01*
X174101619Y-73692216D01*
X174168106Y-73852730D01*
X174202000Y-74023131D01*
X174202000Y-74196869D01*
X174168106Y-74367270D01*
X174101619Y-74527784D01*
X174005094Y-74672242D01*
X173882242Y-74795094D01*
X173737784Y-74891619D01*
X173577270Y-74958106D01*
X173492069Y-74975053D01*
X173406871Y-74992000D01*
X173233129Y-74992000D01*
X173147931Y-74975053D01*
X173062730Y-74958106D01*
X172902216Y-74891619D01*
X172757758Y-74795094D01*
X172634906Y-74672242D01*
X172538381Y-74527784D01*
X172471894Y-74367270D01*
X172438000Y-74196869D01*
X172438000Y-74023131D01*
X172471894Y-73852730D01*
X172538381Y-73692216D01*
X172634906Y-73547758D01*
X172757758Y-73424906D01*
X172902216Y-73328381D01*
X173062730Y-73261894D01*
X173147931Y-73244947D01*
X173233129Y-73228000D01*
X173406871Y-73228000D01*
X173492069Y-73244947D01*
X173492069Y-73244947D01*
G37*
G36*
X153172069Y-73244947D02*
G01*
X153257270Y-73261894D01*
X153417784Y-73328381D01*
X153562242Y-73424906D01*
X153685094Y-73547758D01*
X153781619Y-73692216D01*
X153848106Y-73852730D01*
X153882000Y-74023131D01*
X153882000Y-74196869D01*
X153848106Y-74367270D01*
X153781619Y-74527784D01*
X153685094Y-74672242D01*
X153562242Y-74795094D01*
X153417784Y-74891619D01*
X153257270Y-74958106D01*
X153172069Y-74975053D01*
X153086871Y-74992000D01*
X152913129Y-74992000D01*
X152827931Y-74975053D01*
X152742730Y-74958106D01*
X152582216Y-74891619D01*
X152437758Y-74795094D01*
X152314906Y-74672242D01*
X152218381Y-74527784D01*
X152151894Y-74367270D01*
X152118000Y-74196869D01*
X152118000Y-74023131D01*
X152151894Y-73852730D01*
X152218381Y-73692216D01*
X152314906Y-73547758D01*
X152437758Y-73424906D01*
X152582216Y-73328381D01*
X152742730Y-73261894D01*
X152827931Y-73244947D01*
X152913129Y-73228000D01*
X153086871Y-73228000D01*
X153172069Y-73244947D01*
X153172069Y-73244947D01*
G37*
G36*
X184775581Y-71867293D02*
G01*
X184862520Y-71884586D01*
X185026310Y-71952430D01*
X185026312Y-71952431D01*
X185073462Y-71983936D01*
X185173717Y-72050924D01*
X185299076Y-72176283D01*
X185397570Y-72323690D01*
X185465414Y-72487480D01*
X185500000Y-72661358D01*
X185500000Y-72838642D01*
X185465414Y-73012520D01*
X185397570Y-73176310D01*
X185299076Y-73323717D01*
X185173717Y-73449076D01*
X185100014Y-73498323D01*
X185026312Y-73547569D01*
X185026311Y-73547570D01*
X185026310Y-73547570D01*
X184862520Y-73615414D01*
X184775581Y-73632707D01*
X184688644Y-73650000D01*
X184511356Y-73650000D01*
X184424419Y-73632707D01*
X184337480Y-73615414D01*
X184173690Y-73547570D01*
X184173689Y-73547570D01*
X184173688Y-73547569D01*
X184099986Y-73498323D01*
X184026283Y-73449076D01*
X183900924Y-73323717D01*
X183802430Y-73176310D01*
X183734586Y-73012520D01*
X183700000Y-72838642D01*
X183700000Y-72661358D01*
X183734586Y-72487480D01*
X183802430Y-72323690D01*
X183900924Y-72176283D01*
X184026283Y-72050924D01*
X184126538Y-71983936D01*
X184173688Y-71952431D01*
X184173690Y-71952430D01*
X184337480Y-71884586D01*
X184424419Y-71867293D01*
X184511356Y-71850000D01*
X184688644Y-71850000D01*
X184775581Y-71867293D01*
X184775581Y-71867293D01*
G37*
G36*
X173492069Y-70704947D02*
G01*
X173577270Y-70721894D01*
X173737784Y-70788381D01*
X173882242Y-70884906D01*
X174005094Y-71007758D01*
X174101619Y-71152216D01*
X174168106Y-71312730D01*
X174202000Y-71483131D01*
X174202000Y-71656869D01*
X174168106Y-71827270D01*
X174101619Y-71987784D01*
X174005094Y-72132242D01*
X173882242Y-72255094D01*
X173737784Y-72351619D01*
X173577270Y-72418106D01*
X173492070Y-72435053D01*
X173406871Y-72452000D01*
X173233129Y-72452000D01*
X173147930Y-72435053D01*
X173062730Y-72418106D01*
X172902216Y-72351619D01*
X172757758Y-72255094D01*
X172634906Y-72132242D01*
X172538381Y-71987784D01*
X172471894Y-71827270D01*
X172438000Y-71656869D01*
X172438000Y-71483131D01*
X172471894Y-71312730D01*
X172538381Y-71152216D01*
X172634906Y-71007758D01*
X172757758Y-70884906D01*
X172902216Y-70788381D01*
X173062730Y-70721894D01*
X173147931Y-70704947D01*
X173233129Y-70688000D01*
X173406871Y-70688000D01*
X173492069Y-70704947D01*
X173492069Y-70704947D01*
G37*
G36*
X153172069Y-70704947D02*
G01*
X153257270Y-70721894D01*
X153417784Y-70788381D01*
X153562242Y-70884906D01*
X153685094Y-71007758D01*
X153781619Y-71152216D01*
X153848106Y-71312730D01*
X153882000Y-71483131D01*
X153882000Y-71656869D01*
X153848106Y-71827270D01*
X153781619Y-71987784D01*
X153685094Y-72132242D01*
X153562242Y-72255094D01*
X153417784Y-72351619D01*
X153257270Y-72418106D01*
X153172070Y-72435053D01*
X153086871Y-72452000D01*
X152913129Y-72452000D01*
X152827930Y-72435053D01*
X152742730Y-72418106D01*
X152582216Y-72351619D01*
X152437758Y-72255094D01*
X152314906Y-72132242D01*
X152218381Y-71987784D01*
X152151894Y-71827270D01*
X152118000Y-71656869D01*
X152118000Y-71483131D01*
X152151894Y-71312730D01*
X152218381Y-71152216D01*
X152314906Y-71007758D01*
X152437758Y-70884906D01*
X152582216Y-70788381D01*
X152742730Y-70721894D01*
X152827931Y-70704947D01*
X152913129Y-70688000D01*
X153086871Y-70688000D01*
X153172069Y-70704947D01*
X153172069Y-70704947D01*
G37*
G36*
X163726015Y-71079437D02*
G01*
X163766494Y-71091716D01*
X163803802Y-71111658D01*
X163836504Y-71138496D01*
X163863342Y-71171198D01*
X163883284Y-71208506D01*
X163895563Y-71248985D01*
X163900000Y-71294034D01*
X163900000Y-72005966D01*
X163895563Y-72051015D01*
X163883284Y-72091494D01*
X163863342Y-72128802D01*
X163836504Y-72161504D01*
X163803802Y-72188342D01*
X163766494Y-72208284D01*
X163726015Y-72220563D01*
X163680966Y-72225000D01*
X162719034Y-72225000D01*
X162673985Y-72220563D01*
X162633506Y-72208284D01*
X162596198Y-72188342D01*
X162563496Y-72161504D01*
X162536658Y-72128802D01*
X162516716Y-72091494D01*
X162504437Y-72051015D01*
X162500000Y-72005966D01*
X162500000Y-71294034D01*
X162504437Y-71248985D01*
X162516716Y-71208506D01*
X162536658Y-71171198D01*
X162563496Y-71138496D01*
X162596198Y-71111658D01*
X162633506Y-71091716D01*
X162673985Y-71079437D01*
X162719034Y-71075000D01*
X163680966Y-71075000D01*
X163726015Y-71079437D01*
X163726015Y-71079437D01*
G37*
G36*
X161226015Y-71029437D02*
G01*
X161266494Y-71041716D01*
X161303802Y-71061658D01*
X161336504Y-71088496D01*
X161363342Y-71121198D01*
X161383284Y-71158506D01*
X161395563Y-71198985D01*
X161400000Y-71244034D01*
X161400000Y-71955966D01*
X161395563Y-72001015D01*
X161383284Y-72041494D01*
X161363342Y-72078802D01*
X161336504Y-72111504D01*
X161303802Y-72138342D01*
X161266494Y-72158284D01*
X161226015Y-72170563D01*
X161180966Y-72175000D01*
X160219034Y-72175000D01*
X160173985Y-72170563D01*
X160133506Y-72158284D01*
X160096198Y-72138342D01*
X160063496Y-72111504D01*
X160036658Y-72078802D01*
X160016716Y-72041494D01*
X160004437Y-72001015D01*
X160000000Y-71955966D01*
X160000000Y-71244034D01*
X160004437Y-71198985D01*
X160016716Y-71158506D01*
X160036658Y-71121198D01*
X160063496Y-71088496D01*
X160096198Y-71061658D01*
X160133506Y-71041716D01*
X160173985Y-71029437D01*
X160219034Y-71025000D01*
X161180966Y-71025000D01*
X161226015Y-71029437D01*
X161226015Y-71029437D01*
G37*
G36*
X158507921Y-70954271D02*
G01*
X158546798Y-70966064D01*
X158582618Y-70985211D01*
X158614019Y-71010981D01*
X158639789Y-71042382D01*
X158658936Y-71078202D01*
X158670729Y-71117079D01*
X158675000Y-71160447D01*
X158675000Y-71789553D01*
X158670729Y-71832921D01*
X158658936Y-71871798D01*
X158639789Y-71907618D01*
X158614019Y-71939019D01*
X158582618Y-71964789D01*
X158546798Y-71983936D01*
X158507921Y-71995729D01*
X158464553Y-72000000D01*
X157935447Y-72000000D01*
X157892079Y-71995729D01*
X157853202Y-71983936D01*
X157817382Y-71964789D01*
X157785981Y-71939019D01*
X157760211Y-71907618D01*
X157741064Y-71871798D01*
X157729271Y-71832921D01*
X157725000Y-71789553D01*
X157725000Y-71160447D01*
X157729271Y-71117079D01*
X157741064Y-71078202D01*
X157760211Y-71042382D01*
X157785981Y-71010981D01*
X157817382Y-70985211D01*
X157853202Y-70966064D01*
X157892079Y-70954271D01*
X157935447Y-70950000D01*
X158464553Y-70950000D01*
X158507921Y-70954271D01*
X158507921Y-70954271D01*
G37*
G36*
X158507921Y-69204271D02*
G01*
X158546798Y-69216064D01*
X158582618Y-69235211D01*
X158614019Y-69260981D01*
X158639789Y-69292382D01*
X158658936Y-69328202D01*
X158670729Y-69367079D01*
X158675000Y-69410447D01*
X158675000Y-70039553D01*
X158670729Y-70082921D01*
X158658936Y-70121798D01*
X158639789Y-70157618D01*
X158614019Y-70189019D01*
X158582618Y-70214789D01*
X158546798Y-70233936D01*
X158507921Y-70245729D01*
X158464553Y-70250000D01*
X157935447Y-70250000D01*
X157892079Y-70245729D01*
X157853202Y-70233936D01*
X157817382Y-70214789D01*
X157785981Y-70189019D01*
X157760211Y-70157618D01*
X157741064Y-70121798D01*
X157729271Y-70082921D01*
X157725000Y-70039553D01*
X157725000Y-69410447D01*
X157729271Y-69367079D01*
X157741064Y-69328202D01*
X157760211Y-69292382D01*
X157785981Y-69260981D01*
X157817382Y-69235211D01*
X157853202Y-69216064D01*
X157892079Y-69204271D01*
X157935447Y-69200000D01*
X158464553Y-69200000D01*
X158507921Y-69204271D01*
X158507921Y-69204271D01*
G37*
G36*
X163726015Y-69029437D02*
G01*
X163766494Y-69041716D01*
X163803802Y-69061658D01*
X163836504Y-69088496D01*
X163863342Y-69121198D01*
X163883284Y-69158506D01*
X163895563Y-69198985D01*
X163900000Y-69244034D01*
X163900000Y-69955966D01*
X163895563Y-70001015D01*
X163883284Y-70041494D01*
X163863342Y-70078802D01*
X163836504Y-70111504D01*
X163803802Y-70138342D01*
X163766494Y-70158284D01*
X163726015Y-70170563D01*
X163680966Y-70175000D01*
X162719034Y-70175000D01*
X162673985Y-70170563D01*
X162633506Y-70158284D01*
X162596198Y-70138342D01*
X162563496Y-70111504D01*
X162536658Y-70078802D01*
X162516716Y-70041494D01*
X162504437Y-70001015D01*
X162500000Y-69955966D01*
X162500000Y-69244034D01*
X162504437Y-69198985D01*
X162516716Y-69158506D01*
X162536658Y-69121198D01*
X162563496Y-69088496D01*
X162596198Y-69061658D01*
X162633506Y-69041716D01*
X162673985Y-69029437D01*
X162719034Y-69025000D01*
X163680966Y-69025000D01*
X163726015Y-69029437D01*
X163726015Y-69029437D01*
G37*
G36*
X179575581Y-68367293D02*
G01*
X179662520Y-68384586D01*
X179826310Y-68452430D01*
X179826312Y-68452431D01*
X179849250Y-68467758D01*
X179973717Y-68550924D01*
X180099076Y-68676283D01*
X180197570Y-68823690D01*
X180265414Y-68987480D01*
X180276202Y-69041716D01*
X180300000Y-69161356D01*
X180300000Y-69338644D01*
X180285717Y-69410447D01*
X180265414Y-69512520D01*
X180232392Y-69592242D01*
X180197569Y-69676312D01*
X180171655Y-69715095D01*
X180099076Y-69823717D01*
X179973717Y-69949076D01*
X179936755Y-69973773D01*
X179826312Y-70047569D01*
X179826311Y-70047570D01*
X179826310Y-70047570D01*
X179662520Y-70115414D01*
X179575581Y-70132707D01*
X179488644Y-70150000D01*
X179311356Y-70150000D01*
X179224419Y-70132707D01*
X179137480Y-70115414D01*
X178973690Y-70047570D01*
X178973689Y-70047570D01*
X178973688Y-70047569D01*
X178863245Y-69973773D01*
X178826283Y-69949076D01*
X178700924Y-69823717D01*
X178628345Y-69715095D01*
X178602431Y-69676312D01*
X178567608Y-69592242D01*
X178534586Y-69512520D01*
X178514283Y-69410447D01*
X178500000Y-69338644D01*
X178500000Y-69161356D01*
X178523798Y-69041716D01*
X178534586Y-68987480D01*
X178602430Y-68823690D01*
X178700924Y-68676283D01*
X178826283Y-68550924D01*
X178950750Y-68467758D01*
X178973688Y-68452431D01*
X178973690Y-68452430D01*
X179137480Y-68384586D01*
X179224419Y-68367293D01*
X179311356Y-68350000D01*
X179488644Y-68350000D01*
X179575581Y-68367293D01*
X179575581Y-68367293D01*
G37*
G36*
X161226015Y-68979437D02*
G01*
X161266494Y-68991716D01*
X161303802Y-69011658D01*
X161336504Y-69038496D01*
X161363342Y-69071198D01*
X161383284Y-69108506D01*
X161395563Y-69148985D01*
X161400000Y-69194034D01*
X161400000Y-69905966D01*
X161395563Y-69951015D01*
X161383284Y-69991494D01*
X161363342Y-70028802D01*
X161336504Y-70061504D01*
X161303802Y-70088342D01*
X161266494Y-70108284D01*
X161226015Y-70120563D01*
X161180966Y-70125000D01*
X160219034Y-70125000D01*
X160173985Y-70120563D01*
X160133506Y-70108284D01*
X160096198Y-70088342D01*
X160063496Y-70061504D01*
X160036658Y-70028802D01*
X160016716Y-69991494D01*
X160004437Y-69951015D01*
X160000000Y-69905966D01*
X160000000Y-69194034D01*
X160004437Y-69148985D01*
X160016716Y-69108506D01*
X160036658Y-69071198D01*
X160063496Y-69038496D01*
X160096198Y-69011658D01*
X160133506Y-68991716D01*
X160173985Y-68979437D01*
X160219034Y-68975000D01*
X161180966Y-68975000D01*
X161226015Y-68979437D01*
X161226015Y-68979437D01*
G37*
G36*
X173492069Y-68164947D02*
G01*
X173577270Y-68181894D01*
X173737784Y-68248381D01*
X173882242Y-68344906D01*
X174005094Y-68467758D01*
X174101619Y-68612216D01*
X174168106Y-68772730D01*
X174168106Y-68772732D01*
X174202000Y-68943129D01*
X174202000Y-69116871D01*
X174195612Y-69148985D01*
X174168106Y-69287270D01*
X174101619Y-69447784D01*
X174005094Y-69592242D01*
X173882242Y-69715094D01*
X173737784Y-69811619D01*
X173577270Y-69878106D01*
X173492070Y-69895053D01*
X173406871Y-69912000D01*
X173233129Y-69912000D01*
X173147930Y-69895053D01*
X173062730Y-69878106D01*
X172902216Y-69811619D01*
X172757758Y-69715094D01*
X172634906Y-69592242D01*
X172538381Y-69447784D01*
X172471894Y-69287270D01*
X172444388Y-69148985D01*
X172438000Y-69116871D01*
X172438000Y-68943129D01*
X172471894Y-68772732D01*
X172471894Y-68772730D01*
X172538381Y-68612216D01*
X172634906Y-68467758D01*
X172757758Y-68344906D01*
X172902216Y-68248381D01*
X173062730Y-68181894D01*
X173147931Y-68164947D01*
X173233129Y-68148000D01*
X173406871Y-68148000D01*
X173492069Y-68164947D01*
X173492069Y-68164947D01*
G37*
G36*
X153172069Y-68164947D02*
G01*
X153257270Y-68181894D01*
X153417784Y-68248381D01*
X153562242Y-68344906D01*
X153685094Y-68467758D01*
X153781619Y-68612216D01*
X153848106Y-68772730D01*
X153848106Y-68772732D01*
X153882000Y-68943129D01*
X153882000Y-69116871D01*
X153875612Y-69148985D01*
X153848106Y-69287270D01*
X153781619Y-69447784D01*
X153685094Y-69592242D01*
X153562242Y-69715094D01*
X153417784Y-69811619D01*
X153257270Y-69878106D01*
X153172070Y-69895053D01*
X153086871Y-69912000D01*
X152913129Y-69912000D01*
X152827930Y-69895053D01*
X152742730Y-69878106D01*
X152582216Y-69811619D01*
X152437758Y-69715094D01*
X152314906Y-69592242D01*
X152218381Y-69447784D01*
X152151894Y-69287270D01*
X152124388Y-69148985D01*
X152118000Y-69116871D01*
X152118000Y-68943129D01*
X152151894Y-68772732D01*
X152151894Y-68772730D01*
X152218381Y-68612216D01*
X152314906Y-68467758D01*
X152437758Y-68344906D01*
X152582216Y-68248381D01*
X152742730Y-68181894D01*
X152827931Y-68164947D01*
X152913129Y-68148000D01*
X153086871Y-68148000D01*
X153172069Y-68164947D01*
X153172069Y-68164947D01*
G37*
G36*
X173492070Y-65624947D02*
G01*
X173577270Y-65641894D01*
X173737784Y-65708381D01*
X173882242Y-65804906D01*
X174005094Y-65927758D01*
X174101619Y-66072216D01*
X174168106Y-66232730D01*
X174176190Y-66273373D01*
X174189947Y-66342532D01*
X174202000Y-66403131D01*
X174202000Y-66576869D01*
X174168106Y-66747270D01*
X174101619Y-66907784D01*
X174005094Y-67052242D01*
X173882242Y-67175094D01*
X173737784Y-67271619D01*
X173577270Y-67338106D01*
X173492070Y-67355053D01*
X173406871Y-67372000D01*
X173233129Y-67372000D01*
X173147930Y-67355053D01*
X173062730Y-67338106D01*
X172902216Y-67271619D01*
X172757758Y-67175094D01*
X172634906Y-67052242D01*
X172538381Y-66907784D01*
X172471894Y-66747270D01*
X172438000Y-66576869D01*
X172438000Y-66403131D01*
X172450054Y-66342532D01*
X172463810Y-66273373D01*
X172471894Y-66232730D01*
X172538381Y-66072216D01*
X172634906Y-65927758D01*
X172757758Y-65804906D01*
X172902216Y-65708381D01*
X173062730Y-65641894D01*
X173147930Y-65624947D01*
X173233129Y-65608000D01*
X173406871Y-65608000D01*
X173492070Y-65624947D01*
X173492070Y-65624947D01*
G37*
G36*
X153172070Y-65624947D02*
G01*
X153257270Y-65641894D01*
X153417784Y-65708381D01*
X153562242Y-65804906D01*
X153685094Y-65927758D01*
X153781619Y-66072216D01*
X153848106Y-66232730D01*
X153856190Y-66273373D01*
X153869947Y-66342532D01*
X153882000Y-66403131D01*
X153882000Y-66576869D01*
X153848106Y-66747270D01*
X153781619Y-66907784D01*
X153685094Y-67052242D01*
X153562242Y-67175094D01*
X153417784Y-67271619D01*
X153257270Y-67338106D01*
X153172070Y-67355053D01*
X153086871Y-67372000D01*
X152913129Y-67372000D01*
X152827930Y-67355053D01*
X152742730Y-67338106D01*
X152582216Y-67271619D01*
X152437758Y-67175094D01*
X152314906Y-67052242D01*
X152218381Y-66907784D01*
X152151894Y-66747270D01*
X152118000Y-66576869D01*
X152118000Y-66403131D01*
X152130054Y-66342532D01*
X152143810Y-66273373D01*
X152151894Y-66232730D01*
X152218381Y-66072216D01*
X152314906Y-65927758D01*
X152437758Y-65804906D01*
X152582216Y-65708381D01*
X152742730Y-65641894D01*
X152827930Y-65624947D01*
X152913129Y-65608000D01*
X153086871Y-65608000D01*
X153172070Y-65624947D01*
X153172070Y-65624947D01*
G37*
G36*
X163304114Y-66235023D02*
G01*
X163321034Y-66240156D01*
X163336627Y-66248490D01*
X163350294Y-66259706D01*
X163361510Y-66273373D01*
X163369844Y-66288966D01*
X163374977Y-66305886D01*
X163377000Y-66326425D01*
X163377000Y-67273575D01*
X163374977Y-67294114D01*
X163369844Y-67311034D01*
X163361510Y-67326627D01*
X163350294Y-67340294D01*
X163336627Y-67351510D01*
X163321034Y-67359844D01*
X163304114Y-67364977D01*
X163283575Y-67367000D01*
X161286425Y-67367000D01*
X161265886Y-67364977D01*
X161248966Y-67359844D01*
X161233373Y-67351510D01*
X161219706Y-67340294D01*
X161208490Y-67326627D01*
X161200156Y-67311034D01*
X161195023Y-67294114D01*
X161193000Y-67273575D01*
X161193000Y-66326425D01*
X161195023Y-66305886D01*
X161200156Y-66288966D01*
X161208490Y-66273373D01*
X161219706Y-66259706D01*
X161233373Y-66248490D01*
X161248966Y-66240156D01*
X161265886Y-66235023D01*
X161286425Y-66233000D01*
X163283575Y-66233000D01*
X163304114Y-66235023D01*
X163304114Y-66235023D01*
G37*
G36*
X168713435Y-62799840D02*
G01*
X168875010Y-62848854D01*
X169023915Y-62928445D01*
X169154438Y-63035562D01*
X169261555Y-63166085D01*
X169341146Y-63314990D01*
X169390160Y-63476565D01*
X169407000Y-63647547D01*
X169407000Y-65352453D01*
X169390160Y-65523435D01*
X169341146Y-65685010D01*
X169261555Y-65833915D01*
X169154438Y-65964438D01*
X169023915Y-66071555D01*
X168875010Y-66151146D01*
X168713435Y-66200160D01*
X168542453Y-66217000D01*
X168087547Y-66217000D01*
X167916565Y-66200160D01*
X167754990Y-66151146D01*
X167606085Y-66071555D01*
X167475562Y-65964438D01*
X167368445Y-65833915D01*
X167288854Y-65685010D01*
X167239840Y-65523435D01*
X167223000Y-65352453D01*
X167223000Y-63647547D01*
X167239840Y-63476565D01*
X167288854Y-63314990D01*
X167368445Y-63166085D01*
X167475562Y-63035562D01*
X167606085Y-62928445D01*
X167754990Y-62848854D01*
X167916565Y-62799840D01*
X168087547Y-62783000D01*
X168542453Y-62783000D01*
X168713435Y-62799840D01*
X168713435Y-62799840D01*
G37*
G36*
X163304114Y-63935023D02*
G01*
X163321034Y-63940156D01*
X163336627Y-63948490D01*
X163350294Y-63959706D01*
X163361510Y-63973373D01*
X163369844Y-63988966D01*
X163374977Y-64005886D01*
X163377000Y-64026425D01*
X163377000Y-64973575D01*
X163374977Y-64994114D01*
X163369844Y-65011034D01*
X163361510Y-65026627D01*
X163350294Y-65040294D01*
X163336627Y-65051510D01*
X163321034Y-65059844D01*
X163304114Y-65064977D01*
X163283575Y-65067000D01*
X161286425Y-65067000D01*
X161265886Y-65064977D01*
X161248966Y-65059844D01*
X161233373Y-65051510D01*
X161219706Y-65040294D01*
X161208490Y-65026627D01*
X161200156Y-65011034D01*
X161195023Y-64994114D01*
X161193000Y-64973575D01*
X161193000Y-64026425D01*
X161195023Y-64005886D01*
X161200156Y-63988966D01*
X161208490Y-63973373D01*
X161219706Y-63959706D01*
X161233373Y-63948490D01*
X161248966Y-63940156D01*
X161265886Y-63935023D01*
X161286425Y-63933000D01*
X163283575Y-63933000D01*
X163304114Y-63935023D01*
X163304114Y-63935023D01*
G37*
G36*
X153172069Y-63084947D02*
G01*
X153257270Y-63101894D01*
X153417784Y-63168381D01*
X153562242Y-63264906D01*
X153685094Y-63387758D01*
X153781619Y-63532216D01*
X153848106Y-63692730D01*
X153882000Y-63863131D01*
X153882000Y-64036869D01*
X153848106Y-64207270D01*
X153781619Y-64367784D01*
X153685094Y-64512242D01*
X153562242Y-64635094D01*
X153417784Y-64731619D01*
X153257270Y-64798106D01*
X153172070Y-64815053D01*
X153086871Y-64832000D01*
X152913129Y-64832000D01*
X152827930Y-64815053D01*
X152742730Y-64798106D01*
X152582216Y-64731619D01*
X152437758Y-64635094D01*
X152314906Y-64512242D01*
X152218381Y-64367784D01*
X152151894Y-64207270D01*
X152118000Y-64036869D01*
X152118000Y-63863131D01*
X152151894Y-63692730D01*
X152218381Y-63532216D01*
X152314906Y-63387758D01*
X152437758Y-63264906D01*
X152582216Y-63168381D01*
X152742730Y-63101894D01*
X152827931Y-63084947D01*
X152913129Y-63068000D01*
X153086871Y-63068000D01*
X153172069Y-63084947D01*
X153172069Y-63084947D01*
G37*
G36*
X173492069Y-63084947D02*
G01*
X173577270Y-63101894D01*
X173737784Y-63168381D01*
X173882242Y-63264906D01*
X174005094Y-63387758D01*
X174101619Y-63532216D01*
X174168106Y-63692730D01*
X174202000Y-63863131D01*
X174202000Y-64036869D01*
X174168106Y-64207270D01*
X174101619Y-64367784D01*
X174005094Y-64512242D01*
X173882242Y-64635094D01*
X173737784Y-64731619D01*
X173577270Y-64798106D01*
X173492070Y-64815053D01*
X173406871Y-64832000D01*
X173233129Y-64832000D01*
X173147930Y-64815053D01*
X173062730Y-64798106D01*
X172902216Y-64731619D01*
X172757758Y-64635094D01*
X172634906Y-64512242D01*
X172538381Y-64367784D01*
X172471894Y-64207270D01*
X172438000Y-64036869D01*
X172438000Y-63863131D01*
X172471894Y-63692730D01*
X172538381Y-63532216D01*
X172634906Y-63387758D01*
X172757758Y-63264906D01*
X172902216Y-63168381D01*
X173062730Y-63101894D01*
X173147931Y-63084947D01*
X173233129Y-63068000D01*
X173406871Y-63068000D01*
X173492069Y-63084947D01*
X173492069Y-63084947D01*
G37*
G36*
X184775581Y-61867293D02*
G01*
X184862520Y-61884586D01*
X185026310Y-61952430D01*
X185026312Y-61952431D01*
X185055958Y-61972240D01*
X185173717Y-62050924D01*
X185299076Y-62176283D01*
X185299077Y-62176285D01*
X185376396Y-62292000D01*
X185397570Y-62323690D01*
X185465414Y-62487480D01*
X185465414Y-62487482D01*
X185500000Y-62661356D01*
X185500000Y-62838644D01*
X185482707Y-62925581D01*
X185465414Y-63012520D01*
X185397570Y-63176310D01*
X185299076Y-63323717D01*
X185173717Y-63449076D01*
X185118203Y-63486169D01*
X185026312Y-63547569D01*
X185026311Y-63547570D01*
X185026310Y-63547570D01*
X184862520Y-63615414D01*
X184775581Y-63632707D01*
X184688644Y-63650000D01*
X184511356Y-63650000D01*
X184424419Y-63632707D01*
X184337480Y-63615414D01*
X184173690Y-63547570D01*
X184173689Y-63547570D01*
X184173688Y-63547569D01*
X184081797Y-63486169D01*
X184026283Y-63449076D01*
X183900924Y-63323717D01*
X183802430Y-63176310D01*
X183734586Y-63012520D01*
X183717293Y-62925581D01*
X183700000Y-62838644D01*
X183700000Y-62661356D01*
X183734586Y-62487482D01*
X183734586Y-62487480D01*
X183802430Y-62323690D01*
X183823605Y-62292000D01*
X183900923Y-62176285D01*
X183900924Y-62176283D01*
X184026283Y-62050924D01*
X184144042Y-61972240D01*
X184173688Y-61952431D01*
X184173690Y-61952430D01*
X184337480Y-61884586D01*
X184424419Y-61867293D01*
X184511356Y-61850000D01*
X184688644Y-61850000D01*
X184775581Y-61867293D01*
X184775581Y-61867293D01*
G37*
G36*
X163304114Y-61635023D02*
G01*
X163321034Y-61640156D01*
X163336627Y-61648490D01*
X163350294Y-61659706D01*
X163361510Y-61673373D01*
X163369844Y-61688966D01*
X163374977Y-61705886D01*
X163377000Y-61726425D01*
X163377000Y-62673575D01*
X163374977Y-62694114D01*
X163369844Y-62711034D01*
X163361510Y-62726627D01*
X163350294Y-62740294D01*
X163336627Y-62751510D01*
X163321034Y-62759844D01*
X163304114Y-62764977D01*
X163283575Y-62767000D01*
X161286425Y-62767000D01*
X161265886Y-62764977D01*
X161248966Y-62759844D01*
X161233373Y-62751510D01*
X161219706Y-62740294D01*
X161208490Y-62726627D01*
X161200156Y-62711034D01*
X161195023Y-62694114D01*
X161193000Y-62673575D01*
X161193000Y-61726425D01*
X161195023Y-61705886D01*
X161200156Y-61688966D01*
X161208490Y-61673373D01*
X161219706Y-61659706D01*
X161233373Y-61648490D01*
X161248966Y-61640156D01*
X161265886Y-61635023D01*
X161286425Y-61633000D01*
X163283575Y-61633000D01*
X163304114Y-61635023D01*
X163304114Y-61635023D01*
G37*
G36*
X153172069Y-60544947D02*
G01*
X153257270Y-60561894D01*
X153417784Y-60628381D01*
X153562242Y-60724906D01*
X153685094Y-60847758D01*
X153781619Y-60992216D01*
X153848106Y-61152730D01*
X153882000Y-61323131D01*
X153882000Y-61496869D01*
X153848106Y-61667270D01*
X153781619Y-61827784D01*
X153685094Y-61972242D01*
X153562242Y-62095094D01*
X153417784Y-62191619D01*
X153257270Y-62258106D01*
X153172070Y-62275053D01*
X153086871Y-62292000D01*
X152913129Y-62292000D01*
X152827930Y-62275053D01*
X152742730Y-62258106D01*
X152582216Y-62191619D01*
X152437758Y-62095094D01*
X152314906Y-61972242D01*
X152218381Y-61827784D01*
X152151894Y-61667270D01*
X152118000Y-61496869D01*
X152118000Y-61323131D01*
X152151894Y-61152730D01*
X152218381Y-60992216D01*
X152314906Y-60847758D01*
X152437758Y-60724906D01*
X152582216Y-60628381D01*
X152742730Y-60561894D01*
X152827931Y-60544947D01*
X152913129Y-60528000D01*
X153086871Y-60528000D01*
X153172069Y-60544947D01*
X153172069Y-60544947D01*
G37*
G36*
X173492069Y-60544947D02*
G01*
X173577270Y-60561894D01*
X173737784Y-60628381D01*
X173882242Y-60724906D01*
X174005094Y-60847758D01*
X174101619Y-60992216D01*
X174168106Y-61152730D01*
X174202000Y-61323131D01*
X174202000Y-61496869D01*
X174168106Y-61667270D01*
X174101619Y-61827784D01*
X174005094Y-61972242D01*
X173882242Y-62095094D01*
X173737784Y-62191619D01*
X173577270Y-62258106D01*
X173492070Y-62275053D01*
X173406871Y-62292000D01*
X173233129Y-62292000D01*
X173147930Y-62275053D01*
X173062730Y-62258106D01*
X172902216Y-62191619D01*
X172757758Y-62095094D01*
X172634906Y-61972242D01*
X172538381Y-61827784D01*
X172471894Y-61667270D01*
X172438000Y-61496869D01*
X172438000Y-61323131D01*
X172471894Y-61152730D01*
X172538381Y-60992216D01*
X172634906Y-60847758D01*
X172757758Y-60724906D01*
X172902216Y-60628381D01*
X173062730Y-60561894D01*
X173147931Y-60544947D01*
X173233129Y-60528000D01*
X173406871Y-60528000D01*
X173492069Y-60544947D01*
X173492069Y-60544947D01*
G37*
G36*
X169302000Y-60202000D02*
G01*
X166898000Y-60202000D01*
X166898000Y-57798000D01*
X169302000Y-57798000D01*
X169302000Y-60202000D01*
X169302000Y-60202000D01*
G37*
G36*
X160702000Y-60202000D02*
G01*
X158298000Y-60202000D01*
X158298000Y-57798000D01*
X160702000Y-57798000D01*
X160702000Y-60202000D01*
X160702000Y-60202000D01*
G37*
G36*
X179575581Y-58367293D02*
G01*
X179662520Y-58384586D01*
X179826310Y-58452430D01*
X179826312Y-58452431D01*
X179900014Y-58501677D01*
X179973717Y-58550924D01*
X180099076Y-58676283D01*
X180197570Y-58823690D01*
X180265414Y-58987480D01*
X180300000Y-59161358D01*
X180300000Y-59338642D01*
X180265414Y-59512520D01*
X180197570Y-59676310D01*
X180099076Y-59823717D01*
X179973717Y-59949076D01*
X179900013Y-59998323D01*
X179826312Y-60047569D01*
X179826311Y-60047570D01*
X179826310Y-60047570D01*
X179662520Y-60115414D01*
X179575581Y-60132707D01*
X179488644Y-60150000D01*
X179311356Y-60150000D01*
X179224419Y-60132707D01*
X179137480Y-60115414D01*
X178973690Y-60047570D01*
X178973689Y-60047570D01*
X178973688Y-60047569D01*
X178899987Y-59998323D01*
X178826283Y-59949076D01*
X178700924Y-59823717D01*
X178602430Y-59676310D01*
X178534586Y-59512520D01*
X178500000Y-59338642D01*
X178500000Y-59161358D01*
X178534586Y-58987480D01*
X178602430Y-58823690D01*
X178700924Y-58676283D01*
X178826283Y-58550924D01*
X178899987Y-58501677D01*
X178973688Y-58452431D01*
X178973690Y-58452430D01*
X179137480Y-58384586D01*
X179224419Y-58367293D01*
X179311356Y-58350000D01*
X179488644Y-58350000D01*
X179575581Y-58367293D01*
X179575581Y-58367293D01*
G37*
G36*
X174202000Y-59752000D02*
G01*
X172438000Y-59752000D01*
X172438000Y-57988000D01*
X174202000Y-57988000D01*
X174202000Y-59752000D01*
X174202000Y-59752000D01*
G37*
G36*
X153882000Y-59752000D02*
G01*
X152118000Y-59752000D01*
X152118000Y-57988000D01*
X153882000Y-57988000D01*
X153882000Y-59752000D01*
X153882000Y-59752000D01*
G37*
G36*
X163945843Y-57019214D02*
G01*
X164036841Y-57056906D01*
X164118730Y-57111623D01*
X164188377Y-57181270D01*
X164243094Y-57263159D01*
X164280786Y-57354157D01*
X164300000Y-57450753D01*
X164300000Y-57549247D01*
X164280786Y-57645843D01*
X164243094Y-57736841D01*
X164188377Y-57818730D01*
X164118730Y-57888377D01*
X164036841Y-57943094D01*
X163945843Y-57980786D01*
X163849247Y-58000000D01*
X163750753Y-58000000D01*
X163654157Y-57980786D01*
X163563159Y-57943094D01*
X163481270Y-57888377D01*
X163411623Y-57818730D01*
X163356906Y-57736841D01*
X163319214Y-57645843D01*
X163300000Y-57549247D01*
X163300000Y-57450753D01*
X163319214Y-57354157D01*
X163356906Y-57263159D01*
X163411623Y-57181270D01*
X163481270Y-57111623D01*
X163563159Y-57056906D01*
X163654157Y-57019214D01*
X163750753Y-57000000D01*
X163849247Y-57000000D01*
X163945843Y-57019214D01*
X163945843Y-57019214D01*
G37*
G36*
X184775581Y-54867293D02*
G01*
X184862520Y-54884586D01*
X185026310Y-54952430D01*
X185026312Y-54952431D01*
X185097504Y-55000000D01*
X185173717Y-55050924D01*
X185299076Y-55176283D01*
X185397570Y-55323690D01*
X185465414Y-55487480D01*
X185500000Y-55661358D01*
X185500000Y-55838642D01*
X185465414Y-56012520D01*
X185397570Y-56176310D01*
X185299076Y-56323717D01*
X185173717Y-56449076D01*
X185100013Y-56498323D01*
X185026312Y-56547569D01*
X185026311Y-56547570D01*
X185026310Y-56547570D01*
X184862520Y-56615414D01*
X184775581Y-56632707D01*
X184688644Y-56650000D01*
X184511356Y-56650000D01*
X184424419Y-56632707D01*
X184337480Y-56615414D01*
X184173690Y-56547570D01*
X184173689Y-56547570D01*
X184173688Y-56547569D01*
X184099987Y-56498323D01*
X184026283Y-56449076D01*
X183900924Y-56323717D01*
X183802430Y-56176310D01*
X183734586Y-56012520D01*
X183700000Y-55838642D01*
X183700000Y-55661358D01*
X183734586Y-55487480D01*
X183802430Y-55323690D01*
X183900924Y-55176283D01*
X184026283Y-55050924D01*
X184102496Y-55000000D01*
X184173688Y-54952431D01*
X184173690Y-54952430D01*
X184337480Y-54884586D01*
X184424419Y-54867293D01*
X184511356Y-54850000D01*
X184688644Y-54850000D01*
X184775581Y-54867293D01*
X184775581Y-54867293D01*
G37*
G36*
X169302000Y-55702000D02*
G01*
X166898000Y-55702000D01*
X166898000Y-53298000D01*
X169302000Y-53298000D01*
X169302000Y-55702000D01*
X169302000Y-55702000D01*
G37*
G36*
X160702000Y-55702000D02*
G01*
X158298000Y-55702000D01*
X158298000Y-53298000D01*
X160702000Y-53298000D01*
X160702000Y-55702000D01*
X160702000Y-55702000D01*
G37*
G36*
X175000000Y-55000000D02*
G01*
X171000000Y-55000000D01*
X171000000Y-51000000D01*
X175000000Y-51000000D01*
X175000000Y-55000000D01*
X175000000Y-55000000D01*
G37*
G36*
X157000000Y-55000000D02*
G01*
X153000000Y-55000000D01*
X153000000Y-51000000D01*
X157000000Y-51000000D01*
X157000000Y-55000000D01*
X157000000Y-55000000D01*
G37*
G36*
X179575581Y-51367293D02*
G01*
X179662520Y-51384586D01*
X179826310Y-51452430D01*
X179826312Y-51452431D01*
X179900014Y-51501677D01*
X179973717Y-51550924D01*
X180099076Y-51676283D01*
X180197570Y-51823690D01*
X180265414Y-51987480D01*
X180265414Y-51987482D01*
X180300000Y-52161356D01*
X180300000Y-52338644D01*
X180296914Y-52354157D01*
X180265414Y-52512520D01*
X180197570Y-52676310D01*
X180099076Y-52823717D01*
X179973717Y-52949076D01*
X179900014Y-52998323D01*
X179826312Y-53047569D01*
X179826311Y-53047570D01*
X179826310Y-53047570D01*
X179662520Y-53115414D01*
X179575581Y-53132707D01*
X179488644Y-53150000D01*
X179311356Y-53150000D01*
X179224419Y-53132707D01*
X179137480Y-53115414D01*
X178973690Y-53047570D01*
X178973689Y-53047570D01*
X178973688Y-53047569D01*
X178899986Y-52998323D01*
X178826283Y-52949076D01*
X178700924Y-52823717D01*
X178602430Y-52676310D01*
X178534586Y-52512520D01*
X178503086Y-52354157D01*
X178500000Y-52338644D01*
X178500000Y-52161356D01*
X178534586Y-51987482D01*
X178534586Y-51987480D01*
X178602430Y-51823690D01*
X178700924Y-51676283D01*
X178826283Y-51550924D01*
X178899987Y-51501677D01*
X178973688Y-51452431D01*
X178973690Y-51452430D01*
X179137480Y-51384586D01*
X179224419Y-51367293D01*
X179311356Y-51350000D01*
X179488644Y-51350000D01*
X179575581Y-51367293D01*
X179575581Y-51367293D01*
G37*
G36*
X163945843Y-52019214D02*
G01*
X164036841Y-52056906D01*
X164118730Y-52111623D01*
X164188377Y-52181270D01*
X164243094Y-52263159D01*
X164280786Y-52354157D01*
X164300000Y-52450753D01*
X164300000Y-52549247D01*
X164280786Y-52645843D01*
X164243094Y-52736841D01*
X164188377Y-52818730D01*
X164118730Y-52888377D01*
X164036841Y-52943094D01*
X163945843Y-52980786D01*
X163849247Y-53000000D01*
X163750753Y-53000000D01*
X163654157Y-52980786D01*
X163563159Y-52943094D01*
X163481270Y-52888377D01*
X163411623Y-52818730D01*
X163356906Y-52736841D01*
X163319214Y-52645843D01*
X163300000Y-52549247D01*
X163300000Y-52450753D01*
X163319214Y-52354157D01*
X163356906Y-52263159D01*
X163411623Y-52181270D01*
X163481270Y-52111623D01*
X163563159Y-52056906D01*
X163654157Y-52019214D01*
X163750753Y-52000000D01*
X163849247Y-52000000D01*
X163945843Y-52019214D01*
X163945843Y-52019214D01*
G37*
M02*
