G04 #@! TF.GenerationSoftware,KiCad,Pcbnew,(5.1.4)-1*
G04 #@! TF.CreationDate,2023-08-30T15:36:27+02:00*
G04 #@! TF.ProjectId,BeeWeight_MKRWAN_V4,42656557-6569-4676-9874-5f4d4b525741,V4*
G04 #@! TF.SameCoordinates,Original*
G04 #@! TF.FileFunction,Copper,L4,Bot*
G04 #@! TF.FilePolarity,Positive*
%FSLAX46Y46*%
G04 Gerber Fmt 4.6, Leading zero omitted, Abs format (unit mm)*
G04 Created by KiCad (PCBNEW (5.1.4)-1) date 2023-08-30 15:36:27*
%MOMM*%
%LPD*%
G04 APERTURE LIST*
%ADD10C,1.524000*%
%ADD11C,1.800000*%
%ADD12R,1.560000X1.560000*%
%ADD13C,1.560000*%
%ADD14C,3.500000*%
%ADD15C,0.600000*%
%ADD16C,0.127000*%
%ADD17C,0.150000*%
G04 APERTURE END LIST*
D10*
X163323600Y-76150000D03*
X168200400Y-76150000D03*
D11*
X179628000Y-103099000D03*
X184828000Y-106599000D03*
X179628000Y-110099000D03*
X184828000Y-113599000D03*
X179400000Y-69250000D03*
X184600000Y-72750000D03*
X179400000Y-76250000D03*
X184600000Y-79750000D03*
X184578000Y-96784200D03*
X179378000Y-93284200D03*
X184578000Y-89784200D03*
X179378000Y-86284200D03*
X179400000Y-52250000D03*
X184600000Y-55750000D03*
X179400000Y-59250000D03*
X184600000Y-62750000D03*
D12*
X153000000Y-58870000D03*
D13*
X153000000Y-61410000D03*
X153000000Y-63950000D03*
X153000000Y-66490000D03*
X153000000Y-69030000D03*
X153000000Y-71570000D03*
X153000000Y-74110000D03*
X153000000Y-76650000D03*
X153000000Y-79190000D03*
X153000000Y-81730000D03*
X153000000Y-84270000D03*
X153000000Y-86810000D03*
X153000000Y-89350000D03*
X153000000Y-91890000D03*
X153000000Y-94430000D03*
X153000000Y-96970000D03*
X153000000Y-99510000D03*
X153000000Y-102050000D03*
X153000000Y-104590000D03*
X153000000Y-107130000D03*
D12*
X173320000Y-58870000D03*
D13*
X173320000Y-61410000D03*
X173320000Y-63950000D03*
X173320000Y-66490000D03*
X173320000Y-69030000D03*
X173320000Y-71570000D03*
X173320000Y-74110000D03*
X173320000Y-76650000D03*
X173320000Y-79190000D03*
X173320000Y-81730000D03*
X173320000Y-84270000D03*
X173320000Y-86810000D03*
X173320000Y-89350000D03*
X173320000Y-91890000D03*
X173320000Y-94430000D03*
X173320000Y-96970000D03*
X173320000Y-99510000D03*
X173320000Y-102050000D03*
X173320000Y-104590000D03*
X173320000Y-107130000D03*
D14*
X157000000Y-66000000D03*
D15*
X175500000Y-64000000D03*
X170500000Y-91500000D03*
X157000000Y-90000000D03*
X157000000Y-86000000D03*
X176000000Y-52500000D03*
X176000000Y-56000000D03*
X168500000Y-56500000D03*
X168500000Y-52500000D03*
X165000000Y-62000000D03*
X163000000Y-116000000D03*
X169000000Y-82500000D03*
X176000000Y-82500000D03*
X183000000Y-82500000D03*
X176000000Y-95500000D03*
X183000000Y-95250000D03*
X183000000Y-70250000D03*
X183000000Y-64000000D03*
X183000000Y-56000000D03*
X183000000Y-52500000D03*
X183000000Y-102500000D03*
X183000000Y-108000000D03*
X183500000Y-116000000D03*
X152500000Y-116000000D03*
X155000000Y-116000000D03*
X152500000Y-110000000D03*
X160000000Y-91500000D03*
X170500000Y-108000000D03*
X167000000Y-104500000D03*
X156000000Y-112750000D03*
X158250000Y-110000000D03*
X161000000Y-109500000D03*
X157000000Y-98000000D03*
X157000000Y-102500000D03*
X157000000Y-63000000D03*
X157000000Y-59000000D03*
X161500000Y-52500000D03*
X170000000Y-71500000D03*
X170000000Y-76000000D03*
X176000000Y-91000000D03*
X176000000Y-101500000D03*
X176000000Y-108000000D03*
X168000000Y-87000000D03*
X158500000Y-75500000D03*
X163500000Y-78500000D03*
X170000000Y-78500000D03*
X161750000Y-78500000D03*
X169000000Y-89500000D03*
D14*
X173000000Y-115000000D03*
D15*
X170000000Y-95000000D03*
X163000000Y-101000000D03*
X160817100Y-89586000D03*
X167836200Y-92970600D03*
X161705800Y-92845000D03*
X166472300Y-93667400D03*
X157842600Y-107864000D03*
X160138800Y-112616900D03*
X157342400Y-84950600D03*
X165795000Y-86609000D03*
X166890000Y-90027500D03*
X168006700Y-89952200D03*
X166509800Y-92843600D03*
D16*
X184828000Y-106599000D02*
X176469000Y-98240000D01*
X176469000Y-98240000D02*
X169471100Y-98240000D01*
X169471100Y-98240000D02*
X160817100Y-89586000D01*
X167836200Y-92970600D02*
X175511700Y-92970600D01*
X175511700Y-92970600D02*
X178698100Y-89784200D01*
X178698100Y-89784200D02*
X184578000Y-89784200D01*
X179628000Y-103099000D02*
X171959800Y-103099000D01*
X171959800Y-103099000D02*
X161705800Y-92845000D01*
X179378000Y-86284200D02*
X174952200Y-90710000D01*
X174952200Y-90710000D02*
X169402800Y-90710000D01*
X169402800Y-90710000D02*
X166472300Y-93640500D01*
X166472300Y-93640500D02*
X166472300Y-93667400D01*
X161266000Y-111489700D02*
X182718700Y-111489700D01*
X160138800Y-112616900D02*
X161266000Y-111489700D01*
X161266000Y-111489700D02*
X161266000Y-111287400D01*
X161266000Y-111287400D02*
X157842600Y-107864000D01*
X182718700Y-111489700D02*
X184828000Y-113599000D01*
X184578000Y-96784200D02*
X185943900Y-98150100D01*
X185943900Y-98150100D02*
X185943900Y-108264500D01*
X185943900Y-108264500D02*
X182718700Y-111489700D01*
X184600000Y-79750000D02*
X185674500Y-80824500D01*
X185674500Y-80824500D02*
X185674500Y-95687700D01*
X185674500Y-95687700D02*
X184578000Y-96784200D01*
X173320000Y-61410000D02*
X176579100Y-58150900D01*
X176579100Y-58150900D02*
X180000900Y-58150900D01*
X180000900Y-58150900D02*
X184600000Y-62750000D01*
X179400000Y-76250000D02*
X180498000Y-75152000D01*
X180498000Y-75152000D02*
X180498000Y-60348000D01*
X180498000Y-60348000D02*
X179400000Y-59250000D01*
X173320000Y-107130000D02*
X157496600Y-91306600D01*
X157496600Y-91306600D02*
X157496600Y-85104800D01*
X157496600Y-85104800D02*
X157342400Y-84950600D01*
X153000000Y-74110000D02*
X153296000Y-74110000D01*
X153296000Y-74110000D02*
X165795000Y-86609000D01*
X153000000Y-76650000D02*
X152020300Y-77629700D01*
X152020300Y-77629700D02*
X152020300Y-79587700D01*
X152020300Y-79587700D02*
X152635000Y-80202400D01*
X152635000Y-80202400D02*
X157064900Y-80202400D01*
X157064900Y-80202400D02*
X166890000Y-90027500D01*
X153000000Y-79190000D02*
X157244500Y-79190000D01*
X157244500Y-79190000D02*
X168006700Y-89952200D01*
X153000000Y-81730000D02*
X155396200Y-81730000D01*
X155396200Y-81730000D02*
X166509800Y-92843600D01*
D17*
G36*
X189019144Y-50303316D02*
G01*
X189037554Y-50308874D01*
X189054544Y-50317908D01*
X189069452Y-50330066D01*
X189081711Y-50344885D01*
X189090860Y-50361806D01*
X189096547Y-50380178D01*
X189100001Y-50413038D01*
X189100000Y-116985330D01*
X189096684Y-117019144D01*
X189091126Y-117037554D01*
X189082092Y-117054545D01*
X189069936Y-117069450D01*
X189055116Y-117081710D01*
X189038193Y-117090861D01*
X189019822Y-117096547D01*
X188986972Y-117100000D01*
X162300000Y-117100000D01*
X162300000Y-112235267D01*
X162298520Y-112220238D01*
X162298520Y-112213746D01*
X162298082Y-112209580D01*
X162287205Y-112112605D01*
X162281544Y-112085974D01*
X162276270Y-112059335D01*
X162275034Y-112055342D01*
X162275032Y-112055335D01*
X162275029Y-112055329D01*
X162245525Y-111962318D01*
X162234812Y-111937321D01*
X162224453Y-111912188D01*
X162222465Y-111908512D01*
X162222461Y-111908503D01*
X162222456Y-111908496D01*
X162178313Y-111828200D01*
X182578490Y-111828200D01*
X183789128Y-113038839D01*
X183786729Y-113042429D01*
X183698155Y-113256265D01*
X183653000Y-113483273D01*
X183653000Y-113714727D01*
X183698155Y-113941735D01*
X183786729Y-114155571D01*
X183915318Y-114348019D01*
X184078981Y-114511682D01*
X184271429Y-114640271D01*
X184485265Y-114728845D01*
X184712273Y-114774000D01*
X184943727Y-114774000D01*
X185170735Y-114728845D01*
X185384571Y-114640271D01*
X185577019Y-114511682D01*
X185740682Y-114348019D01*
X185869271Y-114155571D01*
X185957845Y-113941735D01*
X186003000Y-113714727D01*
X186003000Y-113483273D01*
X185957845Y-113256265D01*
X185869271Y-113042429D01*
X185740682Y-112849981D01*
X185577019Y-112686318D01*
X185384571Y-112557729D01*
X185170735Y-112469155D01*
X184943727Y-112424000D01*
X184712273Y-112424000D01*
X184485265Y-112469155D01*
X184271429Y-112557729D01*
X184267839Y-112560128D01*
X183197410Y-111489700D01*
X186171508Y-108515604D01*
X186184413Y-108505013D01*
X186195004Y-108492108D01*
X186195008Y-108492104D01*
X186207715Y-108476620D01*
X186226714Y-108453470D01*
X186258146Y-108394665D01*
X186277501Y-108330858D01*
X186284037Y-108264500D01*
X186282400Y-108247880D01*
X186282400Y-98166711D01*
X186284036Y-98150099D01*
X186282400Y-98133487D01*
X186282400Y-98133480D01*
X186277501Y-98083743D01*
X186258146Y-98019935D01*
X186226714Y-97961130D01*
X186203310Y-97932614D01*
X186195007Y-97922496D01*
X186195005Y-97922494D01*
X186184412Y-97909587D01*
X186171507Y-97898996D01*
X185616872Y-97344361D01*
X185619271Y-97340771D01*
X185707845Y-97126935D01*
X185753000Y-96899927D01*
X185753000Y-96668473D01*
X185707845Y-96441465D01*
X185619271Y-96227629D01*
X185616872Y-96224039D01*
X185902102Y-95938809D01*
X185915013Y-95928213D01*
X185957314Y-95876670D01*
X185988746Y-95817865D01*
X186008101Y-95754057D01*
X186013000Y-95704320D01*
X186013000Y-95704313D01*
X186014636Y-95687701D01*
X186013000Y-95671089D01*
X186013000Y-80841111D01*
X186014636Y-80824499D01*
X186013000Y-80807887D01*
X186013000Y-80807880D01*
X186008101Y-80758143D01*
X186008101Y-80758141D01*
X185988746Y-80694336D01*
X185988746Y-80694335D01*
X185957314Y-80635530D01*
X185915012Y-80583987D01*
X185902107Y-80573396D01*
X185638872Y-80310161D01*
X185641271Y-80306571D01*
X185729845Y-80092735D01*
X185775000Y-79865727D01*
X185775000Y-79634273D01*
X185729845Y-79407265D01*
X185641271Y-79193429D01*
X185512682Y-79000981D01*
X185349019Y-78837318D01*
X185156571Y-78708729D01*
X184942735Y-78620155D01*
X184715727Y-78575000D01*
X184484273Y-78575000D01*
X184257265Y-78620155D01*
X184043429Y-78708729D01*
X183850981Y-78837318D01*
X183687318Y-79000981D01*
X183558729Y-79193429D01*
X183470155Y-79407265D01*
X183425000Y-79634273D01*
X183425000Y-79865727D01*
X183470155Y-80092735D01*
X183558729Y-80306571D01*
X183687318Y-80499019D01*
X183850981Y-80662682D01*
X184043429Y-80791271D01*
X184257265Y-80879845D01*
X184484273Y-80925000D01*
X184715727Y-80925000D01*
X184942735Y-80879845D01*
X185156571Y-80791271D01*
X185160161Y-80788872D01*
X185336000Y-80964711D01*
X185336001Y-88880500D01*
X185327019Y-88871518D01*
X185134571Y-88742929D01*
X184920735Y-88654355D01*
X184693727Y-88609200D01*
X184462273Y-88609200D01*
X184235265Y-88654355D01*
X184021429Y-88742929D01*
X183828981Y-88871518D01*
X183665318Y-89035181D01*
X183536729Y-89227629D01*
X183448155Y-89441465D01*
X183447313Y-89445700D01*
X178714711Y-89445700D01*
X178698099Y-89444064D01*
X178681487Y-89445700D01*
X178681480Y-89445700D01*
X178638036Y-89449979D01*
X178631742Y-89450599D01*
X178620834Y-89453908D01*
X178567935Y-89469954D01*
X178509130Y-89501386D01*
X178457587Y-89543687D01*
X178446991Y-89556598D01*
X175371490Y-92632100D01*
X174069895Y-92632100D01*
X174139472Y-92562523D01*
X174254929Y-92389730D01*
X174334457Y-92197732D01*
X174375000Y-91993908D01*
X174375000Y-91786092D01*
X174334457Y-91582268D01*
X174254929Y-91390270D01*
X174139472Y-91217477D01*
X173992523Y-91070528D01*
X173959556Y-91048500D01*
X174935588Y-91048500D01*
X174952200Y-91050136D01*
X174968812Y-91048500D01*
X174968820Y-91048500D01*
X175018557Y-91043601D01*
X175082365Y-91024246D01*
X175141170Y-90992814D01*
X175192713Y-90950513D01*
X175203313Y-90937597D01*
X178817839Y-87323072D01*
X178821429Y-87325471D01*
X179035265Y-87414045D01*
X179262273Y-87459200D01*
X179493727Y-87459200D01*
X179720735Y-87414045D01*
X179934571Y-87325471D01*
X180127019Y-87196882D01*
X180290682Y-87033219D01*
X180419271Y-86840771D01*
X180507845Y-86626935D01*
X180553000Y-86399927D01*
X180553000Y-86168473D01*
X180507845Y-85941465D01*
X180419271Y-85727629D01*
X180290682Y-85535181D01*
X180127019Y-85371518D01*
X179934571Y-85242929D01*
X179720735Y-85154355D01*
X179493727Y-85109200D01*
X179262273Y-85109200D01*
X179035265Y-85154355D01*
X178821429Y-85242929D01*
X178628981Y-85371518D01*
X178465318Y-85535181D01*
X178336729Y-85727629D01*
X178248155Y-85941465D01*
X178203000Y-86168473D01*
X178203000Y-86399927D01*
X178248155Y-86626935D01*
X178336729Y-86840771D01*
X178339128Y-86844361D01*
X174811990Y-90371500D01*
X173592324Y-90371500D01*
X173627732Y-90364457D01*
X173819730Y-90284929D01*
X173992523Y-90169472D01*
X174139472Y-90022523D01*
X174254929Y-89849730D01*
X174334457Y-89657732D01*
X174375000Y-89453908D01*
X174375000Y-89246092D01*
X174334457Y-89042268D01*
X174254929Y-88850270D01*
X174139472Y-88677477D01*
X173992523Y-88530528D01*
X173819730Y-88415071D01*
X173627732Y-88335543D01*
X173423908Y-88295000D01*
X173216092Y-88295000D01*
X173012268Y-88335543D01*
X172820270Y-88415071D01*
X172647477Y-88530528D01*
X172500528Y-88677477D01*
X172385071Y-88850270D01*
X172305543Y-89042268D01*
X172265000Y-89246092D01*
X172265000Y-89453908D01*
X172305543Y-89657732D01*
X172385071Y-89849730D01*
X172500528Y-90022523D01*
X172647477Y-90169472D01*
X172820270Y-90284929D01*
X173012268Y-90364457D01*
X173047676Y-90371500D01*
X169419412Y-90371500D01*
X169402800Y-90369864D01*
X169386188Y-90371500D01*
X169386180Y-90371500D01*
X169342191Y-90375833D01*
X169336442Y-90376399D01*
X169278282Y-90394041D01*
X169272635Y-90395754D01*
X169213830Y-90427186D01*
X169162287Y-90469487D01*
X169151692Y-90482397D01*
X167032098Y-92601992D01*
X167019358Y-92571235D01*
X166956432Y-92477059D01*
X166876341Y-92396968D01*
X166782165Y-92334042D01*
X166677521Y-92290697D01*
X166566433Y-92268600D01*
X166453167Y-92268600D01*
X166420090Y-92275179D01*
X155647313Y-81502403D01*
X155636713Y-81489487D01*
X155585170Y-81447186D01*
X155526365Y-81415754D01*
X155462557Y-81396399D01*
X155412820Y-81391500D01*
X155412812Y-81391500D01*
X155396200Y-81389864D01*
X155379588Y-81391500D01*
X154001713Y-81391500D01*
X153934929Y-81230270D01*
X153819472Y-81057477D01*
X153672523Y-80910528D01*
X153499730Y-80795071D01*
X153307732Y-80715543D01*
X153103908Y-80675000D01*
X152896092Y-80675000D01*
X152692268Y-80715543D01*
X152500270Y-80795071D01*
X152327477Y-80910528D01*
X152180528Y-81057477D01*
X152065071Y-81230270D01*
X151985543Y-81422268D01*
X151945000Y-81626092D01*
X151945000Y-81833908D01*
X151985543Y-82037732D01*
X152065071Y-82229730D01*
X152180528Y-82402523D01*
X152327477Y-82549472D01*
X152500270Y-82664929D01*
X152692268Y-82744457D01*
X152896092Y-82785000D01*
X153103908Y-82785000D01*
X153307732Y-82744457D01*
X153499730Y-82664929D01*
X153672523Y-82549472D01*
X153819472Y-82402523D01*
X153934929Y-82229730D01*
X154001713Y-82068500D01*
X155255990Y-82068500D01*
X157656253Y-84468763D01*
X157614765Y-84441042D01*
X157510121Y-84397697D01*
X157399033Y-84375600D01*
X157285767Y-84375600D01*
X157174679Y-84397697D01*
X157070035Y-84441042D01*
X156975859Y-84503968D01*
X156895768Y-84584059D01*
X156832842Y-84678235D01*
X156789497Y-84782879D01*
X156767400Y-84893967D01*
X156767400Y-85007233D01*
X156789497Y-85118321D01*
X156832842Y-85222965D01*
X156895768Y-85317141D01*
X156975859Y-85397232D01*
X157070035Y-85460158D01*
X157158101Y-85496636D01*
X157158100Y-91289988D01*
X157156464Y-91306600D01*
X157158100Y-91323212D01*
X157158100Y-91323219D01*
X157162999Y-91372956D01*
X157182354Y-91436764D01*
X157213786Y-91495569D01*
X157256087Y-91547112D01*
X157268999Y-91557709D01*
X172372327Y-106661038D01*
X172305543Y-106822268D01*
X172265000Y-107026092D01*
X172265000Y-107233908D01*
X172305543Y-107437732D01*
X172385071Y-107629730D01*
X172500528Y-107802523D01*
X172647477Y-107949472D01*
X172820270Y-108064929D01*
X173012268Y-108144457D01*
X173216092Y-108185000D01*
X173423908Y-108185000D01*
X173627732Y-108144457D01*
X173819730Y-108064929D01*
X173992523Y-107949472D01*
X174139472Y-107802523D01*
X174254929Y-107629730D01*
X174334457Y-107437732D01*
X174375000Y-107233908D01*
X174375000Y-107026092D01*
X174334457Y-106822268D01*
X174254929Y-106630270D01*
X174139472Y-106457477D01*
X173992523Y-106310528D01*
X173819730Y-106195071D01*
X173627732Y-106115543D01*
X173423908Y-106075000D01*
X173216092Y-106075000D01*
X173012268Y-106115543D01*
X172851038Y-106182327D01*
X171154803Y-104486092D01*
X172265000Y-104486092D01*
X172265000Y-104693908D01*
X172305543Y-104897732D01*
X172385071Y-105089730D01*
X172500528Y-105262523D01*
X172647477Y-105409472D01*
X172820270Y-105524929D01*
X173012268Y-105604457D01*
X173216092Y-105645000D01*
X173423908Y-105645000D01*
X173627732Y-105604457D01*
X173819730Y-105524929D01*
X173992523Y-105409472D01*
X174139472Y-105262523D01*
X174254929Y-105089730D01*
X174334457Y-104897732D01*
X174375000Y-104693908D01*
X174375000Y-104486092D01*
X174334457Y-104282268D01*
X174254929Y-104090270D01*
X174139472Y-103917477D01*
X173992523Y-103770528D01*
X173819730Y-103655071D01*
X173627732Y-103575543D01*
X173423908Y-103535000D01*
X173216092Y-103535000D01*
X173012268Y-103575543D01*
X172820270Y-103655071D01*
X172647477Y-103770528D01*
X172500528Y-103917477D01*
X172385071Y-104090270D01*
X172305543Y-104282268D01*
X172265000Y-104486092D01*
X171154803Y-104486092D01*
X157835100Y-91166390D01*
X157835100Y-85248195D01*
X157851958Y-85222965D01*
X157895303Y-85118321D01*
X157917400Y-85007233D01*
X157917400Y-84893967D01*
X157895303Y-84782879D01*
X157851958Y-84678235D01*
X157824237Y-84636747D01*
X165941379Y-92753890D01*
X165934800Y-92786967D01*
X165934800Y-92900233D01*
X165956897Y-93011321D01*
X166000242Y-93115965D01*
X166063168Y-93210141D01*
X166089777Y-93236750D01*
X166025668Y-93300859D01*
X165962742Y-93395035D01*
X165919397Y-93499679D01*
X165897300Y-93610767D01*
X165897300Y-93724033D01*
X165919397Y-93835121D01*
X165962742Y-93939765D01*
X166025668Y-94033941D01*
X166105759Y-94114032D01*
X166199935Y-94176958D01*
X166304579Y-94220303D01*
X166415667Y-94242400D01*
X166528933Y-94242400D01*
X166640021Y-94220303D01*
X166744665Y-94176958D01*
X166838841Y-94114032D01*
X166918932Y-94033941D01*
X166981858Y-93939765D01*
X167025203Y-93835121D01*
X167047300Y-93724033D01*
X167047300Y-93610767D01*
X167036257Y-93555253D01*
X167335415Y-93256095D01*
X167389568Y-93337141D01*
X167469659Y-93417232D01*
X167563835Y-93480158D01*
X167668479Y-93523503D01*
X167779567Y-93545600D01*
X167892833Y-93545600D01*
X168003921Y-93523503D01*
X168108565Y-93480158D01*
X168202741Y-93417232D01*
X168282832Y-93337141D01*
X168301568Y-93309100D01*
X175495088Y-93309100D01*
X175511700Y-93310736D01*
X175528312Y-93309100D01*
X175528320Y-93309100D01*
X175578057Y-93304201D01*
X175641865Y-93284846D01*
X175700670Y-93253414D01*
X175752213Y-93211113D01*
X175762813Y-93198197D01*
X175792537Y-93168473D01*
X178203000Y-93168473D01*
X178203000Y-93399927D01*
X178248155Y-93626935D01*
X178336729Y-93840771D01*
X178465318Y-94033219D01*
X178628981Y-94196882D01*
X178821429Y-94325471D01*
X179035265Y-94414045D01*
X179262273Y-94459200D01*
X179493727Y-94459200D01*
X179720735Y-94414045D01*
X179934571Y-94325471D01*
X180127019Y-94196882D01*
X180290682Y-94033219D01*
X180419271Y-93840771D01*
X180507845Y-93626935D01*
X180553000Y-93399927D01*
X180553000Y-93168473D01*
X180507845Y-92941465D01*
X180419271Y-92727629D01*
X180290682Y-92535181D01*
X180127019Y-92371518D01*
X179934571Y-92242929D01*
X179720735Y-92154355D01*
X179493727Y-92109200D01*
X179262273Y-92109200D01*
X179035265Y-92154355D01*
X178821429Y-92242929D01*
X178628981Y-92371518D01*
X178465318Y-92535181D01*
X178336729Y-92727629D01*
X178248155Y-92941465D01*
X178203000Y-93168473D01*
X175792537Y-93168473D01*
X178838311Y-90122700D01*
X183447313Y-90122700D01*
X183448155Y-90126935D01*
X183536729Y-90340771D01*
X183665318Y-90533219D01*
X183828981Y-90696882D01*
X184021429Y-90825471D01*
X184235265Y-90914045D01*
X184462273Y-90959200D01*
X184693727Y-90959200D01*
X184920735Y-90914045D01*
X185134571Y-90825471D01*
X185327019Y-90696882D01*
X185336001Y-90687900D01*
X185336001Y-95547488D01*
X185138161Y-95745328D01*
X185134571Y-95742929D01*
X184920735Y-95654355D01*
X184693727Y-95609200D01*
X184462273Y-95609200D01*
X184235265Y-95654355D01*
X184021429Y-95742929D01*
X183828981Y-95871518D01*
X183665318Y-96035181D01*
X183536729Y-96227629D01*
X183448155Y-96441465D01*
X183403000Y-96668473D01*
X183403000Y-96899927D01*
X183448155Y-97126935D01*
X183536729Y-97340771D01*
X183665318Y-97533219D01*
X183828981Y-97696882D01*
X184021429Y-97825471D01*
X184235265Y-97914045D01*
X184462273Y-97959200D01*
X184693727Y-97959200D01*
X184920735Y-97914045D01*
X185134571Y-97825471D01*
X185138161Y-97823072D01*
X185605400Y-98290311D01*
X185605401Y-105714700D01*
X185577019Y-105686318D01*
X185384571Y-105557729D01*
X185170735Y-105469155D01*
X184943727Y-105424000D01*
X184712273Y-105424000D01*
X184485265Y-105469155D01*
X184271429Y-105557729D01*
X184267839Y-105560128D01*
X176720113Y-98012403D01*
X176709513Y-97999487D01*
X176657970Y-97957186D01*
X176599165Y-97925754D01*
X176535357Y-97906399D01*
X176485620Y-97901500D01*
X176485612Y-97901500D01*
X176469000Y-97899864D01*
X176452388Y-97901500D01*
X173824862Y-97901500D01*
X173992523Y-97789472D01*
X174139472Y-97642523D01*
X174254929Y-97469730D01*
X174334457Y-97277732D01*
X174375000Y-97073908D01*
X174375000Y-96866092D01*
X174334457Y-96662268D01*
X174254929Y-96470270D01*
X174139472Y-96297477D01*
X173992523Y-96150528D01*
X173819730Y-96035071D01*
X173627732Y-95955543D01*
X173423908Y-95915000D01*
X173216092Y-95915000D01*
X173012268Y-95955543D01*
X172820270Y-96035071D01*
X172647477Y-96150528D01*
X172500528Y-96297477D01*
X172385071Y-96470270D01*
X172305543Y-96662268D01*
X172265000Y-96866092D01*
X172265000Y-97073908D01*
X172305543Y-97277732D01*
X172385071Y-97469730D01*
X172500528Y-97642523D01*
X172647477Y-97789472D01*
X172815138Y-97901500D01*
X169611311Y-97901500D01*
X166035903Y-94326092D01*
X172265000Y-94326092D01*
X172265000Y-94533908D01*
X172305543Y-94737732D01*
X172385071Y-94929730D01*
X172500528Y-95102523D01*
X172647477Y-95249472D01*
X172820270Y-95364929D01*
X173012268Y-95444457D01*
X173216092Y-95485000D01*
X173423908Y-95485000D01*
X173627732Y-95444457D01*
X173819730Y-95364929D01*
X173992523Y-95249472D01*
X174139472Y-95102523D01*
X174254929Y-94929730D01*
X174334457Y-94737732D01*
X174375000Y-94533908D01*
X174375000Y-94326092D01*
X174334457Y-94122268D01*
X174254929Y-93930270D01*
X174139472Y-93757477D01*
X173992523Y-93610528D01*
X173819730Y-93495071D01*
X173627732Y-93415543D01*
X173423908Y-93375000D01*
X173216092Y-93375000D01*
X173012268Y-93415543D01*
X172820270Y-93495071D01*
X172647477Y-93610528D01*
X172500528Y-93757477D01*
X172385071Y-93930270D01*
X172305543Y-94122268D01*
X172265000Y-94326092D01*
X166035903Y-94326092D01*
X161385520Y-89675710D01*
X161392100Y-89642633D01*
X161392100Y-89529367D01*
X161370003Y-89418279D01*
X161326658Y-89313635D01*
X161263732Y-89219459D01*
X161183641Y-89139368D01*
X161089465Y-89076442D01*
X160984821Y-89033097D01*
X160873733Y-89011000D01*
X160760467Y-89011000D01*
X160649379Y-89033097D01*
X160544735Y-89076442D01*
X160450559Y-89139368D01*
X160370468Y-89219459D01*
X160307542Y-89313635D01*
X160264197Y-89418279D01*
X160242100Y-89529367D01*
X160242100Y-89642633D01*
X160264197Y-89753721D01*
X160307542Y-89858365D01*
X160370468Y-89952541D01*
X160450559Y-90032632D01*
X160544735Y-90095558D01*
X160649379Y-90138903D01*
X160760467Y-90161000D01*
X160873733Y-90161000D01*
X160906810Y-90154420D01*
X169219991Y-98467602D01*
X169230587Y-98480513D01*
X169282130Y-98522814D01*
X169340935Y-98554246D01*
X169385387Y-98567730D01*
X169404742Y-98573601D01*
X169411036Y-98574221D01*
X169454480Y-98578500D01*
X169454487Y-98578500D01*
X169471099Y-98580136D01*
X169487711Y-98578500D01*
X172815138Y-98578500D01*
X172647477Y-98690528D01*
X172500528Y-98837477D01*
X172385071Y-99010270D01*
X172305543Y-99202268D01*
X172265000Y-99406092D01*
X172265000Y-99613908D01*
X172305543Y-99817732D01*
X172385071Y-100009730D01*
X172500528Y-100182523D01*
X172647477Y-100329472D01*
X172820270Y-100444929D01*
X173012268Y-100524457D01*
X173216092Y-100565000D01*
X173423908Y-100565000D01*
X173627732Y-100524457D01*
X173819730Y-100444929D01*
X173992523Y-100329472D01*
X174139472Y-100182523D01*
X174254929Y-100009730D01*
X174334457Y-99817732D01*
X174375000Y-99613908D01*
X174375000Y-99406092D01*
X174334457Y-99202268D01*
X174254929Y-99010270D01*
X174139472Y-98837477D01*
X173992523Y-98690528D01*
X173824862Y-98578500D01*
X176328790Y-98578500D01*
X179674290Y-101924000D01*
X179512273Y-101924000D01*
X179285265Y-101969155D01*
X179071429Y-102057729D01*
X178878981Y-102186318D01*
X178715318Y-102349981D01*
X178586729Y-102542429D01*
X178498155Y-102756265D01*
X178497313Y-102760500D01*
X174101495Y-102760500D01*
X174139472Y-102722523D01*
X174254929Y-102549730D01*
X174334457Y-102357732D01*
X174375000Y-102153908D01*
X174375000Y-101946092D01*
X174334457Y-101742268D01*
X174254929Y-101550270D01*
X174139472Y-101377477D01*
X173992523Y-101230528D01*
X173819730Y-101115071D01*
X173627732Y-101035543D01*
X173423908Y-100995000D01*
X173216092Y-100995000D01*
X173012268Y-101035543D01*
X172820270Y-101115071D01*
X172647477Y-101230528D01*
X172500528Y-101377477D01*
X172385071Y-101550270D01*
X172305543Y-101742268D01*
X172265000Y-101946092D01*
X172265000Y-102153908D01*
X172305543Y-102357732D01*
X172385071Y-102549730D01*
X172500528Y-102722523D01*
X172538505Y-102760500D01*
X172100011Y-102760500D01*
X162274220Y-92934710D01*
X162280800Y-92901633D01*
X162280800Y-92788367D01*
X162258703Y-92677279D01*
X162215358Y-92572635D01*
X162152432Y-92478459D01*
X162072341Y-92398368D01*
X161978165Y-92335442D01*
X161873521Y-92292097D01*
X161762433Y-92270000D01*
X161649167Y-92270000D01*
X161538079Y-92292097D01*
X161433435Y-92335442D01*
X161339259Y-92398368D01*
X161259168Y-92478459D01*
X161196242Y-92572635D01*
X161152897Y-92677279D01*
X161130800Y-92788367D01*
X161130800Y-92901633D01*
X161152897Y-93012721D01*
X161196242Y-93117365D01*
X161259168Y-93211541D01*
X161339259Y-93291632D01*
X161433435Y-93354558D01*
X161538079Y-93397903D01*
X161649167Y-93420000D01*
X161762433Y-93420000D01*
X161795510Y-93413420D01*
X171708691Y-103326602D01*
X171719287Y-103339513D01*
X171770830Y-103381814D01*
X171829635Y-103413246D01*
X171893442Y-103432601D01*
X171899191Y-103433167D01*
X171943180Y-103437500D01*
X171943188Y-103437500D01*
X171959800Y-103439136D01*
X171976412Y-103437500D01*
X178497313Y-103437500D01*
X178498155Y-103441735D01*
X178586729Y-103655571D01*
X178715318Y-103848019D01*
X178878981Y-104011682D01*
X179071429Y-104140271D01*
X179285265Y-104228845D01*
X179512273Y-104274000D01*
X179743727Y-104274000D01*
X179970735Y-104228845D01*
X180184571Y-104140271D01*
X180377019Y-104011682D01*
X180540682Y-103848019D01*
X180669271Y-103655571D01*
X180757845Y-103441735D01*
X180803000Y-103214727D01*
X180803000Y-103052711D01*
X183789128Y-106038839D01*
X183786729Y-106042429D01*
X183698155Y-106256265D01*
X183653000Y-106483273D01*
X183653000Y-106714727D01*
X183698155Y-106941735D01*
X183786729Y-107155571D01*
X183915318Y-107348019D01*
X184078981Y-107511682D01*
X184271429Y-107640271D01*
X184485265Y-107728845D01*
X184712273Y-107774000D01*
X184943727Y-107774000D01*
X185170735Y-107728845D01*
X185384571Y-107640271D01*
X185577019Y-107511682D01*
X185605401Y-107483300D01*
X185605401Y-108124287D01*
X182578490Y-111151200D01*
X180158186Y-111151200D01*
X180184571Y-111140271D01*
X180377019Y-111011682D01*
X180540682Y-110848019D01*
X180669271Y-110655571D01*
X180757845Y-110441735D01*
X180803000Y-110214727D01*
X180803000Y-109983273D01*
X180757845Y-109756265D01*
X180669271Y-109542429D01*
X180540682Y-109349981D01*
X180377019Y-109186318D01*
X180184571Y-109057729D01*
X179970735Y-108969155D01*
X179743727Y-108924000D01*
X179512273Y-108924000D01*
X179285265Y-108969155D01*
X179071429Y-109057729D01*
X178878981Y-109186318D01*
X178715318Y-109349981D01*
X178586729Y-109542429D01*
X178498155Y-109756265D01*
X178453000Y-109983273D01*
X178453000Y-110214727D01*
X178498155Y-110441735D01*
X178586729Y-110655571D01*
X178715318Y-110848019D01*
X178878981Y-111011682D01*
X179071429Y-111140271D01*
X179097814Y-111151200D01*
X161577020Y-111151200D01*
X161548814Y-111098430D01*
X161506513Y-111046887D01*
X161493602Y-111036291D01*
X158411020Y-107953710D01*
X158417600Y-107920633D01*
X158417600Y-107807367D01*
X158395503Y-107696279D01*
X158352158Y-107591635D01*
X158289232Y-107497459D01*
X158209141Y-107417368D01*
X158114965Y-107354442D01*
X158010321Y-107311097D01*
X157899233Y-107289000D01*
X157785967Y-107289000D01*
X157674879Y-107311097D01*
X157570235Y-107354442D01*
X157476059Y-107417368D01*
X157395968Y-107497459D01*
X157333042Y-107591635D01*
X157289697Y-107696279D01*
X157267600Y-107807367D01*
X157267600Y-107920633D01*
X157289697Y-108031721D01*
X157333042Y-108136365D01*
X157395968Y-108230541D01*
X157476059Y-108310632D01*
X157570235Y-108373558D01*
X157674879Y-108416903D01*
X157785967Y-108439000D01*
X157899233Y-108439000D01*
X157932310Y-108432420D01*
X160888439Y-111388550D01*
X160228510Y-112048479D01*
X160195433Y-112041900D01*
X160082167Y-112041900D01*
X159971079Y-112063997D01*
X159866435Y-112107342D01*
X159772259Y-112170268D01*
X159692168Y-112250359D01*
X159629242Y-112344535D01*
X159585897Y-112449179D01*
X159563800Y-112560267D01*
X159563800Y-112673533D01*
X159585897Y-112784621D01*
X159629242Y-112889265D01*
X159692168Y-112983441D01*
X159772259Y-113063532D01*
X159866435Y-113126458D01*
X159971079Y-113169803D01*
X160082167Y-113191900D01*
X160195433Y-113191900D01*
X160306521Y-113169803D01*
X160411165Y-113126458D01*
X160505341Y-113063532D01*
X160585432Y-112983441D01*
X160648358Y-112889265D01*
X160691703Y-112784621D01*
X160700001Y-112742905D01*
X160700000Y-117100000D01*
X154550000Y-117100000D01*
X154550000Y-112235267D01*
X154548520Y-112220238D01*
X154548520Y-112213746D01*
X154548082Y-112209580D01*
X154537205Y-112112605D01*
X154531544Y-112085974D01*
X154526270Y-112059335D01*
X154525034Y-112055342D01*
X154525032Y-112055335D01*
X154525029Y-112055329D01*
X154495525Y-111962318D01*
X154484812Y-111937321D01*
X154474453Y-111912188D01*
X154472465Y-111908512D01*
X154472461Y-111908503D01*
X154472456Y-111908496D01*
X154425449Y-111822990D01*
X154410091Y-111800560D01*
X154395040Y-111777906D01*
X154392369Y-111774678D01*
X154329644Y-111699927D01*
X154310236Y-111680921D01*
X154291060Y-111661610D01*
X154287814Y-111658963D01*
X154211764Y-111597817D01*
X154189028Y-111582939D01*
X154166470Y-111567723D01*
X154162776Y-111565760D01*
X154162772Y-111565757D01*
X154162768Y-111565755D01*
X154095675Y-111530680D01*
X155201246Y-111530680D01*
X155201655Y-111534849D01*
X155211855Y-111631898D01*
X155217327Y-111658553D01*
X155222417Y-111685241D01*
X155223628Y-111689251D01*
X155252484Y-111782470D01*
X155263023Y-111807541D01*
X155273207Y-111832748D01*
X155275174Y-111836447D01*
X155321587Y-111922284D01*
X155336806Y-111944848D01*
X155351680Y-111967577D01*
X155354327Y-111970824D01*
X155416529Y-112046013D01*
X155435833Y-112065183D01*
X155454844Y-112084597D01*
X155458072Y-112087267D01*
X155533693Y-112148943D01*
X155556354Y-112163999D01*
X155578779Y-112179354D01*
X155582464Y-112181346D01*
X155668625Y-112227158D01*
X155693764Y-112237520D01*
X155718752Y-112248230D01*
X155722747Y-112249466D01*
X155722757Y-112249470D01*
X155722768Y-112249472D01*
X155816172Y-112277673D01*
X155842827Y-112282951D01*
X155869443Y-112288609D01*
X155873603Y-112289045D01*
X155873606Y-112289046D01*
X155873609Y-112289046D01*
X155970721Y-112298567D01*
X155985267Y-112300000D01*
X158014733Y-112300000D01*
X158029762Y-112298520D01*
X158036254Y-112298520D01*
X158040420Y-112298082D01*
X158137395Y-112287205D01*
X158164026Y-112281544D01*
X158190665Y-112276270D01*
X158194661Y-112275033D01*
X158194665Y-112275032D01*
X158194668Y-112275031D01*
X158287682Y-112245525D01*
X158312679Y-112234812D01*
X158337812Y-112224453D01*
X158341488Y-112222465D01*
X158341497Y-112222461D01*
X158341504Y-112222456D01*
X158427009Y-112175449D01*
X158449422Y-112160103D01*
X158472094Y-112145040D01*
X158475312Y-112142377D01*
X158475320Y-112142371D01*
X158475326Y-112142364D01*
X158550073Y-112079645D01*
X158569098Y-112060217D01*
X158588390Y-112041060D01*
X158591037Y-112037814D01*
X158652183Y-111961764D01*
X158667083Y-111938995D01*
X158682277Y-111916469D01*
X158684237Y-111912781D01*
X158684243Y-111912772D01*
X158684247Y-111912763D01*
X158729453Y-111826291D01*
X158739648Y-111801058D01*
X158750175Y-111776017D01*
X158751386Y-111772007D01*
X158778938Y-111678395D01*
X158784036Y-111651670D01*
X158789501Y-111625049D01*
X158789909Y-111620880D01*
X158798753Y-111523698D01*
X158798564Y-111496514D01*
X158798754Y-111469320D01*
X158798345Y-111465151D01*
X158788145Y-111368103D01*
X158782675Y-111341454D01*
X158777583Y-111314759D01*
X158776372Y-111310749D01*
X158747516Y-111217530D01*
X158736982Y-111192470D01*
X158726793Y-111167252D01*
X158724826Y-111163553D01*
X158678413Y-111077715D01*
X158663194Y-111055151D01*
X158648320Y-111032422D01*
X158645674Y-111029178D01*
X158645673Y-111029176D01*
X158645667Y-111029170D01*
X158583471Y-110953987D01*
X158564147Y-110934798D01*
X158545155Y-110915403D01*
X158541928Y-110912733D01*
X158466307Y-110851057D01*
X158443646Y-110836001D01*
X158421221Y-110820646D01*
X158417536Y-110818654D01*
X158331375Y-110772842D01*
X158306236Y-110762480D01*
X158281248Y-110751770D01*
X158277253Y-110750534D01*
X158277243Y-110750530D01*
X158277232Y-110750528D01*
X158183828Y-110722327D01*
X158157180Y-110717050D01*
X158130557Y-110711391D01*
X158126397Y-110710955D01*
X158126394Y-110710954D01*
X158126391Y-110710954D01*
X158029274Y-110701432D01*
X158029273Y-110701432D01*
X158014733Y-110700000D01*
X155985267Y-110700000D01*
X155970238Y-110701480D01*
X155963746Y-110701480D01*
X155959580Y-110701918D01*
X155862605Y-110712795D01*
X155835974Y-110718456D01*
X155809335Y-110723730D01*
X155805342Y-110724966D01*
X155805335Y-110724968D01*
X155805329Y-110724971D01*
X155712318Y-110754475D01*
X155687321Y-110765188D01*
X155662188Y-110775547D01*
X155658512Y-110777535D01*
X155658503Y-110777539D01*
X155658496Y-110777544D01*
X155572990Y-110824551D01*
X155550560Y-110839909D01*
X155527906Y-110854960D01*
X155524678Y-110857631D01*
X155449927Y-110920356D01*
X155430921Y-110939764D01*
X155411610Y-110958940D01*
X155408963Y-110962186D01*
X155347817Y-111038236D01*
X155332939Y-111060972D01*
X155317723Y-111083530D01*
X155315760Y-111087224D01*
X155315757Y-111087228D01*
X155315757Y-111087229D01*
X155270547Y-111173709D01*
X155260366Y-111198907D01*
X155249825Y-111223983D01*
X155248617Y-111227984D01*
X155248613Y-111227994D01*
X155248611Y-111228004D01*
X155221062Y-111321605D01*
X155215960Y-111348348D01*
X155210499Y-111374950D01*
X155210093Y-111379103D01*
X155210090Y-111379117D01*
X155210090Y-111379130D01*
X155201247Y-111476302D01*
X155201436Y-111503486D01*
X155201246Y-111530680D01*
X154095675Y-111530680D01*
X154076291Y-111520547D01*
X154051075Y-111510358D01*
X154026017Y-111499825D01*
X154022016Y-111498617D01*
X154022006Y-111498613D01*
X154021996Y-111498611D01*
X153928395Y-111471062D01*
X153901652Y-111465960D01*
X153875050Y-111460499D01*
X153870897Y-111460093D01*
X153870883Y-111460090D01*
X153870870Y-111460090D01*
X153773698Y-111451247D01*
X153746514Y-111451436D01*
X153719320Y-111451246D01*
X153715151Y-111451655D01*
X153715149Y-111451655D01*
X153618103Y-111461855D01*
X153591454Y-111467325D01*
X153564759Y-111472417D01*
X153560749Y-111473628D01*
X153467530Y-111502484D01*
X153442470Y-111513018D01*
X153417252Y-111523207D01*
X153413553Y-111525174D01*
X153327715Y-111571587D01*
X153305151Y-111586806D01*
X153282422Y-111601680D01*
X153279183Y-111604322D01*
X153279176Y-111604327D01*
X153279170Y-111604333D01*
X153203987Y-111666529D01*
X153184798Y-111685853D01*
X153165403Y-111704845D01*
X153162733Y-111708072D01*
X153101057Y-111783693D01*
X153086001Y-111806354D01*
X153070646Y-111828779D01*
X153068654Y-111832464D01*
X153022842Y-111918625D01*
X153012480Y-111943764D01*
X153001770Y-111968752D01*
X153000534Y-111972747D01*
X153000530Y-111972757D01*
X153000528Y-111972768D01*
X152972327Y-112066172D01*
X152967050Y-112092820D01*
X152961391Y-112119443D01*
X152960954Y-112123609D01*
X152951475Y-112220292D01*
X152950000Y-112235268D01*
X152950001Y-117100000D01*
X151614670Y-117100000D01*
X151580856Y-117096684D01*
X151562446Y-117091126D01*
X151545455Y-117082092D01*
X151530550Y-117069936D01*
X151518290Y-117055116D01*
X151509139Y-117038193D01*
X151503453Y-117019822D01*
X151500000Y-116986972D01*
X151500000Y-107026092D01*
X151945000Y-107026092D01*
X151945000Y-107233908D01*
X151985543Y-107437732D01*
X152065071Y-107629730D01*
X152180528Y-107802523D01*
X152327477Y-107949472D01*
X152500270Y-108064929D01*
X152692268Y-108144457D01*
X152896092Y-108185000D01*
X153103908Y-108185000D01*
X153307732Y-108144457D01*
X153499730Y-108064929D01*
X153672523Y-107949472D01*
X153819472Y-107802523D01*
X153934929Y-107629730D01*
X154014457Y-107437732D01*
X154055000Y-107233908D01*
X154055000Y-107026092D01*
X154014457Y-106822268D01*
X153934929Y-106630270D01*
X153819472Y-106457477D01*
X153672523Y-106310528D01*
X153499730Y-106195071D01*
X153307732Y-106115543D01*
X153103908Y-106075000D01*
X152896092Y-106075000D01*
X152692268Y-106115543D01*
X152500270Y-106195071D01*
X152327477Y-106310528D01*
X152180528Y-106457477D01*
X152065071Y-106630270D01*
X151985543Y-106822268D01*
X151945000Y-107026092D01*
X151500000Y-107026092D01*
X151500000Y-104486092D01*
X151945000Y-104486092D01*
X151945000Y-104693908D01*
X151985543Y-104897732D01*
X152065071Y-105089730D01*
X152180528Y-105262523D01*
X152327477Y-105409472D01*
X152500270Y-105524929D01*
X152692268Y-105604457D01*
X152896092Y-105645000D01*
X153103908Y-105645000D01*
X153307732Y-105604457D01*
X153499730Y-105524929D01*
X153672523Y-105409472D01*
X153819472Y-105262523D01*
X153934929Y-105089730D01*
X154014457Y-104897732D01*
X154055000Y-104693908D01*
X154055000Y-104486092D01*
X154014457Y-104282268D01*
X153934929Y-104090270D01*
X153819472Y-103917477D01*
X153672523Y-103770528D01*
X153499730Y-103655071D01*
X153307732Y-103575543D01*
X153103908Y-103535000D01*
X152896092Y-103535000D01*
X152692268Y-103575543D01*
X152500270Y-103655071D01*
X152327477Y-103770528D01*
X152180528Y-103917477D01*
X152065071Y-104090270D01*
X151985543Y-104282268D01*
X151945000Y-104486092D01*
X151500000Y-104486092D01*
X151500000Y-101946092D01*
X151945000Y-101946092D01*
X151945000Y-102153908D01*
X151985543Y-102357732D01*
X152065071Y-102549730D01*
X152180528Y-102722523D01*
X152327477Y-102869472D01*
X152500270Y-102984929D01*
X152692268Y-103064457D01*
X152896092Y-103105000D01*
X153103908Y-103105000D01*
X153307732Y-103064457D01*
X153499730Y-102984929D01*
X153672523Y-102869472D01*
X153819472Y-102722523D01*
X153934929Y-102549730D01*
X154014457Y-102357732D01*
X154055000Y-102153908D01*
X154055000Y-101946092D01*
X154014457Y-101742268D01*
X153934929Y-101550270D01*
X153819472Y-101377477D01*
X153672523Y-101230528D01*
X153499730Y-101115071D01*
X153307732Y-101035543D01*
X153103908Y-100995000D01*
X152896092Y-100995000D01*
X152692268Y-101035543D01*
X152500270Y-101115071D01*
X152327477Y-101230528D01*
X152180528Y-101377477D01*
X152065071Y-101550270D01*
X151985543Y-101742268D01*
X151945000Y-101946092D01*
X151500000Y-101946092D01*
X151500000Y-99406092D01*
X151945000Y-99406092D01*
X151945000Y-99613908D01*
X151985543Y-99817732D01*
X152065071Y-100009730D01*
X152180528Y-100182523D01*
X152327477Y-100329472D01*
X152500270Y-100444929D01*
X152692268Y-100524457D01*
X152896092Y-100565000D01*
X153103908Y-100565000D01*
X153307732Y-100524457D01*
X153499730Y-100444929D01*
X153672523Y-100329472D01*
X153819472Y-100182523D01*
X153934929Y-100009730D01*
X154014457Y-99817732D01*
X154055000Y-99613908D01*
X154055000Y-99406092D01*
X154014457Y-99202268D01*
X153934929Y-99010270D01*
X153819472Y-98837477D01*
X153672523Y-98690528D01*
X153499730Y-98575071D01*
X153307732Y-98495543D01*
X153103908Y-98455000D01*
X152896092Y-98455000D01*
X152692268Y-98495543D01*
X152500270Y-98575071D01*
X152327477Y-98690528D01*
X152180528Y-98837477D01*
X152065071Y-99010270D01*
X151985543Y-99202268D01*
X151945000Y-99406092D01*
X151500000Y-99406092D01*
X151500000Y-96866092D01*
X151945000Y-96866092D01*
X151945000Y-97073908D01*
X151985543Y-97277732D01*
X152065071Y-97469730D01*
X152180528Y-97642523D01*
X152327477Y-97789472D01*
X152500270Y-97904929D01*
X152692268Y-97984457D01*
X152896092Y-98025000D01*
X153103908Y-98025000D01*
X153307732Y-97984457D01*
X153499730Y-97904929D01*
X153672523Y-97789472D01*
X153819472Y-97642523D01*
X153934929Y-97469730D01*
X154014457Y-97277732D01*
X154055000Y-97073908D01*
X154055000Y-96866092D01*
X154014457Y-96662268D01*
X153934929Y-96470270D01*
X153819472Y-96297477D01*
X153672523Y-96150528D01*
X153499730Y-96035071D01*
X153307732Y-95955543D01*
X153103908Y-95915000D01*
X152896092Y-95915000D01*
X152692268Y-95955543D01*
X152500270Y-96035071D01*
X152327477Y-96150528D01*
X152180528Y-96297477D01*
X152065071Y-96470270D01*
X151985543Y-96662268D01*
X151945000Y-96866092D01*
X151500000Y-96866092D01*
X151500000Y-94326092D01*
X151945000Y-94326092D01*
X151945000Y-94533908D01*
X151985543Y-94737732D01*
X152065071Y-94929730D01*
X152180528Y-95102523D01*
X152327477Y-95249472D01*
X152500270Y-95364929D01*
X152692268Y-95444457D01*
X152896092Y-95485000D01*
X153103908Y-95485000D01*
X153307732Y-95444457D01*
X153499730Y-95364929D01*
X153672523Y-95249472D01*
X153819472Y-95102523D01*
X153934929Y-94929730D01*
X154014457Y-94737732D01*
X154055000Y-94533908D01*
X154055000Y-94326092D01*
X154014457Y-94122268D01*
X153934929Y-93930270D01*
X153819472Y-93757477D01*
X153672523Y-93610528D01*
X153499730Y-93495071D01*
X153307732Y-93415543D01*
X153103908Y-93375000D01*
X152896092Y-93375000D01*
X152692268Y-93415543D01*
X152500270Y-93495071D01*
X152327477Y-93610528D01*
X152180528Y-93757477D01*
X152065071Y-93930270D01*
X151985543Y-94122268D01*
X151945000Y-94326092D01*
X151500000Y-94326092D01*
X151500000Y-91786092D01*
X151945000Y-91786092D01*
X151945000Y-91993908D01*
X151985543Y-92197732D01*
X152065071Y-92389730D01*
X152180528Y-92562523D01*
X152327477Y-92709472D01*
X152500270Y-92824929D01*
X152692268Y-92904457D01*
X152896092Y-92945000D01*
X153103908Y-92945000D01*
X153307732Y-92904457D01*
X153499730Y-92824929D01*
X153672523Y-92709472D01*
X153819472Y-92562523D01*
X153934929Y-92389730D01*
X154014457Y-92197732D01*
X154055000Y-91993908D01*
X154055000Y-91786092D01*
X154014457Y-91582268D01*
X153934929Y-91390270D01*
X153819472Y-91217477D01*
X153672523Y-91070528D01*
X153499730Y-90955071D01*
X153307732Y-90875543D01*
X153103908Y-90835000D01*
X152896092Y-90835000D01*
X152692268Y-90875543D01*
X152500270Y-90955071D01*
X152327477Y-91070528D01*
X152180528Y-91217477D01*
X152065071Y-91390270D01*
X151985543Y-91582268D01*
X151945000Y-91786092D01*
X151500000Y-91786092D01*
X151500000Y-89246092D01*
X151945000Y-89246092D01*
X151945000Y-89453908D01*
X151985543Y-89657732D01*
X152065071Y-89849730D01*
X152180528Y-90022523D01*
X152327477Y-90169472D01*
X152500270Y-90284929D01*
X152692268Y-90364457D01*
X152896092Y-90405000D01*
X153103908Y-90405000D01*
X153307732Y-90364457D01*
X153499730Y-90284929D01*
X153672523Y-90169472D01*
X153819472Y-90022523D01*
X153934929Y-89849730D01*
X154014457Y-89657732D01*
X154055000Y-89453908D01*
X154055000Y-89246092D01*
X154014457Y-89042268D01*
X153934929Y-88850270D01*
X153819472Y-88677477D01*
X153672523Y-88530528D01*
X153499730Y-88415071D01*
X153307732Y-88335543D01*
X153103908Y-88295000D01*
X152896092Y-88295000D01*
X152692268Y-88335543D01*
X152500270Y-88415071D01*
X152327477Y-88530528D01*
X152180528Y-88677477D01*
X152065071Y-88850270D01*
X151985543Y-89042268D01*
X151945000Y-89246092D01*
X151500000Y-89246092D01*
X151500000Y-86706092D01*
X151945000Y-86706092D01*
X151945000Y-86913908D01*
X151985543Y-87117732D01*
X152065071Y-87309730D01*
X152180528Y-87482523D01*
X152327477Y-87629472D01*
X152500270Y-87744929D01*
X152692268Y-87824457D01*
X152896092Y-87865000D01*
X153103908Y-87865000D01*
X153307732Y-87824457D01*
X153499730Y-87744929D01*
X153672523Y-87629472D01*
X153819472Y-87482523D01*
X153934929Y-87309730D01*
X154014457Y-87117732D01*
X154055000Y-86913908D01*
X154055000Y-86706092D01*
X154014457Y-86502268D01*
X153934929Y-86310270D01*
X153819472Y-86137477D01*
X153672523Y-85990528D01*
X153499730Y-85875071D01*
X153307732Y-85795543D01*
X153103908Y-85755000D01*
X152896092Y-85755000D01*
X152692268Y-85795543D01*
X152500270Y-85875071D01*
X152327477Y-85990528D01*
X152180528Y-86137477D01*
X152065071Y-86310270D01*
X151985543Y-86502268D01*
X151945000Y-86706092D01*
X151500000Y-86706092D01*
X151500000Y-84166092D01*
X151945000Y-84166092D01*
X151945000Y-84373908D01*
X151985543Y-84577732D01*
X152065071Y-84769730D01*
X152180528Y-84942523D01*
X152327477Y-85089472D01*
X152500270Y-85204929D01*
X152692268Y-85284457D01*
X152896092Y-85325000D01*
X153103908Y-85325000D01*
X153307732Y-85284457D01*
X153499730Y-85204929D01*
X153672523Y-85089472D01*
X153819472Y-84942523D01*
X153934929Y-84769730D01*
X154014457Y-84577732D01*
X154055000Y-84373908D01*
X154055000Y-84166092D01*
X154014457Y-83962268D01*
X153934929Y-83770270D01*
X153819472Y-83597477D01*
X153672523Y-83450528D01*
X153499730Y-83335071D01*
X153307732Y-83255543D01*
X153103908Y-83215000D01*
X152896092Y-83215000D01*
X152692268Y-83255543D01*
X152500270Y-83335071D01*
X152327477Y-83450528D01*
X152180528Y-83597477D01*
X152065071Y-83770270D01*
X151985543Y-83962268D01*
X151945000Y-84166092D01*
X151500000Y-84166092D01*
X151500000Y-77629700D01*
X151680164Y-77629700D01*
X151681800Y-77646312D01*
X151681801Y-79571078D01*
X151680164Y-79587700D01*
X151686699Y-79654057D01*
X151706054Y-79717864D01*
X151737487Y-79776670D01*
X151779788Y-79828213D01*
X151792699Y-79838809D01*
X152383891Y-80430002D01*
X152394487Y-80442913D01*
X152446030Y-80485214D01*
X152504835Y-80516646D01*
X152553792Y-80531496D01*
X152568642Y-80536001D01*
X152574936Y-80536621D01*
X152618380Y-80540900D01*
X152618387Y-80540900D01*
X152634999Y-80542536D01*
X152651611Y-80540900D01*
X156924690Y-80540900D01*
X166321579Y-89937790D01*
X166315000Y-89970867D01*
X166315000Y-90084133D01*
X166337097Y-90195221D01*
X166380442Y-90299865D01*
X166443368Y-90394041D01*
X166523459Y-90474132D01*
X166617635Y-90537058D01*
X166722279Y-90580403D01*
X166833367Y-90602500D01*
X166946633Y-90602500D01*
X167057721Y-90580403D01*
X167162365Y-90537058D01*
X167256541Y-90474132D01*
X167336632Y-90394041D01*
X167399558Y-90299865D01*
X167442903Y-90195221D01*
X167456556Y-90126582D01*
X167497142Y-90224565D01*
X167560068Y-90318741D01*
X167640159Y-90398832D01*
X167734335Y-90461758D01*
X167838979Y-90505103D01*
X167950067Y-90527200D01*
X168063333Y-90527200D01*
X168174421Y-90505103D01*
X168279065Y-90461758D01*
X168373241Y-90398832D01*
X168453332Y-90318741D01*
X168516258Y-90224565D01*
X168559603Y-90119921D01*
X168581700Y-90008833D01*
X168581700Y-89895567D01*
X168559603Y-89784479D01*
X168516258Y-89679835D01*
X168453332Y-89585659D01*
X168373241Y-89505568D01*
X168279065Y-89442642D01*
X168174421Y-89399297D01*
X168063333Y-89377200D01*
X167950067Y-89377200D01*
X167916990Y-89383779D01*
X165711958Y-87178747D01*
X165738367Y-87184000D01*
X165851633Y-87184000D01*
X165962721Y-87161903D01*
X166067365Y-87118558D01*
X166161541Y-87055632D01*
X166241632Y-86975541D01*
X166304558Y-86881365D01*
X166347903Y-86776721D01*
X166361952Y-86706092D01*
X172265000Y-86706092D01*
X172265000Y-86913908D01*
X172305543Y-87117732D01*
X172385071Y-87309730D01*
X172500528Y-87482523D01*
X172647477Y-87629472D01*
X172820270Y-87744929D01*
X173012268Y-87824457D01*
X173216092Y-87865000D01*
X173423908Y-87865000D01*
X173627732Y-87824457D01*
X173819730Y-87744929D01*
X173992523Y-87629472D01*
X174139472Y-87482523D01*
X174254929Y-87309730D01*
X174334457Y-87117732D01*
X174375000Y-86913908D01*
X174375000Y-86706092D01*
X174334457Y-86502268D01*
X174254929Y-86310270D01*
X174139472Y-86137477D01*
X173992523Y-85990528D01*
X173819730Y-85875071D01*
X173627732Y-85795543D01*
X173423908Y-85755000D01*
X173216092Y-85755000D01*
X173012268Y-85795543D01*
X172820270Y-85875071D01*
X172647477Y-85990528D01*
X172500528Y-86137477D01*
X172385071Y-86310270D01*
X172305543Y-86502268D01*
X172265000Y-86706092D01*
X166361952Y-86706092D01*
X166370000Y-86665633D01*
X166370000Y-86552367D01*
X166347903Y-86441279D01*
X166304558Y-86336635D01*
X166241632Y-86242459D01*
X166161541Y-86162368D01*
X166067365Y-86099442D01*
X165962721Y-86056097D01*
X165851633Y-86034000D01*
X165738367Y-86034000D01*
X165705290Y-86040579D01*
X163830803Y-84166092D01*
X172265000Y-84166092D01*
X172265000Y-84373908D01*
X172305543Y-84577732D01*
X172385071Y-84769730D01*
X172500528Y-84942523D01*
X172647477Y-85089472D01*
X172820270Y-85204929D01*
X173012268Y-85284457D01*
X173216092Y-85325000D01*
X173423908Y-85325000D01*
X173627732Y-85284457D01*
X173819730Y-85204929D01*
X173992523Y-85089472D01*
X174139472Y-84942523D01*
X174254929Y-84769730D01*
X174334457Y-84577732D01*
X174375000Y-84373908D01*
X174375000Y-84166092D01*
X174334457Y-83962268D01*
X174254929Y-83770270D01*
X174139472Y-83597477D01*
X173992523Y-83450528D01*
X173819730Y-83335071D01*
X173627732Y-83255543D01*
X173423908Y-83215000D01*
X173216092Y-83215000D01*
X173012268Y-83255543D01*
X172820270Y-83335071D01*
X172647477Y-83450528D01*
X172500528Y-83597477D01*
X172385071Y-83770270D01*
X172305543Y-83962268D01*
X172265000Y-84166092D01*
X163830803Y-84166092D01*
X161290803Y-81626092D01*
X172265000Y-81626092D01*
X172265000Y-81833908D01*
X172305543Y-82037732D01*
X172385071Y-82229730D01*
X172500528Y-82402523D01*
X172647477Y-82549472D01*
X172820270Y-82664929D01*
X173012268Y-82744457D01*
X173216092Y-82785000D01*
X173423908Y-82785000D01*
X173627732Y-82744457D01*
X173819730Y-82664929D01*
X173992523Y-82549472D01*
X174139472Y-82402523D01*
X174254929Y-82229730D01*
X174334457Y-82037732D01*
X174375000Y-81833908D01*
X174375000Y-81626092D01*
X174334457Y-81422268D01*
X174254929Y-81230270D01*
X174139472Y-81057477D01*
X173992523Y-80910528D01*
X173819730Y-80795071D01*
X173627732Y-80715543D01*
X173423908Y-80675000D01*
X173216092Y-80675000D01*
X173012268Y-80715543D01*
X172820270Y-80795071D01*
X172647477Y-80910528D01*
X172500528Y-81057477D01*
X172385071Y-81230270D01*
X172305543Y-81422268D01*
X172265000Y-81626092D01*
X161290803Y-81626092D01*
X158750803Y-79086092D01*
X172265000Y-79086092D01*
X172265000Y-79293908D01*
X172305543Y-79497732D01*
X172385071Y-79689730D01*
X172500528Y-79862523D01*
X172647477Y-80009472D01*
X172820270Y-80124929D01*
X173012268Y-80204457D01*
X173216092Y-80245000D01*
X173423908Y-80245000D01*
X173627732Y-80204457D01*
X173819730Y-80124929D01*
X173992523Y-80009472D01*
X174139472Y-79862523D01*
X174254929Y-79689730D01*
X174334457Y-79497732D01*
X174375000Y-79293908D01*
X174375000Y-79086092D01*
X174334457Y-78882268D01*
X174254929Y-78690270D01*
X174139472Y-78517477D01*
X173992523Y-78370528D01*
X173819730Y-78255071D01*
X173627732Y-78175543D01*
X173423908Y-78135000D01*
X173216092Y-78135000D01*
X173012268Y-78175543D01*
X172820270Y-78255071D01*
X172647477Y-78370528D01*
X172500528Y-78517477D01*
X172385071Y-78690270D01*
X172305543Y-78882268D01*
X172265000Y-79086092D01*
X158750803Y-79086092D01*
X155712575Y-76047864D01*
X162286600Y-76047864D01*
X162286600Y-76252136D01*
X162326451Y-76452482D01*
X162404622Y-76641204D01*
X162518109Y-76811049D01*
X162662551Y-76955491D01*
X162832396Y-77068978D01*
X163021118Y-77147149D01*
X163221464Y-77187000D01*
X163425736Y-77187000D01*
X163626082Y-77147149D01*
X163814804Y-77068978D01*
X163984649Y-76955491D01*
X164129091Y-76811049D01*
X164242578Y-76641204D01*
X164320749Y-76452482D01*
X164360600Y-76252136D01*
X164360600Y-76047864D01*
X167163400Y-76047864D01*
X167163400Y-76252136D01*
X167203251Y-76452482D01*
X167281422Y-76641204D01*
X167394909Y-76811049D01*
X167539351Y-76955491D01*
X167709196Y-77068978D01*
X167897918Y-77147149D01*
X168098264Y-77187000D01*
X168302536Y-77187000D01*
X168502882Y-77147149D01*
X168691604Y-77068978D01*
X168861449Y-76955491D01*
X169005891Y-76811049D01*
X169119378Y-76641204D01*
X169158774Y-76546092D01*
X172265000Y-76546092D01*
X172265000Y-76753908D01*
X172305543Y-76957732D01*
X172385071Y-77149730D01*
X172500528Y-77322523D01*
X172647477Y-77469472D01*
X172820270Y-77584929D01*
X173012268Y-77664457D01*
X173216092Y-77705000D01*
X173423908Y-77705000D01*
X173627732Y-77664457D01*
X173819730Y-77584929D01*
X173992523Y-77469472D01*
X174139472Y-77322523D01*
X174254929Y-77149730D01*
X174334457Y-76957732D01*
X174375000Y-76753908D01*
X174375000Y-76546092D01*
X174334457Y-76342268D01*
X174254929Y-76150270D01*
X174139472Y-75977477D01*
X173992523Y-75830528D01*
X173819730Y-75715071D01*
X173627732Y-75635543D01*
X173423908Y-75595000D01*
X173216092Y-75595000D01*
X173012268Y-75635543D01*
X172820270Y-75715071D01*
X172647477Y-75830528D01*
X172500528Y-75977477D01*
X172385071Y-76150270D01*
X172305543Y-76342268D01*
X172265000Y-76546092D01*
X169158774Y-76546092D01*
X169197549Y-76452482D01*
X169237400Y-76252136D01*
X169237400Y-76047864D01*
X169197549Y-75847518D01*
X169119378Y-75658796D01*
X169005891Y-75488951D01*
X168861449Y-75344509D01*
X168691604Y-75231022D01*
X168502882Y-75152851D01*
X168302536Y-75113000D01*
X168098264Y-75113000D01*
X167897918Y-75152851D01*
X167709196Y-75231022D01*
X167539351Y-75344509D01*
X167394909Y-75488951D01*
X167281422Y-75658796D01*
X167203251Y-75847518D01*
X167163400Y-76047864D01*
X164360600Y-76047864D01*
X164320749Y-75847518D01*
X164242578Y-75658796D01*
X164129091Y-75488951D01*
X163984649Y-75344509D01*
X163814804Y-75231022D01*
X163626082Y-75152851D01*
X163425736Y-75113000D01*
X163221464Y-75113000D01*
X163021118Y-75152851D01*
X162832396Y-75231022D01*
X162662551Y-75344509D01*
X162518109Y-75488951D01*
X162404622Y-75658796D01*
X162326451Y-75847518D01*
X162286600Y-76047864D01*
X155712575Y-76047864D01*
X154025736Y-74361026D01*
X154055000Y-74213908D01*
X154055000Y-74006092D01*
X172265000Y-74006092D01*
X172265000Y-74213908D01*
X172305543Y-74417732D01*
X172385071Y-74609730D01*
X172500528Y-74782523D01*
X172647477Y-74929472D01*
X172820270Y-75044929D01*
X173012268Y-75124457D01*
X173216092Y-75165000D01*
X173423908Y-75165000D01*
X173627732Y-75124457D01*
X173819730Y-75044929D01*
X173992523Y-74929472D01*
X174139472Y-74782523D01*
X174254929Y-74609730D01*
X174334457Y-74417732D01*
X174375000Y-74213908D01*
X174375000Y-74006092D01*
X174334457Y-73802268D01*
X174254929Y-73610270D01*
X174139472Y-73437477D01*
X173992523Y-73290528D01*
X173819730Y-73175071D01*
X173627732Y-73095543D01*
X173423908Y-73055000D01*
X173216092Y-73055000D01*
X173012268Y-73095543D01*
X172820270Y-73175071D01*
X172647477Y-73290528D01*
X172500528Y-73437477D01*
X172385071Y-73610270D01*
X172305543Y-73802268D01*
X172265000Y-74006092D01*
X154055000Y-74006092D01*
X154014457Y-73802268D01*
X153934929Y-73610270D01*
X153819472Y-73437477D01*
X153672523Y-73290528D01*
X153499730Y-73175071D01*
X153307732Y-73095543D01*
X153103908Y-73055000D01*
X152896092Y-73055000D01*
X152692268Y-73095543D01*
X152500270Y-73175071D01*
X152327477Y-73290528D01*
X152180528Y-73437477D01*
X152065071Y-73610270D01*
X151985543Y-73802268D01*
X151945000Y-74006092D01*
X151945000Y-74213908D01*
X151985543Y-74417732D01*
X152065071Y-74609730D01*
X152180528Y-74782523D01*
X152327477Y-74929472D01*
X152500270Y-75044929D01*
X152692268Y-75124457D01*
X152896092Y-75165000D01*
X153103908Y-75165000D01*
X153307732Y-75124457D01*
X153499730Y-75044929D01*
X153651086Y-74943796D01*
X165226579Y-86519290D01*
X165220000Y-86552367D01*
X165220000Y-86665633D01*
X165225253Y-86692043D01*
X157495613Y-78962403D01*
X157485013Y-78949487D01*
X157433470Y-78907186D01*
X157374665Y-78875754D01*
X157310857Y-78856399D01*
X157261120Y-78851500D01*
X157261112Y-78851500D01*
X157244500Y-78849864D01*
X157227888Y-78851500D01*
X154001713Y-78851500D01*
X153934929Y-78690270D01*
X153819472Y-78517477D01*
X153672523Y-78370528D01*
X153499730Y-78255071D01*
X153307732Y-78175543D01*
X153103908Y-78135000D01*
X152896092Y-78135000D01*
X152692268Y-78175543D01*
X152500270Y-78255071D01*
X152358800Y-78349599D01*
X152358800Y-77769910D01*
X152531037Y-77597673D01*
X152692268Y-77664457D01*
X152896092Y-77705000D01*
X153103908Y-77705000D01*
X153307732Y-77664457D01*
X153499730Y-77584929D01*
X153672523Y-77469472D01*
X153819472Y-77322523D01*
X153934929Y-77149730D01*
X154014457Y-76957732D01*
X154055000Y-76753908D01*
X154055000Y-76546092D01*
X154014457Y-76342268D01*
X153934929Y-76150270D01*
X153819472Y-75977477D01*
X153672523Y-75830528D01*
X153499730Y-75715071D01*
X153307732Y-75635543D01*
X153103908Y-75595000D01*
X152896092Y-75595000D01*
X152692268Y-75635543D01*
X152500270Y-75715071D01*
X152327477Y-75830528D01*
X152180528Y-75977477D01*
X152065071Y-76150270D01*
X151985543Y-76342268D01*
X151945000Y-76546092D01*
X151945000Y-76753908D01*
X151985543Y-76957732D01*
X152052327Y-77118963D01*
X151792699Y-77378591D01*
X151779787Y-77389188D01*
X151737486Y-77440731D01*
X151706054Y-77499536D01*
X151686699Y-77563344D01*
X151681800Y-77613081D01*
X151681800Y-77613088D01*
X151680164Y-77629700D01*
X151500000Y-77629700D01*
X151500000Y-71466092D01*
X151945000Y-71466092D01*
X151945000Y-71673908D01*
X151985543Y-71877732D01*
X152065071Y-72069730D01*
X152180528Y-72242523D01*
X152327477Y-72389472D01*
X152500270Y-72504929D01*
X152692268Y-72584457D01*
X152896092Y-72625000D01*
X153103908Y-72625000D01*
X153307732Y-72584457D01*
X153499730Y-72504929D01*
X153672523Y-72389472D01*
X153819472Y-72242523D01*
X153934929Y-72069730D01*
X154014457Y-71877732D01*
X154055000Y-71673908D01*
X154055000Y-71466092D01*
X172265000Y-71466092D01*
X172265000Y-71673908D01*
X172305543Y-71877732D01*
X172385071Y-72069730D01*
X172500528Y-72242523D01*
X172647477Y-72389472D01*
X172820270Y-72504929D01*
X173012268Y-72584457D01*
X173216092Y-72625000D01*
X173423908Y-72625000D01*
X173627732Y-72584457D01*
X173819730Y-72504929D01*
X173992523Y-72389472D01*
X174139472Y-72242523D01*
X174254929Y-72069730D01*
X174334457Y-71877732D01*
X174375000Y-71673908D01*
X174375000Y-71466092D01*
X174334457Y-71262268D01*
X174254929Y-71070270D01*
X174139472Y-70897477D01*
X173992523Y-70750528D01*
X173819730Y-70635071D01*
X173627732Y-70555543D01*
X173423908Y-70515000D01*
X173216092Y-70515000D01*
X173012268Y-70555543D01*
X172820270Y-70635071D01*
X172647477Y-70750528D01*
X172500528Y-70897477D01*
X172385071Y-71070270D01*
X172305543Y-71262268D01*
X172265000Y-71466092D01*
X154055000Y-71466092D01*
X154014457Y-71262268D01*
X153934929Y-71070270D01*
X153819472Y-70897477D01*
X153672523Y-70750528D01*
X153499730Y-70635071D01*
X153307732Y-70555543D01*
X153103908Y-70515000D01*
X152896092Y-70515000D01*
X152692268Y-70555543D01*
X152500270Y-70635071D01*
X152327477Y-70750528D01*
X152180528Y-70897477D01*
X152065071Y-71070270D01*
X151985543Y-71262268D01*
X151945000Y-71466092D01*
X151500000Y-71466092D01*
X151500000Y-68926092D01*
X151945000Y-68926092D01*
X151945000Y-69133908D01*
X151985543Y-69337732D01*
X152065071Y-69529730D01*
X152180528Y-69702523D01*
X152327477Y-69849472D01*
X152500270Y-69964929D01*
X152692268Y-70044457D01*
X152896092Y-70085000D01*
X153103908Y-70085000D01*
X153307732Y-70044457D01*
X153499730Y-69964929D01*
X153672523Y-69849472D01*
X153819472Y-69702523D01*
X153934929Y-69529730D01*
X154014457Y-69337732D01*
X154055000Y-69133908D01*
X154055000Y-68926092D01*
X172265000Y-68926092D01*
X172265000Y-69133908D01*
X172305543Y-69337732D01*
X172385071Y-69529730D01*
X172500528Y-69702523D01*
X172647477Y-69849472D01*
X172820270Y-69964929D01*
X173012268Y-70044457D01*
X173216092Y-70085000D01*
X173423908Y-70085000D01*
X173627732Y-70044457D01*
X173819730Y-69964929D01*
X173992523Y-69849472D01*
X174139472Y-69702523D01*
X174254929Y-69529730D01*
X174334457Y-69337732D01*
X174375000Y-69133908D01*
X174375000Y-68926092D01*
X174334457Y-68722268D01*
X174254929Y-68530270D01*
X174139472Y-68357477D01*
X173992523Y-68210528D01*
X173819730Y-68095071D01*
X173627732Y-68015543D01*
X173423908Y-67975000D01*
X173216092Y-67975000D01*
X173012268Y-68015543D01*
X172820270Y-68095071D01*
X172647477Y-68210528D01*
X172500528Y-68357477D01*
X172385071Y-68530270D01*
X172305543Y-68722268D01*
X172265000Y-68926092D01*
X154055000Y-68926092D01*
X154014457Y-68722268D01*
X153934929Y-68530270D01*
X153819472Y-68357477D01*
X153672523Y-68210528D01*
X153499730Y-68095071D01*
X153307732Y-68015543D01*
X153103908Y-67975000D01*
X152896092Y-67975000D01*
X152692268Y-68015543D01*
X152500270Y-68095071D01*
X152327477Y-68210528D01*
X152180528Y-68357477D01*
X152065071Y-68530270D01*
X151985543Y-68722268D01*
X151945000Y-68926092D01*
X151500000Y-68926092D01*
X151500000Y-66386092D01*
X151945000Y-66386092D01*
X151945000Y-66593908D01*
X151985543Y-66797732D01*
X152065071Y-66989730D01*
X152180528Y-67162523D01*
X152327477Y-67309472D01*
X152500270Y-67424929D01*
X152692268Y-67504457D01*
X152896092Y-67545000D01*
X153103908Y-67545000D01*
X153307732Y-67504457D01*
X153499730Y-67424929D01*
X153672523Y-67309472D01*
X153819472Y-67162523D01*
X153934929Y-66989730D01*
X154014457Y-66797732D01*
X154055000Y-66593908D01*
X154055000Y-66386092D01*
X172265000Y-66386092D01*
X172265000Y-66593908D01*
X172305543Y-66797732D01*
X172385071Y-66989730D01*
X172500528Y-67162523D01*
X172647477Y-67309472D01*
X172820270Y-67424929D01*
X173012268Y-67504457D01*
X173216092Y-67545000D01*
X173423908Y-67545000D01*
X173627732Y-67504457D01*
X173819730Y-67424929D01*
X173992523Y-67309472D01*
X174139472Y-67162523D01*
X174254929Y-66989730D01*
X174334457Y-66797732D01*
X174375000Y-66593908D01*
X174375000Y-66386092D01*
X174334457Y-66182268D01*
X174254929Y-65990270D01*
X174139472Y-65817477D01*
X173992523Y-65670528D01*
X173819730Y-65555071D01*
X173627732Y-65475543D01*
X173423908Y-65435000D01*
X173216092Y-65435000D01*
X173012268Y-65475543D01*
X172820270Y-65555071D01*
X172647477Y-65670528D01*
X172500528Y-65817477D01*
X172385071Y-65990270D01*
X172305543Y-66182268D01*
X172265000Y-66386092D01*
X154055000Y-66386092D01*
X154014457Y-66182268D01*
X153934929Y-65990270D01*
X153819472Y-65817477D01*
X153672523Y-65670528D01*
X153499730Y-65555071D01*
X153307732Y-65475543D01*
X153103908Y-65435000D01*
X152896092Y-65435000D01*
X152692268Y-65475543D01*
X152500270Y-65555071D01*
X152327477Y-65670528D01*
X152180528Y-65817477D01*
X152065071Y-65990270D01*
X151985543Y-66182268D01*
X151945000Y-66386092D01*
X151500000Y-66386092D01*
X151500000Y-64755535D01*
X152300531Y-64755535D01*
X152379925Y-64931058D01*
X152583234Y-65033177D01*
X152802560Y-65093671D01*
X153029473Y-65110214D01*
X153255253Y-65082171D01*
X153471224Y-65010620D01*
X153620075Y-64931058D01*
X153699469Y-64755535D01*
X172620531Y-64755535D01*
X172699925Y-64931058D01*
X172903234Y-65033177D01*
X173122560Y-65093671D01*
X173349473Y-65110214D01*
X173575253Y-65082171D01*
X173791224Y-65010620D01*
X173940075Y-64931058D01*
X174019469Y-64755535D01*
X173320000Y-64056066D01*
X172620531Y-64755535D01*
X153699469Y-64755535D01*
X153000000Y-64056066D01*
X152300531Y-64755535D01*
X151500000Y-64755535D01*
X151500000Y-63979473D01*
X151839786Y-63979473D01*
X151867829Y-64205253D01*
X151939380Y-64421224D01*
X152018942Y-64570075D01*
X152194465Y-64649469D01*
X152893934Y-63950000D01*
X153106066Y-63950000D01*
X153805535Y-64649469D01*
X153981058Y-64570075D01*
X154083177Y-64366766D01*
X154143671Y-64147440D01*
X154155916Y-63979473D01*
X172159786Y-63979473D01*
X172187829Y-64205253D01*
X172259380Y-64421224D01*
X172338942Y-64570075D01*
X172514465Y-64649469D01*
X173213934Y-63950000D01*
X173426066Y-63950000D01*
X174125535Y-64649469D01*
X174301058Y-64570075D01*
X174403177Y-64366766D01*
X174463671Y-64147440D01*
X174480214Y-63920527D01*
X174452171Y-63694747D01*
X174380620Y-63478776D01*
X174301058Y-63329925D01*
X174125535Y-63250531D01*
X173426066Y-63950000D01*
X173213934Y-63950000D01*
X172514465Y-63250531D01*
X172338942Y-63329925D01*
X172236823Y-63533234D01*
X172176329Y-63752560D01*
X172159786Y-63979473D01*
X154155916Y-63979473D01*
X154160214Y-63920527D01*
X154132171Y-63694747D01*
X154060620Y-63478776D01*
X153981058Y-63329925D01*
X153805535Y-63250531D01*
X153106066Y-63950000D01*
X152893934Y-63950000D01*
X152194465Y-63250531D01*
X152018942Y-63329925D01*
X151916823Y-63533234D01*
X151856329Y-63752560D01*
X151839786Y-63979473D01*
X151500000Y-63979473D01*
X151500000Y-63144465D01*
X152300531Y-63144465D01*
X153000000Y-63843934D01*
X153699469Y-63144465D01*
X172620531Y-63144465D01*
X173320000Y-63843934D01*
X174019469Y-63144465D01*
X173940075Y-62968942D01*
X173736766Y-62866823D01*
X173517440Y-62806329D01*
X173290527Y-62789786D01*
X173064747Y-62817829D01*
X172848776Y-62889380D01*
X172699925Y-62968942D01*
X172620531Y-63144465D01*
X153699469Y-63144465D01*
X153620075Y-62968942D01*
X153416766Y-62866823D01*
X153197440Y-62806329D01*
X152970527Y-62789786D01*
X152744747Y-62817829D01*
X152528776Y-62889380D01*
X152379925Y-62968942D01*
X152300531Y-63144465D01*
X151500000Y-63144465D01*
X151500000Y-61306092D01*
X151945000Y-61306092D01*
X151945000Y-61513908D01*
X151985543Y-61717732D01*
X152065071Y-61909730D01*
X152180528Y-62082523D01*
X152327477Y-62229472D01*
X152500270Y-62344929D01*
X152692268Y-62424457D01*
X152896092Y-62465000D01*
X153103908Y-62465000D01*
X153307732Y-62424457D01*
X153499730Y-62344929D01*
X153672523Y-62229472D01*
X153819472Y-62082523D01*
X153934929Y-61909730D01*
X154014457Y-61717732D01*
X154055000Y-61513908D01*
X154055000Y-61306092D01*
X172265000Y-61306092D01*
X172265000Y-61513908D01*
X172305543Y-61717732D01*
X172385071Y-61909730D01*
X172500528Y-62082523D01*
X172647477Y-62229472D01*
X172820270Y-62344929D01*
X173012268Y-62424457D01*
X173216092Y-62465000D01*
X173423908Y-62465000D01*
X173627732Y-62424457D01*
X173819730Y-62344929D01*
X173992523Y-62229472D01*
X174139472Y-62082523D01*
X174254929Y-61909730D01*
X174334457Y-61717732D01*
X174375000Y-61513908D01*
X174375000Y-61306092D01*
X174334457Y-61102268D01*
X174267673Y-60941037D01*
X176719311Y-58489400D01*
X178498899Y-58489400D01*
X178487318Y-58500981D01*
X178358729Y-58693429D01*
X178270155Y-58907265D01*
X178225000Y-59134273D01*
X178225000Y-59365727D01*
X178270155Y-59592735D01*
X178358729Y-59806571D01*
X178487318Y-59999019D01*
X178650981Y-60162682D01*
X178843429Y-60291271D01*
X179057265Y-60379845D01*
X179284273Y-60425000D01*
X179515727Y-60425000D01*
X179742735Y-60379845D01*
X179956571Y-60291271D01*
X179960161Y-60288872D01*
X180159501Y-60488212D01*
X180159500Y-68347799D01*
X180149019Y-68337318D01*
X179956571Y-68208729D01*
X179742735Y-68120155D01*
X179515727Y-68075000D01*
X179284273Y-68075000D01*
X179057265Y-68120155D01*
X178843429Y-68208729D01*
X178650981Y-68337318D01*
X178487318Y-68500981D01*
X178358729Y-68693429D01*
X178270155Y-68907265D01*
X178225000Y-69134273D01*
X178225000Y-69365727D01*
X178270155Y-69592735D01*
X178358729Y-69806571D01*
X178487318Y-69999019D01*
X178650981Y-70162682D01*
X178843429Y-70291271D01*
X179057265Y-70379845D01*
X179284273Y-70425000D01*
X179515727Y-70425000D01*
X179742735Y-70379845D01*
X179956571Y-70291271D01*
X180149019Y-70162682D01*
X180159500Y-70152201D01*
X180159500Y-75011789D01*
X179960161Y-75211128D01*
X179956571Y-75208729D01*
X179742735Y-75120155D01*
X179515727Y-75075000D01*
X179284273Y-75075000D01*
X179057265Y-75120155D01*
X178843429Y-75208729D01*
X178650981Y-75337318D01*
X178487318Y-75500981D01*
X178358729Y-75693429D01*
X178270155Y-75907265D01*
X178225000Y-76134273D01*
X178225000Y-76365727D01*
X178270155Y-76592735D01*
X178358729Y-76806571D01*
X178487318Y-76999019D01*
X178650981Y-77162682D01*
X178843429Y-77291271D01*
X179057265Y-77379845D01*
X179284273Y-77425000D01*
X179515727Y-77425000D01*
X179742735Y-77379845D01*
X179956571Y-77291271D01*
X180149019Y-77162682D01*
X180312682Y-76999019D01*
X180441271Y-76806571D01*
X180529845Y-76592735D01*
X180575000Y-76365727D01*
X180575000Y-76134273D01*
X180529845Y-75907265D01*
X180441271Y-75693429D01*
X180438872Y-75689839D01*
X180725607Y-75403104D01*
X180738512Y-75392513D01*
X180780814Y-75340970D01*
X180812246Y-75282165D01*
X180822591Y-75248059D01*
X180831601Y-75218359D01*
X180832733Y-75206861D01*
X180836500Y-75168620D01*
X180836500Y-75168613D01*
X180838136Y-75152001D01*
X180836500Y-75135389D01*
X180836500Y-72634273D01*
X183425000Y-72634273D01*
X183425000Y-72865727D01*
X183470155Y-73092735D01*
X183558729Y-73306571D01*
X183687318Y-73499019D01*
X183850981Y-73662682D01*
X184043429Y-73791271D01*
X184257265Y-73879845D01*
X184484273Y-73925000D01*
X184715727Y-73925000D01*
X184942735Y-73879845D01*
X185156571Y-73791271D01*
X185349019Y-73662682D01*
X185512682Y-73499019D01*
X185641271Y-73306571D01*
X185729845Y-73092735D01*
X185775000Y-72865727D01*
X185775000Y-72634273D01*
X185729845Y-72407265D01*
X185641271Y-72193429D01*
X185512682Y-72000981D01*
X185349019Y-71837318D01*
X185156571Y-71708729D01*
X184942735Y-71620155D01*
X184715727Y-71575000D01*
X184484273Y-71575000D01*
X184257265Y-71620155D01*
X184043429Y-71708729D01*
X183850981Y-71837318D01*
X183687318Y-72000981D01*
X183558729Y-72193429D01*
X183470155Y-72407265D01*
X183425000Y-72634273D01*
X180836500Y-72634273D01*
X180836500Y-60364611D01*
X180838136Y-60347999D01*
X180836500Y-60331387D01*
X180836500Y-60331380D01*
X180831601Y-60281643D01*
X180831601Y-60281641D01*
X180822591Y-60251941D01*
X180812246Y-60217835D01*
X180780814Y-60159030D01*
X180738513Y-60107487D01*
X180725602Y-60096891D01*
X180438872Y-59810161D01*
X180441271Y-59806571D01*
X180529845Y-59592735D01*
X180575000Y-59365727D01*
X180575000Y-59203710D01*
X183561128Y-62189839D01*
X183558729Y-62193429D01*
X183470155Y-62407265D01*
X183425000Y-62634273D01*
X183425000Y-62865727D01*
X183470155Y-63092735D01*
X183558729Y-63306571D01*
X183687318Y-63499019D01*
X183850981Y-63662682D01*
X184043429Y-63791271D01*
X184257265Y-63879845D01*
X184484273Y-63925000D01*
X184715727Y-63925000D01*
X184942735Y-63879845D01*
X185156571Y-63791271D01*
X185349019Y-63662682D01*
X185512682Y-63499019D01*
X185641271Y-63306571D01*
X185729845Y-63092735D01*
X185775000Y-62865727D01*
X185775000Y-62634273D01*
X185729845Y-62407265D01*
X185641271Y-62193429D01*
X185512682Y-62000981D01*
X185349019Y-61837318D01*
X185156571Y-61708729D01*
X184942735Y-61620155D01*
X184715727Y-61575000D01*
X184484273Y-61575000D01*
X184257265Y-61620155D01*
X184043429Y-61708729D01*
X184039839Y-61711128D01*
X180252013Y-57923303D01*
X180241413Y-57910387D01*
X180189870Y-57868086D01*
X180131065Y-57836654D01*
X180067257Y-57817299D01*
X180017520Y-57812400D01*
X180017512Y-57812400D01*
X180000900Y-57810764D01*
X179984288Y-57812400D01*
X176595711Y-57812400D01*
X176579099Y-57810764D01*
X176562487Y-57812400D01*
X176562480Y-57812400D01*
X176524239Y-57816167D01*
X176512741Y-57817299D01*
X176483041Y-57826309D01*
X176448935Y-57836654D01*
X176390130Y-57868086D01*
X176338587Y-57910387D01*
X176327991Y-57923298D01*
X173788963Y-60462327D01*
X173627732Y-60395543D01*
X173423908Y-60355000D01*
X173216092Y-60355000D01*
X173012268Y-60395543D01*
X172820270Y-60475071D01*
X172647477Y-60590528D01*
X172500528Y-60737477D01*
X172385071Y-60910270D01*
X172305543Y-61102268D01*
X172265000Y-61306092D01*
X154055000Y-61306092D01*
X154014457Y-61102268D01*
X153934929Y-60910270D01*
X153819472Y-60737477D01*
X153672523Y-60590528D01*
X153499730Y-60475071D01*
X153307732Y-60395543D01*
X153103908Y-60355000D01*
X152896092Y-60355000D01*
X152692268Y-60395543D01*
X152500270Y-60475071D01*
X152327477Y-60590528D01*
X152180528Y-60737477D01*
X152065071Y-60910270D01*
X151985543Y-61102268D01*
X151945000Y-61306092D01*
X151500000Y-61306092D01*
X151500000Y-58090000D01*
X151943670Y-58090000D01*
X151943670Y-59650000D01*
X151948980Y-59703909D01*
X151964704Y-59755747D01*
X151990240Y-59803521D01*
X152024605Y-59845395D01*
X152066479Y-59879760D01*
X152114253Y-59905296D01*
X152166091Y-59921020D01*
X152220000Y-59926330D01*
X153780000Y-59926330D01*
X153833909Y-59921020D01*
X153885747Y-59905296D01*
X153933521Y-59879760D01*
X153975395Y-59845395D01*
X154009760Y-59803521D01*
X154035296Y-59755747D01*
X154051020Y-59703909D01*
X154056330Y-59650000D01*
X154056330Y-58090000D01*
X154051020Y-58036091D01*
X154035296Y-57984253D01*
X154009760Y-57936479D01*
X153975395Y-57894605D01*
X153933521Y-57860240D01*
X153885747Y-57834704D01*
X153833909Y-57818980D01*
X153780000Y-57813670D01*
X152220000Y-57813670D01*
X152166091Y-57818980D01*
X152114253Y-57834704D01*
X152066479Y-57860240D01*
X152024605Y-57894605D01*
X151990240Y-57936479D01*
X151964704Y-57984253D01*
X151948980Y-58036091D01*
X151943670Y-58090000D01*
X151500000Y-58090000D01*
X151500000Y-57423669D01*
X163025000Y-57423669D01*
X163025000Y-57576331D01*
X163054783Y-57726059D01*
X163113204Y-57867100D01*
X163198018Y-57994034D01*
X163305966Y-58101982D01*
X163432900Y-58186796D01*
X163573941Y-58245217D01*
X163723669Y-58275000D01*
X163876331Y-58275000D01*
X164026059Y-58245217D01*
X164167100Y-58186796D01*
X164294034Y-58101982D01*
X164306016Y-58090000D01*
X172263670Y-58090000D01*
X172263670Y-59650000D01*
X172268980Y-59703909D01*
X172284704Y-59755747D01*
X172310240Y-59803521D01*
X172344605Y-59845395D01*
X172386479Y-59879760D01*
X172434253Y-59905296D01*
X172486091Y-59921020D01*
X172540000Y-59926330D01*
X174100000Y-59926330D01*
X174153909Y-59921020D01*
X174205747Y-59905296D01*
X174253521Y-59879760D01*
X174295395Y-59845395D01*
X174329760Y-59803521D01*
X174355296Y-59755747D01*
X174371020Y-59703909D01*
X174376330Y-59650000D01*
X174376330Y-58090000D01*
X174371020Y-58036091D01*
X174355296Y-57984253D01*
X174329760Y-57936479D01*
X174295395Y-57894605D01*
X174253521Y-57860240D01*
X174205747Y-57834704D01*
X174153909Y-57818980D01*
X174100000Y-57813670D01*
X172540000Y-57813670D01*
X172486091Y-57818980D01*
X172434253Y-57834704D01*
X172386479Y-57860240D01*
X172344605Y-57894605D01*
X172310240Y-57936479D01*
X172284704Y-57984253D01*
X172268980Y-58036091D01*
X172263670Y-58090000D01*
X164306016Y-58090000D01*
X164401982Y-57994034D01*
X164486796Y-57867100D01*
X164545217Y-57726059D01*
X164575000Y-57576331D01*
X164575000Y-57423669D01*
X164545217Y-57273941D01*
X164486796Y-57132900D01*
X164401982Y-57005966D01*
X164294034Y-56898018D01*
X164167100Y-56813204D01*
X164026059Y-56754783D01*
X163876331Y-56725000D01*
X163723669Y-56725000D01*
X163573941Y-56754783D01*
X163432900Y-56813204D01*
X163305966Y-56898018D01*
X163198018Y-57005966D01*
X163113204Y-57132900D01*
X163054783Y-57273941D01*
X163025000Y-57423669D01*
X151500000Y-57423669D01*
X151500000Y-55634273D01*
X183425000Y-55634273D01*
X183425000Y-55865727D01*
X183470155Y-56092735D01*
X183558729Y-56306571D01*
X183687318Y-56499019D01*
X183850981Y-56662682D01*
X184043429Y-56791271D01*
X184257265Y-56879845D01*
X184484273Y-56925000D01*
X184715727Y-56925000D01*
X184942735Y-56879845D01*
X185156571Y-56791271D01*
X185349019Y-56662682D01*
X185512682Y-56499019D01*
X185641271Y-56306571D01*
X185729845Y-56092735D01*
X185775000Y-55865727D01*
X185775000Y-55634273D01*
X185729845Y-55407265D01*
X185641271Y-55193429D01*
X185512682Y-55000981D01*
X185349019Y-54837318D01*
X185156571Y-54708729D01*
X184942735Y-54620155D01*
X184715727Y-54575000D01*
X184484273Y-54575000D01*
X184257265Y-54620155D01*
X184043429Y-54708729D01*
X183850981Y-54837318D01*
X183687318Y-55000981D01*
X183558729Y-55193429D01*
X183470155Y-55407265D01*
X183425000Y-55634273D01*
X151500000Y-55634273D01*
X151500000Y-52423669D01*
X163025000Y-52423669D01*
X163025000Y-52576331D01*
X163054783Y-52726059D01*
X163113204Y-52867100D01*
X163198018Y-52994034D01*
X163305966Y-53101982D01*
X163432900Y-53186796D01*
X163573941Y-53245217D01*
X163723669Y-53275000D01*
X163876331Y-53275000D01*
X164026059Y-53245217D01*
X164167100Y-53186796D01*
X164294034Y-53101982D01*
X164401982Y-52994034D01*
X164486796Y-52867100D01*
X164545217Y-52726059D01*
X164575000Y-52576331D01*
X164575000Y-52423669D01*
X164545217Y-52273941D01*
X164487365Y-52134273D01*
X178225000Y-52134273D01*
X178225000Y-52365727D01*
X178270155Y-52592735D01*
X178358729Y-52806571D01*
X178487318Y-52999019D01*
X178650981Y-53162682D01*
X178843429Y-53291271D01*
X179057265Y-53379845D01*
X179284273Y-53425000D01*
X179515727Y-53425000D01*
X179742735Y-53379845D01*
X179956571Y-53291271D01*
X180149019Y-53162682D01*
X180312682Y-52999019D01*
X180441271Y-52806571D01*
X180529845Y-52592735D01*
X180575000Y-52365727D01*
X180575000Y-52134273D01*
X180529845Y-51907265D01*
X180441271Y-51693429D01*
X180312682Y-51500981D01*
X180149019Y-51337318D01*
X179956571Y-51208729D01*
X179742735Y-51120155D01*
X179515727Y-51075000D01*
X179284273Y-51075000D01*
X179057265Y-51120155D01*
X178843429Y-51208729D01*
X178650981Y-51337318D01*
X178487318Y-51500981D01*
X178358729Y-51693429D01*
X178270155Y-51907265D01*
X178225000Y-52134273D01*
X164487365Y-52134273D01*
X164486796Y-52132900D01*
X164401982Y-52005966D01*
X164294034Y-51898018D01*
X164167100Y-51813204D01*
X164026059Y-51754783D01*
X163876331Y-51725000D01*
X163723669Y-51725000D01*
X163573941Y-51754783D01*
X163432900Y-51813204D01*
X163305966Y-51898018D01*
X163198018Y-52005966D01*
X163113204Y-52132900D01*
X163054783Y-52273941D01*
X163025000Y-52423669D01*
X151500000Y-52423669D01*
X151500000Y-50414670D01*
X151503316Y-50380856D01*
X151508874Y-50362446D01*
X151517908Y-50345456D01*
X151530066Y-50330548D01*
X151544885Y-50318289D01*
X151561806Y-50309140D01*
X151580178Y-50303453D01*
X151613029Y-50300000D01*
X188985330Y-50300000D01*
X189019144Y-50303316D01*
X189019144Y-50303316D01*
G37*
X189019144Y-50303316D02*
X189037554Y-50308874D01*
X189054544Y-50317908D01*
X189069452Y-50330066D01*
X189081711Y-50344885D01*
X189090860Y-50361806D01*
X189096547Y-50380178D01*
X189100001Y-50413038D01*
X189100000Y-116985330D01*
X189096684Y-117019144D01*
X189091126Y-117037554D01*
X189082092Y-117054545D01*
X189069936Y-117069450D01*
X189055116Y-117081710D01*
X189038193Y-117090861D01*
X189019822Y-117096547D01*
X188986972Y-117100000D01*
X162300000Y-117100000D01*
X162300000Y-112235267D01*
X162298520Y-112220238D01*
X162298520Y-112213746D01*
X162298082Y-112209580D01*
X162287205Y-112112605D01*
X162281544Y-112085974D01*
X162276270Y-112059335D01*
X162275034Y-112055342D01*
X162275032Y-112055335D01*
X162275029Y-112055329D01*
X162245525Y-111962318D01*
X162234812Y-111937321D01*
X162224453Y-111912188D01*
X162222465Y-111908512D01*
X162222461Y-111908503D01*
X162222456Y-111908496D01*
X162178313Y-111828200D01*
X182578490Y-111828200D01*
X183789128Y-113038839D01*
X183786729Y-113042429D01*
X183698155Y-113256265D01*
X183653000Y-113483273D01*
X183653000Y-113714727D01*
X183698155Y-113941735D01*
X183786729Y-114155571D01*
X183915318Y-114348019D01*
X184078981Y-114511682D01*
X184271429Y-114640271D01*
X184485265Y-114728845D01*
X184712273Y-114774000D01*
X184943727Y-114774000D01*
X185170735Y-114728845D01*
X185384571Y-114640271D01*
X185577019Y-114511682D01*
X185740682Y-114348019D01*
X185869271Y-114155571D01*
X185957845Y-113941735D01*
X186003000Y-113714727D01*
X186003000Y-113483273D01*
X185957845Y-113256265D01*
X185869271Y-113042429D01*
X185740682Y-112849981D01*
X185577019Y-112686318D01*
X185384571Y-112557729D01*
X185170735Y-112469155D01*
X184943727Y-112424000D01*
X184712273Y-112424000D01*
X184485265Y-112469155D01*
X184271429Y-112557729D01*
X184267839Y-112560128D01*
X183197410Y-111489700D01*
X186171508Y-108515604D01*
X186184413Y-108505013D01*
X186195004Y-108492108D01*
X186195008Y-108492104D01*
X186207715Y-108476620D01*
X186226714Y-108453470D01*
X186258146Y-108394665D01*
X186277501Y-108330858D01*
X186284037Y-108264500D01*
X186282400Y-108247880D01*
X186282400Y-98166711D01*
X186284036Y-98150099D01*
X186282400Y-98133487D01*
X186282400Y-98133480D01*
X186277501Y-98083743D01*
X186258146Y-98019935D01*
X186226714Y-97961130D01*
X186203310Y-97932614D01*
X186195007Y-97922496D01*
X186195005Y-97922494D01*
X186184412Y-97909587D01*
X186171507Y-97898996D01*
X185616872Y-97344361D01*
X185619271Y-97340771D01*
X185707845Y-97126935D01*
X185753000Y-96899927D01*
X185753000Y-96668473D01*
X185707845Y-96441465D01*
X185619271Y-96227629D01*
X185616872Y-96224039D01*
X185902102Y-95938809D01*
X185915013Y-95928213D01*
X185957314Y-95876670D01*
X185988746Y-95817865D01*
X186008101Y-95754057D01*
X186013000Y-95704320D01*
X186013000Y-95704313D01*
X186014636Y-95687701D01*
X186013000Y-95671089D01*
X186013000Y-80841111D01*
X186014636Y-80824499D01*
X186013000Y-80807887D01*
X186013000Y-80807880D01*
X186008101Y-80758143D01*
X186008101Y-80758141D01*
X185988746Y-80694336D01*
X185988746Y-80694335D01*
X185957314Y-80635530D01*
X185915012Y-80583987D01*
X185902107Y-80573396D01*
X185638872Y-80310161D01*
X185641271Y-80306571D01*
X185729845Y-80092735D01*
X185775000Y-79865727D01*
X185775000Y-79634273D01*
X185729845Y-79407265D01*
X185641271Y-79193429D01*
X185512682Y-79000981D01*
X185349019Y-78837318D01*
X185156571Y-78708729D01*
X184942735Y-78620155D01*
X184715727Y-78575000D01*
X184484273Y-78575000D01*
X184257265Y-78620155D01*
X184043429Y-78708729D01*
X183850981Y-78837318D01*
X183687318Y-79000981D01*
X183558729Y-79193429D01*
X183470155Y-79407265D01*
X183425000Y-79634273D01*
X183425000Y-79865727D01*
X183470155Y-80092735D01*
X183558729Y-80306571D01*
X183687318Y-80499019D01*
X183850981Y-80662682D01*
X184043429Y-80791271D01*
X184257265Y-80879845D01*
X184484273Y-80925000D01*
X184715727Y-80925000D01*
X184942735Y-80879845D01*
X185156571Y-80791271D01*
X185160161Y-80788872D01*
X185336000Y-80964711D01*
X185336001Y-88880500D01*
X185327019Y-88871518D01*
X185134571Y-88742929D01*
X184920735Y-88654355D01*
X184693727Y-88609200D01*
X184462273Y-88609200D01*
X184235265Y-88654355D01*
X184021429Y-88742929D01*
X183828981Y-88871518D01*
X183665318Y-89035181D01*
X183536729Y-89227629D01*
X183448155Y-89441465D01*
X183447313Y-89445700D01*
X178714711Y-89445700D01*
X178698099Y-89444064D01*
X178681487Y-89445700D01*
X178681480Y-89445700D01*
X178638036Y-89449979D01*
X178631742Y-89450599D01*
X178620834Y-89453908D01*
X178567935Y-89469954D01*
X178509130Y-89501386D01*
X178457587Y-89543687D01*
X178446991Y-89556598D01*
X175371490Y-92632100D01*
X174069895Y-92632100D01*
X174139472Y-92562523D01*
X174254929Y-92389730D01*
X174334457Y-92197732D01*
X174375000Y-91993908D01*
X174375000Y-91786092D01*
X174334457Y-91582268D01*
X174254929Y-91390270D01*
X174139472Y-91217477D01*
X173992523Y-91070528D01*
X173959556Y-91048500D01*
X174935588Y-91048500D01*
X174952200Y-91050136D01*
X174968812Y-91048500D01*
X174968820Y-91048500D01*
X175018557Y-91043601D01*
X175082365Y-91024246D01*
X175141170Y-90992814D01*
X175192713Y-90950513D01*
X175203313Y-90937597D01*
X178817839Y-87323072D01*
X178821429Y-87325471D01*
X179035265Y-87414045D01*
X179262273Y-87459200D01*
X179493727Y-87459200D01*
X179720735Y-87414045D01*
X179934571Y-87325471D01*
X180127019Y-87196882D01*
X180290682Y-87033219D01*
X180419271Y-86840771D01*
X180507845Y-86626935D01*
X180553000Y-86399927D01*
X180553000Y-86168473D01*
X180507845Y-85941465D01*
X180419271Y-85727629D01*
X180290682Y-85535181D01*
X180127019Y-85371518D01*
X179934571Y-85242929D01*
X179720735Y-85154355D01*
X179493727Y-85109200D01*
X179262273Y-85109200D01*
X179035265Y-85154355D01*
X178821429Y-85242929D01*
X178628981Y-85371518D01*
X178465318Y-85535181D01*
X178336729Y-85727629D01*
X178248155Y-85941465D01*
X178203000Y-86168473D01*
X178203000Y-86399927D01*
X178248155Y-86626935D01*
X178336729Y-86840771D01*
X178339128Y-86844361D01*
X174811990Y-90371500D01*
X173592324Y-90371500D01*
X173627732Y-90364457D01*
X173819730Y-90284929D01*
X173992523Y-90169472D01*
X174139472Y-90022523D01*
X174254929Y-89849730D01*
X174334457Y-89657732D01*
X174375000Y-89453908D01*
X174375000Y-89246092D01*
X174334457Y-89042268D01*
X174254929Y-88850270D01*
X174139472Y-88677477D01*
X173992523Y-88530528D01*
X173819730Y-88415071D01*
X173627732Y-88335543D01*
X173423908Y-88295000D01*
X173216092Y-88295000D01*
X173012268Y-88335543D01*
X172820270Y-88415071D01*
X172647477Y-88530528D01*
X172500528Y-88677477D01*
X172385071Y-88850270D01*
X172305543Y-89042268D01*
X172265000Y-89246092D01*
X172265000Y-89453908D01*
X172305543Y-89657732D01*
X172385071Y-89849730D01*
X172500528Y-90022523D01*
X172647477Y-90169472D01*
X172820270Y-90284929D01*
X173012268Y-90364457D01*
X173047676Y-90371500D01*
X169419412Y-90371500D01*
X169402800Y-90369864D01*
X169386188Y-90371500D01*
X169386180Y-90371500D01*
X169342191Y-90375833D01*
X169336442Y-90376399D01*
X169278282Y-90394041D01*
X169272635Y-90395754D01*
X169213830Y-90427186D01*
X169162287Y-90469487D01*
X169151692Y-90482397D01*
X167032098Y-92601992D01*
X167019358Y-92571235D01*
X166956432Y-92477059D01*
X166876341Y-92396968D01*
X166782165Y-92334042D01*
X166677521Y-92290697D01*
X166566433Y-92268600D01*
X166453167Y-92268600D01*
X166420090Y-92275179D01*
X155647313Y-81502403D01*
X155636713Y-81489487D01*
X155585170Y-81447186D01*
X155526365Y-81415754D01*
X155462557Y-81396399D01*
X155412820Y-81391500D01*
X155412812Y-81391500D01*
X155396200Y-81389864D01*
X155379588Y-81391500D01*
X154001713Y-81391500D01*
X153934929Y-81230270D01*
X153819472Y-81057477D01*
X153672523Y-80910528D01*
X153499730Y-80795071D01*
X153307732Y-80715543D01*
X153103908Y-80675000D01*
X152896092Y-80675000D01*
X152692268Y-80715543D01*
X152500270Y-80795071D01*
X152327477Y-80910528D01*
X152180528Y-81057477D01*
X152065071Y-81230270D01*
X151985543Y-81422268D01*
X151945000Y-81626092D01*
X151945000Y-81833908D01*
X151985543Y-82037732D01*
X152065071Y-82229730D01*
X152180528Y-82402523D01*
X152327477Y-82549472D01*
X152500270Y-82664929D01*
X152692268Y-82744457D01*
X152896092Y-82785000D01*
X153103908Y-82785000D01*
X153307732Y-82744457D01*
X153499730Y-82664929D01*
X153672523Y-82549472D01*
X153819472Y-82402523D01*
X153934929Y-82229730D01*
X154001713Y-82068500D01*
X155255990Y-82068500D01*
X157656253Y-84468763D01*
X157614765Y-84441042D01*
X157510121Y-84397697D01*
X157399033Y-84375600D01*
X157285767Y-84375600D01*
X157174679Y-84397697D01*
X157070035Y-84441042D01*
X156975859Y-84503968D01*
X156895768Y-84584059D01*
X156832842Y-84678235D01*
X156789497Y-84782879D01*
X156767400Y-84893967D01*
X156767400Y-85007233D01*
X156789497Y-85118321D01*
X156832842Y-85222965D01*
X156895768Y-85317141D01*
X156975859Y-85397232D01*
X157070035Y-85460158D01*
X157158101Y-85496636D01*
X157158100Y-91289988D01*
X157156464Y-91306600D01*
X157158100Y-91323212D01*
X157158100Y-91323219D01*
X157162999Y-91372956D01*
X157182354Y-91436764D01*
X157213786Y-91495569D01*
X157256087Y-91547112D01*
X157268999Y-91557709D01*
X172372327Y-106661038D01*
X172305543Y-106822268D01*
X172265000Y-107026092D01*
X172265000Y-107233908D01*
X172305543Y-107437732D01*
X172385071Y-107629730D01*
X172500528Y-107802523D01*
X172647477Y-107949472D01*
X172820270Y-108064929D01*
X173012268Y-108144457D01*
X173216092Y-108185000D01*
X173423908Y-108185000D01*
X173627732Y-108144457D01*
X173819730Y-108064929D01*
X173992523Y-107949472D01*
X174139472Y-107802523D01*
X174254929Y-107629730D01*
X174334457Y-107437732D01*
X174375000Y-107233908D01*
X174375000Y-107026092D01*
X174334457Y-106822268D01*
X174254929Y-106630270D01*
X174139472Y-106457477D01*
X173992523Y-106310528D01*
X173819730Y-106195071D01*
X173627732Y-106115543D01*
X173423908Y-106075000D01*
X173216092Y-106075000D01*
X173012268Y-106115543D01*
X172851038Y-106182327D01*
X171154803Y-104486092D01*
X172265000Y-104486092D01*
X172265000Y-104693908D01*
X172305543Y-104897732D01*
X172385071Y-105089730D01*
X172500528Y-105262523D01*
X172647477Y-105409472D01*
X172820270Y-105524929D01*
X173012268Y-105604457D01*
X173216092Y-105645000D01*
X173423908Y-105645000D01*
X173627732Y-105604457D01*
X173819730Y-105524929D01*
X173992523Y-105409472D01*
X174139472Y-105262523D01*
X174254929Y-105089730D01*
X174334457Y-104897732D01*
X174375000Y-104693908D01*
X174375000Y-104486092D01*
X174334457Y-104282268D01*
X174254929Y-104090270D01*
X174139472Y-103917477D01*
X173992523Y-103770528D01*
X173819730Y-103655071D01*
X173627732Y-103575543D01*
X173423908Y-103535000D01*
X173216092Y-103535000D01*
X173012268Y-103575543D01*
X172820270Y-103655071D01*
X172647477Y-103770528D01*
X172500528Y-103917477D01*
X172385071Y-104090270D01*
X172305543Y-104282268D01*
X172265000Y-104486092D01*
X171154803Y-104486092D01*
X157835100Y-91166390D01*
X157835100Y-85248195D01*
X157851958Y-85222965D01*
X157895303Y-85118321D01*
X157917400Y-85007233D01*
X157917400Y-84893967D01*
X157895303Y-84782879D01*
X157851958Y-84678235D01*
X157824237Y-84636747D01*
X165941379Y-92753890D01*
X165934800Y-92786967D01*
X165934800Y-92900233D01*
X165956897Y-93011321D01*
X166000242Y-93115965D01*
X166063168Y-93210141D01*
X166089777Y-93236750D01*
X166025668Y-93300859D01*
X165962742Y-93395035D01*
X165919397Y-93499679D01*
X165897300Y-93610767D01*
X165897300Y-93724033D01*
X165919397Y-93835121D01*
X165962742Y-93939765D01*
X166025668Y-94033941D01*
X166105759Y-94114032D01*
X166199935Y-94176958D01*
X166304579Y-94220303D01*
X166415667Y-94242400D01*
X166528933Y-94242400D01*
X166640021Y-94220303D01*
X166744665Y-94176958D01*
X166838841Y-94114032D01*
X166918932Y-94033941D01*
X166981858Y-93939765D01*
X167025203Y-93835121D01*
X167047300Y-93724033D01*
X167047300Y-93610767D01*
X167036257Y-93555253D01*
X167335415Y-93256095D01*
X167389568Y-93337141D01*
X167469659Y-93417232D01*
X167563835Y-93480158D01*
X167668479Y-93523503D01*
X167779567Y-93545600D01*
X167892833Y-93545600D01*
X168003921Y-93523503D01*
X168108565Y-93480158D01*
X168202741Y-93417232D01*
X168282832Y-93337141D01*
X168301568Y-93309100D01*
X175495088Y-93309100D01*
X175511700Y-93310736D01*
X175528312Y-93309100D01*
X175528320Y-93309100D01*
X175578057Y-93304201D01*
X175641865Y-93284846D01*
X175700670Y-93253414D01*
X175752213Y-93211113D01*
X175762813Y-93198197D01*
X175792537Y-93168473D01*
X178203000Y-93168473D01*
X178203000Y-93399927D01*
X178248155Y-93626935D01*
X178336729Y-93840771D01*
X178465318Y-94033219D01*
X178628981Y-94196882D01*
X178821429Y-94325471D01*
X179035265Y-94414045D01*
X179262273Y-94459200D01*
X179493727Y-94459200D01*
X179720735Y-94414045D01*
X179934571Y-94325471D01*
X180127019Y-94196882D01*
X180290682Y-94033219D01*
X180419271Y-93840771D01*
X180507845Y-93626935D01*
X180553000Y-93399927D01*
X180553000Y-93168473D01*
X180507845Y-92941465D01*
X180419271Y-92727629D01*
X180290682Y-92535181D01*
X180127019Y-92371518D01*
X179934571Y-92242929D01*
X179720735Y-92154355D01*
X179493727Y-92109200D01*
X179262273Y-92109200D01*
X179035265Y-92154355D01*
X178821429Y-92242929D01*
X178628981Y-92371518D01*
X178465318Y-92535181D01*
X178336729Y-92727629D01*
X178248155Y-92941465D01*
X178203000Y-93168473D01*
X175792537Y-93168473D01*
X178838311Y-90122700D01*
X183447313Y-90122700D01*
X183448155Y-90126935D01*
X183536729Y-90340771D01*
X183665318Y-90533219D01*
X183828981Y-90696882D01*
X184021429Y-90825471D01*
X184235265Y-90914045D01*
X184462273Y-90959200D01*
X184693727Y-90959200D01*
X184920735Y-90914045D01*
X185134571Y-90825471D01*
X185327019Y-90696882D01*
X185336001Y-90687900D01*
X185336001Y-95547488D01*
X185138161Y-95745328D01*
X185134571Y-95742929D01*
X184920735Y-95654355D01*
X184693727Y-95609200D01*
X184462273Y-95609200D01*
X184235265Y-95654355D01*
X184021429Y-95742929D01*
X183828981Y-95871518D01*
X183665318Y-96035181D01*
X183536729Y-96227629D01*
X183448155Y-96441465D01*
X183403000Y-96668473D01*
X183403000Y-96899927D01*
X183448155Y-97126935D01*
X183536729Y-97340771D01*
X183665318Y-97533219D01*
X183828981Y-97696882D01*
X184021429Y-97825471D01*
X184235265Y-97914045D01*
X184462273Y-97959200D01*
X184693727Y-97959200D01*
X184920735Y-97914045D01*
X185134571Y-97825471D01*
X185138161Y-97823072D01*
X185605400Y-98290311D01*
X185605401Y-105714700D01*
X185577019Y-105686318D01*
X185384571Y-105557729D01*
X185170735Y-105469155D01*
X184943727Y-105424000D01*
X184712273Y-105424000D01*
X184485265Y-105469155D01*
X184271429Y-105557729D01*
X184267839Y-105560128D01*
X176720113Y-98012403D01*
X176709513Y-97999487D01*
X176657970Y-97957186D01*
X176599165Y-97925754D01*
X176535357Y-97906399D01*
X176485620Y-97901500D01*
X176485612Y-97901500D01*
X176469000Y-97899864D01*
X176452388Y-97901500D01*
X173824862Y-97901500D01*
X173992523Y-97789472D01*
X174139472Y-97642523D01*
X174254929Y-97469730D01*
X174334457Y-97277732D01*
X174375000Y-97073908D01*
X174375000Y-96866092D01*
X174334457Y-96662268D01*
X174254929Y-96470270D01*
X174139472Y-96297477D01*
X173992523Y-96150528D01*
X173819730Y-96035071D01*
X173627732Y-95955543D01*
X173423908Y-95915000D01*
X173216092Y-95915000D01*
X173012268Y-95955543D01*
X172820270Y-96035071D01*
X172647477Y-96150528D01*
X172500528Y-96297477D01*
X172385071Y-96470270D01*
X172305543Y-96662268D01*
X172265000Y-96866092D01*
X172265000Y-97073908D01*
X172305543Y-97277732D01*
X172385071Y-97469730D01*
X172500528Y-97642523D01*
X172647477Y-97789472D01*
X172815138Y-97901500D01*
X169611311Y-97901500D01*
X166035903Y-94326092D01*
X172265000Y-94326092D01*
X172265000Y-94533908D01*
X172305543Y-94737732D01*
X172385071Y-94929730D01*
X172500528Y-95102523D01*
X172647477Y-95249472D01*
X172820270Y-95364929D01*
X173012268Y-95444457D01*
X173216092Y-95485000D01*
X173423908Y-95485000D01*
X173627732Y-95444457D01*
X173819730Y-95364929D01*
X173992523Y-95249472D01*
X174139472Y-95102523D01*
X174254929Y-94929730D01*
X174334457Y-94737732D01*
X174375000Y-94533908D01*
X174375000Y-94326092D01*
X174334457Y-94122268D01*
X174254929Y-93930270D01*
X174139472Y-93757477D01*
X173992523Y-93610528D01*
X173819730Y-93495071D01*
X173627732Y-93415543D01*
X173423908Y-93375000D01*
X173216092Y-93375000D01*
X173012268Y-93415543D01*
X172820270Y-93495071D01*
X172647477Y-93610528D01*
X172500528Y-93757477D01*
X172385071Y-93930270D01*
X172305543Y-94122268D01*
X172265000Y-94326092D01*
X166035903Y-94326092D01*
X161385520Y-89675710D01*
X161392100Y-89642633D01*
X161392100Y-89529367D01*
X161370003Y-89418279D01*
X161326658Y-89313635D01*
X161263732Y-89219459D01*
X161183641Y-89139368D01*
X161089465Y-89076442D01*
X160984821Y-89033097D01*
X160873733Y-89011000D01*
X160760467Y-89011000D01*
X160649379Y-89033097D01*
X160544735Y-89076442D01*
X160450559Y-89139368D01*
X160370468Y-89219459D01*
X160307542Y-89313635D01*
X160264197Y-89418279D01*
X160242100Y-89529367D01*
X160242100Y-89642633D01*
X160264197Y-89753721D01*
X160307542Y-89858365D01*
X160370468Y-89952541D01*
X160450559Y-90032632D01*
X160544735Y-90095558D01*
X160649379Y-90138903D01*
X160760467Y-90161000D01*
X160873733Y-90161000D01*
X160906810Y-90154420D01*
X169219991Y-98467602D01*
X169230587Y-98480513D01*
X169282130Y-98522814D01*
X169340935Y-98554246D01*
X169385387Y-98567730D01*
X169404742Y-98573601D01*
X169411036Y-98574221D01*
X169454480Y-98578500D01*
X169454487Y-98578500D01*
X169471099Y-98580136D01*
X169487711Y-98578500D01*
X172815138Y-98578500D01*
X172647477Y-98690528D01*
X172500528Y-98837477D01*
X172385071Y-99010270D01*
X172305543Y-99202268D01*
X172265000Y-99406092D01*
X172265000Y-99613908D01*
X172305543Y-99817732D01*
X172385071Y-100009730D01*
X172500528Y-100182523D01*
X172647477Y-100329472D01*
X172820270Y-100444929D01*
X173012268Y-100524457D01*
X173216092Y-100565000D01*
X173423908Y-100565000D01*
X173627732Y-100524457D01*
X173819730Y-100444929D01*
X173992523Y-100329472D01*
X174139472Y-100182523D01*
X174254929Y-100009730D01*
X174334457Y-99817732D01*
X174375000Y-99613908D01*
X174375000Y-99406092D01*
X174334457Y-99202268D01*
X174254929Y-99010270D01*
X174139472Y-98837477D01*
X173992523Y-98690528D01*
X173824862Y-98578500D01*
X176328790Y-98578500D01*
X179674290Y-101924000D01*
X179512273Y-101924000D01*
X179285265Y-101969155D01*
X179071429Y-102057729D01*
X178878981Y-102186318D01*
X178715318Y-102349981D01*
X178586729Y-102542429D01*
X178498155Y-102756265D01*
X178497313Y-102760500D01*
X174101495Y-102760500D01*
X174139472Y-102722523D01*
X174254929Y-102549730D01*
X174334457Y-102357732D01*
X174375000Y-102153908D01*
X174375000Y-101946092D01*
X174334457Y-101742268D01*
X174254929Y-101550270D01*
X174139472Y-101377477D01*
X173992523Y-101230528D01*
X173819730Y-101115071D01*
X173627732Y-101035543D01*
X173423908Y-100995000D01*
X173216092Y-100995000D01*
X173012268Y-101035543D01*
X172820270Y-101115071D01*
X172647477Y-101230528D01*
X172500528Y-101377477D01*
X172385071Y-101550270D01*
X172305543Y-101742268D01*
X172265000Y-101946092D01*
X172265000Y-102153908D01*
X172305543Y-102357732D01*
X172385071Y-102549730D01*
X172500528Y-102722523D01*
X172538505Y-102760500D01*
X172100011Y-102760500D01*
X162274220Y-92934710D01*
X162280800Y-92901633D01*
X162280800Y-92788367D01*
X162258703Y-92677279D01*
X162215358Y-92572635D01*
X162152432Y-92478459D01*
X162072341Y-92398368D01*
X161978165Y-92335442D01*
X161873521Y-92292097D01*
X161762433Y-92270000D01*
X161649167Y-92270000D01*
X161538079Y-92292097D01*
X161433435Y-92335442D01*
X161339259Y-92398368D01*
X161259168Y-92478459D01*
X161196242Y-92572635D01*
X161152897Y-92677279D01*
X161130800Y-92788367D01*
X161130800Y-92901633D01*
X161152897Y-93012721D01*
X161196242Y-93117365D01*
X161259168Y-93211541D01*
X161339259Y-93291632D01*
X161433435Y-93354558D01*
X161538079Y-93397903D01*
X161649167Y-93420000D01*
X161762433Y-93420000D01*
X161795510Y-93413420D01*
X171708691Y-103326602D01*
X171719287Y-103339513D01*
X171770830Y-103381814D01*
X171829635Y-103413246D01*
X171893442Y-103432601D01*
X171899191Y-103433167D01*
X171943180Y-103437500D01*
X171943188Y-103437500D01*
X171959800Y-103439136D01*
X171976412Y-103437500D01*
X178497313Y-103437500D01*
X178498155Y-103441735D01*
X178586729Y-103655571D01*
X178715318Y-103848019D01*
X178878981Y-104011682D01*
X179071429Y-104140271D01*
X179285265Y-104228845D01*
X179512273Y-104274000D01*
X179743727Y-104274000D01*
X179970735Y-104228845D01*
X180184571Y-104140271D01*
X180377019Y-104011682D01*
X180540682Y-103848019D01*
X180669271Y-103655571D01*
X180757845Y-103441735D01*
X180803000Y-103214727D01*
X180803000Y-103052711D01*
X183789128Y-106038839D01*
X183786729Y-106042429D01*
X183698155Y-106256265D01*
X183653000Y-106483273D01*
X183653000Y-106714727D01*
X183698155Y-106941735D01*
X183786729Y-107155571D01*
X183915318Y-107348019D01*
X184078981Y-107511682D01*
X184271429Y-107640271D01*
X184485265Y-107728845D01*
X184712273Y-107774000D01*
X184943727Y-107774000D01*
X185170735Y-107728845D01*
X185384571Y-107640271D01*
X185577019Y-107511682D01*
X185605401Y-107483300D01*
X185605401Y-108124287D01*
X182578490Y-111151200D01*
X180158186Y-111151200D01*
X180184571Y-111140271D01*
X180377019Y-111011682D01*
X180540682Y-110848019D01*
X180669271Y-110655571D01*
X180757845Y-110441735D01*
X180803000Y-110214727D01*
X180803000Y-109983273D01*
X180757845Y-109756265D01*
X180669271Y-109542429D01*
X180540682Y-109349981D01*
X180377019Y-109186318D01*
X180184571Y-109057729D01*
X179970735Y-108969155D01*
X179743727Y-108924000D01*
X179512273Y-108924000D01*
X179285265Y-108969155D01*
X179071429Y-109057729D01*
X178878981Y-109186318D01*
X178715318Y-109349981D01*
X178586729Y-109542429D01*
X178498155Y-109756265D01*
X178453000Y-109983273D01*
X178453000Y-110214727D01*
X178498155Y-110441735D01*
X178586729Y-110655571D01*
X178715318Y-110848019D01*
X178878981Y-111011682D01*
X179071429Y-111140271D01*
X179097814Y-111151200D01*
X161577020Y-111151200D01*
X161548814Y-111098430D01*
X161506513Y-111046887D01*
X161493602Y-111036291D01*
X158411020Y-107953710D01*
X158417600Y-107920633D01*
X158417600Y-107807367D01*
X158395503Y-107696279D01*
X158352158Y-107591635D01*
X158289232Y-107497459D01*
X158209141Y-107417368D01*
X158114965Y-107354442D01*
X158010321Y-107311097D01*
X157899233Y-107289000D01*
X157785967Y-107289000D01*
X157674879Y-107311097D01*
X157570235Y-107354442D01*
X157476059Y-107417368D01*
X157395968Y-107497459D01*
X157333042Y-107591635D01*
X157289697Y-107696279D01*
X157267600Y-107807367D01*
X157267600Y-107920633D01*
X157289697Y-108031721D01*
X157333042Y-108136365D01*
X157395968Y-108230541D01*
X157476059Y-108310632D01*
X157570235Y-108373558D01*
X157674879Y-108416903D01*
X157785967Y-108439000D01*
X157899233Y-108439000D01*
X157932310Y-108432420D01*
X160888439Y-111388550D01*
X160228510Y-112048479D01*
X160195433Y-112041900D01*
X160082167Y-112041900D01*
X159971079Y-112063997D01*
X159866435Y-112107342D01*
X159772259Y-112170268D01*
X159692168Y-112250359D01*
X159629242Y-112344535D01*
X159585897Y-112449179D01*
X159563800Y-112560267D01*
X159563800Y-112673533D01*
X159585897Y-112784621D01*
X159629242Y-112889265D01*
X159692168Y-112983441D01*
X159772259Y-113063532D01*
X159866435Y-113126458D01*
X159971079Y-113169803D01*
X160082167Y-113191900D01*
X160195433Y-113191900D01*
X160306521Y-113169803D01*
X160411165Y-113126458D01*
X160505341Y-113063532D01*
X160585432Y-112983441D01*
X160648358Y-112889265D01*
X160691703Y-112784621D01*
X160700001Y-112742905D01*
X160700000Y-117100000D01*
X154550000Y-117100000D01*
X154550000Y-112235267D01*
X154548520Y-112220238D01*
X154548520Y-112213746D01*
X154548082Y-112209580D01*
X154537205Y-112112605D01*
X154531544Y-112085974D01*
X154526270Y-112059335D01*
X154525034Y-112055342D01*
X154525032Y-112055335D01*
X154525029Y-112055329D01*
X154495525Y-111962318D01*
X154484812Y-111937321D01*
X154474453Y-111912188D01*
X154472465Y-111908512D01*
X154472461Y-111908503D01*
X154472456Y-111908496D01*
X154425449Y-111822990D01*
X154410091Y-111800560D01*
X154395040Y-111777906D01*
X154392369Y-111774678D01*
X154329644Y-111699927D01*
X154310236Y-111680921D01*
X154291060Y-111661610D01*
X154287814Y-111658963D01*
X154211764Y-111597817D01*
X154189028Y-111582939D01*
X154166470Y-111567723D01*
X154162776Y-111565760D01*
X154162772Y-111565757D01*
X154162768Y-111565755D01*
X154095675Y-111530680D01*
X155201246Y-111530680D01*
X155201655Y-111534849D01*
X155211855Y-111631898D01*
X155217327Y-111658553D01*
X155222417Y-111685241D01*
X155223628Y-111689251D01*
X155252484Y-111782470D01*
X155263023Y-111807541D01*
X155273207Y-111832748D01*
X155275174Y-111836447D01*
X155321587Y-111922284D01*
X155336806Y-111944848D01*
X155351680Y-111967577D01*
X155354327Y-111970824D01*
X155416529Y-112046013D01*
X155435833Y-112065183D01*
X155454844Y-112084597D01*
X155458072Y-112087267D01*
X155533693Y-112148943D01*
X155556354Y-112163999D01*
X155578779Y-112179354D01*
X155582464Y-112181346D01*
X155668625Y-112227158D01*
X155693764Y-112237520D01*
X155718752Y-112248230D01*
X155722747Y-112249466D01*
X155722757Y-112249470D01*
X155722768Y-112249472D01*
X155816172Y-112277673D01*
X155842827Y-112282951D01*
X155869443Y-112288609D01*
X155873603Y-112289045D01*
X155873606Y-112289046D01*
X155873609Y-112289046D01*
X155970721Y-112298567D01*
X155985267Y-112300000D01*
X158014733Y-112300000D01*
X158029762Y-112298520D01*
X158036254Y-112298520D01*
X158040420Y-112298082D01*
X158137395Y-112287205D01*
X158164026Y-112281544D01*
X158190665Y-112276270D01*
X158194661Y-112275033D01*
X158194665Y-112275032D01*
X158194668Y-112275031D01*
X158287682Y-112245525D01*
X158312679Y-112234812D01*
X158337812Y-112224453D01*
X158341488Y-112222465D01*
X158341497Y-112222461D01*
X158341504Y-112222456D01*
X158427009Y-112175449D01*
X158449422Y-112160103D01*
X158472094Y-112145040D01*
X158475312Y-112142377D01*
X158475320Y-112142371D01*
X158475326Y-112142364D01*
X158550073Y-112079645D01*
X158569098Y-112060217D01*
X158588390Y-112041060D01*
X158591037Y-112037814D01*
X158652183Y-111961764D01*
X158667083Y-111938995D01*
X158682277Y-111916469D01*
X158684237Y-111912781D01*
X158684243Y-111912772D01*
X158684247Y-111912763D01*
X158729453Y-111826291D01*
X158739648Y-111801058D01*
X158750175Y-111776017D01*
X158751386Y-111772007D01*
X158778938Y-111678395D01*
X158784036Y-111651670D01*
X158789501Y-111625049D01*
X158789909Y-111620880D01*
X158798753Y-111523698D01*
X158798564Y-111496514D01*
X158798754Y-111469320D01*
X158798345Y-111465151D01*
X158788145Y-111368103D01*
X158782675Y-111341454D01*
X158777583Y-111314759D01*
X158776372Y-111310749D01*
X158747516Y-111217530D01*
X158736982Y-111192470D01*
X158726793Y-111167252D01*
X158724826Y-111163553D01*
X158678413Y-111077715D01*
X158663194Y-111055151D01*
X158648320Y-111032422D01*
X158645674Y-111029178D01*
X158645673Y-111029176D01*
X158645667Y-111029170D01*
X158583471Y-110953987D01*
X158564147Y-110934798D01*
X158545155Y-110915403D01*
X158541928Y-110912733D01*
X158466307Y-110851057D01*
X158443646Y-110836001D01*
X158421221Y-110820646D01*
X158417536Y-110818654D01*
X158331375Y-110772842D01*
X158306236Y-110762480D01*
X158281248Y-110751770D01*
X158277253Y-110750534D01*
X158277243Y-110750530D01*
X158277232Y-110750528D01*
X158183828Y-110722327D01*
X158157180Y-110717050D01*
X158130557Y-110711391D01*
X158126397Y-110710955D01*
X158126394Y-110710954D01*
X158126391Y-110710954D01*
X158029274Y-110701432D01*
X158029273Y-110701432D01*
X158014733Y-110700000D01*
X155985267Y-110700000D01*
X155970238Y-110701480D01*
X155963746Y-110701480D01*
X155959580Y-110701918D01*
X155862605Y-110712795D01*
X155835974Y-110718456D01*
X155809335Y-110723730D01*
X155805342Y-110724966D01*
X155805335Y-110724968D01*
X155805329Y-110724971D01*
X155712318Y-110754475D01*
X155687321Y-110765188D01*
X155662188Y-110775547D01*
X155658512Y-110777535D01*
X155658503Y-110777539D01*
X155658496Y-110777544D01*
X155572990Y-110824551D01*
X155550560Y-110839909D01*
X155527906Y-110854960D01*
X155524678Y-110857631D01*
X155449927Y-110920356D01*
X155430921Y-110939764D01*
X155411610Y-110958940D01*
X155408963Y-110962186D01*
X155347817Y-111038236D01*
X155332939Y-111060972D01*
X155317723Y-111083530D01*
X155315760Y-111087224D01*
X155315757Y-111087228D01*
X155315757Y-111087229D01*
X155270547Y-111173709D01*
X155260366Y-111198907D01*
X155249825Y-111223983D01*
X155248617Y-111227984D01*
X155248613Y-111227994D01*
X155248611Y-111228004D01*
X155221062Y-111321605D01*
X155215960Y-111348348D01*
X155210499Y-111374950D01*
X155210093Y-111379103D01*
X155210090Y-111379117D01*
X155210090Y-111379130D01*
X155201247Y-111476302D01*
X155201436Y-111503486D01*
X155201246Y-111530680D01*
X154095675Y-111530680D01*
X154076291Y-111520547D01*
X154051075Y-111510358D01*
X154026017Y-111499825D01*
X154022016Y-111498617D01*
X154022006Y-111498613D01*
X154021996Y-111498611D01*
X153928395Y-111471062D01*
X153901652Y-111465960D01*
X153875050Y-111460499D01*
X153870897Y-111460093D01*
X153870883Y-111460090D01*
X153870870Y-111460090D01*
X153773698Y-111451247D01*
X153746514Y-111451436D01*
X153719320Y-111451246D01*
X153715151Y-111451655D01*
X153715149Y-111451655D01*
X153618103Y-111461855D01*
X153591454Y-111467325D01*
X153564759Y-111472417D01*
X153560749Y-111473628D01*
X153467530Y-111502484D01*
X153442470Y-111513018D01*
X153417252Y-111523207D01*
X153413553Y-111525174D01*
X153327715Y-111571587D01*
X153305151Y-111586806D01*
X153282422Y-111601680D01*
X153279183Y-111604322D01*
X153279176Y-111604327D01*
X153279170Y-111604333D01*
X153203987Y-111666529D01*
X153184798Y-111685853D01*
X153165403Y-111704845D01*
X153162733Y-111708072D01*
X153101057Y-111783693D01*
X153086001Y-111806354D01*
X153070646Y-111828779D01*
X153068654Y-111832464D01*
X153022842Y-111918625D01*
X153012480Y-111943764D01*
X153001770Y-111968752D01*
X153000534Y-111972747D01*
X153000530Y-111972757D01*
X153000528Y-111972768D01*
X152972327Y-112066172D01*
X152967050Y-112092820D01*
X152961391Y-112119443D01*
X152960954Y-112123609D01*
X152951475Y-112220292D01*
X152950000Y-112235268D01*
X152950001Y-117100000D01*
X151614670Y-117100000D01*
X151580856Y-117096684D01*
X151562446Y-117091126D01*
X151545455Y-117082092D01*
X151530550Y-117069936D01*
X151518290Y-117055116D01*
X151509139Y-117038193D01*
X151503453Y-117019822D01*
X151500000Y-116986972D01*
X151500000Y-107026092D01*
X151945000Y-107026092D01*
X151945000Y-107233908D01*
X151985543Y-107437732D01*
X152065071Y-107629730D01*
X152180528Y-107802523D01*
X152327477Y-107949472D01*
X152500270Y-108064929D01*
X152692268Y-108144457D01*
X152896092Y-108185000D01*
X153103908Y-108185000D01*
X153307732Y-108144457D01*
X153499730Y-108064929D01*
X153672523Y-107949472D01*
X153819472Y-107802523D01*
X153934929Y-107629730D01*
X154014457Y-107437732D01*
X154055000Y-107233908D01*
X154055000Y-107026092D01*
X154014457Y-106822268D01*
X153934929Y-106630270D01*
X153819472Y-106457477D01*
X153672523Y-106310528D01*
X153499730Y-106195071D01*
X153307732Y-106115543D01*
X153103908Y-106075000D01*
X152896092Y-106075000D01*
X152692268Y-106115543D01*
X152500270Y-106195071D01*
X152327477Y-106310528D01*
X152180528Y-106457477D01*
X152065071Y-106630270D01*
X151985543Y-106822268D01*
X151945000Y-107026092D01*
X151500000Y-107026092D01*
X151500000Y-104486092D01*
X151945000Y-104486092D01*
X151945000Y-104693908D01*
X151985543Y-104897732D01*
X152065071Y-105089730D01*
X152180528Y-105262523D01*
X152327477Y-105409472D01*
X152500270Y-105524929D01*
X152692268Y-105604457D01*
X152896092Y-105645000D01*
X153103908Y-105645000D01*
X153307732Y-105604457D01*
X153499730Y-105524929D01*
X153672523Y-105409472D01*
X153819472Y-105262523D01*
X153934929Y-105089730D01*
X154014457Y-104897732D01*
X154055000Y-104693908D01*
X154055000Y-104486092D01*
X154014457Y-104282268D01*
X153934929Y-104090270D01*
X153819472Y-103917477D01*
X153672523Y-103770528D01*
X153499730Y-103655071D01*
X153307732Y-103575543D01*
X153103908Y-103535000D01*
X152896092Y-103535000D01*
X152692268Y-103575543D01*
X152500270Y-103655071D01*
X152327477Y-103770528D01*
X152180528Y-103917477D01*
X152065071Y-104090270D01*
X151985543Y-104282268D01*
X151945000Y-104486092D01*
X151500000Y-104486092D01*
X151500000Y-101946092D01*
X151945000Y-101946092D01*
X151945000Y-102153908D01*
X151985543Y-102357732D01*
X152065071Y-102549730D01*
X152180528Y-102722523D01*
X152327477Y-102869472D01*
X152500270Y-102984929D01*
X152692268Y-103064457D01*
X152896092Y-103105000D01*
X153103908Y-103105000D01*
X153307732Y-103064457D01*
X153499730Y-102984929D01*
X153672523Y-102869472D01*
X153819472Y-102722523D01*
X153934929Y-102549730D01*
X154014457Y-102357732D01*
X154055000Y-102153908D01*
X154055000Y-101946092D01*
X154014457Y-101742268D01*
X153934929Y-101550270D01*
X153819472Y-101377477D01*
X153672523Y-101230528D01*
X153499730Y-101115071D01*
X153307732Y-101035543D01*
X153103908Y-100995000D01*
X152896092Y-100995000D01*
X152692268Y-101035543D01*
X152500270Y-101115071D01*
X152327477Y-101230528D01*
X152180528Y-101377477D01*
X152065071Y-101550270D01*
X151985543Y-101742268D01*
X151945000Y-101946092D01*
X151500000Y-101946092D01*
X151500000Y-99406092D01*
X151945000Y-99406092D01*
X151945000Y-99613908D01*
X151985543Y-99817732D01*
X152065071Y-100009730D01*
X152180528Y-100182523D01*
X152327477Y-100329472D01*
X152500270Y-100444929D01*
X152692268Y-100524457D01*
X152896092Y-100565000D01*
X153103908Y-100565000D01*
X153307732Y-100524457D01*
X153499730Y-100444929D01*
X153672523Y-100329472D01*
X153819472Y-100182523D01*
X153934929Y-100009730D01*
X154014457Y-99817732D01*
X154055000Y-99613908D01*
X154055000Y-99406092D01*
X154014457Y-99202268D01*
X153934929Y-99010270D01*
X153819472Y-98837477D01*
X153672523Y-98690528D01*
X153499730Y-98575071D01*
X153307732Y-98495543D01*
X153103908Y-98455000D01*
X152896092Y-98455000D01*
X152692268Y-98495543D01*
X152500270Y-98575071D01*
X152327477Y-98690528D01*
X152180528Y-98837477D01*
X152065071Y-99010270D01*
X151985543Y-99202268D01*
X151945000Y-99406092D01*
X151500000Y-99406092D01*
X151500000Y-96866092D01*
X151945000Y-96866092D01*
X151945000Y-97073908D01*
X151985543Y-97277732D01*
X152065071Y-97469730D01*
X152180528Y-97642523D01*
X152327477Y-97789472D01*
X152500270Y-97904929D01*
X152692268Y-97984457D01*
X152896092Y-98025000D01*
X153103908Y-98025000D01*
X153307732Y-97984457D01*
X153499730Y-97904929D01*
X153672523Y-97789472D01*
X153819472Y-97642523D01*
X153934929Y-97469730D01*
X154014457Y-97277732D01*
X154055000Y-97073908D01*
X154055000Y-96866092D01*
X154014457Y-96662268D01*
X153934929Y-96470270D01*
X153819472Y-96297477D01*
X153672523Y-96150528D01*
X153499730Y-96035071D01*
X153307732Y-95955543D01*
X153103908Y-95915000D01*
X152896092Y-95915000D01*
X152692268Y-95955543D01*
X152500270Y-96035071D01*
X152327477Y-96150528D01*
X152180528Y-96297477D01*
X152065071Y-96470270D01*
X151985543Y-96662268D01*
X151945000Y-96866092D01*
X151500000Y-96866092D01*
X151500000Y-94326092D01*
X151945000Y-94326092D01*
X151945000Y-94533908D01*
X151985543Y-94737732D01*
X152065071Y-94929730D01*
X152180528Y-95102523D01*
X152327477Y-95249472D01*
X152500270Y-95364929D01*
X152692268Y-95444457D01*
X152896092Y-95485000D01*
X153103908Y-95485000D01*
X153307732Y-95444457D01*
X153499730Y-95364929D01*
X153672523Y-95249472D01*
X153819472Y-95102523D01*
X153934929Y-94929730D01*
X154014457Y-94737732D01*
X154055000Y-94533908D01*
X154055000Y-94326092D01*
X154014457Y-94122268D01*
X153934929Y-93930270D01*
X153819472Y-93757477D01*
X153672523Y-93610528D01*
X153499730Y-93495071D01*
X153307732Y-93415543D01*
X153103908Y-93375000D01*
X152896092Y-93375000D01*
X152692268Y-93415543D01*
X152500270Y-93495071D01*
X152327477Y-93610528D01*
X152180528Y-93757477D01*
X152065071Y-93930270D01*
X151985543Y-94122268D01*
X151945000Y-94326092D01*
X151500000Y-94326092D01*
X151500000Y-91786092D01*
X151945000Y-91786092D01*
X151945000Y-91993908D01*
X151985543Y-92197732D01*
X152065071Y-92389730D01*
X152180528Y-92562523D01*
X152327477Y-92709472D01*
X152500270Y-92824929D01*
X152692268Y-92904457D01*
X152896092Y-92945000D01*
X153103908Y-92945000D01*
X153307732Y-92904457D01*
X153499730Y-92824929D01*
X153672523Y-92709472D01*
X153819472Y-92562523D01*
X153934929Y-92389730D01*
X154014457Y-92197732D01*
X154055000Y-91993908D01*
X154055000Y-91786092D01*
X154014457Y-91582268D01*
X153934929Y-91390270D01*
X153819472Y-91217477D01*
X153672523Y-91070528D01*
X153499730Y-90955071D01*
X153307732Y-90875543D01*
X153103908Y-90835000D01*
X152896092Y-90835000D01*
X152692268Y-90875543D01*
X152500270Y-90955071D01*
X152327477Y-91070528D01*
X152180528Y-91217477D01*
X152065071Y-91390270D01*
X151985543Y-91582268D01*
X151945000Y-91786092D01*
X151500000Y-91786092D01*
X151500000Y-89246092D01*
X151945000Y-89246092D01*
X151945000Y-89453908D01*
X151985543Y-89657732D01*
X152065071Y-89849730D01*
X152180528Y-90022523D01*
X152327477Y-90169472D01*
X152500270Y-90284929D01*
X152692268Y-90364457D01*
X152896092Y-90405000D01*
X153103908Y-90405000D01*
X153307732Y-90364457D01*
X153499730Y-90284929D01*
X153672523Y-90169472D01*
X153819472Y-90022523D01*
X153934929Y-89849730D01*
X154014457Y-89657732D01*
X154055000Y-89453908D01*
X154055000Y-89246092D01*
X154014457Y-89042268D01*
X153934929Y-88850270D01*
X153819472Y-88677477D01*
X153672523Y-88530528D01*
X153499730Y-88415071D01*
X153307732Y-88335543D01*
X153103908Y-88295000D01*
X152896092Y-88295000D01*
X152692268Y-88335543D01*
X152500270Y-88415071D01*
X152327477Y-88530528D01*
X152180528Y-88677477D01*
X152065071Y-88850270D01*
X151985543Y-89042268D01*
X151945000Y-89246092D01*
X151500000Y-89246092D01*
X151500000Y-86706092D01*
X151945000Y-86706092D01*
X151945000Y-86913908D01*
X151985543Y-87117732D01*
X152065071Y-87309730D01*
X152180528Y-87482523D01*
X152327477Y-87629472D01*
X152500270Y-87744929D01*
X152692268Y-87824457D01*
X152896092Y-87865000D01*
X153103908Y-87865000D01*
X153307732Y-87824457D01*
X153499730Y-87744929D01*
X153672523Y-87629472D01*
X153819472Y-87482523D01*
X153934929Y-87309730D01*
X154014457Y-87117732D01*
X154055000Y-86913908D01*
X154055000Y-86706092D01*
X154014457Y-86502268D01*
X153934929Y-86310270D01*
X153819472Y-86137477D01*
X153672523Y-85990528D01*
X153499730Y-85875071D01*
X153307732Y-85795543D01*
X153103908Y-85755000D01*
X152896092Y-85755000D01*
X152692268Y-85795543D01*
X152500270Y-85875071D01*
X152327477Y-85990528D01*
X152180528Y-86137477D01*
X152065071Y-86310270D01*
X151985543Y-86502268D01*
X151945000Y-86706092D01*
X151500000Y-86706092D01*
X151500000Y-84166092D01*
X151945000Y-84166092D01*
X151945000Y-84373908D01*
X151985543Y-84577732D01*
X152065071Y-84769730D01*
X152180528Y-84942523D01*
X152327477Y-85089472D01*
X152500270Y-85204929D01*
X152692268Y-85284457D01*
X152896092Y-85325000D01*
X153103908Y-85325000D01*
X153307732Y-85284457D01*
X153499730Y-85204929D01*
X153672523Y-85089472D01*
X153819472Y-84942523D01*
X153934929Y-84769730D01*
X154014457Y-84577732D01*
X154055000Y-84373908D01*
X154055000Y-84166092D01*
X154014457Y-83962268D01*
X153934929Y-83770270D01*
X153819472Y-83597477D01*
X153672523Y-83450528D01*
X153499730Y-83335071D01*
X153307732Y-83255543D01*
X153103908Y-83215000D01*
X152896092Y-83215000D01*
X152692268Y-83255543D01*
X152500270Y-83335071D01*
X152327477Y-83450528D01*
X152180528Y-83597477D01*
X152065071Y-83770270D01*
X151985543Y-83962268D01*
X151945000Y-84166092D01*
X151500000Y-84166092D01*
X151500000Y-77629700D01*
X151680164Y-77629700D01*
X151681800Y-77646312D01*
X151681801Y-79571078D01*
X151680164Y-79587700D01*
X151686699Y-79654057D01*
X151706054Y-79717864D01*
X151737487Y-79776670D01*
X151779788Y-79828213D01*
X151792699Y-79838809D01*
X152383891Y-80430002D01*
X152394487Y-80442913D01*
X152446030Y-80485214D01*
X152504835Y-80516646D01*
X152553792Y-80531496D01*
X152568642Y-80536001D01*
X152574936Y-80536621D01*
X152618380Y-80540900D01*
X152618387Y-80540900D01*
X152634999Y-80542536D01*
X152651611Y-80540900D01*
X156924690Y-80540900D01*
X166321579Y-89937790D01*
X166315000Y-89970867D01*
X166315000Y-90084133D01*
X166337097Y-90195221D01*
X166380442Y-90299865D01*
X166443368Y-90394041D01*
X166523459Y-90474132D01*
X166617635Y-90537058D01*
X166722279Y-90580403D01*
X166833367Y-90602500D01*
X166946633Y-90602500D01*
X167057721Y-90580403D01*
X167162365Y-90537058D01*
X167256541Y-90474132D01*
X167336632Y-90394041D01*
X167399558Y-90299865D01*
X167442903Y-90195221D01*
X167456556Y-90126582D01*
X167497142Y-90224565D01*
X167560068Y-90318741D01*
X167640159Y-90398832D01*
X167734335Y-90461758D01*
X167838979Y-90505103D01*
X167950067Y-90527200D01*
X168063333Y-90527200D01*
X168174421Y-90505103D01*
X168279065Y-90461758D01*
X168373241Y-90398832D01*
X168453332Y-90318741D01*
X168516258Y-90224565D01*
X168559603Y-90119921D01*
X168581700Y-90008833D01*
X168581700Y-89895567D01*
X168559603Y-89784479D01*
X168516258Y-89679835D01*
X168453332Y-89585659D01*
X168373241Y-89505568D01*
X168279065Y-89442642D01*
X168174421Y-89399297D01*
X168063333Y-89377200D01*
X167950067Y-89377200D01*
X167916990Y-89383779D01*
X165711958Y-87178747D01*
X165738367Y-87184000D01*
X165851633Y-87184000D01*
X165962721Y-87161903D01*
X166067365Y-87118558D01*
X166161541Y-87055632D01*
X166241632Y-86975541D01*
X166304558Y-86881365D01*
X166347903Y-86776721D01*
X166361952Y-86706092D01*
X172265000Y-86706092D01*
X172265000Y-86913908D01*
X172305543Y-87117732D01*
X172385071Y-87309730D01*
X172500528Y-87482523D01*
X172647477Y-87629472D01*
X172820270Y-87744929D01*
X173012268Y-87824457D01*
X173216092Y-87865000D01*
X173423908Y-87865000D01*
X173627732Y-87824457D01*
X173819730Y-87744929D01*
X173992523Y-87629472D01*
X174139472Y-87482523D01*
X174254929Y-87309730D01*
X174334457Y-87117732D01*
X174375000Y-86913908D01*
X174375000Y-86706092D01*
X174334457Y-86502268D01*
X174254929Y-86310270D01*
X174139472Y-86137477D01*
X173992523Y-85990528D01*
X173819730Y-85875071D01*
X173627732Y-85795543D01*
X173423908Y-85755000D01*
X173216092Y-85755000D01*
X173012268Y-85795543D01*
X172820270Y-85875071D01*
X172647477Y-85990528D01*
X172500528Y-86137477D01*
X172385071Y-86310270D01*
X172305543Y-86502268D01*
X172265000Y-86706092D01*
X166361952Y-86706092D01*
X166370000Y-86665633D01*
X166370000Y-86552367D01*
X166347903Y-86441279D01*
X166304558Y-86336635D01*
X166241632Y-86242459D01*
X166161541Y-86162368D01*
X166067365Y-86099442D01*
X165962721Y-86056097D01*
X165851633Y-86034000D01*
X165738367Y-86034000D01*
X165705290Y-86040579D01*
X163830803Y-84166092D01*
X172265000Y-84166092D01*
X172265000Y-84373908D01*
X172305543Y-84577732D01*
X172385071Y-84769730D01*
X172500528Y-84942523D01*
X172647477Y-85089472D01*
X172820270Y-85204929D01*
X173012268Y-85284457D01*
X173216092Y-85325000D01*
X173423908Y-85325000D01*
X173627732Y-85284457D01*
X173819730Y-85204929D01*
X173992523Y-85089472D01*
X174139472Y-84942523D01*
X174254929Y-84769730D01*
X174334457Y-84577732D01*
X174375000Y-84373908D01*
X174375000Y-84166092D01*
X174334457Y-83962268D01*
X174254929Y-83770270D01*
X174139472Y-83597477D01*
X173992523Y-83450528D01*
X173819730Y-83335071D01*
X173627732Y-83255543D01*
X173423908Y-83215000D01*
X173216092Y-83215000D01*
X173012268Y-83255543D01*
X172820270Y-83335071D01*
X172647477Y-83450528D01*
X172500528Y-83597477D01*
X172385071Y-83770270D01*
X172305543Y-83962268D01*
X172265000Y-84166092D01*
X163830803Y-84166092D01*
X161290803Y-81626092D01*
X172265000Y-81626092D01*
X172265000Y-81833908D01*
X172305543Y-82037732D01*
X172385071Y-82229730D01*
X172500528Y-82402523D01*
X172647477Y-82549472D01*
X172820270Y-82664929D01*
X173012268Y-82744457D01*
X173216092Y-82785000D01*
X173423908Y-82785000D01*
X173627732Y-82744457D01*
X173819730Y-82664929D01*
X173992523Y-82549472D01*
X174139472Y-82402523D01*
X174254929Y-82229730D01*
X174334457Y-82037732D01*
X174375000Y-81833908D01*
X174375000Y-81626092D01*
X174334457Y-81422268D01*
X174254929Y-81230270D01*
X174139472Y-81057477D01*
X173992523Y-80910528D01*
X173819730Y-80795071D01*
X173627732Y-80715543D01*
X173423908Y-80675000D01*
X173216092Y-80675000D01*
X173012268Y-80715543D01*
X172820270Y-80795071D01*
X172647477Y-80910528D01*
X172500528Y-81057477D01*
X172385071Y-81230270D01*
X172305543Y-81422268D01*
X172265000Y-81626092D01*
X161290803Y-81626092D01*
X158750803Y-79086092D01*
X172265000Y-79086092D01*
X172265000Y-79293908D01*
X172305543Y-79497732D01*
X172385071Y-79689730D01*
X172500528Y-79862523D01*
X172647477Y-80009472D01*
X172820270Y-80124929D01*
X173012268Y-80204457D01*
X173216092Y-80245000D01*
X173423908Y-80245000D01*
X173627732Y-80204457D01*
X173819730Y-80124929D01*
X173992523Y-80009472D01*
X174139472Y-79862523D01*
X174254929Y-79689730D01*
X174334457Y-79497732D01*
X174375000Y-79293908D01*
X174375000Y-79086092D01*
X174334457Y-78882268D01*
X174254929Y-78690270D01*
X174139472Y-78517477D01*
X173992523Y-78370528D01*
X173819730Y-78255071D01*
X173627732Y-78175543D01*
X173423908Y-78135000D01*
X173216092Y-78135000D01*
X173012268Y-78175543D01*
X172820270Y-78255071D01*
X172647477Y-78370528D01*
X172500528Y-78517477D01*
X172385071Y-78690270D01*
X172305543Y-78882268D01*
X172265000Y-79086092D01*
X158750803Y-79086092D01*
X155712575Y-76047864D01*
X162286600Y-76047864D01*
X162286600Y-76252136D01*
X162326451Y-76452482D01*
X162404622Y-76641204D01*
X162518109Y-76811049D01*
X162662551Y-76955491D01*
X162832396Y-77068978D01*
X163021118Y-77147149D01*
X163221464Y-77187000D01*
X163425736Y-77187000D01*
X163626082Y-77147149D01*
X163814804Y-77068978D01*
X163984649Y-76955491D01*
X164129091Y-76811049D01*
X164242578Y-76641204D01*
X164320749Y-76452482D01*
X164360600Y-76252136D01*
X164360600Y-76047864D01*
X167163400Y-76047864D01*
X167163400Y-76252136D01*
X167203251Y-76452482D01*
X167281422Y-76641204D01*
X167394909Y-76811049D01*
X167539351Y-76955491D01*
X167709196Y-77068978D01*
X167897918Y-77147149D01*
X168098264Y-77187000D01*
X168302536Y-77187000D01*
X168502882Y-77147149D01*
X168691604Y-77068978D01*
X168861449Y-76955491D01*
X169005891Y-76811049D01*
X169119378Y-76641204D01*
X169158774Y-76546092D01*
X172265000Y-76546092D01*
X172265000Y-76753908D01*
X172305543Y-76957732D01*
X172385071Y-77149730D01*
X172500528Y-77322523D01*
X172647477Y-77469472D01*
X172820270Y-77584929D01*
X173012268Y-77664457D01*
X173216092Y-77705000D01*
X173423908Y-77705000D01*
X173627732Y-77664457D01*
X173819730Y-77584929D01*
X173992523Y-77469472D01*
X174139472Y-77322523D01*
X174254929Y-77149730D01*
X174334457Y-76957732D01*
X174375000Y-76753908D01*
X174375000Y-76546092D01*
X174334457Y-76342268D01*
X174254929Y-76150270D01*
X174139472Y-75977477D01*
X173992523Y-75830528D01*
X173819730Y-75715071D01*
X173627732Y-75635543D01*
X173423908Y-75595000D01*
X173216092Y-75595000D01*
X173012268Y-75635543D01*
X172820270Y-75715071D01*
X172647477Y-75830528D01*
X172500528Y-75977477D01*
X172385071Y-76150270D01*
X172305543Y-76342268D01*
X172265000Y-76546092D01*
X169158774Y-76546092D01*
X169197549Y-76452482D01*
X169237400Y-76252136D01*
X169237400Y-76047864D01*
X169197549Y-75847518D01*
X169119378Y-75658796D01*
X169005891Y-75488951D01*
X168861449Y-75344509D01*
X168691604Y-75231022D01*
X168502882Y-75152851D01*
X168302536Y-75113000D01*
X168098264Y-75113000D01*
X167897918Y-75152851D01*
X167709196Y-75231022D01*
X167539351Y-75344509D01*
X167394909Y-75488951D01*
X167281422Y-75658796D01*
X167203251Y-75847518D01*
X167163400Y-76047864D01*
X164360600Y-76047864D01*
X164320749Y-75847518D01*
X164242578Y-75658796D01*
X164129091Y-75488951D01*
X163984649Y-75344509D01*
X163814804Y-75231022D01*
X163626082Y-75152851D01*
X163425736Y-75113000D01*
X163221464Y-75113000D01*
X163021118Y-75152851D01*
X162832396Y-75231022D01*
X162662551Y-75344509D01*
X162518109Y-75488951D01*
X162404622Y-75658796D01*
X162326451Y-75847518D01*
X162286600Y-76047864D01*
X155712575Y-76047864D01*
X154025736Y-74361026D01*
X154055000Y-74213908D01*
X154055000Y-74006092D01*
X172265000Y-74006092D01*
X172265000Y-74213908D01*
X172305543Y-74417732D01*
X172385071Y-74609730D01*
X172500528Y-74782523D01*
X172647477Y-74929472D01*
X172820270Y-75044929D01*
X173012268Y-75124457D01*
X173216092Y-75165000D01*
X173423908Y-75165000D01*
X173627732Y-75124457D01*
X173819730Y-75044929D01*
X173992523Y-74929472D01*
X174139472Y-74782523D01*
X174254929Y-74609730D01*
X174334457Y-74417732D01*
X174375000Y-74213908D01*
X174375000Y-74006092D01*
X174334457Y-73802268D01*
X174254929Y-73610270D01*
X174139472Y-73437477D01*
X173992523Y-73290528D01*
X173819730Y-73175071D01*
X173627732Y-73095543D01*
X173423908Y-73055000D01*
X173216092Y-73055000D01*
X173012268Y-73095543D01*
X172820270Y-73175071D01*
X172647477Y-73290528D01*
X172500528Y-73437477D01*
X172385071Y-73610270D01*
X172305543Y-73802268D01*
X172265000Y-74006092D01*
X154055000Y-74006092D01*
X154014457Y-73802268D01*
X153934929Y-73610270D01*
X153819472Y-73437477D01*
X153672523Y-73290528D01*
X153499730Y-73175071D01*
X153307732Y-73095543D01*
X153103908Y-73055000D01*
X152896092Y-73055000D01*
X152692268Y-73095543D01*
X152500270Y-73175071D01*
X152327477Y-73290528D01*
X152180528Y-73437477D01*
X152065071Y-73610270D01*
X151985543Y-73802268D01*
X151945000Y-74006092D01*
X151945000Y-74213908D01*
X151985543Y-74417732D01*
X152065071Y-74609730D01*
X152180528Y-74782523D01*
X152327477Y-74929472D01*
X152500270Y-75044929D01*
X152692268Y-75124457D01*
X152896092Y-75165000D01*
X153103908Y-75165000D01*
X153307732Y-75124457D01*
X153499730Y-75044929D01*
X153651086Y-74943796D01*
X165226579Y-86519290D01*
X165220000Y-86552367D01*
X165220000Y-86665633D01*
X165225253Y-86692043D01*
X157495613Y-78962403D01*
X157485013Y-78949487D01*
X157433470Y-78907186D01*
X157374665Y-78875754D01*
X157310857Y-78856399D01*
X157261120Y-78851500D01*
X157261112Y-78851500D01*
X157244500Y-78849864D01*
X157227888Y-78851500D01*
X154001713Y-78851500D01*
X153934929Y-78690270D01*
X153819472Y-78517477D01*
X153672523Y-78370528D01*
X153499730Y-78255071D01*
X153307732Y-78175543D01*
X153103908Y-78135000D01*
X152896092Y-78135000D01*
X152692268Y-78175543D01*
X152500270Y-78255071D01*
X152358800Y-78349599D01*
X152358800Y-77769910D01*
X152531037Y-77597673D01*
X152692268Y-77664457D01*
X152896092Y-77705000D01*
X153103908Y-77705000D01*
X153307732Y-77664457D01*
X153499730Y-77584929D01*
X153672523Y-77469472D01*
X153819472Y-77322523D01*
X153934929Y-77149730D01*
X154014457Y-76957732D01*
X154055000Y-76753908D01*
X154055000Y-76546092D01*
X154014457Y-76342268D01*
X153934929Y-76150270D01*
X153819472Y-75977477D01*
X153672523Y-75830528D01*
X153499730Y-75715071D01*
X153307732Y-75635543D01*
X153103908Y-75595000D01*
X152896092Y-75595000D01*
X152692268Y-75635543D01*
X152500270Y-75715071D01*
X152327477Y-75830528D01*
X152180528Y-75977477D01*
X152065071Y-76150270D01*
X151985543Y-76342268D01*
X151945000Y-76546092D01*
X151945000Y-76753908D01*
X151985543Y-76957732D01*
X152052327Y-77118963D01*
X151792699Y-77378591D01*
X151779787Y-77389188D01*
X151737486Y-77440731D01*
X151706054Y-77499536D01*
X151686699Y-77563344D01*
X151681800Y-77613081D01*
X151681800Y-77613088D01*
X151680164Y-77629700D01*
X151500000Y-77629700D01*
X151500000Y-71466092D01*
X151945000Y-71466092D01*
X151945000Y-71673908D01*
X151985543Y-71877732D01*
X152065071Y-72069730D01*
X152180528Y-72242523D01*
X152327477Y-72389472D01*
X152500270Y-72504929D01*
X152692268Y-72584457D01*
X152896092Y-72625000D01*
X153103908Y-72625000D01*
X153307732Y-72584457D01*
X153499730Y-72504929D01*
X153672523Y-72389472D01*
X153819472Y-72242523D01*
X153934929Y-72069730D01*
X154014457Y-71877732D01*
X154055000Y-71673908D01*
X154055000Y-71466092D01*
X172265000Y-71466092D01*
X172265000Y-71673908D01*
X172305543Y-71877732D01*
X172385071Y-72069730D01*
X172500528Y-72242523D01*
X172647477Y-72389472D01*
X172820270Y-72504929D01*
X173012268Y-72584457D01*
X173216092Y-72625000D01*
X173423908Y-72625000D01*
X173627732Y-72584457D01*
X173819730Y-72504929D01*
X173992523Y-72389472D01*
X174139472Y-72242523D01*
X174254929Y-72069730D01*
X174334457Y-71877732D01*
X174375000Y-71673908D01*
X174375000Y-71466092D01*
X174334457Y-71262268D01*
X174254929Y-71070270D01*
X174139472Y-70897477D01*
X173992523Y-70750528D01*
X173819730Y-70635071D01*
X173627732Y-70555543D01*
X173423908Y-70515000D01*
X173216092Y-70515000D01*
X173012268Y-70555543D01*
X172820270Y-70635071D01*
X172647477Y-70750528D01*
X172500528Y-70897477D01*
X172385071Y-71070270D01*
X172305543Y-71262268D01*
X172265000Y-71466092D01*
X154055000Y-71466092D01*
X154014457Y-71262268D01*
X153934929Y-71070270D01*
X153819472Y-70897477D01*
X153672523Y-70750528D01*
X153499730Y-70635071D01*
X153307732Y-70555543D01*
X153103908Y-70515000D01*
X152896092Y-70515000D01*
X152692268Y-70555543D01*
X152500270Y-70635071D01*
X152327477Y-70750528D01*
X152180528Y-70897477D01*
X152065071Y-71070270D01*
X151985543Y-71262268D01*
X151945000Y-71466092D01*
X151500000Y-71466092D01*
X151500000Y-68926092D01*
X151945000Y-68926092D01*
X151945000Y-69133908D01*
X151985543Y-69337732D01*
X152065071Y-69529730D01*
X152180528Y-69702523D01*
X152327477Y-69849472D01*
X152500270Y-69964929D01*
X152692268Y-70044457D01*
X152896092Y-70085000D01*
X153103908Y-70085000D01*
X153307732Y-70044457D01*
X153499730Y-69964929D01*
X153672523Y-69849472D01*
X153819472Y-69702523D01*
X153934929Y-69529730D01*
X154014457Y-69337732D01*
X154055000Y-69133908D01*
X154055000Y-68926092D01*
X172265000Y-68926092D01*
X172265000Y-69133908D01*
X172305543Y-69337732D01*
X172385071Y-69529730D01*
X172500528Y-69702523D01*
X172647477Y-69849472D01*
X172820270Y-69964929D01*
X173012268Y-70044457D01*
X173216092Y-70085000D01*
X173423908Y-70085000D01*
X173627732Y-70044457D01*
X173819730Y-69964929D01*
X173992523Y-69849472D01*
X174139472Y-69702523D01*
X174254929Y-69529730D01*
X174334457Y-69337732D01*
X174375000Y-69133908D01*
X174375000Y-68926092D01*
X174334457Y-68722268D01*
X174254929Y-68530270D01*
X174139472Y-68357477D01*
X173992523Y-68210528D01*
X173819730Y-68095071D01*
X173627732Y-68015543D01*
X173423908Y-67975000D01*
X173216092Y-67975000D01*
X173012268Y-68015543D01*
X172820270Y-68095071D01*
X172647477Y-68210528D01*
X172500528Y-68357477D01*
X172385071Y-68530270D01*
X172305543Y-68722268D01*
X172265000Y-68926092D01*
X154055000Y-68926092D01*
X154014457Y-68722268D01*
X153934929Y-68530270D01*
X153819472Y-68357477D01*
X153672523Y-68210528D01*
X153499730Y-68095071D01*
X153307732Y-68015543D01*
X153103908Y-67975000D01*
X152896092Y-67975000D01*
X152692268Y-68015543D01*
X152500270Y-68095071D01*
X152327477Y-68210528D01*
X152180528Y-68357477D01*
X152065071Y-68530270D01*
X151985543Y-68722268D01*
X151945000Y-68926092D01*
X151500000Y-68926092D01*
X151500000Y-66386092D01*
X151945000Y-66386092D01*
X151945000Y-66593908D01*
X151985543Y-66797732D01*
X152065071Y-66989730D01*
X152180528Y-67162523D01*
X152327477Y-67309472D01*
X152500270Y-67424929D01*
X152692268Y-67504457D01*
X152896092Y-67545000D01*
X153103908Y-67545000D01*
X153307732Y-67504457D01*
X153499730Y-67424929D01*
X153672523Y-67309472D01*
X153819472Y-67162523D01*
X153934929Y-66989730D01*
X154014457Y-66797732D01*
X154055000Y-66593908D01*
X154055000Y-66386092D01*
X172265000Y-66386092D01*
X172265000Y-66593908D01*
X172305543Y-66797732D01*
X172385071Y-66989730D01*
X172500528Y-67162523D01*
X172647477Y-67309472D01*
X172820270Y-67424929D01*
X173012268Y-67504457D01*
X173216092Y-67545000D01*
X173423908Y-67545000D01*
X173627732Y-67504457D01*
X173819730Y-67424929D01*
X173992523Y-67309472D01*
X174139472Y-67162523D01*
X174254929Y-66989730D01*
X174334457Y-66797732D01*
X174375000Y-66593908D01*
X174375000Y-66386092D01*
X174334457Y-66182268D01*
X174254929Y-65990270D01*
X174139472Y-65817477D01*
X173992523Y-65670528D01*
X173819730Y-65555071D01*
X173627732Y-65475543D01*
X173423908Y-65435000D01*
X173216092Y-65435000D01*
X173012268Y-65475543D01*
X172820270Y-65555071D01*
X172647477Y-65670528D01*
X172500528Y-65817477D01*
X172385071Y-65990270D01*
X172305543Y-66182268D01*
X172265000Y-66386092D01*
X154055000Y-66386092D01*
X154014457Y-66182268D01*
X153934929Y-65990270D01*
X153819472Y-65817477D01*
X153672523Y-65670528D01*
X153499730Y-65555071D01*
X153307732Y-65475543D01*
X153103908Y-65435000D01*
X152896092Y-65435000D01*
X152692268Y-65475543D01*
X152500270Y-65555071D01*
X152327477Y-65670528D01*
X152180528Y-65817477D01*
X152065071Y-65990270D01*
X151985543Y-66182268D01*
X151945000Y-66386092D01*
X151500000Y-66386092D01*
X151500000Y-64755535D01*
X152300531Y-64755535D01*
X152379925Y-64931058D01*
X152583234Y-65033177D01*
X152802560Y-65093671D01*
X153029473Y-65110214D01*
X153255253Y-65082171D01*
X153471224Y-65010620D01*
X153620075Y-64931058D01*
X153699469Y-64755535D01*
X172620531Y-64755535D01*
X172699925Y-64931058D01*
X172903234Y-65033177D01*
X173122560Y-65093671D01*
X173349473Y-65110214D01*
X173575253Y-65082171D01*
X173791224Y-65010620D01*
X173940075Y-64931058D01*
X174019469Y-64755535D01*
X173320000Y-64056066D01*
X172620531Y-64755535D01*
X153699469Y-64755535D01*
X153000000Y-64056066D01*
X152300531Y-64755535D01*
X151500000Y-64755535D01*
X151500000Y-63979473D01*
X151839786Y-63979473D01*
X151867829Y-64205253D01*
X151939380Y-64421224D01*
X152018942Y-64570075D01*
X152194465Y-64649469D01*
X152893934Y-63950000D01*
X153106066Y-63950000D01*
X153805535Y-64649469D01*
X153981058Y-64570075D01*
X154083177Y-64366766D01*
X154143671Y-64147440D01*
X154155916Y-63979473D01*
X172159786Y-63979473D01*
X172187829Y-64205253D01*
X172259380Y-64421224D01*
X172338942Y-64570075D01*
X172514465Y-64649469D01*
X173213934Y-63950000D01*
X173426066Y-63950000D01*
X174125535Y-64649469D01*
X174301058Y-64570075D01*
X174403177Y-64366766D01*
X174463671Y-64147440D01*
X174480214Y-63920527D01*
X174452171Y-63694747D01*
X174380620Y-63478776D01*
X174301058Y-63329925D01*
X174125535Y-63250531D01*
X173426066Y-63950000D01*
X173213934Y-63950000D01*
X172514465Y-63250531D01*
X172338942Y-63329925D01*
X172236823Y-63533234D01*
X172176329Y-63752560D01*
X172159786Y-63979473D01*
X154155916Y-63979473D01*
X154160214Y-63920527D01*
X154132171Y-63694747D01*
X154060620Y-63478776D01*
X153981058Y-63329925D01*
X153805535Y-63250531D01*
X153106066Y-63950000D01*
X152893934Y-63950000D01*
X152194465Y-63250531D01*
X152018942Y-63329925D01*
X151916823Y-63533234D01*
X151856329Y-63752560D01*
X151839786Y-63979473D01*
X151500000Y-63979473D01*
X151500000Y-63144465D01*
X152300531Y-63144465D01*
X153000000Y-63843934D01*
X153699469Y-63144465D01*
X172620531Y-63144465D01*
X173320000Y-63843934D01*
X174019469Y-63144465D01*
X173940075Y-62968942D01*
X173736766Y-62866823D01*
X173517440Y-62806329D01*
X173290527Y-62789786D01*
X173064747Y-62817829D01*
X172848776Y-62889380D01*
X172699925Y-62968942D01*
X172620531Y-63144465D01*
X153699469Y-63144465D01*
X153620075Y-62968942D01*
X153416766Y-62866823D01*
X153197440Y-62806329D01*
X152970527Y-62789786D01*
X152744747Y-62817829D01*
X152528776Y-62889380D01*
X152379925Y-62968942D01*
X152300531Y-63144465D01*
X151500000Y-63144465D01*
X151500000Y-61306092D01*
X151945000Y-61306092D01*
X151945000Y-61513908D01*
X151985543Y-61717732D01*
X152065071Y-61909730D01*
X152180528Y-62082523D01*
X152327477Y-62229472D01*
X152500270Y-62344929D01*
X152692268Y-62424457D01*
X152896092Y-62465000D01*
X153103908Y-62465000D01*
X153307732Y-62424457D01*
X153499730Y-62344929D01*
X153672523Y-62229472D01*
X153819472Y-62082523D01*
X153934929Y-61909730D01*
X154014457Y-61717732D01*
X154055000Y-61513908D01*
X154055000Y-61306092D01*
X172265000Y-61306092D01*
X172265000Y-61513908D01*
X172305543Y-61717732D01*
X172385071Y-61909730D01*
X172500528Y-62082523D01*
X172647477Y-62229472D01*
X172820270Y-62344929D01*
X173012268Y-62424457D01*
X173216092Y-62465000D01*
X173423908Y-62465000D01*
X173627732Y-62424457D01*
X173819730Y-62344929D01*
X173992523Y-62229472D01*
X174139472Y-62082523D01*
X174254929Y-61909730D01*
X174334457Y-61717732D01*
X174375000Y-61513908D01*
X174375000Y-61306092D01*
X174334457Y-61102268D01*
X174267673Y-60941037D01*
X176719311Y-58489400D01*
X178498899Y-58489400D01*
X178487318Y-58500981D01*
X178358729Y-58693429D01*
X178270155Y-58907265D01*
X178225000Y-59134273D01*
X178225000Y-59365727D01*
X178270155Y-59592735D01*
X178358729Y-59806571D01*
X178487318Y-59999019D01*
X178650981Y-60162682D01*
X178843429Y-60291271D01*
X179057265Y-60379845D01*
X179284273Y-60425000D01*
X179515727Y-60425000D01*
X179742735Y-60379845D01*
X179956571Y-60291271D01*
X179960161Y-60288872D01*
X180159501Y-60488212D01*
X180159500Y-68347799D01*
X180149019Y-68337318D01*
X179956571Y-68208729D01*
X179742735Y-68120155D01*
X179515727Y-68075000D01*
X179284273Y-68075000D01*
X179057265Y-68120155D01*
X178843429Y-68208729D01*
X178650981Y-68337318D01*
X178487318Y-68500981D01*
X178358729Y-68693429D01*
X178270155Y-68907265D01*
X178225000Y-69134273D01*
X178225000Y-69365727D01*
X178270155Y-69592735D01*
X178358729Y-69806571D01*
X178487318Y-69999019D01*
X178650981Y-70162682D01*
X178843429Y-70291271D01*
X179057265Y-70379845D01*
X179284273Y-70425000D01*
X179515727Y-70425000D01*
X179742735Y-70379845D01*
X179956571Y-70291271D01*
X180149019Y-70162682D01*
X180159500Y-70152201D01*
X180159500Y-75011789D01*
X179960161Y-75211128D01*
X179956571Y-75208729D01*
X179742735Y-75120155D01*
X179515727Y-75075000D01*
X179284273Y-75075000D01*
X179057265Y-75120155D01*
X178843429Y-75208729D01*
X178650981Y-75337318D01*
X178487318Y-75500981D01*
X178358729Y-75693429D01*
X178270155Y-75907265D01*
X178225000Y-76134273D01*
X178225000Y-76365727D01*
X178270155Y-76592735D01*
X178358729Y-76806571D01*
X178487318Y-76999019D01*
X178650981Y-77162682D01*
X178843429Y-77291271D01*
X179057265Y-77379845D01*
X179284273Y-77425000D01*
X179515727Y-77425000D01*
X179742735Y-77379845D01*
X179956571Y-77291271D01*
X180149019Y-77162682D01*
X180312682Y-76999019D01*
X180441271Y-76806571D01*
X180529845Y-76592735D01*
X180575000Y-76365727D01*
X180575000Y-76134273D01*
X180529845Y-75907265D01*
X180441271Y-75693429D01*
X180438872Y-75689839D01*
X180725607Y-75403104D01*
X180738512Y-75392513D01*
X180780814Y-75340970D01*
X180812246Y-75282165D01*
X180822591Y-75248059D01*
X180831601Y-75218359D01*
X180832733Y-75206861D01*
X180836500Y-75168620D01*
X180836500Y-75168613D01*
X180838136Y-75152001D01*
X180836500Y-75135389D01*
X180836500Y-72634273D01*
X183425000Y-72634273D01*
X183425000Y-72865727D01*
X183470155Y-73092735D01*
X183558729Y-73306571D01*
X183687318Y-73499019D01*
X183850981Y-73662682D01*
X184043429Y-73791271D01*
X184257265Y-73879845D01*
X184484273Y-73925000D01*
X184715727Y-73925000D01*
X184942735Y-73879845D01*
X185156571Y-73791271D01*
X185349019Y-73662682D01*
X185512682Y-73499019D01*
X185641271Y-73306571D01*
X185729845Y-73092735D01*
X185775000Y-72865727D01*
X185775000Y-72634273D01*
X185729845Y-72407265D01*
X185641271Y-72193429D01*
X185512682Y-72000981D01*
X185349019Y-71837318D01*
X185156571Y-71708729D01*
X184942735Y-71620155D01*
X184715727Y-71575000D01*
X184484273Y-71575000D01*
X184257265Y-71620155D01*
X184043429Y-71708729D01*
X183850981Y-71837318D01*
X183687318Y-72000981D01*
X183558729Y-72193429D01*
X183470155Y-72407265D01*
X183425000Y-72634273D01*
X180836500Y-72634273D01*
X180836500Y-60364611D01*
X180838136Y-60347999D01*
X180836500Y-60331387D01*
X180836500Y-60331380D01*
X180831601Y-60281643D01*
X180831601Y-60281641D01*
X180822591Y-60251941D01*
X180812246Y-60217835D01*
X180780814Y-60159030D01*
X180738513Y-60107487D01*
X180725602Y-60096891D01*
X180438872Y-59810161D01*
X180441271Y-59806571D01*
X180529845Y-59592735D01*
X180575000Y-59365727D01*
X180575000Y-59203710D01*
X183561128Y-62189839D01*
X183558729Y-62193429D01*
X183470155Y-62407265D01*
X183425000Y-62634273D01*
X183425000Y-62865727D01*
X183470155Y-63092735D01*
X183558729Y-63306571D01*
X183687318Y-63499019D01*
X183850981Y-63662682D01*
X184043429Y-63791271D01*
X184257265Y-63879845D01*
X184484273Y-63925000D01*
X184715727Y-63925000D01*
X184942735Y-63879845D01*
X185156571Y-63791271D01*
X185349019Y-63662682D01*
X185512682Y-63499019D01*
X185641271Y-63306571D01*
X185729845Y-63092735D01*
X185775000Y-62865727D01*
X185775000Y-62634273D01*
X185729845Y-62407265D01*
X185641271Y-62193429D01*
X185512682Y-62000981D01*
X185349019Y-61837318D01*
X185156571Y-61708729D01*
X184942735Y-61620155D01*
X184715727Y-61575000D01*
X184484273Y-61575000D01*
X184257265Y-61620155D01*
X184043429Y-61708729D01*
X184039839Y-61711128D01*
X180252013Y-57923303D01*
X180241413Y-57910387D01*
X180189870Y-57868086D01*
X180131065Y-57836654D01*
X180067257Y-57817299D01*
X180017520Y-57812400D01*
X180017512Y-57812400D01*
X180000900Y-57810764D01*
X179984288Y-57812400D01*
X176595711Y-57812400D01*
X176579099Y-57810764D01*
X176562487Y-57812400D01*
X176562480Y-57812400D01*
X176524239Y-57816167D01*
X176512741Y-57817299D01*
X176483041Y-57826309D01*
X176448935Y-57836654D01*
X176390130Y-57868086D01*
X176338587Y-57910387D01*
X176327991Y-57923298D01*
X173788963Y-60462327D01*
X173627732Y-60395543D01*
X173423908Y-60355000D01*
X173216092Y-60355000D01*
X173012268Y-60395543D01*
X172820270Y-60475071D01*
X172647477Y-60590528D01*
X172500528Y-60737477D01*
X172385071Y-60910270D01*
X172305543Y-61102268D01*
X172265000Y-61306092D01*
X154055000Y-61306092D01*
X154014457Y-61102268D01*
X153934929Y-60910270D01*
X153819472Y-60737477D01*
X153672523Y-60590528D01*
X153499730Y-60475071D01*
X153307732Y-60395543D01*
X153103908Y-60355000D01*
X152896092Y-60355000D01*
X152692268Y-60395543D01*
X152500270Y-60475071D01*
X152327477Y-60590528D01*
X152180528Y-60737477D01*
X152065071Y-60910270D01*
X151985543Y-61102268D01*
X151945000Y-61306092D01*
X151500000Y-61306092D01*
X151500000Y-58090000D01*
X151943670Y-58090000D01*
X151943670Y-59650000D01*
X151948980Y-59703909D01*
X151964704Y-59755747D01*
X151990240Y-59803521D01*
X152024605Y-59845395D01*
X152066479Y-59879760D01*
X152114253Y-59905296D01*
X152166091Y-59921020D01*
X152220000Y-59926330D01*
X153780000Y-59926330D01*
X153833909Y-59921020D01*
X153885747Y-59905296D01*
X153933521Y-59879760D01*
X153975395Y-59845395D01*
X154009760Y-59803521D01*
X154035296Y-59755747D01*
X154051020Y-59703909D01*
X154056330Y-59650000D01*
X154056330Y-58090000D01*
X154051020Y-58036091D01*
X154035296Y-57984253D01*
X154009760Y-57936479D01*
X153975395Y-57894605D01*
X153933521Y-57860240D01*
X153885747Y-57834704D01*
X153833909Y-57818980D01*
X153780000Y-57813670D01*
X152220000Y-57813670D01*
X152166091Y-57818980D01*
X152114253Y-57834704D01*
X152066479Y-57860240D01*
X152024605Y-57894605D01*
X151990240Y-57936479D01*
X151964704Y-57984253D01*
X151948980Y-58036091D01*
X151943670Y-58090000D01*
X151500000Y-58090000D01*
X151500000Y-57423669D01*
X163025000Y-57423669D01*
X163025000Y-57576331D01*
X163054783Y-57726059D01*
X163113204Y-57867100D01*
X163198018Y-57994034D01*
X163305966Y-58101982D01*
X163432900Y-58186796D01*
X163573941Y-58245217D01*
X163723669Y-58275000D01*
X163876331Y-58275000D01*
X164026059Y-58245217D01*
X164167100Y-58186796D01*
X164294034Y-58101982D01*
X164306016Y-58090000D01*
X172263670Y-58090000D01*
X172263670Y-59650000D01*
X172268980Y-59703909D01*
X172284704Y-59755747D01*
X172310240Y-59803521D01*
X172344605Y-59845395D01*
X172386479Y-59879760D01*
X172434253Y-59905296D01*
X172486091Y-59921020D01*
X172540000Y-59926330D01*
X174100000Y-59926330D01*
X174153909Y-59921020D01*
X174205747Y-59905296D01*
X174253521Y-59879760D01*
X174295395Y-59845395D01*
X174329760Y-59803521D01*
X174355296Y-59755747D01*
X174371020Y-59703909D01*
X174376330Y-59650000D01*
X174376330Y-58090000D01*
X174371020Y-58036091D01*
X174355296Y-57984253D01*
X174329760Y-57936479D01*
X174295395Y-57894605D01*
X174253521Y-57860240D01*
X174205747Y-57834704D01*
X174153909Y-57818980D01*
X174100000Y-57813670D01*
X172540000Y-57813670D01*
X172486091Y-57818980D01*
X172434253Y-57834704D01*
X172386479Y-57860240D01*
X172344605Y-57894605D01*
X172310240Y-57936479D01*
X172284704Y-57984253D01*
X172268980Y-58036091D01*
X172263670Y-58090000D01*
X164306016Y-58090000D01*
X164401982Y-57994034D01*
X164486796Y-57867100D01*
X164545217Y-57726059D01*
X164575000Y-57576331D01*
X164575000Y-57423669D01*
X164545217Y-57273941D01*
X164486796Y-57132900D01*
X164401982Y-57005966D01*
X164294034Y-56898018D01*
X164167100Y-56813204D01*
X164026059Y-56754783D01*
X163876331Y-56725000D01*
X163723669Y-56725000D01*
X163573941Y-56754783D01*
X163432900Y-56813204D01*
X163305966Y-56898018D01*
X163198018Y-57005966D01*
X163113204Y-57132900D01*
X163054783Y-57273941D01*
X163025000Y-57423669D01*
X151500000Y-57423669D01*
X151500000Y-55634273D01*
X183425000Y-55634273D01*
X183425000Y-55865727D01*
X183470155Y-56092735D01*
X183558729Y-56306571D01*
X183687318Y-56499019D01*
X183850981Y-56662682D01*
X184043429Y-56791271D01*
X184257265Y-56879845D01*
X184484273Y-56925000D01*
X184715727Y-56925000D01*
X184942735Y-56879845D01*
X185156571Y-56791271D01*
X185349019Y-56662682D01*
X185512682Y-56499019D01*
X185641271Y-56306571D01*
X185729845Y-56092735D01*
X185775000Y-55865727D01*
X185775000Y-55634273D01*
X185729845Y-55407265D01*
X185641271Y-55193429D01*
X185512682Y-55000981D01*
X185349019Y-54837318D01*
X185156571Y-54708729D01*
X184942735Y-54620155D01*
X184715727Y-54575000D01*
X184484273Y-54575000D01*
X184257265Y-54620155D01*
X184043429Y-54708729D01*
X183850981Y-54837318D01*
X183687318Y-55000981D01*
X183558729Y-55193429D01*
X183470155Y-55407265D01*
X183425000Y-55634273D01*
X151500000Y-55634273D01*
X151500000Y-52423669D01*
X163025000Y-52423669D01*
X163025000Y-52576331D01*
X163054783Y-52726059D01*
X163113204Y-52867100D01*
X163198018Y-52994034D01*
X163305966Y-53101982D01*
X163432900Y-53186796D01*
X163573941Y-53245217D01*
X163723669Y-53275000D01*
X163876331Y-53275000D01*
X164026059Y-53245217D01*
X164167100Y-53186796D01*
X164294034Y-53101982D01*
X164401982Y-52994034D01*
X164486796Y-52867100D01*
X164545217Y-52726059D01*
X164575000Y-52576331D01*
X164575000Y-52423669D01*
X164545217Y-52273941D01*
X164487365Y-52134273D01*
X178225000Y-52134273D01*
X178225000Y-52365727D01*
X178270155Y-52592735D01*
X178358729Y-52806571D01*
X178487318Y-52999019D01*
X178650981Y-53162682D01*
X178843429Y-53291271D01*
X179057265Y-53379845D01*
X179284273Y-53425000D01*
X179515727Y-53425000D01*
X179742735Y-53379845D01*
X179956571Y-53291271D01*
X180149019Y-53162682D01*
X180312682Y-52999019D01*
X180441271Y-52806571D01*
X180529845Y-52592735D01*
X180575000Y-52365727D01*
X180575000Y-52134273D01*
X180529845Y-51907265D01*
X180441271Y-51693429D01*
X180312682Y-51500981D01*
X180149019Y-51337318D01*
X179956571Y-51208729D01*
X179742735Y-51120155D01*
X179515727Y-51075000D01*
X179284273Y-51075000D01*
X179057265Y-51120155D01*
X178843429Y-51208729D01*
X178650981Y-51337318D01*
X178487318Y-51500981D01*
X178358729Y-51693429D01*
X178270155Y-51907265D01*
X178225000Y-52134273D01*
X164487365Y-52134273D01*
X164486796Y-52132900D01*
X164401982Y-52005966D01*
X164294034Y-51898018D01*
X164167100Y-51813204D01*
X164026059Y-51754783D01*
X163876331Y-51725000D01*
X163723669Y-51725000D01*
X163573941Y-51754783D01*
X163432900Y-51813204D01*
X163305966Y-51898018D01*
X163198018Y-52005966D01*
X163113204Y-52132900D01*
X163054783Y-52273941D01*
X163025000Y-52423669D01*
X151500000Y-52423669D01*
X151500000Y-50414670D01*
X151503316Y-50380856D01*
X151508874Y-50362446D01*
X151517908Y-50345456D01*
X151530066Y-50330548D01*
X151544885Y-50318289D01*
X151561806Y-50309140D01*
X151580178Y-50303453D01*
X151613029Y-50300000D01*
X188985330Y-50300000D01*
X189019144Y-50303316D01*
G36*
X172647477Y-91070528D02*
G01*
X172500528Y-91217477D01*
X172385071Y-91390270D01*
X172305543Y-91582268D01*
X172265000Y-91786092D01*
X172265000Y-91993908D01*
X172305543Y-92197732D01*
X172385071Y-92389730D01*
X172500528Y-92562523D01*
X172570105Y-92632100D01*
X168301568Y-92632100D01*
X168282832Y-92604059D01*
X168202741Y-92523968D01*
X168121695Y-92469815D01*
X169543011Y-91048500D01*
X172680444Y-91048500D01*
X172647477Y-91070528D01*
X172647477Y-91070528D01*
G37*
X172647477Y-91070528D02*
X172500528Y-91217477D01*
X172385071Y-91390270D01*
X172305543Y-91582268D01*
X172265000Y-91786092D01*
X172265000Y-91993908D01*
X172305543Y-92197732D01*
X172385071Y-92389730D01*
X172500528Y-92562523D01*
X172570105Y-92632100D01*
X168301568Y-92632100D01*
X168282832Y-92604059D01*
X168202741Y-92523968D01*
X168121695Y-92469815D01*
X169543011Y-91048500D01*
X172680444Y-91048500D01*
X172647477Y-91070528D01*
M02*
