M48
; DRILL file {KiCad (5.1.4)-1} date 30/08/2023 00:45:56
; FORMAT={-:-/ absolute / inch / decimal}
; #@! TF.CreationDate,2023-08-30T00:45:56+02:00
; #@! TF.GenerationSoftware,Kicad,Pcbnew,(5.1.4)-1
; #@! TF.FileFunction,Plated,1,4,PTH
FMAT,2
INCH
T1C0.0118
T2C0.0300
T3C0.0409
T4C0.0472
%
G90
G05
T1
X6.0039Y-4.3307
X6.0039Y-4.5669
X6.1024Y-4.5669
X6.1417Y-4.439
X6.1811Y-2.3228
X6.1811Y-2.4803
X6.1811Y-2.6378
X6.1811Y-3.3858
X6.1811Y-3.5433
X6.1811Y-3.8583
X6.1811Y-4.0354
X6.1946Y-3.3445
X6.2143Y-4.2466
X6.2303Y-4.3307
X6.2402Y-2.9724
X6.2992Y-3.6024
X6.3047Y-4.4337
X6.3314Y-3.527
X6.3386Y-4.311
X6.3583Y-2.0669
X6.3664Y-3.6553
X6.3681Y-3.0906
X6.4173Y-4.5669
X6.437Y-3.0906
X6.4961Y-2.4409
X6.5274Y-3.4098
X6.554Y-3.6877
X6.5555Y-3.6553
X6.5705Y-3.5444
X6.5748Y-4.1142
X6.6077Y-3.6603
X6.6142Y-3.4252
X6.6144Y-3.5414
X6.6339Y-2.0669
X6.6339Y-2.2244
X6.6535Y-3.248
X6.6535Y-3.5236
X6.6929Y-2.815
X6.6929Y-2.9921
X6.6929Y-3.0906
X6.7126Y-3.6024
X6.7126Y-4.252
X6.7913Y-4.5669
X6.9094Y-2.5197
X6.9291Y-2.0669
X6.9291Y-2.2047
X6.9291Y-3.248
X6.9291Y-3.5827
X6.9291Y-3.7598
X6.9291Y-3.9961
X6.9291Y-4.252
X7.2047Y-2.0669
X7.2047Y-2.2047
X7.2047Y-2.5197
X7.2047Y-2.7657
X7.2047Y-3.248
X7.2047Y-3.75
X7.2047Y-4.0354
X7.2047Y-4.252
X7.2244Y-4.5669
T2
X6.4301Y-2.998
X6.6221Y-2.998
T3
X6.0236Y-2.3177
X6.0236Y-2.4177
X6.0236Y-2.5177
X6.0236Y-2.6177
X6.0236Y-2.7177
X6.0236Y-2.8177
X6.0236Y-2.9177
X6.0236Y-3.0177
X6.0236Y-3.1177
X6.0236Y-3.2177
X6.0236Y-3.3177
X6.0236Y-3.4177
X6.0236Y-3.5177
X6.0236Y-3.6177
X6.0236Y-3.7177
X6.0236Y-3.8177
X6.0236Y-3.9177
X6.0236Y-4.0177
X6.0236Y-4.1177
X6.0236Y-4.2177
X6.8236Y-2.3177
X6.8236Y-2.4177
X6.8236Y-2.5177
X6.8236Y-2.6177
X6.8236Y-2.7177
X6.8236Y-2.8177
X6.8236Y-2.9177
X6.8236Y-3.0177
X6.8236Y-3.1177
X6.8236Y-3.2177
X6.8236Y-3.3177
X6.8236Y-3.4177
X6.8236Y-3.5177
X6.8236Y-3.6177
X6.8236Y-3.7177
X6.8236Y-3.8177
X6.8236Y-3.9177
X6.8236Y-4.0177
X6.8236Y-4.1177
X6.8236Y-4.2177
T4
X7.072Y-4.059
X7.2767Y-4.1968
X7.063Y-2.0571
X7.063Y-2.3327
X7.2677Y-2.1949
X7.2677Y-2.4705
X7.0621Y-3.397
X7.0621Y-3.6726
X7.2669Y-3.5348
X7.2669Y-3.8104
X7.063Y-2.7264
X7.063Y-3.002
X7.2677Y-2.8642
X7.2677Y-3.1398
X7.072Y-4.3346
X7.2767Y-4.4724
T0
M30
