G04 #@! TF.GenerationSoftware,KiCad,Pcbnew,(5.1.4)-1*
G04 #@! TF.CreationDate,2023-08-30T15:36:27+02:00*
G04 #@! TF.ProjectId,BeeWeight_MKRWAN_V4,42656557-6569-4676-9874-5f4d4b525741,V4*
G04 #@! TF.SameCoordinates,Original*
G04 #@! TF.FileFunction,Legend,Bot*
G04 #@! TF.FilePolarity,Positive*
%FSLAX46Y46*%
G04 Gerber Fmt 4.6, Leading zero omitted, Abs format (unit mm)*
G04 Created by KiCad (PCBNEW (5.1.4)-1) date 2023-08-30 15:36:27*
%MOMM*%
%LPD*%
G04 APERTURE LIST*
%ADD10C,0.150000*%
G04 APERTURE END LIST*
D10*
X183044952Y-89940333D02*
X182664000Y-89940333D01*
X183121142Y-90168904D02*
X182854476Y-89368904D01*
X182587809Y-90168904D01*
X182321142Y-90168904D02*
X182321142Y-89368904D01*
X181940190Y-90168904D02*
X181940190Y-89368904D01*
X181483047Y-90168904D01*
X181483047Y-89368904D01*
X181140190Y-89445095D02*
X181102095Y-89407000D01*
X181025904Y-89368904D01*
X180835428Y-89368904D01*
X180759238Y-89407000D01*
X180721142Y-89445095D01*
X180683047Y-89521285D01*
X180683047Y-89597476D01*
X180721142Y-89711761D01*
X181178285Y-90168904D01*
X180683047Y-90168904D01*
X183044952Y-86511333D02*
X182664000Y-86511333D01*
X183121142Y-86739904D02*
X182854476Y-85939904D01*
X182587809Y-86739904D01*
X182321142Y-86739904D02*
X182321142Y-85939904D01*
X181940190Y-86739904D02*
X181940190Y-85939904D01*
X181483047Y-86739904D01*
X181483047Y-85939904D01*
X181178285Y-85939904D02*
X180683047Y-85939904D01*
X180949714Y-86244666D01*
X180835428Y-86244666D01*
X180759238Y-86282761D01*
X180721142Y-86320857D01*
X180683047Y-86397047D01*
X180683047Y-86587523D01*
X180721142Y-86663714D01*
X180759238Y-86701809D01*
X180835428Y-86739904D01*
X181064000Y-86739904D01*
X181140190Y-86701809D01*
X181178285Y-86663714D01*
X183294952Y-103326333D02*
X182914000Y-103326333D01*
X183371142Y-103554904D02*
X183104476Y-102754904D01*
X182837809Y-103554904D01*
X182571142Y-103554904D02*
X182571142Y-102754904D01*
X182190190Y-103554904D02*
X182190190Y-102754904D01*
X181733047Y-103554904D01*
X181733047Y-102754904D01*
X181428285Y-102754904D02*
X180894952Y-102754904D01*
X181237809Y-103554904D01*
X183294952Y-106628333D02*
X182914000Y-106628333D01*
X183371142Y-106856904D02*
X183104476Y-106056904D01*
X182837809Y-106856904D01*
X182571142Y-106856904D02*
X182571142Y-106056904D01*
X182190190Y-106856904D02*
X182190190Y-106056904D01*
X181733047Y-106856904D01*
X181733047Y-106056904D01*
X181009238Y-106056904D02*
X181161619Y-106056904D01*
X181237809Y-106095000D01*
X181275904Y-106133095D01*
X181352095Y-106247380D01*
X181390190Y-106399761D01*
X181390190Y-106704523D01*
X181352095Y-106780714D01*
X181314000Y-106818809D01*
X181237809Y-106856904D01*
X181085428Y-106856904D01*
X181009238Y-106818809D01*
X180971142Y-106780714D01*
X180933047Y-106704523D01*
X180933047Y-106514047D01*
X180971142Y-106437857D01*
X181009238Y-106399761D01*
X181085428Y-106361666D01*
X181237809Y-106361666D01*
X181314000Y-106399761D01*
X181352095Y-106437857D01*
X181390190Y-106514047D01*
X182794952Y-52471333D02*
X182414000Y-52471333D01*
X182871142Y-52699904D02*
X182604476Y-51899904D01*
X182337809Y-52699904D01*
X182071142Y-52699904D02*
X182071142Y-51899904D01*
X181690190Y-52699904D02*
X181690190Y-51899904D01*
X181233047Y-52699904D01*
X181233047Y-51899904D01*
X180471142Y-51899904D02*
X180852095Y-51899904D01*
X180890190Y-52280857D01*
X180852095Y-52242761D01*
X180775904Y-52204666D01*
X180585428Y-52204666D01*
X180509238Y-52242761D01*
X180471142Y-52280857D01*
X180433047Y-52357047D01*
X180433047Y-52547523D01*
X180471142Y-52623714D01*
X180509238Y-52661809D01*
X180585428Y-52699904D01*
X180775904Y-52699904D01*
X180852095Y-52661809D01*
X180890190Y-52623714D01*
X182794952Y-55900333D02*
X182414000Y-55900333D01*
X182871142Y-56128904D02*
X182604476Y-55328904D01*
X182337809Y-56128904D01*
X182071142Y-56128904D02*
X182071142Y-55328904D01*
X181690190Y-56128904D02*
X181690190Y-55328904D01*
X181233047Y-56128904D01*
X181233047Y-55328904D01*
X180509238Y-55595571D02*
X180509238Y-56128904D01*
X180699714Y-55290809D02*
X180890190Y-55862238D01*
X180394952Y-55862238D01*
X182544952Y-69739333D02*
X182164000Y-69739333D01*
X182621142Y-69967904D02*
X182354476Y-69167904D01*
X182087809Y-69967904D01*
X181821142Y-69967904D02*
X181821142Y-69167904D01*
X181440190Y-69967904D02*
X181440190Y-69167904D01*
X180983047Y-69967904D01*
X180983047Y-69167904D01*
X180183047Y-69967904D02*
X180640190Y-69967904D01*
X180411619Y-69967904D02*
X180411619Y-69167904D01*
X180487809Y-69282190D01*
X180564000Y-69358380D01*
X180640190Y-69396476D01*
X182544952Y-73168333D02*
X182164000Y-73168333D01*
X182621142Y-73396904D02*
X182354476Y-72596904D01*
X182087809Y-73396904D01*
X181821142Y-73396904D02*
X181821142Y-72596904D01*
X181440190Y-73396904D02*
X181440190Y-72596904D01*
X180983047Y-73396904D01*
X180983047Y-72596904D01*
X180449714Y-72596904D02*
X180373523Y-72596904D01*
X180297333Y-72635000D01*
X180259238Y-72673095D01*
X180221142Y-72749285D01*
X180183047Y-72901666D01*
X180183047Y-73092142D01*
X180221142Y-73244523D01*
X180259238Y-73320714D01*
X180297333Y-73358809D01*
X180373523Y-73396904D01*
X180449714Y-73396904D01*
X180525904Y-73358809D01*
X180564000Y-73320714D01*
X180602095Y-73244523D01*
X180640190Y-73092142D01*
X180640190Y-72901666D01*
X180602095Y-72749285D01*
X180564000Y-72673095D01*
X180525904Y-72635000D01*
X180449714Y-72596904D01*
X188927380Y-106856904D02*
X188927380Y-106056904D01*
X188736904Y-106056904D01*
X188622619Y-106095000D01*
X188546428Y-106171190D01*
X188508333Y-106247380D01*
X188470238Y-106399761D01*
X188470238Y-106514047D01*
X188508333Y-106666428D01*
X188546428Y-106742619D01*
X188622619Y-106818809D01*
X188736904Y-106856904D01*
X188927380Y-106856904D01*
X188127380Y-106856904D02*
X188127380Y-106323571D01*
X188127380Y-106056904D02*
X188165476Y-106095000D01*
X188127380Y-106133095D01*
X188089285Y-106095000D01*
X188127380Y-106056904D01*
X188127380Y-106133095D01*
X187860714Y-106323571D02*
X187555952Y-106323571D01*
X187746428Y-106856904D02*
X187746428Y-106171190D01*
X187708333Y-106095000D01*
X187632142Y-106056904D01*
X187555952Y-106056904D01*
X187403571Y-106323571D02*
X187098809Y-106323571D01*
X187289285Y-106856904D02*
X187289285Y-106171190D01*
X187251190Y-106095000D01*
X187175000Y-106056904D01*
X187098809Y-106056904D01*
X186832142Y-106552142D02*
X186222619Y-106552142D01*
X186527380Y-106856904D02*
X186527380Y-106247380D01*
X189194047Y-113613333D02*
X188813095Y-113613333D01*
X189270238Y-113841904D02*
X189003571Y-113041904D01*
X188736904Y-113841904D01*
X188355952Y-113841904D02*
X188432142Y-113803809D01*
X188470238Y-113727619D01*
X188470238Y-113041904D01*
X188051190Y-113841904D02*
X188051190Y-113308571D01*
X188051190Y-113041904D02*
X188089285Y-113080000D01*
X188051190Y-113118095D01*
X188013095Y-113080000D01*
X188051190Y-113041904D01*
X188051190Y-113118095D01*
X187670238Y-113841904D02*
X187670238Y-113308571D01*
X187670238Y-113384761D02*
X187632142Y-113346666D01*
X187555952Y-113308571D01*
X187441666Y-113308571D01*
X187365476Y-113346666D01*
X187327380Y-113422857D01*
X187327380Y-113841904D01*
X187327380Y-113422857D02*
X187289285Y-113346666D01*
X187213095Y-113308571D01*
X187098809Y-113308571D01*
X187022619Y-113346666D01*
X186984523Y-113422857D01*
X186984523Y-113841904D01*
X186603571Y-113537142D02*
X185994047Y-113537142D01*
X186298809Y-113841904D02*
X186298809Y-113232380D01*
X188927380Y-103427904D02*
X188927380Y-102627904D01*
X188736904Y-102627904D01*
X188622619Y-102666000D01*
X188546428Y-102742190D01*
X188508333Y-102818380D01*
X188470238Y-102970761D01*
X188470238Y-103085047D01*
X188508333Y-103237428D01*
X188546428Y-103313619D01*
X188622619Y-103389809D01*
X188736904Y-103427904D01*
X188927380Y-103427904D01*
X188127380Y-103427904D02*
X188127380Y-102894571D01*
X188127380Y-102627904D02*
X188165476Y-102666000D01*
X188127380Y-102704095D01*
X188089285Y-102666000D01*
X188127380Y-102627904D01*
X188127380Y-102704095D01*
X187860714Y-102894571D02*
X187555952Y-102894571D01*
X187746428Y-103427904D02*
X187746428Y-102742190D01*
X187708333Y-102666000D01*
X187632142Y-102627904D01*
X187555952Y-102627904D01*
X187403571Y-102894571D02*
X187098809Y-102894571D01*
X187289285Y-103427904D02*
X187289285Y-102742190D01*
X187251190Y-102666000D01*
X187175000Y-102627904D01*
X187098809Y-102627904D01*
X186832142Y-103123142D02*
X186222619Y-103123142D01*
X189194047Y-109930333D02*
X188813095Y-109930333D01*
X189270238Y-110158904D02*
X189003571Y-109358904D01*
X188736904Y-110158904D01*
X188355952Y-110158904D02*
X188432142Y-110120809D01*
X188470238Y-110044619D01*
X188470238Y-109358904D01*
X188051190Y-110158904D02*
X188051190Y-109625571D01*
X188051190Y-109358904D02*
X188089285Y-109397000D01*
X188051190Y-109435095D01*
X188013095Y-109397000D01*
X188051190Y-109358904D01*
X188051190Y-109435095D01*
X187670238Y-110158904D02*
X187670238Y-109625571D01*
X187670238Y-109701761D02*
X187632142Y-109663666D01*
X187555952Y-109625571D01*
X187441666Y-109625571D01*
X187365476Y-109663666D01*
X187327380Y-109739857D01*
X187327380Y-110158904D01*
X187327380Y-109739857D02*
X187289285Y-109663666D01*
X187213095Y-109625571D01*
X187098809Y-109625571D01*
X187022619Y-109663666D01*
X186984523Y-109739857D01*
X186984523Y-110158904D01*
X186603571Y-109854142D02*
X185994047Y-109854142D01*
X188694047Y-59202333D02*
X188313095Y-59202333D01*
X188770238Y-59430904D02*
X188503571Y-58630904D01*
X188236904Y-59430904D01*
X187855952Y-59430904D02*
X187932142Y-59392809D01*
X187970238Y-59316619D01*
X187970238Y-58630904D01*
X187551190Y-59430904D02*
X187551190Y-58897571D01*
X187551190Y-58630904D02*
X187589285Y-58669000D01*
X187551190Y-58707095D01*
X187513095Y-58669000D01*
X187551190Y-58630904D01*
X187551190Y-58707095D01*
X187170238Y-59430904D02*
X187170238Y-58897571D01*
X187170238Y-58973761D02*
X187132142Y-58935666D01*
X187055952Y-58897571D01*
X186941666Y-58897571D01*
X186865476Y-58935666D01*
X186827380Y-59011857D01*
X186827380Y-59430904D01*
X186827380Y-59011857D02*
X186789285Y-58935666D01*
X186713095Y-58897571D01*
X186598809Y-58897571D01*
X186522619Y-58935666D01*
X186484523Y-59011857D01*
X186484523Y-59430904D01*
X186103571Y-59126142D02*
X185494047Y-59126142D01*
X188427380Y-52699904D02*
X188427380Y-51899904D01*
X188236904Y-51899904D01*
X188122619Y-51938000D01*
X188046428Y-52014190D01*
X188008333Y-52090380D01*
X187970238Y-52242761D01*
X187970238Y-52357047D01*
X188008333Y-52509428D01*
X188046428Y-52585619D01*
X188122619Y-52661809D01*
X188236904Y-52699904D01*
X188427380Y-52699904D01*
X187627380Y-52699904D02*
X187627380Y-52166571D01*
X187627380Y-51899904D02*
X187665476Y-51938000D01*
X187627380Y-51976095D01*
X187589285Y-51938000D01*
X187627380Y-51899904D01*
X187627380Y-51976095D01*
X187360714Y-52166571D02*
X187055952Y-52166571D01*
X187246428Y-52699904D02*
X187246428Y-52014190D01*
X187208333Y-51938000D01*
X187132142Y-51899904D01*
X187055952Y-51899904D01*
X186903571Y-52166571D02*
X186598809Y-52166571D01*
X186789285Y-52699904D02*
X186789285Y-52014190D01*
X186751190Y-51938000D01*
X186675000Y-51899904D01*
X186598809Y-51899904D01*
X186332142Y-52395142D02*
X185722619Y-52395142D01*
X188427380Y-56128904D02*
X188427380Y-55328904D01*
X188236904Y-55328904D01*
X188122619Y-55367000D01*
X188046428Y-55443190D01*
X188008333Y-55519380D01*
X187970238Y-55671761D01*
X187970238Y-55786047D01*
X188008333Y-55938428D01*
X188046428Y-56014619D01*
X188122619Y-56090809D01*
X188236904Y-56128904D01*
X188427380Y-56128904D01*
X187627380Y-56128904D02*
X187627380Y-55595571D01*
X187627380Y-55328904D02*
X187665476Y-55367000D01*
X187627380Y-55405095D01*
X187589285Y-55367000D01*
X187627380Y-55328904D01*
X187627380Y-55405095D01*
X187360714Y-55595571D02*
X187055952Y-55595571D01*
X187246428Y-56128904D02*
X187246428Y-55443190D01*
X187208333Y-55367000D01*
X187132142Y-55328904D01*
X187055952Y-55328904D01*
X186903571Y-55595571D02*
X186598809Y-55595571D01*
X186789285Y-56128904D02*
X186789285Y-55443190D01*
X186751190Y-55367000D01*
X186675000Y-55328904D01*
X186598809Y-55328904D01*
X186332142Y-55824142D02*
X185722619Y-55824142D01*
X186027380Y-56128904D02*
X186027380Y-55519380D01*
X188694047Y-62885333D02*
X188313095Y-62885333D01*
X188770238Y-63113904D02*
X188503571Y-62313904D01*
X188236904Y-63113904D01*
X187855952Y-63113904D02*
X187932142Y-63075809D01*
X187970238Y-62999619D01*
X187970238Y-62313904D01*
X187551190Y-63113904D02*
X187551190Y-62580571D01*
X187551190Y-62313904D02*
X187589285Y-62352000D01*
X187551190Y-62390095D01*
X187513095Y-62352000D01*
X187551190Y-62313904D01*
X187551190Y-62390095D01*
X187170238Y-63113904D02*
X187170238Y-62580571D01*
X187170238Y-62656761D02*
X187132142Y-62618666D01*
X187055952Y-62580571D01*
X186941666Y-62580571D01*
X186865476Y-62618666D01*
X186827380Y-62694857D01*
X186827380Y-63113904D01*
X186827380Y-62694857D02*
X186789285Y-62618666D01*
X186713095Y-62580571D01*
X186598809Y-62580571D01*
X186522619Y-62618666D01*
X186484523Y-62694857D01*
X186484523Y-63113904D01*
X186103571Y-62809142D02*
X185494047Y-62809142D01*
X185798809Y-63113904D02*
X185798809Y-62504380D01*
X188177380Y-73396904D02*
X188177380Y-72596904D01*
X187986904Y-72596904D01*
X187872619Y-72635000D01*
X187796428Y-72711190D01*
X187758333Y-72787380D01*
X187720238Y-72939761D01*
X187720238Y-73054047D01*
X187758333Y-73206428D01*
X187796428Y-73282619D01*
X187872619Y-73358809D01*
X187986904Y-73396904D01*
X188177380Y-73396904D01*
X187377380Y-73396904D02*
X187377380Y-72863571D01*
X187377380Y-72596904D02*
X187415476Y-72635000D01*
X187377380Y-72673095D01*
X187339285Y-72635000D01*
X187377380Y-72596904D01*
X187377380Y-72673095D01*
X187110714Y-72863571D02*
X186805952Y-72863571D01*
X186996428Y-73396904D02*
X186996428Y-72711190D01*
X186958333Y-72635000D01*
X186882142Y-72596904D01*
X186805952Y-72596904D01*
X186653571Y-72863571D02*
X186348809Y-72863571D01*
X186539285Y-73396904D02*
X186539285Y-72711190D01*
X186501190Y-72635000D01*
X186425000Y-72596904D01*
X186348809Y-72596904D01*
X186082142Y-73092142D02*
X185472619Y-73092142D01*
X185777380Y-73396904D02*
X185777380Y-72787380D01*
X188444047Y-80153333D02*
X188063095Y-80153333D01*
X188520238Y-80381904D02*
X188253571Y-79581904D01*
X187986904Y-80381904D01*
X187605952Y-80381904D02*
X187682142Y-80343809D01*
X187720238Y-80267619D01*
X187720238Y-79581904D01*
X187301190Y-80381904D02*
X187301190Y-79848571D01*
X187301190Y-79581904D02*
X187339285Y-79620000D01*
X187301190Y-79658095D01*
X187263095Y-79620000D01*
X187301190Y-79581904D01*
X187301190Y-79658095D01*
X186920238Y-80381904D02*
X186920238Y-79848571D01*
X186920238Y-79924761D02*
X186882142Y-79886666D01*
X186805952Y-79848571D01*
X186691666Y-79848571D01*
X186615476Y-79886666D01*
X186577380Y-79962857D01*
X186577380Y-80381904D01*
X186577380Y-79962857D02*
X186539285Y-79886666D01*
X186463095Y-79848571D01*
X186348809Y-79848571D01*
X186272619Y-79886666D01*
X186234523Y-79962857D01*
X186234523Y-80381904D01*
X185853571Y-80077142D02*
X185244047Y-80077142D01*
X185548809Y-80381904D02*
X185548809Y-79772380D01*
X188177380Y-69967904D02*
X188177380Y-69167904D01*
X187986904Y-69167904D01*
X187872619Y-69206000D01*
X187796428Y-69282190D01*
X187758333Y-69358380D01*
X187720238Y-69510761D01*
X187720238Y-69625047D01*
X187758333Y-69777428D01*
X187796428Y-69853619D01*
X187872619Y-69929809D01*
X187986904Y-69967904D01*
X188177380Y-69967904D01*
X187377380Y-69967904D02*
X187377380Y-69434571D01*
X187377380Y-69167904D02*
X187415476Y-69206000D01*
X187377380Y-69244095D01*
X187339285Y-69206000D01*
X187377380Y-69167904D01*
X187377380Y-69244095D01*
X187110714Y-69434571D02*
X186805952Y-69434571D01*
X186996428Y-69967904D02*
X186996428Y-69282190D01*
X186958333Y-69206000D01*
X186882142Y-69167904D01*
X186805952Y-69167904D01*
X186653571Y-69434571D02*
X186348809Y-69434571D01*
X186539285Y-69967904D02*
X186539285Y-69282190D01*
X186501190Y-69206000D01*
X186425000Y-69167904D01*
X186348809Y-69167904D01*
X186082142Y-69663142D02*
X185472619Y-69663142D01*
X188444047Y-76470333D02*
X188063095Y-76470333D01*
X188520238Y-76698904D02*
X188253571Y-75898904D01*
X187986904Y-76698904D01*
X187605952Y-76698904D02*
X187682142Y-76660809D01*
X187720238Y-76584619D01*
X187720238Y-75898904D01*
X187301190Y-76698904D02*
X187301190Y-76165571D01*
X187301190Y-75898904D02*
X187339285Y-75937000D01*
X187301190Y-75975095D01*
X187263095Y-75937000D01*
X187301190Y-75898904D01*
X187301190Y-75975095D01*
X186920238Y-76698904D02*
X186920238Y-76165571D01*
X186920238Y-76241761D02*
X186882142Y-76203666D01*
X186805952Y-76165571D01*
X186691666Y-76165571D01*
X186615476Y-76203666D01*
X186577380Y-76279857D01*
X186577380Y-76698904D01*
X186577380Y-76279857D02*
X186539285Y-76203666D01*
X186463095Y-76165571D01*
X186348809Y-76165571D01*
X186272619Y-76203666D01*
X186234523Y-76279857D01*
X186234523Y-76698904D01*
X185853571Y-76394142D02*
X185244047Y-76394142D01*
X188677380Y-86739904D02*
X188677380Y-85939904D01*
X188486904Y-85939904D01*
X188372619Y-85978000D01*
X188296428Y-86054190D01*
X188258333Y-86130380D01*
X188220238Y-86282761D01*
X188220238Y-86397047D01*
X188258333Y-86549428D01*
X188296428Y-86625619D01*
X188372619Y-86701809D01*
X188486904Y-86739904D01*
X188677380Y-86739904D01*
X187877380Y-86739904D02*
X187877380Y-86206571D01*
X187877380Y-85939904D02*
X187915476Y-85978000D01*
X187877380Y-86016095D01*
X187839285Y-85978000D01*
X187877380Y-85939904D01*
X187877380Y-86016095D01*
X187610714Y-86206571D02*
X187305952Y-86206571D01*
X187496428Y-86739904D02*
X187496428Y-86054190D01*
X187458333Y-85978000D01*
X187382142Y-85939904D01*
X187305952Y-85939904D01*
X187153571Y-86206571D02*
X186848809Y-86206571D01*
X187039285Y-86739904D02*
X187039285Y-86054190D01*
X187001190Y-85978000D01*
X186925000Y-85939904D01*
X186848809Y-85939904D01*
X186582142Y-86435142D02*
X185972619Y-86435142D01*
X188677380Y-90168904D02*
X188677380Y-89368904D01*
X188486904Y-89368904D01*
X188372619Y-89407000D01*
X188296428Y-89483190D01*
X188258333Y-89559380D01*
X188220238Y-89711761D01*
X188220238Y-89826047D01*
X188258333Y-89978428D01*
X188296428Y-90054619D01*
X188372619Y-90130809D01*
X188486904Y-90168904D01*
X188677380Y-90168904D01*
X187877380Y-90168904D02*
X187877380Y-89635571D01*
X187877380Y-89368904D02*
X187915476Y-89407000D01*
X187877380Y-89445095D01*
X187839285Y-89407000D01*
X187877380Y-89368904D01*
X187877380Y-89445095D01*
X187610714Y-89635571D02*
X187305952Y-89635571D01*
X187496428Y-90168904D02*
X187496428Y-89483190D01*
X187458333Y-89407000D01*
X187382142Y-89368904D01*
X187305952Y-89368904D01*
X187153571Y-89635571D02*
X186848809Y-89635571D01*
X187039285Y-90168904D02*
X187039285Y-89483190D01*
X187001190Y-89407000D01*
X186925000Y-89368904D01*
X186848809Y-89368904D01*
X186582142Y-89864142D02*
X185972619Y-89864142D01*
X186277380Y-90168904D02*
X186277380Y-89559380D01*
X188944047Y-93242333D02*
X188563095Y-93242333D01*
X189020238Y-93470904D02*
X188753571Y-92670904D01*
X188486904Y-93470904D01*
X188105952Y-93470904D02*
X188182142Y-93432809D01*
X188220238Y-93356619D01*
X188220238Y-92670904D01*
X187801190Y-93470904D02*
X187801190Y-92937571D01*
X187801190Y-92670904D02*
X187839285Y-92709000D01*
X187801190Y-92747095D01*
X187763095Y-92709000D01*
X187801190Y-92670904D01*
X187801190Y-92747095D01*
X187420238Y-93470904D02*
X187420238Y-92937571D01*
X187420238Y-93013761D02*
X187382142Y-92975666D01*
X187305952Y-92937571D01*
X187191666Y-92937571D01*
X187115476Y-92975666D01*
X187077380Y-93051857D01*
X187077380Y-93470904D01*
X187077380Y-93051857D02*
X187039285Y-92975666D01*
X186963095Y-92937571D01*
X186848809Y-92937571D01*
X186772619Y-92975666D01*
X186734523Y-93051857D01*
X186734523Y-93470904D01*
X186353571Y-93166142D02*
X185744047Y-93166142D01*
X188944047Y-96925333D02*
X188563095Y-96925333D01*
X189020238Y-97153904D02*
X188753571Y-96353904D01*
X188486904Y-97153904D01*
X188105952Y-97153904D02*
X188182142Y-97115809D01*
X188220238Y-97039619D01*
X188220238Y-96353904D01*
X187801190Y-97153904D02*
X187801190Y-96620571D01*
X187801190Y-96353904D02*
X187839285Y-96392000D01*
X187801190Y-96430095D01*
X187763095Y-96392000D01*
X187801190Y-96353904D01*
X187801190Y-96430095D01*
X187420238Y-97153904D02*
X187420238Y-96620571D01*
X187420238Y-96696761D02*
X187382142Y-96658666D01*
X187305952Y-96620571D01*
X187191666Y-96620571D01*
X187115476Y-96658666D01*
X187077380Y-96734857D01*
X187077380Y-97153904D01*
X187077380Y-96734857D02*
X187039285Y-96658666D01*
X186963095Y-96620571D01*
X186848809Y-96620571D01*
X186772619Y-96658666D01*
X186734523Y-96734857D01*
X186734523Y-97153904D01*
X186353571Y-96849142D02*
X185744047Y-96849142D01*
X186048809Y-97153904D02*
X186048809Y-96544380D01*
X171047619Y-101278571D02*
X170904761Y-101326190D01*
X170857142Y-101373809D01*
X170809523Y-101469047D01*
X170809523Y-101611904D01*
X170857142Y-101707142D01*
X170904761Y-101754761D01*
X171000000Y-101802380D01*
X171380952Y-101802380D01*
X171380952Y-100802380D01*
X171047619Y-100802380D01*
X170952380Y-100850000D01*
X170904761Y-100897619D01*
X170857142Y-100992857D01*
X170857142Y-101088095D01*
X170904761Y-101183333D01*
X170952380Y-101230952D01*
X171047619Y-101278571D01*
X171380952Y-101278571D01*
X170000000Y-101754761D02*
X170095238Y-101802380D01*
X170285714Y-101802380D01*
X170380952Y-101754761D01*
X170428571Y-101659523D01*
X170428571Y-101278571D01*
X170380952Y-101183333D01*
X170285714Y-101135714D01*
X170095238Y-101135714D01*
X170000000Y-101183333D01*
X169952380Y-101278571D01*
X169952380Y-101373809D01*
X170428571Y-101469047D01*
X169142857Y-101754761D02*
X169238095Y-101802380D01*
X169428571Y-101802380D01*
X169523809Y-101754761D01*
X169571428Y-101659523D01*
X169571428Y-101278571D01*
X169523809Y-101183333D01*
X169428571Y-101135714D01*
X169238095Y-101135714D01*
X169142857Y-101183333D01*
X169095238Y-101278571D01*
X169095238Y-101373809D01*
X169571428Y-101469047D01*
X168000000Y-100802380D02*
X167761904Y-101802380D01*
X167571428Y-101088095D01*
X167380952Y-101802380D01*
X167142857Y-100802380D01*
X166380952Y-101754761D02*
X166476190Y-101802380D01*
X166666666Y-101802380D01*
X166761904Y-101754761D01*
X166809523Y-101659523D01*
X166809523Y-101278571D01*
X166761904Y-101183333D01*
X166666666Y-101135714D01*
X166476190Y-101135714D01*
X166380952Y-101183333D01*
X166333333Y-101278571D01*
X166333333Y-101373809D01*
X166809523Y-101469047D01*
X165904761Y-101802380D02*
X165904761Y-101135714D01*
X165904761Y-100802380D02*
X165952380Y-100850000D01*
X165904761Y-100897619D01*
X165857142Y-100850000D01*
X165904761Y-100802380D01*
X165904761Y-100897619D01*
X165000000Y-101135714D02*
X165000000Y-101945238D01*
X165047619Y-102040476D01*
X165095238Y-102088095D01*
X165190476Y-102135714D01*
X165333333Y-102135714D01*
X165428571Y-102088095D01*
X165000000Y-101754761D02*
X165095238Y-101802380D01*
X165285714Y-101802380D01*
X165380952Y-101754761D01*
X165428571Y-101707142D01*
X165476190Y-101611904D01*
X165476190Y-101326190D01*
X165428571Y-101230952D01*
X165380952Y-101183333D01*
X165285714Y-101135714D01*
X165095238Y-101135714D01*
X165000000Y-101183333D01*
X164523809Y-101802380D02*
X164523809Y-100802380D01*
X164095238Y-101802380D02*
X164095238Y-101278571D01*
X164142857Y-101183333D01*
X164238095Y-101135714D01*
X164380952Y-101135714D01*
X164476190Y-101183333D01*
X164523809Y-101230952D01*
X163761904Y-101135714D02*
X163380952Y-101135714D01*
X163619047Y-100802380D02*
X163619047Y-101659523D01*
X163571428Y-101754761D01*
X163476190Y-101802380D01*
X163380952Y-101802380D01*
X162380952Y-100802380D02*
X162142857Y-101802380D01*
X161952380Y-101088095D01*
X161761904Y-101802380D01*
X161523809Y-100802380D01*
X161190476Y-101754761D02*
X161047619Y-101802380D01*
X160809523Y-101802380D01*
X160714285Y-101754761D01*
X160666666Y-101707142D01*
X160619047Y-101611904D01*
X160619047Y-101516666D01*
X160666666Y-101421428D01*
X160714285Y-101373809D01*
X160809523Y-101326190D01*
X161000000Y-101278571D01*
X161095238Y-101230952D01*
X161142857Y-101183333D01*
X161190476Y-101088095D01*
X161190476Y-100992857D01*
X161142857Y-100897619D01*
X161095238Y-100850000D01*
X161000000Y-100802380D01*
X160761904Y-100802380D01*
X160619047Y-100850000D01*
X158952380Y-101802380D02*
X159428571Y-101802380D01*
X159428571Y-100802380D01*
X158619047Y-101802380D02*
X158619047Y-101135714D01*
X158619047Y-100802380D02*
X158666666Y-100850000D01*
X158619047Y-100897619D01*
X158571428Y-100850000D01*
X158619047Y-100802380D01*
X158619047Y-100897619D01*
X158285714Y-101135714D02*
X157904761Y-101135714D01*
X158142857Y-100802380D02*
X158142857Y-101659523D01*
X158095238Y-101754761D01*
X158000000Y-101802380D01*
X157904761Y-101802380D01*
X157190476Y-101754761D02*
X157285714Y-101802380D01*
X157476190Y-101802380D01*
X157571428Y-101754761D01*
X157619047Y-101659523D01*
X157619047Y-101278571D01*
X157571428Y-101183333D01*
X157476190Y-101135714D01*
X157285714Y-101135714D01*
X157190476Y-101183333D01*
X157142857Y-101278571D01*
X157142857Y-101373809D01*
X157619047Y-101469047D01*
X156095238Y-100802380D02*
X155761904Y-101802380D01*
X155428571Y-100802380D01*
X155190476Y-100802380D02*
X154571428Y-100802380D01*
X154904761Y-101183333D01*
X154761904Y-101183333D01*
X154666666Y-101230952D01*
X154619047Y-101278571D01*
X154571428Y-101373809D01*
X154571428Y-101611904D01*
X154619047Y-101707142D01*
X154666666Y-101754761D01*
X154761904Y-101802380D01*
X155047619Y-101802380D01*
X155142857Y-101754761D01*
X155190476Y-101707142D01*
X167261904Y-102452380D02*
X167261904Y-103261904D01*
X167214285Y-103357142D01*
X167166666Y-103404761D01*
X167071428Y-103452380D01*
X166880952Y-103452380D01*
X166785714Y-103404761D01*
X166738095Y-103357142D01*
X166690476Y-103261904D01*
X166690476Y-102452380D01*
X166261904Y-103404761D02*
X166119047Y-103452380D01*
X165880952Y-103452380D01*
X165785714Y-103404761D01*
X165738095Y-103357142D01*
X165690476Y-103261904D01*
X165690476Y-103166666D01*
X165738095Y-103071428D01*
X165785714Y-103023809D01*
X165880952Y-102976190D01*
X166071428Y-102928571D01*
X166166666Y-102880952D01*
X166214285Y-102833333D01*
X166261904Y-102738095D01*
X166261904Y-102642857D01*
X166214285Y-102547619D01*
X166166666Y-102500000D01*
X166071428Y-102452380D01*
X165833333Y-102452380D01*
X165690476Y-102500000D01*
X165261904Y-103452380D02*
X165261904Y-102452380D01*
X164928571Y-103166666D01*
X164595238Y-102452380D01*
X164595238Y-103452380D01*
X163785714Y-102928571D02*
X163642857Y-102976190D01*
X163595238Y-103023809D01*
X163547619Y-103119047D01*
X163547619Y-103261904D01*
X163595238Y-103357142D01*
X163642857Y-103404761D01*
X163738095Y-103452380D01*
X164119047Y-103452380D01*
X164119047Y-102452380D01*
X163785714Y-102452380D01*
X163690476Y-102500000D01*
X163642857Y-102547619D01*
X163595238Y-102642857D01*
X163595238Y-102738095D01*
X163642857Y-102833333D01*
X163690476Y-102880952D01*
X163785714Y-102928571D01*
X164119047Y-102928571D01*
X163119047Y-103071428D02*
X162357142Y-103071428D01*
X161928571Y-103166666D02*
X161452380Y-103166666D01*
X162023809Y-103452380D02*
X161690476Y-102452380D01*
X161357142Y-103452380D01*
X161023809Y-103452380D02*
X161023809Y-102452380D01*
X160785714Y-102452380D01*
X160642857Y-102500000D01*
X160547619Y-102595238D01*
X160500000Y-102690476D01*
X160452380Y-102880952D01*
X160452380Y-103023809D01*
X160500000Y-103214285D01*
X160547619Y-103309523D01*
X160642857Y-103404761D01*
X160785714Y-103452380D01*
X161023809Y-103452380D01*
X160166666Y-102452380D02*
X159595238Y-102452380D01*
X159880952Y-103452380D02*
X159880952Y-102452380D01*
X159261904Y-103452380D02*
X159261904Y-102452380D01*
X158880952Y-102452380D01*
X158785714Y-102500000D01*
X158738095Y-102547619D01*
X158690476Y-102642857D01*
X158690476Y-102785714D01*
X158738095Y-102880952D01*
X158785714Y-102928571D01*
X158880952Y-102976190D01*
X159261904Y-102976190D01*
X166476190Y-104102380D02*
X166142857Y-105102380D01*
X165809523Y-104102380D01*
X165095238Y-105054761D02*
X165190476Y-105102380D01*
X165380952Y-105102380D01*
X165476190Y-105054761D01*
X165523809Y-104959523D01*
X165523809Y-104578571D01*
X165476190Y-104483333D01*
X165380952Y-104435714D01*
X165190476Y-104435714D01*
X165095238Y-104483333D01*
X165047619Y-104578571D01*
X165047619Y-104673809D01*
X165523809Y-104769047D01*
X164619047Y-105102380D02*
X164619047Y-104435714D01*
X164619047Y-104626190D02*
X164571428Y-104530952D01*
X164523809Y-104483333D01*
X164428571Y-104435714D01*
X164333333Y-104435714D01*
X164047619Y-105054761D02*
X163952380Y-105102380D01*
X163761904Y-105102380D01*
X163666666Y-105054761D01*
X163619047Y-104959523D01*
X163619047Y-104911904D01*
X163666666Y-104816666D01*
X163761904Y-104769047D01*
X163904761Y-104769047D01*
X164000000Y-104721428D01*
X164047619Y-104626190D01*
X164047619Y-104578571D01*
X164000000Y-104483333D01*
X163904761Y-104435714D01*
X163761904Y-104435714D01*
X163666666Y-104483333D01*
X163190476Y-105102380D02*
X163190476Y-104435714D01*
X163190476Y-104102380D02*
X163238095Y-104150000D01*
X163190476Y-104197619D01*
X163142857Y-104150000D01*
X163190476Y-104102380D01*
X163190476Y-104197619D01*
X162571428Y-105102380D02*
X162666666Y-105054761D01*
X162714285Y-105007142D01*
X162761904Y-104911904D01*
X162761904Y-104626190D01*
X162714285Y-104530952D01*
X162666666Y-104483333D01*
X162571428Y-104435714D01*
X162428571Y-104435714D01*
X162333333Y-104483333D01*
X162285714Y-104530952D01*
X162238095Y-104626190D01*
X162238095Y-104911904D01*
X162285714Y-105007142D01*
X162333333Y-105054761D01*
X162428571Y-105102380D01*
X162571428Y-105102380D01*
X161809523Y-104435714D02*
X161809523Y-105102380D01*
X161809523Y-104530952D02*
X161761904Y-104483333D01*
X161666666Y-104435714D01*
X161523809Y-104435714D01*
X161428571Y-104483333D01*
X161380952Y-104578571D01*
X161380952Y-105102380D01*
X159714285Y-104435714D02*
X159714285Y-105102380D01*
X159952380Y-104054761D02*
X160190476Y-104769047D01*
X159571428Y-104769047D01*
M02*
