G04 #@! TF.GenerationSoftware,KiCad,Pcbnew,(5.1.4)-1*
G04 #@! TF.CreationDate,2023-08-23T10:41:24+02:00*
G04 #@! TF.ProjectId,BeeWeight_MKRWAN_V4,42656557-6569-4676-9874-5f4d4b525741,V4*
G04 #@! TF.SameCoordinates,Original*
G04 #@! TF.FileFunction,Paste,Top*
G04 #@! TF.FilePolarity,Positive*
%FSLAX46Y46*%
G04 Gerber Fmt 4.6, Leading zero omitted, Abs format (unit mm)*
G04 Created by KiCad (PCBNEW (5.1.4)-1) date 2023-08-23 10:41:24*
%MOMM*%
%LPD*%
G04 APERTURE LIST*
%ADD10C,0.010000*%
%ADD11R,0.450000X1.750000*%
%ADD12C,0.100000*%
%ADD13C,0.950000*%
%ADD14R,0.900000X0.800000*%
%ADD15C,1.150000*%
%ADD16R,0.550000X0.250000*%
G04 APERTURE END LIST*
D10*
G36*
X156549574Y-113700000D02*
G01*
X157450000Y-113700000D01*
X157450000Y-115300757D01*
X156549574Y-115300757D01*
X156549574Y-113700000D01*
G37*
X156549574Y-113700000D02*
X157450000Y-113700000D01*
X157450000Y-115300757D01*
X156549574Y-115300757D01*
X156549574Y-113700000D01*
D11*
X160875000Y-84300000D03*
X169325000Y-91500000D03*
X166075000Y-84300000D03*
X166725000Y-91500000D03*
X168025000Y-91500000D03*
X162825000Y-84300000D03*
X162175000Y-91500000D03*
X162175000Y-84300000D03*
X164125000Y-84300000D03*
X160875000Y-91500000D03*
X163475000Y-91500000D03*
X164125000Y-91500000D03*
X163475000Y-84300000D03*
X165425000Y-91500000D03*
X165425000Y-84300000D03*
X164775000Y-91500000D03*
X161525000Y-91500000D03*
X166075000Y-91500000D03*
X162825000Y-91500000D03*
X168675000Y-91500000D03*
X164775000Y-84300000D03*
X167375000Y-91500000D03*
X161525000Y-84300000D03*
X169325000Y-84300000D03*
X168025000Y-84300000D03*
X168675000Y-84300000D03*
X166725000Y-84300000D03*
X167375000Y-84300000D03*
D12*
G36*
X158510779Y-93176144D02*
G01*
X158533834Y-93179563D01*
X158556443Y-93185227D01*
X158578387Y-93193079D01*
X158599457Y-93203044D01*
X158619448Y-93215026D01*
X158638168Y-93228910D01*
X158655438Y-93244562D01*
X158671090Y-93261832D01*
X158684974Y-93280552D01*
X158696956Y-93300543D01*
X158706921Y-93321613D01*
X158714773Y-93343557D01*
X158720437Y-93366166D01*
X158723856Y-93389221D01*
X158725000Y-93412500D01*
X158725000Y-93887500D01*
X158723856Y-93910779D01*
X158720437Y-93933834D01*
X158714773Y-93956443D01*
X158706921Y-93978387D01*
X158696956Y-93999457D01*
X158684974Y-94019448D01*
X158671090Y-94038168D01*
X158655438Y-94055438D01*
X158638168Y-94071090D01*
X158619448Y-94084974D01*
X158599457Y-94096956D01*
X158578387Y-94106921D01*
X158556443Y-94114773D01*
X158533834Y-94120437D01*
X158510779Y-94123856D01*
X158487500Y-94125000D01*
X157912500Y-94125000D01*
X157889221Y-94123856D01*
X157866166Y-94120437D01*
X157843557Y-94114773D01*
X157821613Y-94106921D01*
X157800543Y-94096956D01*
X157780552Y-94084974D01*
X157761832Y-94071090D01*
X157744562Y-94055438D01*
X157728910Y-94038168D01*
X157715026Y-94019448D01*
X157703044Y-93999457D01*
X157693079Y-93978387D01*
X157685227Y-93956443D01*
X157679563Y-93933834D01*
X157676144Y-93910779D01*
X157675000Y-93887500D01*
X157675000Y-93412500D01*
X157676144Y-93389221D01*
X157679563Y-93366166D01*
X157685227Y-93343557D01*
X157693079Y-93321613D01*
X157703044Y-93300543D01*
X157715026Y-93280552D01*
X157728910Y-93261832D01*
X157744562Y-93244562D01*
X157761832Y-93228910D01*
X157780552Y-93215026D01*
X157800543Y-93203044D01*
X157821613Y-93193079D01*
X157843557Y-93185227D01*
X157866166Y-93179563D01*
X157889221Y-93176144D01*
X157912500Y-93175000D01*
X158487500Y-93175000D01*
X158510779Y-93176144D01*
X158510779Y-93176144D01*
G37*
D13*
X158200000Y-93650000D03*
D12*
G36*
X160260779Y-93176144D02*
G01*
X160283834Y-93179563D01*
X160306443Y-93185227D01*
X160328387Y-93193079D01*
X160349457Y-93203044D01*
X160369448Y-93215026D01*
X160388168Y-93228910D01*
X160405438Y-93244562D01*
X160421090Y-93261832D01*
X160434974Y-93280552D01*
X160446956Y-93300543D01*
X160456921Y-93321613D01*
X160464773Y-93343557D01*
X160470437Y-93366166D01*
X160473856Y-93389221D01*
X160475000Y-93412500D01*
X160475000Y-93887500D01*
X160473856Y-93910779D01*
X160470437Y-93933834D01*
X160464773Y-93956443D01*
X160456921Y-93978387D01*
X160446956Y-93999457D01*
X160434974Y-94019448D01*
X160421090Y-94038168D01*
X160405438Y-94055438D01*
X160388168Y-94071090D01*
X160369448Y-94084974D01*
X160349457Y-94096956D01*
X160328387Y-94106921D01*
X160306443Y-94114773D01*
X160283834Y-94120437D01*
X160260779Y-94123856D01*
X160237500Y-94125000D01*
X159662500Y-94125000D01*
X159639221Y-94123856D01*
X159616166Y-94120437D01*
X159593557Y-94114773D01*
X159571613Y-94106921D01*
X159550543Y-94096956D01*
X159530552Y-94084974D01*
X159511832Y-94071090D01*
X159494562Y-94055438D01*
X159478910Y-94038168D01*
X159465026Y-94019448D01*
X159453044Y-93999457D01*
X159443079Y-93978387D01*
X159435227Y-93956443D01*
X159429563Y-93933834D01*
X159426144Y-93910779D01*
X159425000Y-93887500D01*
X159425000Y-93412500D01*
X159426144Y-93389221D01*
X159429563Y-93366166D01*
X159435227Y-93343557D01*
X159443079Y-93321613D01*
X159453044Y-93300543D01*
X159465026Y-93280552D01*
X159478910Y-93261832D01*
X159494562Y-93244562D01*
X159511832Y-93228910D01*
X159530552Y-93215026D01*
X159550543Y-93203044D01*
X159571613Y-93193079D01*
X159593557Y-93185227D01*
X159616166Y-93179563D01*
X159639221Y-93176144D01*
X159662500Y-93175000D01*
X160237500Y-93175000D01*
X160260779Y-93176144D01*
X160260779Y-93176144D01*
G37*
D13*
X159950000Y-93650000D03*
D12*
G36*
X161960779Y-79626144D02*
G01*
X161983834Y-79629563D01*
X162006443Y-79635227D01*
X162028387Y-79643079D01*
X162049457Y-79653044D01*
X162069448Y-79665026D01*
X162088168Y-79678910D01*
X162105438Y-79694562D01*
X162121090Y-79711832D01*
X162134974Y-79730552D01*
X162146956Y-79750543D01*
X162156921Y-79771613D01*
X162164773Y-79793557D01*
X162170437Y-79816166D01*
X162173856Y-79839221D01*
X162175000Y-79862500D01*
X162175000Y-80437500D01*
X162173856Y-80460779D01*
X162170437Y-80483834D01*
X162164773Y-80506443D01*
X162156921Y-80528387D01*
X162146956Y-80549457D01*
X162134974Y-80569448D01*
X162121090Y-80588168D01*
X162105438Y-80605438D01*
X162088168Y-80621090D01*
X162069448Y-80634974D01*
X162049457Y-80646956D01*
X162028387Y-80656921D01*
X162006443Y-80664773D01*
X161983834Y-80670437D01*
X161960779Y-80673856D01*
X161937500Y-80675000D01*
X161462500Y-80675000D01*
X161439221Y-80673856D01*
X161416166Y-80670437D01*
X161393557Y-80664773D01*
X161371613Y-80656921D01*
X161350543Y-80646956D01*
X161330552Y-80634974D01*
X161311832Y-80621090D01*
X161294562Y-80605438D01*
X161278910Y-80588168D01*
X161265026Y-80569448D01*
X161253044Y-80549457D01*
X161243079Y-80528387D01*
X161235227Y-80506443D01*
X161229563Y-80483834D01*
X161226144Y-80460779D01*
X161225000Y-80437500D01*
X161225000Y-79862500D01*
X161226144Y-79839221D01*
X161229563Y-79816166D01*
X161235227Y-79793557D01*
X161243079Y-79771613D01*
X161253044Y-79750543D01*
X161265026Y-79730552D01*
X161278910Y-79711832D01*
X161294562Y-79694562D01*
X161311832Y-79678910D01*
X161330552Y-79665026D01*
X161350543Y-79653044D01*
X161371613Y-79643079D01*
X161393557Y-79635227D01*
X161416166Y-79629563D01*
X161439221Y-79626144D01*
X161462500Y-79625000D01*
X161937500Y-79625000D01*
X161960779Y-79626144D01*
X161960779Y-79626144D01*
G37*
D13*
X161700000Y-80150000D03*
D12*
G36*
X161960779Y-81376144D02*
G01*
X161983834Y-81379563D01*
X162006443Y-81385227D01*
X162028387Y-81393079D01*
X162049457Y-81403044D01*
X162069448Y-81415026D01*
X162088168Y-81428910D01*
X162105438Y-81444562D01*
X162121090Y-81461832D01*
X162134974Y-81480552D01*
X162146956Y-81500543D01*
X162156921Y-81521613D01*
X162164773Y-81543557D01*
X162170437Y-81566166D01*
X162173856Y-81589221D01*
X162175000Y-81612500D01*
X162175000Y-82187500D01*
X162173856Y-82210779D01*
X162170437Y-82233834D01*
X162164773Y-82256443D01*
X162156921Y-82278387D01*
X162146956Y-82299457D01*
X162134974Y-82319448D01*
X162121090Y-82338168D01*
X162105438Y-82355438D01*
X162088168Y-82371090D01*
X162069448Y-82384974D01*
X162049457Y-82396956D01*
X162028387Y-82406921D01*
X162006443Y-82414773D01*
X161983834Y-82420437D01*
X161960779Y-82423856D01*
X161937500Y-82425000D01*
X161462500Y-82425000D01*
X161439221Y-82423856D01*
X161416166Y-82420437D01*
X161393557Y-82414773D01*
X161371613Y-82406921D01*
X161350543Y-82396956D01*
X161330552Y-82384974D01*
X161311832Y-82371090D01*
X161294562Y-82355438D01*
X161278910Y-82338168D01*
X161265026Y-82319448D01*
X161253044Y-82299457D01*
X161243079Y-82278387D01*
X161235227Y-82256443D01*
X161229563Y-82233834D01*
X161226144Y-82210779D01*
X161225000Y-82187500D01*
X161225000Y-81612500D01*
X161226144Y-81589221D01*
X161229563Y-81566166D01*
X161235227Y-81543557D01*
X161243079Y-81521613D01*
X161253044Y-81500543D01*
X161265026Y-81480552D01*
X161278910Y-81461832D01*
X161294562Y-81444562D01*
X161311832Y-81428910D01*
X161330552Y-81415026D01*
X161350543Y-81403044D01*
X161371613Y-81393079D01*
X161393557Y-81385227D01*
X161416166Y-81379563D01*
X161439221Y-81376144D01*
X161462500Y-81375000D01*
X161937500Y-81375000D01*
X161960779Y-81376144D01*
X161960779Y-81376144D01*
G37*
D13*
X161700000Y-81900000D03*
D12*
G36*
X158510779Y-81676144D02*
G01*
X158533834Y-81679563D01*
X158556443Y-81685227D01*
X158578387Y-81693079D01*
X158599457Y-81703044D01*
X158619448Y-81715026D01*
X158638168Y-81728910D01*
X158655438Y-81744562D01*
X158671090Y-81761832D01*
X158684974Y-81780552D01*
X158696956Y-81800543D01*
X158706921Y-81821613D01*
X158714773Y-81843557D01*
X158720437Y-81866166D01*
X158723856Y-81889221D01*
X158725000Y-81912500D01*
X158725000Y-82387500D01*
X158723856Y-82410779D01*
X158720437Y-82433834D01*
X158714773Y-82456443D01*
X158706921Y-82478387D01*
X158696956Y-82499457D01*
X158684974Y-82519448D01*
X158671090Y-82538168D01*
X158655438Y-82555438D01*
X158638168Y-82571090D01*
X158619448Y-82584974D01*
X158599457Y-82596956D01*
X158578387Y-82606921D01*
X158556443Y-82614773D01*
X158533834Y-82620437D01*
X158510779Y-82623856D01*
X158487500Y-82625000D01*
X157912500Y-82625000D01*
X157889221Y-82623856D01*
X157866166Y-82620437D01*
X157843557Y-82614773D01*
X157821613Y-82606921D01*
X157800543Y-82596956D01*
X157780552Y-82584974D01*
X157761832Y-82571090D01*
X157744562Y-82555438D01*
X157728910Y-82538168D01*
X157715026Y-82519448D01*
X157703044Y-82499457D01*
X157693079Y-82478387D01*
X157685227Y-82456443D01*
X157679563Y-82433834D01*
X157676144Y-82410779D01*
X157675000Y-82387500D01*
X157675000Y-81912500D01*
X157676144Y-81889221D01*
X157679563Y-81866166D01*
X157685227Y-81843557D01*
X157693079Y-81821613D01*
X157703044Y-81800543D01*
X157715026Y-81780552D01*
X157728910Y-81761832D01*
X157744562Y-81744562D01*
X157761832Y-81728910D01*
X157780552Y-81715026D01*
X157800543Y-81703044D01*
X157821613Y-81693079D01*
X157843557Y-81685227D01*
X157866166Y-81679563D01*
X157889221Y-81676144D01*
X157912500Y-81675000D01*
X158487500Y-81675000D01*
X158510779Y-81676144D01*
X158510779Y-81676144D01*
G37*
D13*
X158200000Y-82150000D03*
D12*
G36*
X160260779Y-81676144D02*
G01*
X160283834Y-81679563D01*
X160306443Y-81685227D01*
X160328387Y-81693079D01*
X160349457Y-81703044D01*
X160369448Y-81715026D01*
X160388168Y-81728910D01*
X160405438Y-81744562D01*
X160421090Y-81761832D01*
X160434974Y-81780552D01*
X160446956Y-81800543D01*
X160456921Y-81821613D01*
X160464773Y-81843557D01*
X160470437Y-81866166D01*
X160473856Y-81889221D01*
X160475000Y-81912500D01*
X160475000Y-82387500D01*
X160473856Y-82410779D01*
X160470437Y-82433834D01*
X160464773Y-82456443D01*
X160456921Y-82478387D01*
X160446956Y-82499457D01*
X160434974Y-82519448D01*
X160421090Y-82538168D01*
X160405438Y-82555438D01*
X160388168Y-82571090D01*
X160369448Y-82584974D01*
X160349457Y-82596956D01*
X160328387Y-82606921D01*
X160306443Y-82614773D01*
X160283834Y-82620437D01*
X160260779Y-82623856D01*
X160237500Y-82625000D01*
X159662500Y-82625000D01*
X159639221Y-82623856D01*
X159616166Y-82620437D01*
X159593557Y-82614773D01*
X159571613Y-82606921D01*
X159550543Y-82596956D01*
X159530552Y-82584974D01*
X159511832Y-82571090D01*
X159494562Y-82555438D01*
X159478910Y-82538168D01*
X159465026Y-82519448D01*
X159453044Y-82499457D01*
X159443079Y-82478387D01*
X159435227Y-82456443D01*
X159429563Y-82433834D01*
X159426144Y-82410779D01*
X159425000Y-82387500D01*
X159425000Y-81912500D01*
X159426144Y-81889221D01*
X159429563Y-81866166D01*
X159435227Y-81843557D01*
X159443079Y-81821613D01*
X159453044Y-81800543D01*
X159465026Y-81780552D01*
X159478910Y-81761832D01*
X159494562Y-81744562D01*
X159511832Y-81728910D01*
X159530552Y-81715026D01*
X159550543Y-81703044D01*
X159571613Y-81693079D01*
X159593557Y-81685227D01*
X159616166Y-81679563D01*
X159639221Y-81676144D01*
X159662500Y-81675000D01*
X160237500Y-81675000D01*
X160260779Y-81676144D01*
X160260779Y-81676144D01*
G37*
D13*
X159950000Y-82150000D03*
D12*
G36*
X158410779Y-90926144D02*
G01*
X158433834Y-90929563D01*
X158456443Y-90935227D01*
X158478387Y-90943079D01*
X158499457Y-90953044D01*
X158519448Y-90965026D01*
X158538168Y-90978910D01*
X158555438Y-90994562D01*
X158571090Y-91011832D01*
X158584974Y-91030552D01*
X158596956Y-91050543D01*
X158606921Y-91071613D01*
X158614773Y-91093557D01*
X158620437Y-91116166D01*
X158623856Y-91139221D01*
X158625000Y-91162500D01*
X158625000Y-91737500D01*
X158623856Y-91760779D01*
X158620437Y-91783834D01*
X158614773Y-91806443D01*
X158606921Y-91828387D01*
X158596956Y-91849457D01*
X158584974Y-91869448D01*
X158571090Y-91888168D01*
X158555438Y-91905438D01*
X158538168Y-91921090D01*
X158519448Y-91934974D01*
X158499457Y-91946956D01*
X158478387Y-91956921D01*
X158456443Y-91964773D01*
X158433834Y-91970437D01*
X158410779Y-91973856D01*
X158387500Y-91975000D01*
X157912500Y-91975000D01*
X157889221Y-91973856D01*
X157866166Y-91970437D01*
X157843557Y-91964773D01*
X157821613Y-91956921D01*
X157800543Y-91946956D01*
X157780552Y-91934974D01*
X157761832Y-91921090D01*
X157744562Y-91905438D01*
X157728910Y-91888168D01*
X157715026Y-91869448D01*
X157703044Y-91849457D01*
X157693079Y-91828387D01*
X157685227Y-91806443D01*
X157679563Y-91783834D01*
X157676144Y-91760779D01*
X157675000Y-91737500D01*
X157675000Y-91162500D01*
X157676144Y-91139221D01*
X157679563Y-91116166D01*
X157685227Y-91093557D01*
X157693079Y-91071613D01*
X157703044Y-91050543D01*
X157715026Y-91030552D01*
X157728910Y-91011832D01*
X157744562Y-90994562D01*
X157761832Y-90978910D01*
X157780552Y-90965026D01*
X157800543Y-90953044D01*
X157821613Y-90943079D01*
X157843557Y-90935227D01*
X157866166Y-90929563D01*
X157889221Y-90926144D01*
X157912500Y-90925000D01*
X158387500Y-90925000D01*
X158410779Y-90926144D01*
X158410779Y-90926144D01*
G37*
D13*
X158150000Y-91450000D03*
D12*
G36*
X158410779Y-89176144D02*
G01*
X158433834Y-89179563D01*
X158456443Y-89185227D01*
X158478387Y-89193079D01*
X158499457Y-89203044D01*
X158519448Y-89215026D01*
X158538168Y-89228910D01*
X158555438Y-89244562D01*
X158571090Y-89261832D01*
X158584974Y-89280552D01*
X158596956Y-89300543D01*
X158606921Y-89321613D01*
X158614773Y-89343557D01*
X158620437Y-89366166D01*
X158623856Y-89389221D01*
X158625000Y-89412500D01*
X158625000Y-89987500D01*
X158623856Y-90010779D01*
X158620437Y-90033834D01*
X158614773Y-90056443D01*
X158606921Y-90078387D01*
X158596956Y-90099457D01*
X158584974Y-90119448D01*
X158571090Y-90138168D01*
X158555438Y-90155438D01*
X158538168Y-90171090D01*
X158519448Y-90184974D01*
X158499457Y-90196956D01*
X158478387Y-90206921D01*
X158456443Y-90214773D01*
X158433834Y-90220437D01*
X158410779Y-90223856D01*
X158387500Y-90225000D01*
X157912500Y-90225000D01*
X157889221Y-90223856D01*
X157866166Y-90220437D01*
X157843557Y-90214773D01*
X157821613Y-90206921D01*
X157800543Y-90196956D01*
X157780552Y-90184974D01*
X157761832Y-90171090D01*
X157744562Y-90155438D01*
X157728910Y-90138168D01*
X157715026Y-90119448D01*
X157703044Y-90099457D01*
X157693079Y-90078387D01*
X157685227Y-90056443D01*
X157679563Y-90033834D01*
X157676144Y-90010779D01*
X157675000Y-89987500D01*
X157675000Y-89412500D01*
X157676144Y-89389221D01*
X157679563Y-89366166D01*
X157685227Y-89343557D01*
X157693079Y-89321613D01*
X157703044Y-89300543D01*
X157715026Y-89280552D01*
X157728910Y-89261832D01*
X157744562Y-89244562D01*
X157761832Y-89228910D01*
X157780552Y-89215026D01*
X157800543Y-89203044D01*
X157821613Y-89193079D01*
X157843557Y-89185227D01*
X157866166Y-89179563D01*
X157889221Y-89176144D01*
X157912500Y-89175000D01*
X158387500Y-89175000D01*
X158410779Y-89176144D01*
X158410779Y-89176144D01*
G37*
D13*
X158150000Y-89700000D03*
D12*
G36*
X161960779Y-93926144D02*
G01*
X161983834Y-93929563D01*
X162006443Y-93935227D01*
X162028387Y-93943079D01*
X162049457Y-93953044D01*
X162069448Y-93965026D01*
X162088168Y-93978910D01*
X162105438Y-93994562D01*
X162121090Y-94011832D01*
X162134974Y-94030552D01*
X162146956Y-94050543D01*
X162156921Y-94071613D01*
X162164773Y-94093557D01*
X162170437Y-94116166D01*
X162173856Y-94139221D01*
X162175000Y-94162500D01*
X162175000Y-94737500D01*
X162173856Y-94760779D01*
X162170437Y-94783834D01*
X162164773Y-94806443D01*
X162156921Y-94828387D01*
X162146956Y-94849457D01*
X162134974Y-94869448D01*
X162121090Y-94888168D01*
X162105438Y-94905438D01*
X162088168Y-94921090D01*
X162069448Y-94934974D01*
X162049457Y-94946956D01*
X162028387Y-94956921D01*
X162006443Y-94964773D01*
X161983834Y-94970437D01*
X161960779Y-94973856D01*
X161937500Y-94975000D01*
X161462500Y-94975000D01*
X161439221Y-94973856D01*
X161416166Y-94970437D01*
X161393557Y-94964773D01*
X161371613Y-94956921D01*
X161350543Y-94946956D01*
X161330552Y-94934974D01*
X161311832Y-94921090D01*
X161294562Y-94905438D01*
X161278910Y-94888168D01*
X161265026Y-94869448D01*
X161253044Y-94849457D01*
X161243079Y-94828387D01*
X161235227Y-94806443D01*
X161229563Y-94783834D01*
X161226144Y-94760779D01*
X161225000Y-94737500D01*
X161225000Y-94162500D01*
X161226144Y-94139221D01*
X161229563Y-94116166D01*
X161235227Y-94093557D01*
X161243079Y-94071613D01*
X161253044Y-94050543D01*
X161265026Y-94030552D01*
X161278910Y-94011832D01*
X161294562Y-93994562D01*
X161311832Y-93978910D01*
X161330552Y-93965026D01*
X161350543Y-93953044D01*
X161371613Y-93943079D01*
X161393557Y-93935227D01*
X161416166Y-93929563D01*
X161439221Y-93926144D01*
X161462500Y-93925000D01*
X161937500Y-93925000D01*
X161960779Y-93926144D01*
X161960779Y-93926144D01*
G37*
D13*
X161700000Y-94450000D03*
D12*
G36*
X161960779Y-95676144D02*
G01*
X161983834Y-95679563D01*
X162006443Y-95685227D01*
X162028387Y-95693079D01*
X162049457Y-95703044D01*
X162069448Y-95715026D01*
X162088168Y-95728910D01*
X162105438Y-95744562D01*
X162121090Y-95761832D01*
X162134974Y-95780552D01*
X162146956Y-95800543D01*
X162156921Y-95821613D01*
X162164773Y-95843557D01*
X162170437Y-95866166D01*
X162173856Y-95889221D01*
X162175000Y-95912500D01*
X162175000Y-96487500D01*
X162173856Y-96510779D01*
X162170437Y-96533834D01*
X162164773Y-96556443D01*
X162156921Y-96578387D01*
X162146956Y-96599457D01*
X162134974Y-96619448D01*
X162121090Y-96638168D01*
X162105438Y-96655438D01*
X162088168Y-96671090D01*
X162069448Y-96684974D01*
X162049457Y-96696956D01*
X162028387Y-96706921D01*
X162006443Y-96714773D01*
X161983834Y-96720437D01*
X161960779Y-96723856D01*
X161937500Y-96725000D01*
X161462500Y-96725000D01*
X161439221Y-96723856D01*
X161416166Y-96720437D01*
X161393557Y-96714773D01*
X161371613Y-96706921D01*
X161350543Y-96696956D01*
X161330552Y-96684974D01*
X161311832Y-96671090D01*
X161294562Y-96655438D01*
X161278910Y-96638168D01*
X161265026Y-96619448D01*
X161253044Y-96599457D01*
X161243079Y-96578387D01*
X161235227Y-96556443D01*
X161229563Y-96533834D01*
X161226144Y-96510779D01*
X161225000Y-96487500D01*
X161225000Y-95912500D01*
X161226144Y-95889221D01*
X161229563Y-95866166D01*
X161235227Y-95843557D01*
X161243079Y-95821613D01*
X161253044Y-95800543D01*
X161265026Y-95780552D01*
X161278910Y-95761832D01*
X161294562Y-95744562D01*
X161311832Y-95728910D01*
X161330552Y-95715026D01*
X161350543Y-95703044D01*
X161371613Y-95693079D01*
X161393557Y-95685227D01*
X161416166Y-95679563D01*
X161439221Y-95676144D01*
X161462500Y-95675000D01*
X161937500Y-95675000D01*
X161960779Y-95676144D01*
X161960779Y-95676144D01*
G37*
D13*
X161700000Y-96200000D03*
D12*
G36*
X163710779Y-81376144D02*
G01*
X163733834Y-81379563D01*
X163756443Y-81385227D01*
X163778387Y-81393079D01*
X163799457Y-81403044D01*
X163819448Y-81415026D01*
X163838168Y-81428910D01*
X163855438Y-81444562D01*
X163871090Y-81461832D01*
X163884974Y-81480552D01*
X163896956Y-81500543D01*
X163906921Y-81521613D01*
X163914773Y-81543557D01*
X163920437Y-81566166D01*
X163923856Y-81589221D01*
X163925000Y-81612500D01*
X163925000Y-82187500D01*
X163923856Y-82210779D01*
X163920437Y-82233834D01*
X163914773Y-82256443D01*
X163906921Y-82278387D01*
X163896956Y-82299457D01*
X163884974Y-82319448D01*
X163871090Y-82338168D01*
X163855438Y-82355438D01*
X163838168Y-82371090D01*
X163819448Y-82384974D01*
X163799457Y-82396956D01*
X163778387Y-82406921D01*
X163756443Y-82414773D01*
X163733834Y-82420437D01*
X163710779Y-82423856D01*
X163687500Y-82425000D01*
X163212500Y-82425000D01*
X163189221Y-82423856D01*
X163166166Y-82420437D01*
X163143557Y-82414773D01*
X163121613Y-82406921D01*
X163100543Y-82396956D01*
X163080552Y-82384974D01*
X163061832Y-82371090D01*
X163044562Y-82355438D01*
X163028910Y-82338168D01*
X163015026Y-82319448D01*
X163003044Y-82299457D01*
X162993079Y-82278387D01*
X162985227Y-82256443D01*
X162979563Y-82233834D01*
X162976144Y-82210779D01*
X162975000Y-82187500D01*
X162975000Y-81612500D01*
X162976144Y-81589221D01*
X162979563Y-81566166D01*
X162985227Y-81543557D01*
X162993079Y-81521613D01*
X163003044Y-81500543D01*
X163015026Y-81480552D01*
X163028910Y-81461832D01*
X163044562Y-81444562D01*
X163061832Y-81428910D01*
X163080552Y-81415026D01*
X163100543Y-81403044D01*
X163121613Y-81393079D01*
X163143557Y-81385227D01*
X163166166Y-81379563D01*
X163189221Y-81376144D01*
X163212500Y-81375000D01*
X163687500Y-81375000D01*
X163710779Y-81376144D01*
X163710779Y-81376144D01*
G37*
D13*
X163450000Y-81900000D03*
D12*
G36*
X163710779Y-79626144D02*
G01*
X163733834Y-79629563D01*
X163756443Y-79635227D01*
X163778387Y-79643079D01*
X163799457Y-79653044D01*
X163819448Y-79665026D01*
X163838168Y-79678910D01*
X163855438Y-79694562D01*
X163871090Y-79711832D01*
X163884974Y-79730552D01*
X163896956Y-79750543D01*
X163906921Y-79771613D01*
X163914773Y-79793557D01*
X163920437Y-79816166D01*
X163923856Y-79839221D01*
X163925000Y-79862500D01*
X163925000Y-80437500D01*
X163923856Y-80460779D01*
X163920437Y-80483834D01*
X163914773Y-80506443D01*
X163906921Y-80528387D01*
X163896956Y-80549457D01*
X163884974Y-80569448D01*
X163871090Y-80588168D01*
X163855438Y-80605438D01*
X163838168Y-80621090D01*
X163819448Y-80634974D01*
X163799457Y-80646956D01*
X163778387Y-80656921D01*
X163756443Y-80664773D01*
X163733834Y-80670437D01*
X163710779Y-80673856D01*
X163687500Y-80675000D01*
X163212500Y-80675000D01*
X163189221Y-80673856D01*
X163166166Y-80670437D01*
X163143557Y-80664773D01*
X163121613Y-80656921D01*
X163100543Y-80646956D01*
X163080552Y-80634974D01*
X163061832Y-80621090D01*
X163044562Y-80605438D01*
X163028910Y-80588168D01*
X163015026Y-80569448D01*
X163003044Y-80549457D01*
X162993079Y-80528387D01*
X162985227Y-80506443D01*
X162979563Y-80483834D01*
X162976144Y-80460779D01*
X162975000Y-80437500D01*
X162975000Y-79862500D01*
X162976144Y-79839221D01*
X162979563Y-79816166D01*
X162985227Y-79793557D01*
X162993079Y-79771613D01*
X163003044Y-79750543D01*
X163015026Y-79730552D01*
X163028910Y-79711832D01*
X163044562Y-79694562D01*
X163061832Y-79678910D01*
X163080552Y-79665026D01*
X163100543Y-79653044D01*
X163121613Y-79643079D01*
X163143557Y-79635227D01*
X163166166Y-79629563D01*
X163189221Y-79626144D01*
X163212500Y-79625000D01*
X163687500Y-79625000D01*
X163710779Y-79626144D01*
X163710779Y-79626144D01*
G37*
D13*
X163450000Y-80150000D03*
D12*
G36*
X158410779Y-83701144D02*
G01*
X158433834Y-83704563D01*
X158456443Y-83710227D01*
X158478387Y-83718079D01*
X158499457Y-83728044D01*
X158519448Y-83740026D01*
X158538168Y-83753910D01*
X158555438Y-83769562D01*
X158571090Y-83786832D01*
X158584974Y-83805552D01*
X158596956Y-83825543D01*
X158606921Y-83846613D01*
X158614773Y-83868557D01*
X158620437Y-83891166D01*
X158623856Y-83914221D01*
X158625000Y-83937500D01*
X158625000Y-84512500D01*
X158623856Y-84535779D01*
X158620437Y-84558834D01*
X158614773Y-84581443D01*
X158606921Y-84603387D01*
X158596956Y-84624457D01*
X158584974Y-84644448D01*
X158571090Y-84663168D01*
X158555438Y-84680438D01*
X158538168Y-84696090D01*
X158519448Y-84709974D01*
X158499457Y-84721956D01*
X158478387Y-84731921D01*
X158456443Y-84739773D01*
X158433834Y-84745437D01*
X158410779Y-84748856D01*
X158387500Y-84750000D01*
X157912500Y-84750000D01*
X157889221Y-84748856D01*
X157866166Y-84745437D01*
X157843557Y-84739773D01*
X157821613Y-84731921D01*
X157800543Y-84721956D01*
X157780552Y-84709974D01*
X157761832Y-84696090D01*
X157744562Y-84680438D01*
X157728910Y-84663168D01*
X157715026Y-84644448D01*
X157703044Y-84624457D01*
X157693079Y-84603387D01*
X157685227Y-84581443D01*
X157679563Y-84558834D01*
X157676144Y-84535779D01*
X157675000Y-84512500D01*
X157675000Y-83937500D01*
X157676144Y-83914221D01*
X157679563Y-83891166D01*
X157685227Y-83868557D01*
X157693079Y-83846613D01*
X157703044Y-83825543D01*
X157715026Y-83805552D01*
X157728910Y-83786832D01*
X157744562Y-83769562D01*
X157761832Y-83753910D01*
X157780552Y-83740026D01*
X157800543Y-83728044D01*
X157821613Y-83718079D01*
X157843557Y-83710227D01*
X157866166Y-83704563D01*
X157889221Y-83701144D01*
X157912500Y-83700000D01*
X158387500Y-83700000D01*
X158410779Y-83701144D01*
X158410779Y-83701144D01*
G37*
D13*
X158150000Y-84225000D03*
D12*
G36*
X158410779Y-85451144D02*
G01*
X158433834Y-85454563D01*
X158456443Y-85460227D01*
X158478387Y-85468079D01*
X158499457Y-85478044D01*
X158519448Y-85490026D01*
X158538168Y-85503910D01*
X158555438Y-85519562D01*
X158571090Y-85536832D01*
X158584974Y-85555552D01*
X158596956Y-85575543D01*
X158606921Y-85596613D01*
X158614773Y-85618557D01*
X158620437Y-85641166D01*
X158623856Y-85664221D01*
X158625000Y-85687500D01*
X158625000Y-86262500D01*
X158623856Y-86285779D01*
X158620437Y-86308834D01*
X158614773Y-86331443D01*
X158606921Y-86353387D01*
X158596956Y-86374457D01*
X158584974Y-86394448D01*
X158571090Y-86413168D01*
X158555438Y-86430438D01*
X158538168Y-86446090D01*
X158519448Y-86459974D01*
X158499457Y-86471956D01*
X158478387Y-86481921D01*
X158456443Y-86489773D01*
X158433834Y-86495437D01*
X158410779Y-86498856D01*
X158387500Y-86500000D01*
X157912500Y-86500000D01*
X157889221Y-86498856D01*
X157866166Y-86495437D01*
X157843557Y-86489773D01*
X157821613Y-86481921D01*
X157800543Y-86471956D01*
X157780552Y-86459974D01*
X157761832Y-86446090D01*
X157744562Y-86430438D01*
X157728910Y-86413168D01*
X157715026Y-86394448D01*
X157703044Y-86374457D01*
X157693079Y-86353387D01*
X157685227Y-86331443D01*
X157679563Y-86308834D01*
X157676144Y-86285779D01*
X157675000Y-86262500D01*
X157675000Y-85687500D01*
X157676144Y-85664221D01*
X157679563Y-85641166D01*
X157685227Y-85618557D01*
X157693079Y-85596613D01*
X157703044Y-85575543D01*
X157715026Y-85555552D01*
X157728910Y-85536832D01*
X157744562Y-85519562D01*
X157761832Y-85503910D01*
X157780552Y-85490026D01*
X157800543Y-85478044D01*
X157821613Y-85468079D01*
X157843557Y-85460227D01*
X157866166Y-85454563D01*
X157889221Y-85451144D01*
X157912500Y-85450000D01*
X158387500Y-85450000D01*
X158410779Y-85451144D01*
X158410779Y-85451144D01*
G37*
D13*
X158150000Y-85975000D03*
D12*
G36*
X164060779Y-95676144D02*
G01*
X164083834Y-95679563D01*
X164106443Y-95685227D01*
X164128387Y-95693079D01*
X164149457Y-95703044D01*
X164169448Y-95715026D01*
X164188168Y-95728910D01*
X164205438Y-95744562D01*
X164221090Y-95761832D01*
X164234974Y-95780552D01*
X164246956Y-95800543D01*
X164256921Y-95821613D01*
X164264773Y-95843557D01*
X164270437Y-95866166D01*
X164273856Y-95889221D01*
X164275000Y-95912500D01*
X164275000Y-96487500D01*
X164273856Y-96510779D01*
X164270437Y-96533834D01*
X164264773Y-96556443D01*
X164256921Y-96578387D01*
X164246956Y-96599457D01*
X164234974Y-96619448D01*
X164221090Y-96638168D01*
X164205438Y-96655438D01*
X164188168Y-96671090D01*
X164169448Y-96684974D01*
X164149457Y-96696956D01*
X164128387Y-96706921D01*
X164106443Y-96714773D01*
X164083834Y-96720437D01*
X164060779Y-96723856D01*
X164037500Y-96725000D01*
X163562500Y-96725000D01*
X163539221Y-96723856D01*
X163516166Y-96720437D01*
X163493557Y-96714773D01*
X163471613Y-96706921D01*
X163450543Y-96696956D01*
X163430552Y-96684974D01*
X163411832Y-96671090D01*
X163394562Y-96655438D01*
X163378910Y-96638168D01*
X163365026Y-96619448D01*
X163353044Y-96599457D01*
X163343079Y-96578387D01*
X163335227Y-96556443D01*
X163329563Y-96533834D01*
X163326144Y-96510779D01*
X163325000Y-96487500D01*
X163325000Y-95912500D01*
X163326144Y-95889221D01*
X163329563Y-95866166D01*
X163335227Y-95843557D01*
X163343079Y-95821613D01*
X163353044Y-95800543D01*
X163365026Y-95780552D01*
X163378910Y-95761832D01*
X163394562Y-95744562D01*
X163411832Y-95728910D01*
X163430552Y-95715026D01*
X163450543Y-95703044D01*
X163471613Y-95693079D01*
X163493557Y-95685227D01*
X163516166Y-95679563D01*
X163539221Y-95676144D01*
X163562500Y-95675000D01*
X164037500Y-95675000D01*
X164060779Y-95676144D01*
X164060779Y-95676144D01*
G37*
D13*
X163800000Y-96200000D03*
D12*
G36*
X164060779Y-93926144D02*
G01*
X164083834Y-93929563D01*
X164106443Y-93935227D01*
X164128387Y-93943079D01*
X164149457Y-93953044D01*
X164169448Y-93965026D01*
X164188168Y-93978910D01*
X164205438Y-93994562D01*
X164221090Y-94011832D01*
X164234974Y-94030552D01*
X164246956Y-94050543D01*
X164256921Y-94071613D01*
X164264773Y-94093557D01*
X164270437Y-94116166D01*
X164273856Y-94139221D01*
X164275000Y-94162500D01*
X164275000Y-94737500D01*
X164273856Y-94760779D01*
X164270437Y-94783834D01*
X164264773Y-94806443D01*
X164256921Y-94828387D01*
X164246956Y-94849457D01*
X164234974Y-94869448D01*
X164221090Y-94888168D01*
X164205438Y-94905438D01*
X164188168Y-94921090D01*
X164169448Y-94934974D01*
X164149457Y-94946956D01*
X164128387Y-94956921D01*
X164106443Y-94964773D01*
X164083834Y-94970437D01*
X164060779Y-94973856D01*
X164037500Y-94975000D01*
X163562500Y-94975000D01*
X163539221Y-94973856D01*
X163516166Y-94970437D01*
X163493557Y-94964773D01*
X163471613Y-94956921D01*
X163450543Y-94946956D01*
X163430552Y-94934974D01*
X163411832Y-94921090D01*
X163394562Y-94905438D01*
X163378910Y-94888168D01*
X163365026Y-94869448D01*
X163353044Y-94849457D01*
X163343079Y-94828387D01*
X163335227Y-94806443D01*
X163329563Y-94783834D01*
X163326144Y-94760779D01*
X163325000Y-94737500D01*
X163325000Y-94162500D01*
X163326144Y-94139221D01*
X163329563Y-94116166D01*
X163335227Y-94093557D01*
X163343079Y-94071613D01*
X163353044Y-94050543D01*
X163365026Y-94030552D01*
X163378910Y-94011832D01*
X163394562Y-93994562D01*
X163411832Y-93978910D01*
X163430552Y-93965026D01*
X163450543Y-93953044D01*
X163471613Y-93943079D01*
X163493557Y-93935227D01*
X163516166Y-93929563D01*
X163539221Y-93926144D01*
X163562500Y-93925000D01*
X164037500Y-93925000D01*
X164060779Y-93926144D01*
X164060779Y-93926144D01*
G37*
D13*
X163800000Y-94450000D03*
D12*
G36*
X158460779Y-69451144D02*
G01*
X158483834Y-69454563D01*
X158506443Y-69460227D01*
X158528387Y-69468079D01*
X158549457Y-69478044D01*
X158569448Y-69490026D01*
X158588168Y-69503910D01*
X158605438Y-69519562D01*
X158621090Y-69536832D01*
X158634974Y-69555552D01*
X158646956Y-69575543D01*
X158656921Y-69596613D01*
X158664773Y-69618557D01*
X158670437Y-69641166D01*
X158673856Y-69664221D01*
X158675000Y-69687500D01*
X158675000Y-70262500D01*
X158673856Y-70285779D01*
X158670437Y-70308834D01*
X158664773Y-70331443D01*
X158656921Y-70353387D01*
X158646956Y-70374457D01*
X158634974Y-70394448D01*
X158621090Y-70413168D01*
X158605438Y-70430438D01*
X158588168Y-70446090D01*
X158569448Y-70459974D01*
X158549457Y-70471956D01*
X158528387Y-70481921D01*
X158506443Y-70489773D01*
X158483834Y-70495437D01*
X158460779Y-70498856D01*
X158437500Y-70500000D01*
X157962500Y-70500000D01*
X157939221Y-70498856D01*
X157916166Y-70495437D01*
X157893557Y-70489773D01*
X157871613Y-70481921D01*
X157850543Y-70471956D01*
X157830552Y-70459974D01*
X157811832Y-70446090D01*
X157794562Y-70430438D01*
X157778910Y-70413168D01*
X157765026Y-70394448D01*
X157753044Y-70374457D01*
X157743079Y-70353387D01*
X157735227Y-70331443D01*
X157729563Y-70308834D01*
X157726144Y-70285779D01*
X157725000Y-70262500D01*
X157725000Y-69687500D01*
X157726144Y-69664221D01*
X157729563Y-69641166D01*
X157735227Y-69618557D01*
X157743079Y-69596613D01*
X157753044Y-69575543D01*
X157765026Y-69555552D01*
X157778910Y-69536832D01*
X157794562Y-69519562D01*
X157811832Y-69503910D01*
X157830552Y-69490026D01*
X157850543Y-69478044D01*
X157871613Y-69468079D01*
X157893557Y-69460227D01*
X157916166Y-69454563D01*
X157939221Y-69451144D01*
X157962500Y-69450000D01*
X158437500Y-69450000D01*
X158460779Y-69451144D01*
X158460779Y-69451144D01*
G37*
D13*
X158200000Y-69975000D03*
D12*
G36*
X158460779Y-67701144D02*
G01*
X158483834Y-67704563D01*
X158506443Y-67710227D01*
X158528387Y-67718079D01*
X158549457Y-67728044D01*
X158569448Y-67740026D01*
X158588168Y-67753910D01*
X158605438Y-67769562D01*
X158621090Y-67786832D01*
X158634974Y-67805552D01*
X158646956Y-67825543D01*
X158656921Y-67846613D01*
X158664773Y-67868557D01*
X158670437Y-67891166D01*
X158673856Y-67914221D01*
X158675000Y-67937500D01*
X158675000Y-68512500D01*
X158673856Y-68535779D01*
X158670437Y-68558834D01*
X158664773Y-68581443D01*
X158656921Y-68603387D01*
X158646956Y-68624457D01*
X158634974Y-68644448D01*
X158621090Y-68663168D01*
X158605438Y-68680438D01*
X158588168Y-68696090D01*
X158569448Y-68709974D01*
X158549457Y-68721956D01*
X158528387Y-68731921D01*
X158506443Y-68739773D01*
X158483834Y-68745437D01*
X158460779Y-68748856D01*
X158437500Y-68750000D01*
X157962500Y-68750000D01*
X157939221Y-68748856D01*
X157916166Y-68745437D01*
X157893557Y-68739773D01*
X157871613Y-68731921D01*
X157850543Y-68721956D01*
X157830552Y-68709974D01*
X157811832Y-68696090D01*
X157794562Y-68680438D01*
X157778910Y-68663168D01*
X157765026Y-68644448D01*
X157753044Y-68624457D01*
X157743079Y-68603387D01*
X157735227Y-68581443D01*
X157729563Y-68558834D01*
X157726144Y-68535779D01*
X157725000Y-68512500D01*
X157725000Y-67937500D01*
X157726144Y-67914221D01*
X157729563Y-67891166D01*
X157735227Y-67868557D01*
X157743079Y-67846613D01*
X157753044Y-67825543D01*
X157765026Y-67805552D01*
X157778910Y-67786832D01*
X157794562Y-67769562D01*
X157811832Y-67753910D01*
X157830552Y-67740026D01*
X157850543Y-67728044D01*
X157871613Y-67718079D01*
X157893557Y-67710227D01*
X157916166Y-67704563D01*
X157939221Y-67701144D01*
X157962500Y-67700000D01*
X158437500Y-67700000D01*
X158460779Y-67701144D01*
X158460779Y-67701144D01*
G37*
D13*
X158200000Y-68225000D03*
D12*
G36*
X153210779Y-64576144D02*
G01*
X153233834Y-64579563D01*
X153256443Y-64585227D01*
X153278387Y-64593079D01*
X153299457Y-64603044D01*
X153319448Y-64615026D01*
X153338168Y-64628910D01*
X153355438Y-64644562D01*
X153371090Y-64661832D01*
X153384974Y-64680552D01*
X153396956Y-64700543D01*
X153406921Y-64721613D01*
X153414773Y-64743557D01*
X153420437Y-64766166D01*
X153423856Y-64789221D01*
X153425000Y-64812500D01*
X153425000Y-65387500D01*
X153423856Y-65410779D01*
X153420437Y-65433834D01*
X153414773Y-65456443D01*
X153406921Y-65478387D01*
X153396956Y-65499457D01*
X153384974Y-65519448D01*
X153371090Y-65538168D01*
X153355438Y-65555438D01*
X153338168Y-65571090D01*
X153319448Y-65584974D01*
X153299457Y-65596956D01*
X153278387Y-65606921D01*
X153256443Y-65614773D01*
X153233834Y-65620437D01*
X153210779Y-65623856D01*
X153187500Y-65625000D01*
X152712500Y-65625000D01*
X152689221Y-65623856D01*
X152666166Y-65620437D01*
X152643557Y-65614773D01*
X152621613Y-65606921D01*
X152600543Y-65596956D01*
X152580552Y-65584974D01*
X152561832Y-65571090D01*
X152544562Y-65555438D01*
X152528910Y-65538168D01*
X152515026Y-65519448D01*
X152503044Y-65499457D01*
X152493079Y-65478387D01*
X152485227Y-65456443D01*
X152479563Y-65433834D01*
X152476144Y-65410779D01*
X152475000Y-65387500D01*
X152475000Y-64812500D01*
X152476144Y-64789221D01*
X152479563Y-64766166D01*
X152485227Y-64743557D01*
X152493079Y-64721613D01*
X152503044Y-64700543D01*
X152515026Y-64680552D01*
X152528910Y-64661832D01*
X152544562Y-64644562D01*
X152561832Y-64628910D01*
X152580552Y-64615026D01*
X152600543Y-64603044D01*
X152621613Y-64593079D01*
X152643557Y-64585227D01*
X152666166Y-64579563D01*
X152689221Y-64576144D01*
X152712500Y-64575000D01*
X153187500Y-64575000D01*
X153210779Y-64576144D01*
X153210779Y-64576144D01*
G37*
D13*
X152950000Y-65100000D03*
D12*
G36*
X153210779Y-62826144D02*
G01*
X153233834Y-62829563D01*
X153256443Y-62835227D01*
X153278387Y-62843079D01*
X153299457Y-62853044D01*
X153319448Y-62865026D01*
X153338168Y-62878910D01*
X153355438Y-62894562D01*
X153371090Y-62911832D01*
X153384974Y-62930552D01*
X153396956Y-62950543D01*
X153406921Y-62971613D01*
X153414773Y-62993557D01*
X153420437Y-63016166D01*
X153423856Y-63039221D01*
X153425000Y-63062500D01*
X153425000Y-63637500D01*
X153423856Y-63660779D01*
X153420437Y-63683834D01*
X153414773Y-63706443D01*
X153406921Y-63728387D01*
X153396956Y-63749457D01*
X153384974Y-63769448D01*
X153371090Y-63788168D01*
X153355438Y-63805438D01*
X153338168Y-63821090D01*
X153319448Y-63834974D01*
X153299457Y-63846956D01*
X153278387Y-63856921D01*
X153256443Y-63864773D01*
X153233834Y-63870437D01*
X153210779Y-63873856D01*
X153187500Y-63875000D01*
X152712500Y-63875000D01*
X152689221Y-63873856D01*
X152666166Y-63870437D01*
X152643557Y-63864773D01*
X152621613Y-63856921D01*
X152600543Y-63846956D01*
X152580552Y-63834974D01*
X152561832Y-63821090D01*
X152544562Y-63805438D01*
X152528910Y-63788168D01*
X152515026Y-63769448D01*
X152503044Y-63749457D01*
X152493079Y-63728387D01*
X152485227Y-63706443D01*
X152479563Y-63683834D01*
X152476144Y-63660779D01*
X152475000Y-63637500D01*
X152475000Y-63062500D01*
X152476144Y-63039221D01*
X152479563Y-63016166D01*
X152485227Y-62993557D01*
X152493079Y-62971613D01*
X152503044Y-62950543D01*
X152515026Y-62930552D01*
X152528910Y-62911832D01*
X152544562Y-62894562D01*
X152561832Y-62878910D01*
X152580552Y-62865026D01*
X152600543Y-62853044D01*
X152621613Y-62843079D01*
X152643557Y-62835227D01*
X152666166Y-62829563D01*
X152689221Y-62826144D01*
X152712500Y-62825000D01*
X153187500Y-62825000D01*
X153210779Y-62826144D01*
X153210779Y-62826144D01*
G37*
D13*
X152950000Y-63350000D03*
D12*
G36*
X168885779Y-79676144D02*
G01*
X168908834Y-79679563D01*
X168931443Y-79685227D01*
X168953387Y-79693079D01*
X168974457Y-79703044D01*
X168994448Y-79715026D01*
X169013168Y-79728910D01*
X169030438Y-79744562D01*
X169046090Y-79761832D01*
X169059974Y-79780552D01*
X169071956Y-79800543D01*
X169081921Y-79821613D01*
X169089773Y-79843557D01*
X169095437Y-79866166D01*
X169098856Y-79889221D01*
X169100000Y-79912500D01*
X169100000Y-80387500D01*
X169098856Y-80410779D01*
X169095437Y-80433834D01*
X169089773Y-80456443D01*
X169081921Y-80478387D01*
X169071956Y-80499457D01*
X169059974Y-80519448D01*
X169046090Y-80538168D01*
X169030438Y-80555438D01*
X169013168Y-80571090D01*
X168994448Y-80584974D01*
X168974457Y-80596956D01*
X168953387Y-80606921D01*
X168931443Y-80614773D01*
X168908834Y-80620437D01*
X168885779Y-80623856D01*
X168862500Y-80625000D01*
X168287500Y-80625000D01*
X168264221Y-80623856D01*
X168241166Y-80620437D01*
X168218557Y-80614773D01*
X168196613Y-80606921D01*
X168175543Y-80596956D01*
X168155552Y-80584974D01*
X168136832Y-80571090D01*
X168119562Y-80555438D01*
X168103910Y-80538168D01*
X168090026Y-80519448D01*
X168078044Y-80499457D01*
X168068079Y-80478387D01*
X168060227Y-80456443D01*
X168054563Y-80433834D01*
X168051144Y-80410779D01*
X168050000Y-80387500D01*
X168050000Y-79912500D01*
X168051144Y-79889221D01*
X168054563Y-79866166D01*
X168060227Y-79843557D01*
X168068079Y-79821613D01*
X168078044Y-79800543D01*
X168090026Y-79780552D01*
X168103910Y-79761832D01*
X168119562Y-79744562D01*
X168136832Y-79728910D01*
X168155552Y-79715026D01*
X168175543Y-79703044D01*
X168196613Y-79693079D01*
X168218557Y-79685227D01*
X168241166Y-79679563D01*
X168264221Y-79676144D01*
X168287500Y-79675000D01*
X168862500Y-79675000D01*
X168885779Y-79676144D01*
X168885779Y-79676144D01*
G37*
D13*
X168575000Y-80150000D03*
D12*
G36*
X170635779Y-79676144D02*
G01*
X170658834Y-79679563D01*
X170681443Y-79685227D01*
X170703387Y-79693079D01*
X170724457Y-79703044D01*
X170744448Y-79715026D01*
X170763168Y-79728910D01*
X170780438Y-79744562D01*
X170796090Y-79761832D01*
X170809974Y-79780552D01*
X170821956Y-79800543D01*
X170831921Y-79821613D01*
X170839773Y-79843557D01*
X170845437Y-79866166D01*
X170848856Y-79889221D01*
X170850000Y-79912500D01*
X170850000Y-80387500D01*
X170848856Y-80410779D01*
X170845437Y-80433834D01*
X170839773Y-80456443D01*
X170831921Y-80478387D01*
X170821956Y-80499457D01*
X170809974Y-80519448D01*
X170796090Y-80538168D01*
X170780438Y-80555438D01*
X170763168Y-80571090D01*
X170744448Y-80584974D01*
X170724457Y-80596956D01*
X170703387Y-80606921D01*
X170681443Y-80614773D01*
X170658834Y-80620437D01*
X170635779Y-80623856D01*
X170612500Y-80625000D01*
X170037500Y-80625000D01*
X170014221Y-80623856D01*
X169991166Y-80620437D01*
X169968557Y-80614773D01*
X169946613Y-80606921D01*
X169925543Y-80596956D01*
X169905552Y-80584974D01*
X169886832Y-80571090D01*
X169869562Y-80555438D01*
X169853910Y-80538168D01*
X169840026Y-80519448D01*
X169828044Y-80499457D01*
X169818079Y-80478387D01*
X169810227Y-80456443D01*
X169804563Y-80433834D01*
X169801144Y-80410779D01*
X169800000Y-80387500D01*
X169800000Y-79912500D01*
X169801144Y-79889221D01*
X169804563Y-79866166D01*
X169810227Y-79843557D01*
X169818079Y-79821613D01*
X169828044Y-79800543D01*
X169840026Y-79780552D01*
X169853910Y-79761832D01*
X169869562Y-79744562D01*
X169886832Y-79728910D01*
X169905552Y-79715026D01*
X169925543Y-79703044D01*
X169946613Y-79693079D01*
X169968557Y-79685227D01*
X169991166Y-79679563D01*
X170014221Y-79676144D01*
X170037500Y-79675000D01*
X170612500Y-79675000D01*
X170635779Y-79676144D01*
X170635779Y-79676144D01*
G37*
D13*
X170325000Y-80150000D03*
D12*
G36*
X165510779Y-79676144D02*
G01*
X165533834Y-79679563D01*
X165556443Y-79685227D01*
X165578387Y-79693079D01*
X165599457Y-79703044D01*
X165619448Y-79715026D01*
X165638168Y-79728910D01*
X165655438Y-79744562D01*
X165671090Y-79761832D01*
X165684974Y-79780552D01*
X165696956Y-79800543D01*
X165706921Y-79821613D01*
X165714773Y-79843557D01*
X165720437Y-79866166D01*
X165723856Y-79889221D01*
X165725000Y-79912500D01*
X165725000Y-80387500D01*
X165723856Y-80410779D01*
X165720437Y-80433834D01*
X165714773Y-80456443D01*
X165706921Y-80478387D01*
X165696956Y-80499457D01*
X165684974Y-80519448D01*
X165671090Y-80538168D01*
X165655438Y-80555438D01*
X165638168Y-80571090D01*
X165619448Y-80584974D01*
X165599457Y-80596956D01*
X165578387Y-80606921D01*
X165556443Y-80614773D01*
X165533834Y-80620437D01*
X165510779Y-80623856D01*
X165487500Y-80625000D01*
X164912500Y-80625000D01*
X164889221Y-80623856D01*
X164866166Y-80620437D01*
X164843557Y-80614773D01*
X164821613Y-80606921D01*
X164800543Y-80596956D01*
X164780552Y-80584974D01*
X164761832Y-80571090D01*
X164744562Y-80555438D01*
X164728910Y-80538168D01*
X164715026Y-80519448D01*
X164703044Y-80499457D01*
X164693079Y-80478387D01*
X164685227Y-80456443D01*
X164679563Y-80433834D01*
X164676144Y-80410779D01*
X164675000Y-80387500D01*
X164675000Y-79912500D01*
X164676144Y-79889221D01*
X164679563Y-79866166D01*
X164685227Y-79843557D01*
X164693079Y-79821613D01*
X164703044Y-79800543D01*
X164715026Y-79780552D01*
X164728910Y-79761832D01*
X164744562Y-79744562D01*
X164761832Y-79728910D01*
X164780552Y-79715026D01*
X164800543Y-79703044D01*
X164821613Y-79693079D01*
X164843557Y-79685227D01*
X164866166Y-79679563D01*
X164889221Y-79676144D01*
X164912500Y-79675000D01*
X165487500Y-79675000D01*
X165510779Y-79676144D01*
X165510779Y-79676144D01*
G37*
D13*
X165200000Y-80150000D03*
D12*
G36*
X167260779Y-79676144D02*
G01*
X167283834Y-79679563D01*
X167306443Y-79685227D01*
X167328387Y-79693079D01*
X167349457Y-79703044D01*
X167369448Y-79715026D01*
X167388168Y-79728910D01*
X167405438Y-79744562D01*
X167421090Y-79761832D01*
X167434974Y-79780552D01*
X167446956Y-79800543D01*
X167456921Y-79821613D01*
X167464773Y-79843557D01*
X167470437Y-79866166D01*
X167473856Y-79889221D01*
X167475000Y-79912500D01*
X167475000Y-80387500D01*
X167473856Y-80410779D01*
X167470437Y-80433834D01*
X167464773Y-80456443D01*
X167456921Y-80478387D01*
X167446956Y-80499457D01*
X167434974Y-80519448D01*
X167421090Y-80538168D01*
X167405438Y-80555438D01*
X167388168Y-80571090D01*
X167369448Y-80584974D01*
X167349457Y-80596956D01*
X167328387Y-80606921D01*
X167306443Y-80614773D01*
X167283834Y-80620437D01*
X167260779Y-80623856D01*
X167237500Y-80625000D01*
X166662500Y-80625000D01*
X166639221Y-80623856D01*
X166616166Y-80620437D01*
X166593557Y-80614773D01*
X166571613Y-80606921D01*
X166550543Y-80596956D01*
X166530552Y-80584974D01*
X166511832Y-80571090D01*
X166494562Y-80555438D01*
X166478910Y-80538168D01*
X166465026Y-80519448D01*
X166453044Y-80499457D01*
X166443079Y-80478387D01*
X166435227Y-80456443D01*
X166429563Y-80433834D01*
X166426144Y-80410779D01*
X166425000Y-80387500D01*
X166425000Y-79912500D01*
X166426144Y-79889221D01*
X166429563Y-79866166D01*
X166435227Y-79843557D01*
X166443079Y-79821613D01*
X166453044Y-79800543D01*
X166465026Y-79780552D01*
X166478910Y-79761832D01*
X166494562Y-79744562D01*
X166511832Y-79728910D01*
X166530552Y-79715026D01*
X166550543Y-79703044D01*
X166571613Y-79693079D01*
X166593557Y-79685227D01*
X166616166Y-79679563D01*
X166639221Y-79676144D01*
X166662500Y-79675000D01*
X167237500Y-79675000D01*
X167260779Y-79676144D01*
X167260779Y-79676144D01*
G37*
D13*
X166950000Y-80150000D03*
D12*
G36*
X160010779Y-114851144D02*
G01*
X160033834Y-114854563D01*
X160056443Y-114860227D01*
X160078387Y-114868079D01*
X160099457Y-114878044D01*
X160119448Y-114890026D01*
X160138168Y-114903910D01*
X160155438Y-114919562D01*
X160171090Y-114936832D01*
X160184974Y-114955552D01*
X160196956Y-114975543D01*
X160206921Y-114996613D01*
X160214773Y-115018557D01*
X160220437Y-115041166D01*
X160223856Y-115064221D01*
X160225000Y-115087500D01*
X160225000Y-115662500D01*
X160223856Y-115685779D01*
X160220437Y-115708834D01*
X160214773Y-115731443D01*
X160206921Y-115753387D01*
X160196956Y-115774457D01*
X160184974Y-115794448D01*
X160171090Y-115813168D01*
X160155438Y-115830438D01*
X160138168Y-115846090D01*
X160119448Y-115859974D01*
X160099457Y-115871956D01*
X160078387Y-115881921D01*
X160056443Y-115889773D01*
X160033834Y-115895437D01*
X160010779Y-115898856D01*
X159987500Y-115900000D01*
X159512500Y-115900000D01*
X159489221Y-115898856D01*
X159466166Y-115895437D01*
X159443557Y-115889773D01*
X159421613Y-115881921D01*
X159400543Y-115871956D01*
X159380552Y-115859974D01*
X159361832Y-115846090D01*
X159344562Y-115830438D01*
X159328910Y-115813168D01*
X159315026Y-115794448D01*
X159303044Y-115774457D01*
X159293079Y-115753387D01*
X159285227Y-115731443D01*
X159279563Y-115708834D01*
X159276144Y-115685779D01*
X159275000Y-115662500D01*
X159275000Y-115087500D01*
X159276144Y-115064221D01*
X159279563Y-115041166D01*
X159285227Y-115018557D01*
X159293079Y-114996613D01*
X159303044Y-114975543D01*
X159315026Y-114955552D01*
X159328910Y-114936832D01*
X159344562Y-114919562D01*
X159361832Y-114903910D01*
X159380552Y-114890026D01*
X159400543Y-114878044D01*
X159421613Y-114868079D01*
X159443557Y-114860227D01*
X159466166Y-114854563D01*
X159489221Y-114851144D01*
X159512500Y-114850000D01*
X159987500Y-114850000D01*
X160010779Y-114851144D01*
X160010779Y-114851144D01*
G37*
D13*
X159750000Y-115375000D03*
D12*
G36*
X160010779Y-113101144D02*
G01*
X160033834Y-113104563D01*
X160056443Y-113110227D01*
X160078387Y-113118079D01*
X160099457Y-113128044D01*
X160119448Y-113140026D01*
X160138168Y-113153910D01*
X160155438Y-113169562D01*
X160171090Y-113186832D01*
X160184974Y-113205552D01*
X160196956Y-113225543D01*
X160206921Y-113246613D01*
X160214773Y-113268557D01*
X160220437Y-113291166D01*
X160223856Y-113314221D01*
X160225000Y-113337500D01*
X160225000Y-113912500D01*
X160223856Y-113935779D01*
X160220437Y-113958834D01*
X160214773Y-113981443D01*
X160206921Y-114003387D01*
X160196956Y-114024457D01*
X160184974Y-114044448D01*
X160171090Y-114063168D01*
X160155438Y-114080438D01*
X160138168Y-114096090D01*
X160119448Y-114109974D01*
X160099457Y-114121956D01*
X160078387Y-114131921D01*
X160056443Y-114139773D01*
X160033834Y-114145437D01*
X160010779Y-114148856D01*
X159987500Y-114150000D01*
X159512500Y-114150000D01*
X159489221Y-114148856D01*
X159466166Y-114145437D01*
X159443557Y-114139773D01*
X159421613Y-114131921D01*
X159400543Y-114121956D01*
X159380552Y-114109974D01*
X159361832Y-114096090D01*
X159344562Y-114080438D01*
X159328910Y-114063168D01*
X159315026Y-114044448D01*
X159303044Y-114024457D01*
X159293079Y-114003387D01*
X159285227Y-113981443D01*
X159279563Y-113958834D01*
X159276144Y-113935779D01*
X159275000Y-113912500D01*
X159275000Y-113337500D01*
X159276144Y-113314221D01*
X159279563Y-113291166D01*
X159285227Y-113268557D01*
X159293079Y-113246613D01*
X159303044Y-113225543D01*
X159315026Y-113205552D01*
X159328910Y-113186832D01*
X159344562Y-113169562D01*
X159361832Y-113153910D01*
X159380552Y-113140026D01*
X159400543Y-113128044D01*
X159421613Y-113118079D01*
X159443557Y-113110227D01*
X159466166Y-113104563D01*
X159489221Y-113101144D01*
X159512500Y-113100000D01*
X159987500Y-113100000D01*
X160010779Y-113101144D01*
X160010779Y-113101144D01*
G37*
D13*
X159750000Y-113625000D03*
D14*
X163500000Y-110250000D03*
X163500000Y-112150000D03*
X165500000Y-111200000D03*
D12*
G36*
X163649505Y-107051204D02*
G01*
X163673773Y-107054804D01*
X163697572Y-107060765D01*
X163720671Y-107069030D01*
X163742850Y-107079520D01*
X163763893Y-107092132D01*
X163783599Y-107106747D01*
X163801777Y-107123223D01*
X163818253Y-107141401D01*
X163832868Y-107161107D01*
X163845480Y-107182150D01*
X163855970Y-107204329D01*
X163864235Y-107227428D01*
X163870196Y-107251227D01*
X163873796Y-107275495D01*
X163875000Y-107299999D01*
X163875000Y-108200001D01*
X163873796Y-108224505D01*
X163870196Y-108248773D01*
X163864235Y-108272572D01*
X163855970Y-108295671D01*
X163845480Y-108317850D01*
X163832868Y-108338893D01*
X163818253Y-108358599D01*
X163801777Y-108376777D01*
X163783599Y-108393253D01*
X163763893Y-108407868D01*
X163742850Y-108420480D01*
X163720671Y-108430970D01*
X163697572Y-108439235D01*
X163673773Y-108445196D01*
X163649505Y-108448796D01*
X163625001Y-108450000D01*
X162974999Y-108450000D01*
X162950495Y-108448796D01*
X162926227Y-108445196D01*
X162902428Y-108439235D01*
X162879329Y-108430970D01*
X162857150Y-108420480D01*
X162836107Y-108407868D01*
X162816401Y-108393253D01*
X162798223Y-108376777D01*
X162781747Y-108358599D01*
X162767132Y-108338893D01*
X162754520Y-108317850D01*
X162744030Y-108295671D01*
X162735765Y-108272572D01*
X162729804Y-108248773D01*
X162726204Y-108224505D01*
X162725000Y-108200001D01*
X162725000Y-107299999D01*
X162726204Y-107275495D01*
X162729804Y-107251227D01*
X162735765Y-107227428D01*
X162744030Y-107204329D01*
X162754520Y-107182150D01*
X162767132Y-107161107D01*
X162781747Y-107141401D01*
X162798223Y-107123223D01*
X162816401Y-107106747D01*
X162836107Y-107092132D01*
X162857150Y-107079520D01*
X162879329Y-107069030D01*
X162902428Y-107060765D01*
X162926227Y-107054804D01*
X162950495Y-107051204D01*
X162974999Y-107050000D01*
X163625001Y-107050000D01*
X163649505Y-107051204D01*
X163649505Y-107051204D01*
G37*
D15*
X163300000Y-107750000D03*
D12*
G36*
X161599505Y-107051204D02*
G01*
X161623773Y-107054804D01*
X161647572Y-107060765D01*
X161670671Y-107069030D01*
X161692850Y-107079520D01*
X161713893Y-107092132D01*
X161733599Y-107106747D01*
X161751777Y-107123223D01*
X161768253Y-107141401D01*
X161782868Y-107161107D01*
X161795480Y-107182150D01*
X161805970Y-107204329D01*
X161814235Y-107227428D01*
X161820196Y-107251227D01*
X161823796Y-107275495D01*
X161825000Y-107299999D01*
X161825000Y-108200001D01*
X161823796Y-108224505D01*
X161820196Y-108248773D01*
X161814235Y-108272572D01*
X161805970Y-108295671D01*
X161795480Y-108317850D01*
X161782868Y-108338893D01*
X161768253Y-108358599D01*
X161751777Y-108376777D01*
X161733599Y-108393253D01*
X161713893Y-108407868D01*
X161692850Y-108420480D01*
X161670671Y-108430970D01*
X161647572Y-108439235D01*
X161623773Y-108445196D01*
X161599505Y-108448796D01*
X161575001Y-108450000D01*
X160924999Y-108450000D01*
X160900495Y-108448796D01*
X160876227Y-108445196D01*
X160852428Y-108439235D01*
X160829329Y-108430970D01*
X160807150Y-108420480D01*
X160786107Y-108407868D01*
X160766401Y-108393253D01*
X160748223Y-108376777D01*
X160731747Y-108358599D01*
X160717132Y-108338893D01*
X160704520Y-108317850D01*
X160694030Y-108295671D01*
X160685765Y-108272572D01*
X160679804Y-108248773D01*
X160676204Y-108224505D01*
X160675000Y-108200001D01*
X160675000Y-107299999D01*
X160676204Y-107275495D01*
X160679804Y-107251227D01*
X160685765Y-107227428D01*
X160694030Y-107204329D01*
X160704520Y-107182150D01*
X160717132Y-107161107D01*
X160731747Y-107141401D01*
X160748223Y-107123223D01*
X160766401Y-107106747D01*
X160786107Y-107092132D01*
X160807150Y-107079520D01*
X160829329Y-107069030D01*
X160852428Y-107060765D01*
X160876227Y-107054804D01*
X160900495Y-107051204D01*
X160924999Y-107050000D01*
X161575001Y-107050000D01*
X161599505Y-107051204D01*
X161599505Y-107051204D01*
G37*
D15*
X161250000Y-107750000D03*
D12*
G36*
X163674505Y-69576204D02*
G01*
X163698773Y-69579804D01*
X163722572Y-69585765D01*
X163745671Y-69594030D01*
X163767850Y-69604520D01*
X163788893Y-69617132D01*
X163808599Y-69631747D01*
X163826777Y-69648223D01*
X163843253Y-69666401D01*
X163857868Y-69686107D01*
X163870480Y-69707150D01*
X163880970Y-69729329D01*
X163889235Y-69752428D01*
X163895196Y-69776227D01*
X163898796Y-69800495D01*
X163900000Y-69824999D01*
X163900000Y-70475001D01*
X163898796Y-70499505D01*
X163895196Y-70523773D01*
X163889235Y-70547572D01*
X163880970Y-70570671D01*
X163870480Y-70592850D01*
X163857868Y-70613893D01*
X163843253Y-70633599D01*
X163826777Y-70651777D01*
X163808599Y-70668253D01*
X163788893Y-70682868D01*
X163767850Y-70695480D01*
X163745671Y-70705970D01*
X163722572Y-70714235D01*
X163698773Y-70720196D01*
X163674505Y-70723796D01*
X163650001Y-70725000D01*
X162749999Y-70725000D01*
X162725495Y-70723796D01*
X162701227Y-70720196D01*
X162677428Y-70714235D01*
X162654329Y-70705970D01*
X162632150Y-70695480D01*
X162611107Y-70682868D01*
X162591401Y-70668253D01*
X162573223Y-70651777D01*
X162556747Y-70633599D01*
X162542132Y-70613893D01*
X162529520Y-70592850D01*
X162519030Y-70570671D01*
X162510765Y-70547572D01*
X162504804Y-70523773D01*
X162501204Y-70499505D01*
X162500000Y-70475001D01*
X162500000Y-69824999D01*
X162501204Y-69800495D01*
X162504804Y-69776227D01*
X162510765Y-69752428D01*
X162519030Y-69729329D01*
X162529520Y-69707150D01*
X162542132Y-69686107D01*
X162556747Y-69666401D01*
X162573223Y-69648223D01*
X162591401Y-69631747D01*
X162611107Y-69617132D01*
X162632150Y-69604520D01*
X162654329Y-69594030D01*
X162677428Y-69585765D01*
X162701227Y-69579804D01*
X162725495Y-69576204D01*
X162749999Y-69575000D01*
X163650001Y-69575000D01*
X163674505Y-69576204D01*
X163674505Y-69576204D01*
G37*
D15*
X163200000Y-70150000D03*
D12*
G36*
X163674505Y-67526204D02*
G01*
X163698773Y-67529804D01*
X163722572Y-67535765D01*
X163745671Y-67544030D01*
X163767850Y-67554520D01*
X163788893Y-67567132D01*
X163808599Y-67581747D01*
X163826777Y-67598223D01*
X163843253Y-67616401D01*
X163857868Y-67636107D01*
X163870480Y-67657150D01*
X163880970Y-67679329D01*
X163889235Y-67702428D01*
X163895196Y-67726227D01*
X163898796Y-67750495D01*
X163900000Y-67774999D01*
X163900000Y-68425001D01*
X163898796Y-68449505D01*
X163895196Y-68473773D01*
X163889235Y-68497572D01*
X163880970Y-68520671D01*
X163870480Y-68542850D01*
X163857868Y-68563893D01*
X163843253Y-68583599D01*
X163826777Y-68601777D01*
X163808599Y-68618253D01*
X163788893Y-68632868D01*
X163767850Y-68645480D01*
X163745671Y-68655970D01*
X163722572Y-68664235D01*
X163698773Y-68670196D01*
X163674505Y-68673796D01*
X163650001Y-68675000D01*
X162749999Y-68675000D01*
X162725495Y-68673796D01*
X162701227Y-68670196D01*
X162677428Y-68664235D01*
X162654329Y-68655970D01*
X162632150Y-68645480D01*
X162611107Y-68632868D01*
X162591401Y-68618253D01*
X162573223Y-68601777D01*
X162556747Y-68583599D01*
X162542132Y-68563893D01*
X162529520Y-68542850D01*
X162519030Y-68520671D01*
X162510765Y-68497572D01*
X162504804Y-68473773D01*
X162501204Y-68449505D01*
X162500000Y-68425001D01*
X162500000Y-67774999D01*
X162501204Y-67750495D01*
X162504804Y-67726227D01*
X162510765Y-67702428D01*
X162519030Y-67679329D01*
X162529520Y-67657150D01*
X162542132Y-67636107D01*
X162556747Y-67616401D01*
X162573223Y-67598223D01*
X162591401Y-67581747D01*
X162611107Y-67567132D01*
X162632150Y-67554520D01*
X162654329Y-67544030D01*
X162677428Y-67535765D01*
X162701227Y-67529804D01*
X162725495Y-67526204D01*
X162749999Y-67525000D01*
X163650001Y-67525000D01*
X163674505Y-67526204D01*
X163674505Y-67526204D01*
G37*
D15*
X163200000Y-68100000D03*
D12*
G36*
X161174505Y-69526204D02*
G01*
X161198773Y-69529804D01*
X161222572Y-69535765D01*
X161245671Y-69544030D01*
X161267850Y-69554520D01*
X161288893Y-69567132D01*
X161308599Y-69581747D01*
X161326777Y-69598223D01*
X161343253Y-69616401D01*
X161357868Y-69636107D01*
X161370480Y-69657150D01*
X161380970Y-69679329D01*
X161389235Y-69702428D01*
X161395196Y-69726227D01*
X161398796Y-69750495D01*
X161400000Y-69774999D01*
X161400000Y-70425001D01*
X161398796Y-70449505D01*
X161395196Y-70473773D01*
X161389235Y-70497572D01*
X161380970Y-70520671D01*
X161370480Y-70542850D01*
X161357868Y-70563893D01*
X161343253Y-70583599D01*
X161326777Y-70601777D01*
X161308599Y-70618253D01*
X161288893Y-70632868D01*
X161267850Y-70645480D01*
X161245671Y-70655970D01*
X161222572Y-70664235D01*
X161198773Y-70670196D01*
X161174505Y-70673796D01*
X161150001Y-70675000D01*
X160249999Y-70675000D01*
X160225495Y-70673796D01*
X160201227Y-70670196D01*
X160177428Y-70664235D01*
X160154329Y-70655970D01*
X160132150Y-70645480D01*
X160111107Y-70632868D01*
X160091401Y-70618253D01*
X160073223Y-70601777D01*
X160056747Y-70583599D01*
X160042132Y-70563893D01*
X160029520Y-70542850D01*
X160019030Y-70520671D01*
X160010765Y-70497572D01*
X160004804Y-70473773D01*
X160001204Y-70449505D01*
X160000000Y-70425001D01*
X160000000Y-69774999D01*
X160001204Y-69750495D01*
X160004804Y-69726227D01*
X160010765Y-69702428D01*
X160019030Y-69679329D01*
X160029520Y-69657150D01*
X160042132Y-69636107D01*
X160056747Y-69616401D01*
X160073223Y-69598223D01*
X160091401Y-69581747D01*
X160111107Y-69567132D01*
X160132150Y-69554520D01*
X160154329Y-69544030D01*
X160177428Y-69535765D01*
X160201227Y-69529804D01*
X160225495Y-69526204D01*
X160249999Y-69525000D01*
X161150001Y-69525000D01*
X161174505Y-69526204D01*
X161174505Y-69526204D01*
G37*
D15*
X160700000Y-70100000D03*
D12*
G36*
X161174505Y-67476204D02*
G01*
X161198773Y-67479804D01*
X161222572Y-67485765D01*
X161245671Y-67494030D01*
X161267850Y-67504520D01*
X161288893Y-67517132D01*
X161308599Y-67531747D01*
X161326777Y-67548223D01*
X161343253Y-67566401D01*
X161357868Y-67586107D01*
X161370480Y-67607150D01*
X161380970Y-67629329D01*
X161389235Y-67652428D01*
X161395196Y-67676227D01*
X161398796Y-67700495D01*
X161400000Y-67724999D01*
X161400000Y-68375001D01*
X161398796Y-68399505D01*
X161395196Y-68423773D01*
X161389235Y-68447572D01*
X161380970Y-68470671D01*
X161370480Y-68492850D01*
X161357868Y-68513893D01*
X161343253Y-68533599D01*
X161326777Y-68551777D01*
X161308599Y-68568253D01*
X161288893Y-68582868D01*
X161267850Y-68595480D01*
X161245671Y-68605970D01*
X161222572Y-68614235D01*
X161198773Y-68620196D01*
X161174505Y-68623796D01*
X161150001Y-68625000D01*
X160249999Y-68625000D01*
X160225495Y-68623796D01*
X160201227Y-68620196D01*
X160177428Y-68614235D01*
X160154329Y-68605970D01*
X160132150Y-68595480D01*
X160111107Y-68582868D01*
X160091401Y-68568253D01*
X160073223Y-68551777D01*
X160056747Y-68533599D01*
X160042132Y-68513893D01*
X160029520Y-68492850D01*
X160019030Y-68470671D01*
X160010765Y-68447572D01*
X160004804Y-68423773D01*
X160001204Y-68399505D01*
X160000000Y-68375001D01*
X160000000Y-67724999D01*
X160001204Y-67700495D01*
X160004804Y-67676227D01*
X160010765Y-67652428D01*
X160019030Y-67629329D01*
X160029520Y-67607150D01*
X160042132Y-67586107D01*
X160056747Y-67566401D01*
X160073223Y-67548223D01*
X160091401Y-67531747D01*
X160111107Y-67517132D01*
X160132150Y-67504520D01*
X160154329Y-67494030D01*
X160177428Y-67485765D01*
X160201227Y-67479804D01*
X160225495Y-67476204D01*
X160249999Y-67475000D01*
X161150001Y-67475000D01*
X161174505Y-67476204D01*
X161174505Y-67476204D01*
G37*
D15*
X160700000Y-68050000D03*
D12*
G36*
X158460105Y-64526204D02*
G01*
X158484373Y-64529804D01*
X158508172Y-64535765D01*
X158531271Y-64544030D01*
X158553450Y-64554520D01*
X158574493Y-64567132D01*
X158594199Y-64581747D01*
X158612377Y-64598223D01*
X158628853Y-64616401D01*
X158643468Y-64636107D01*
X158656080Y-64657150D01*
X158666570Y-64679329D01*
X158674835Y-64702428D01*
X158680796Y-64726227D01*
X158684396Y-64750495D01*
X158685600Y-64774999D01*
X158685600Y-65425001D01*
X158684396Y-65449505D01*
X158680796Y-65473773D01*
X158674835Y-65497572D01*
X158666570Y-65520671D01*
X158656080Y-65542850D01*
X158643468Y-65563893D01*
X158628853Y-65583599D01*
X158612377Y-65601777D01*
X158594199Y-65618253D01*
X158574493Y-65632868D01*
X158553450Y-65645480D01*
X158531271Y-65655970D01*
X158508172Y-65664235D01*
X158484373Y-65670196D01*
X158460105Y-65673796D01*
X158435601Y-65675000D01*
X157535599Y-65675000D01*
X157511095Y-65673796D01*
X157486827Y-65670196D01*
X157463028Y-65664235D01*
X157439929Y-65655970D01*
X157417750Y-65645480D01*
X157396707Y-65632868D01*
X157377001Y-65618253D01*
X157358823Y-65601777D01*
X157342347Y-65583599D01*
X157327732Y-65563893D01*
X157315120Y-65542850D01*
X157304630Y-65520671D01*
X157296365Y-65497572D01*
X157290404Y-65473773D01*
X157286804Y-65449505D01*
X157285600Y-65425001D01*
X157285600Y-64774999D01*
X157286804Y-64750495D01*
X157290404Y-64726227D01*
X157296365Y-64702428D01*
X157304630Y-64679329D01*
X157315120Y-64657150D01*
X157327732Y-64636107D01*
X157342347Y-64616401D01*
X157358823Y-64598223D01*
X157377001Y-64581747D01*
X157396707Y-64567132D01*
X157417750Y-64554520D01*
X157439929Y-64544030D01*
X157463028Y-64535765D01*
X157486827Y-64529804D01*
X157511095Y-64526204D01*
X157535599Y-64525000D01*
X158435601Y-64525000D01*
X158460105Y-64526204D01*
X158460105Y-64526204D01*
G37*
D15*
X157985600Y-65100000D03*
D12*
G36*
X158460105Y-62476204D02*
G01*
X158484373Y-62479804D01*
X158508172Y-62485765D01*
X158531271Y-62494030D01*
X158553450Y-62504520D01*
X158574493Y-62517132D01*
X158594199Y-62531747D01*
X158612377Y-62548223D01*
X158628853Y-62566401D01*
X158643468Y-62586107D01*
X158656080Y-62607150D01*
X158666570Y-62629329D01*
X158674835Y-62652428D01*
X158680796Y-62676227D01*
X158684396Y-62700495D01*
X158685600Y-62724999D01*
X158685600Y-63375001D01*
X158684396Y-63399505D01*
X158680796Y-63423773D01*
X158674835Y-63447572D01*
X158666570Y-63470671D01*
X158656080Y-63492850D01*
X158643468Y-63513893D01*
X158628853Y-63533599D01*
X158612377Y-63551777D01*
X158594199Y-63568253D01*
X158574493Y-63582868D01*
X158553450Y-63595480D01*
X158531271Y-63605970D01*
X158508172Y-63614235D01*
X158484373Y-63620196D01*
X158460105Y-63623796D01*
X158435601Y-63625000D01*
X157535599Y-63625000D01*
X157511095Y-63623796D01*
X157486827Y-63620196D01*
X157463028Y-63614235D01*
X157439929Y-63605970D01*
X157417750Y-63595480D01*
X157396707Y-63582868D01*
X157377001Y-63568253D01*
X157358823Y-63551777D01*
X157342347Y-63533599D01*
X157327732Y-63513893D01*
X157315120Y-63492850D01*
X157304630Y-63470671D01*
X157296365Y-63447572D01*
X157290404Y-63423773D01*
X157286804Y-63399505D01*
X157285600Y-63375001D01*
X157285600Y-62724999D01*
X157286804Y-62700495D01*
X157290404Y-62676227D01*
X157296365Y-62652428D01*
X157304630Y-62629329D01*
X157315120Y-62607150D01*
X157327732Y-62586107D01*
X157342347Y-62566401D01*
X157358823Y-62548223D01*
X157377001Y-62531747D01*
X157396707Y-62517132D01*
X157417750Y-62504520D01*
X157439929Y-62494030D01*
X157463028Y-62485765D01*
X157486827Y-62479804D01*
X157511095Y-62476204D01*
X157535599Y-62475000D01*
X158435601Y-62475000D01*
X158460105Y-62476204D01*
X158460105Y-62476204D01*
G37*
D15*
X157985600Y-63050000D03*
D12*
G36*
X155924505Y-64526204D02*
G01*
X155948773Y-64529804D01*
X155972572Y-64535765D01*
X155995671Y-64544030D01*
X156017850Y-64554520D01*
X156038893Y-64567132D01*
X156058599Y-64581747D01*
X156076777Y-64598223D01*
X156093253Y-64616401D01*
X156107868Y-64636107D01*
X156120480Y-64657150D01*
X156130970Y-64679329D01*
X156139235Y-64702428D01*
X156145196Y-64726227D01*
X156148796Y-64750495D01*
X156150000Y-64774999D01*
X156150000Y-65425001D01*
X156148796Y-65449505D01*
X156145196Y-65473773D01*
X156139235Y-65497572D01*
X156130970Y-65520671D01*
X156120480Y-65542850D01*
X156107868Y-65563893D01*
X156093253Y-65583599D01*
X156076777Y-65601777D01*
X156058599Y-65618253D01*
X156038893Y-65632868D01*
X156017850Y-65645480D01*
X155995671Y-65655970D01*
X155972572Y-65664235D01*
X155948773Y-65670196D01*
X155924505Y-65673796D01*
X155900001Y-65675000D01*
X154999999Y-65675000D01*
X154975495Y-65673796D01*
X154951227Y-65670196D01*
X154927428Y-65664235D01*
X154904329Y-65655970D01*
X154882150Y-65645480D01*
X154861107Y-65632868D01*
X154841401Y-65618253D01*
X154823223Y-65601777D01*
X154806747Y-65583599D01*
X154792132Y-65563893D01*
X154779520Y-65542850D01*
X154769030Y-65520671D01*
X154760765Y-65497572D01*
X154754804Y-65473773D01*
X154751204Y-65449505D01*
X154750000Y-65425001D01*
X154750000Y-64774999D01*
X154751204Y-64750495D01*
X154754804Y-64726227D01*
X154760765Y-64702428D01*
X154769030Y-64679329D01*
X154779520Y-64657150D01*
X154792132Y-64636107D01*
X154806747Y-64616401D01*
X154823223Y-64598223D01*
X154841401Y-64581747D01*
X154861107Y-64567132D01*
X154882150Y-64554520D01*
X154904329Y-64544030D01*
X154927428Y-64535765D01*
X154951227Y-64529804D01*
X154975495Y-64526204D01*
X154999999Y-64525000D01*
X155900001Y-64525000D01*
X155924505Y-64526204D01*
X155924505Y-64526204D01*
G37*
D15*
X155450000Y-65100000D03*
D12*
G36*
X155924505Y-62476204D02*
G01*
X155948773Y-62479804D01*
X155972572Y-62485765D01*
X155995671Y-62494030D01*
X156017850Y-62504520D01*
X156038893Y-62517132D01*
X156058599Y-62531747D01*
X156076777Y-62548223D01*
X156093253Y-62566401D01*
X156107868Y-62586107D01*
X156120480Y-62607150D01*
X156130970Y-62629329D01*
X156139235Y-62652428D01*
X156145196Y-62676227D01*
X156148796Y-62700495D01*
X156150000Y-62724999D01*
X156150000Y-63375001D01*
X156148796Y-63399505D01*
X156145196Y-63423773D01*
X156139235Y-63447572D01*
X156130970Y-63470671D01*
X156120480Y-63492850D01*
X156107868Y-63513893D01*
X156093253Y-63533599D01*
X156076777Y-63551777D01*
X156058599Y-63568253D01*
X156038893Y-63582868D01*
X156017850Y-63595480D01*
X155995671Y-63605970D01*
X155972572Y-63614235D01*
X155948773Y-63620196D01*
X155924505Y-63623796D01*
X155900001Y-63625000D01*
X154999999Y-63625000D01*
X154975495Y-63623796D01*
X154951227Y-63620196D01*
X154927428Y-63614235D01*
X154904329Y-63605970D01*
X154882150Y-63595480D01*
X154861107Y-63582868D01*
X154841401Y-63568253D01*
X154823223Y-63551777D01*
X154806747Y-63533599D01*
X154792132Y-63513893D01*
X154779520Y-63492850D01*
X154769030Y-63470671D01*
X154760765Y-63447572D01*
X154754804Y-63423773D01*
X154751204Y-63399505D01*
X154750000Y-63375001D01*
X154750000Y-62724999D01*
X154751204Y-62700495D01*
X154754804Y-62676227D01*
X154760765Y-62652428D01*
X154769030Y-62629329D01*
X154779520Y-62607150D01*
X154792132Y-62586107D01*
X154806747Y-62566401D01*
X154823223Y-62548223D01*
X154841401Y-62531747D01*
X154861107Y-62517132D01*
X154882150Y-62504520D01*
X154904329Y-62494030D01*
X154927428Y-62485765D01*
X154951227Y-62479804D01*
X154975495Y-62476204D01*
X154999999Y-62475000D01*
X155900001Y-62475000D01*
X155924505Y-62476204D01*
X155924505Y-62476204D01*
G37*
D15*
X155450000Y-63050000D03*
D12*
G36*
X157474505Y-108251204D02*
G01*
X157498773Y-108254804D01*
X157522572Y-108260765D01*
X157545671Y-108269030D01*
X157567850Y-108279520D01*
X157588893Y-108292132D01*
X157608599Y-108306747D01*
X157626777Y-108323223D01*
X157643253Y-108341401D01*
X157657868Y-108361107D01*
X157670480Y-108382150D01*
X157680970Y-108404329D01*
X157689235Y-108427428D01*
X157695196Y-108451227D01*
X157698796Y-108475495D01*
X157700000Y-108499999D01*
X157700000Y-109150001D01*
X157698796Y-109174505D01*
X157695196Y-109198773D01*
X157689235Y-109222572D01*
X157680970Y-109245671D01*
X157670480Y-109267850D01*
X157657868Y-109288893D01*
X157643253Y-109308599D01*
X157626777Y-109326777D01*
X157608599Y-109343253D01*
X157588893Y-109357868D01*
X157567850Y-109370480D01*
X157545671Y-109380970D01*
X157522572Y-109389235D01*
X157498773Y-109395196D01*
X157474505Y-109398796D01*
X157450001Y-109400000D01*
X156549999Y-109400000D01*
X156525495Y-109398796D01*
X156501227Y-109395196D01*
X156477428Y-109389235D01*
X156454329Y-109380970D01*
X156432150Y-109370480D01*
X156411107Y-109357868D01*
X156391401Y-109343253D01*
X156373223Y-109326777D01*
X156356747Y-109308599D01*
X156342132Y-109288893D01*
X156329520Y-109267850D01*
X156319030Y-109245671D01*
X156310765Y-109222572D01*
X156304804Y-109198773D01*
X156301204Y-109174505D01*
X156300000Y-109150001D01*
X156300000Y-108499999D01*
X156301204Y-108475495D01*
X156304804Y-108451227D01*
X156310765Y-108427428D01*
X156319030Y-108404329D01*
X156329520Y-108382150D01*
X156342132Y-108361107D01*
X156356747Y-108341401D01*
X156373223Y-108323223D01*
X156391401Y-108306747D01*
X156411107Y-108292132D01*
X156432150Y-108279520D01*
X156454329Y-108269030D01*
X156477428Y-108260765D01*
X156501227Y-108254804D01*
X156525495Y-108251204D01*
X156549999Y-108250000D01*
X157450001Y-108250000D01*
X157474505Y-108251204D01*
X157474505Y-108251204D01*
G37*
D15*
X157000000Y-108825000D03*
D12*
G36*
X157474505Y-106201204D02*
G01*
X157498773Y-106204804D01*
X157522572Y-106210765D01*
X157545671Y-106219030D01*
X157567850Y-106229520D01*
X157588893Y-106242132D01*
X157608599Y-106256747D01*
X157626777Y-106273223D01*
X157643253Y-106291401D01*
X157657868Y-106311107D01*
X157670480Y-106332150D01*
X157680970Y-106354329D01*
X157689235Y-106377428D01*
X157695196Y-106401227D01*
X157698796Y-106425495D01*
X157700000Y-106449999D01*
X157700000Y-107100001D01*
X157698796Y-107124505D01*
X157695196Y-107148773D01*
X157689235Y-107172572D01*
X157680970Y-107195671D01*
X157670480Y-107217850D01*
X157657868Y-107238893D01*
X157643253Y-107258599D01*
X157626777Y-107276777D01*
X157608599Y-107293253D01*
X157588893Y-107307868D01*
X157567850Y-107320480D01*
X157545671Y-107330970D01*
X157522572Y-107339235D01*
X157498773Y-107345196D01*
X157474505Y-107348796D01*
X157450001Y-107350000D01*
X156549999Y-107350000D01*
X156525495Y-107348796D01*
X156501227Y-107345196D01*
X156477428Y-107339235D01*
X156454329Y-107330970D01*
X156432150Y-107320480D01*
X156411107Y-107307868D01*
X156391401Y-107293253D01*
X156373223Y-107276777D01*
X156356747Y-107258599D01*
X156342132Y-107238893D01*
X156329520Y-107217850D01*
X156319030Y-107195671D01*
X156310765Y-107172572D01*
X156304804Y-107148773D01*
X156301204Y-107124505D01*
X156300000Y-107100001D01*
X156300000Y-106449999D01*
X156301204Y-106425495D01*
X156304804Y-106401227D01*
X156310765Y-106377428D01*
X156319030Y-106354329D01*
X156329520Y-106332150D01*
X156342132Y-106311107D01*
X156356747Y-106291401D01*
X156373223Y-106273223D01*
X156391401Y-106256747D01*
X156411107Y-106242132D01*
X156432150Y-106229520D01*
X156454329Y-106219030D01*
X156477428Y-106210765D01*
X156501227Y-106204804D01*
X156525495Y-106201204D01*
X156549999Y-106200000D01*
X157450001Y-106200000D01*
X157474505Y-106201204D01*
X157474505Y-106201204D01*
G37*
D15*
X157000000Y-106775000D03*
D12*
G36*
X159674505Y-108251204D02*
G01*
X159698773Y-108254804D01*
X159722572Y-108260765D01*
X159745671Y-108269030D01*
X159767850Y-108279520D01*
X159788893Y-108292132D01*
X159808599Y-108306747D01*
X159826777Y-108323223D01*
X159843253Y-108341401D01*
X159857868Y-108361107D01*
X159870480Y-108382150D01*
X159880970Y-108404329D01*
X159889235Y-108427428D01*
X159895196Y-108451227D01*
X159898796Y-108475495D01*
X159900000Y-108499999D01*
X159900000Y-109150001D01*
X159898796Y-109174505D01*
X159895196Y-109198773D01*
X159889235Y-109222572D01*
X159880970Y-109245671D01*
X159870480Y-109267850D01*
X159857868Y-109288893D01*
X159843253Y-109308599D01*
X159826777Y-109326777D01*
X159808599Y-109343253D01*
X159788893Y-109357868D01*
X159767850Y-109370480D01*
X159745671Y-109380970D01*
X159722572Y-109389235D01*
X159698773Y-109395196D01*
X159674505Y-109398796D01*
X159650001Y-109400000D01*
X158749999Y-109400000D01*
X158725495Y-109398796D01*
X158701227Y-109395196D01*
X158677428Y-109389235D01*
X158654329Y-109380970D01*
X158632150Y-109370480D01*
X158611107Y-109357868D01*
X158591401Y-109343253D01*
X158573223Y-109326777D01*
X158556747Y-109308599D01*
X158542132Y-109288893D01*
X158529520Y-109267850D01*
X158519030Y-109245671D01*
X158510765Y-109222572D01*
X158504804Y-109198773D01*
X158501204Y-109174505D01*
X158500000Y-109150001D01*
X158500000Y-108499999D01*
X158501204Y-108475495D01*
X158504804Y-108451227D01*
X158510765Y-108427428D01*
X158519030Y-108404329D01*
X158529520Y-108382150D01*
X158542132Y-108361107D01*
X158556747Y-108341401D01*
X158573223Y-108323223D01*
X158591401Y-108306747D01*
X158611107Y-108292132D01*
X158632150Y-108279520D01*
X158654329Y-108269030D01*
X158677428Y-108260765D01*
X158701227Y-108254804D01*
X158725495Y-108251204D01*
X158749999Y-108250000D01*
X159650001Y-108250000D01*
X159674505Y-108251204D01*
X159674505Y-108251204D01*
G37*
D15*
X159200000Y-108825000D03*
D12*
G36*
X159674505Y-106201204D02*
G01*
X159698773Y-106204804D01*
X159722572Y-106210765D01*
X159745671Y-106219030D01*
X159767850Y-106229520D01*
X159788893Y-106242132D01*
X159808599Y-106256747D01*
X159826777Y-106273223D01*
X159843253Y-106291401D01*
X159857868Y-106311107D01*
X159870480Y-106332150D01*
X159880970Y-106354329D01*
X159889235Y-106377428D01*
X159895196Y-106401227D01*
X159898796Y-106425495D01*
X159900000Y-106449999D01*
X159900000Y-107100001D01*
X159898796Y-107124505D01*
X159895196Y-107148773D01*
X159889235Y-107172572D01*
X159880970Y-107195671D01*
X159870480Y-107217850D01*
X159857868Y-107238893D01*
X159843253Y-107258599D01*
X159826777Y-107276777D01*
X159808599Y-107293253D01*
X159788893Y-107307868D01*
X159767850Y-107320480D01*
X159745671Y-107330970D01*
X159722572Y-107339235D01*
X159698773Y-107345196D01*
X159674505Y-107348796D01*
X159650001Y-107350000D01*
X158749999Y-107350000D01*
X158725495Y-107348796D01*
X158701227Y-107345196D01*
X158677428Y-107339235D01*
X158654329Y-107330970D01*
X158632150Y-107320480D01*
X158611107Y-107307868D01*
X158591401Y-107293253D01*
X158573223Y-107276777D01*
X158556747Y-107258599D01*
X158542132Y-107238893D01*
X158529520Y-107217850D01*
X158519030Y-107195671D01*
X158510765Y-107172572D01*
X158504804Y-107148773D01*
X158501204Y-107124505D01*
X158500000Y-107100001D01*
X158500000Y-106449999D01*
X158501204Y-106425495D01*
X158504804Y-106401227D01*
X158510765Y-106377428D01*
X158519030Y-106354329D01*
X158529520Y-106332150D01*
X158542132Y-106311107D01*
X158556747Y-106291401D01*
X158573223Y-106273223D01*
X158591401Y-106256747D01*
X158611107Y-106242132D01*
X158632150Y-106229520D01*
X158654329Y-106219030D01*
X158677428Y-106210765D01*
X158701227Y-106204804D01*
X158725495Y-106201204D01*
X158749999Y-106200000D01*
X159650001Y-106200000D01*
X159674505Y-106201204D01*
X159674505Y-106201204D01*
G37*
D15*
X159200000Y-106775000D03*
D16*
X155825000Y-113750000D03*
X155825000Y-114250000D03*
X155825000Y-114750000D03*
X155825000Y-115250000D03*
X158175000Y-113750000D03*
X158175000Y-114250000D03*
X158175000Y-114750000D03*
X158175000Y-115250000D03*
M02*
