M48
; DRILL file {KiCad (5.1.4)-1} date 23/08/2023 10:41:50
; FORMAT={-:-/ absolute / inch / decimal}
; #@! TF.CreationDate,2023-08-23T10:41:50+02:00
; #@! TF.GenerationSoftware,Kicad,Pcbnew,(5.1.4)-1
; #@! TF.FileFunction,Plated,1,2,PTH
FMAT,2
INCH
T1C0.0157
T2C0.0300
T3C0.0315
T4C0.0394
T5C0.0472
%
G90
G05
T1
X6.1772Y-4.0236
X6.1811Y-3.8583
X6.2205Y-4.0827
X6.3189Y-4.1732
X6.3465Y-4.3071
X6.3622Y-3.0984
X6.3661Y-4.374
X6.4094Y-4.4606
X6.4872Y-3.5128
X6.5039Y-3.3917
X6.5157Y-3.248
X6.5197Y-3.0531
X6.5453Y-3.9429
X6.5945Y-4.2913
X6.6142Y-3.7402
X6.6437Y-3.685
X6.6732Y-4.4685
X6.6909Y-3.2539
X6.9291Y-3.9921
T2
X6.43Y-2.998
X6.622Y-2.998
T4
X6.848Y-2.841
X6.848Y-2.941
X6.848Y-3.041
X6.848Y-3.141
X6.848Y-3.241
X6.848Y-3.341
X6.848Y-3.441
X6.848Y-3.541
X6.848Y-3.641
X6.848Y-3.741
X6.848Y-3.841
X6.848Y-3.941
X6.848Y-4.041
X6.848Y-4.141
X6.2106Y-2.2524
X6.2106Y-2.3524
X6.0485Y-2.8415
X6.0485Y-2.9415
X6.0485Y-3.0415
X6.0485Y-3.1415
X6.0485Y-3.2415
X6.0485Y-3.3415
X6.0485Y-3.4415
X6.0485Y-3.5415
X6.0485Y-3.6415
X6.0485Y-3.7415
X6.0485Y-3.8415
X6.0485Y-3.9415
X6.0485Y-4.0415
X6.0485Y-4.1415
T5
X7.0621Y-3.397
X7.0621Y-3.6726
X7.2669Y-3.5348
X7.2669Y-3.8104
X7.063Y-2.7264
X7.063Y-3.002
X7.2677Y-2.8642
X7.2677Y-3.1398
X7.063Y-2.0571
X7.063Y-2.3327
X7.2677Y-2.1949
X7.2677Y-2.4705
X7.072Y-4.059
X7.072Y-4.3346
X7.2767Y-4.1968
X7.2767Y-4.4724
T3
G00X6.3858Y-2.3504
M15
G01X6.3858Y-2.437
M16
G05
G00X6.6181Y-2.2835
M15
G01X6.5315Y-2.2835
M16
G05
G00X6.6181Y-2.5118
M15
G01X6.5315Y-2.5118
M16
G05
T0
M30
