G04 #@! TF.GenerationSoftware,KiCad,Pcbnew,(5.1.4)-1*
G04 #@! TF.CreationDate,2023-08-23T10:41:25+02:00*
G04 #@! TF.ProjectId,BeeWeight_MKRWAN_V4,42656557-6569-4676-9874-5f4d4b525741,V4*
G04 #@! TF.SameCoordinates,Original*
G04 #@! TF.FileFunction,Soldermask,Top*
G04 #@! TF.FilePolarity,Negative*
%FSLAX46Y46*%
G04 Gerber Fmt 4.6, Leading zero omitted, Abs format (unit mm)*
G04 Created by KiCad (PCBNEW (5.1.4)-1) date 2023-08-23 10:41:25*
%MOMM*%
%LPD*%
G04 APERTURE LIST*
%ADD10C,0.100000*%
G04 APERTURE END LIST*
D10*
G36*
X160114499Y-114803445D02*
G01*
X160151995Y-114814820D01*
X160186554Y-114833292D01*
X160216847Y-114858153D01*
X160241708Y-114888446D01*
X160260180Y-114923005D01*
X160271555Y-114960501D01*
X160276000Y-115005638D01*
X160276000Y-115744362D01*
X160271555Y-115789499D01*
X160260180Y-115826995D01*
X160241708Y-115861554D01*
X160216847Y-115891847D01*
X160186554Y-115916708D01*
X160151995Y-115935180D01*
X160114499Y-115946555D01*
X160069362Y-115951000D01*
X159430638Y-115951000D01*
X159385501Y-115946555D01*
X159348005Y-115935180D01*
X159313446Y-115916708D01*
X159283153Y-115891847D01*
X159258292Y-115861554D01*
X159239820Y-115826995D01*
X159228445Y-115789499D01*
X159224000Y-115744362D01*
X159224000Y-115005638D01*
X159228445Y-114960501D01*
X159239820Y-114923005D01*
X159258292Y-114888446D01*
X159283153Y-114858153D01*
X159313446Y-114833292D01*
X159348005Y-114814820D01*
X159385501Y-114803445D01*
X159430638Y-114799000D01*
X160069362Y-114799000D01*
X160114499Y-114803445D01*
X160114499Y-114803445D01*
G37*
G36*
X164359999Y-113949737D02*
G01*
X164369608Y-113952652D01*
X164378472Y-113957390D01*
X164386237Y-113963763D01*
X164396448Y-113976206D01*
X164403378Y-113986575D01*
X164420705Y-114003902D01*
X164441080Y-114017515D01*
X164463720Y-114026891D01*
X164487753Y-114031671D01*
X164512257Y-114031670D01*
X164536290Y-114026888D01*
X164558929Y-114017510D01*
X164579302Y-114003895D01*
X164596629Y-113986568D01*
X164603558Y-113976198D01*
X164613763Y-113963763D01*
X164621528Y-113957390D01*
X164630392Y-113952652D01*
X164640001Y-113949737D01*
X164656140Y-113948148D01*
X165143861Y-113948148D01*
X165162199Y-113949954D01*
X165174450Y-113950556D01*
X165192869Y-113950556D01*
X165215149Y-113952750D01*
X165299233Y-113969476D01*
X165320660Y-113975976D01*
X165399858Y-114008780D01*
X165405303Y-114011691D01*
X165405309Y-114011693D01*
X165414169Y-114016429D01*
X165414173Y-114016432D01*
X165419614Y-114019340D01*
X165490899Y-114066971D01*
X165508204Y-114081172D01*
X165568828Y-114141796D01*
X165583029Y-114159101D01*
X165630660Y-114230386D01*
X165633568Y-114235827D01*
X165633571Y-114235831D01*
X165638307Y-114244691D01*
X165638309Y-114244697D01*
X165641220Y-114250142D01*
X165674024Y-114329340D01*
X165680524Y-114350767D01*
X165697250Y-114434851D01*
X165699444Y-114457131D01*
X165699444Y-114475550D01*
X165700046Y-114487801D01*
X165701852Y-114506139D01*
X165701852Y-114993862D01*
X165700046Y-115012199D01*
X165699444Y-115024450D01*
X165699444Y-115042869D01*
X165697250Y-115065149D01*
X165680524Y-115149233D01*
X165674024Y-115170660D01*
X165641220Y-115249858D01*
X165638309Y-115255303D01*
X165638307Y-115255309D01*
X165633571Y-115264169D01*
X165633568Y-115264173D01*
X165630660Y-115269614D01*
X165583029Y-115340899D01*
X165568828Y-115358204D01*
X165508204Y-115418828D01*
X165490899Y-115433029D01*
X165419614Y-115480660D01*
X165414173Y-115483568D01*
X165414169Y-115483571D01*
X165405309Y-115488307D01*
X165405303Y-115488309D01*
X165399858Y-115491220D01*
X165320660Y-115524024D01*
X165299233Y-115530524D01*
X165215149Y-115547250D01*
X165192869Y-115549444D01*
X165174450Y-115549444D01*
X165162199Y-115550046D01*
X165143862Y-115551852D01*
X164656140Y-115551852D01*
X164640001Y-115550263D01*
X164630392Y-115547348D01*
X164621528Y-115542610D01*
X164613763Y-115536237D01*
X164603552Y-115523794D01*
X164596622Y-115513425D01*
X164579295Y-115496098D01*
X164558920Y-115482485D01*
X164536280Y-115473109D01*
X164512247Y-115468329D01*
X164487743Y-115468330D01*
X164463710Y-115473112D01*
X164441071Y-115482490D01*
X164420698Y-115496105D01*
X164403371Y-115513432D01*
X164396442Y-115523802D01*
X164386237Y-115536237D01*
X164378472Y-115542610D01*
X164369608Y-115547348D01*
X164359999Y-115550263D01*
X164343860Y-115551852D01*
X163856138Y-115551852D01*
X163837801Y-115550046D01*
X163825550Y-115549444D01*
X163807131Y-115549444D01*
X163784851Y-115547250D01*
X163700767Y-115530524D01*
X163679340Y-115524024D01*
X163600142Y-115491220D01*
X163594697Y-115488309D01*
X163594691Y-115488307D01*
X163585831Y-115483571D01*
X163585827Y-115483568D01*
X163580386Y-115480660D01*
X163509101Y-115433029D01*
X163491796Y-115418828D01*
X163431172Y-115358204D01*
X163416971Y-115340899D01*
X163369340Y-115269614D01*
X163366432Y-115264173D01*
X163366429Y-115264169D01*
X163361693Y-115255309D01*
X163361691Y-115255303D01*
X163358780Y-115249858D01*
X163325976Y-115170660D01*
X163319476Y-115149233D01*
X163302750Y-115065149D01*
X163300556Y-115042869D01*
X163300556Y-115024450D01*
X163299954Y-115012199D01*
X163298148Y-114993862D01*
X163298148Y-114506139D01*
X163299954Y-114487801D01*
X163300556Y-114475550D01*
X163300556Y-114457131D01*
X163302750Y-114434851D01*
X163319476Y-114350767D01*
X163325976Y-114329340D01*
X163358780Y-114250142D01*
X163361691Y-114244697D01*
X163361693Y-114244691D01*
X163366429Y-114235831D01*
X163366432Y-114235827D01*
X163369340Y-114230386D01*
X163416971Y-114159101D01*
X163431172Y-114141796D01*
X163491796Y-114081172D01*
X163509101Y-114066971D01*
X163580386Y-114019340D01*
X163585827Y-114016432D01*
X163585831Y-114016429D01*
X163594691Y-114011693D01*
X163594697Y-114011691D01*
X163600142Y-114008780D01*
X163679340Y-113975976D01*
X163700767Y-113969476D01*
X163784851Y-113952750D01*
X163807131Y-113950556D01*
X163825550Y-113950556D01*
X163837801Y-113949954D01*
X163856139Y-113948148D01*
X164343860Y-113948148D01*
X164359999Y-113949737D01*
X164359999Y-113949737D01*
G37*
G36*
X158501000Y-115426000D02*
G01*
X157849000Y-115426000D01*
X157849000Y-113574000D01*
X158501000Y-113574000D01*
X158501000Y-115426000D01*
X158501000Y-115426000D01*
G37*
G36*
X156151000Y-115426000D02*
G01*
X155499000Y-115426000D01*
X155499000Y-113574000D01*
X156151000Y-113574000D01*
X156151000Y-115426000D01*
X156151000Y-115426000D01*
G37*
G36*
X157551000Y-115401000D02*
G01*
X156449000Y-115401000D01*
X156449000Y-113599000D01*
X157551000Y-113599000D01*
X157551000Y-115401000D01*
X157551000Y-115401000D01*
G37*
G36*
X185105695Y-112684746D02*
G01*
X185278766Y-112756434D01*
X185278767Y-112756435D01*
X185434527Y-112860510D01*
X185566990Y-112992973D01*
X185566991Y-112992975D01*
X185671066Y-113148734D01*
X185742754Y-113321805D01*
X185779300Y-113505533D01*
X185779300Y-113692867D01*
X185742754Y-113876595D01*
X185671066Y-114049666D01*
X185650014Y-114081172D01*
X185566990Y-114205427D01*
X185434527Y-114337890D01*
X185415255Y-114350767D01*
X185278766Y-114441966D01*
X185105695Y-114513654D01*
X184921967Y-114550200D01*
X184734633Y-114550200D01*
X184550905Y-114513654D01*
X184377834Y-114441966D01*
X184241345Y-114350767D01*
X184222073Y-114337890D01*
X184089610Y-114205427D01*
X184006586Y-114081172D01*
X183985534Y-114049666D01*
X183913846Y-113876595D01*
X183877300Y-113692867D01*
X183877300Y-113505533D01*
X183913846Y-113321805D01*
X183985534Y-113148734D01*
X184089609Y-112992975D01*
X184089610Y-112992973D01*
X184222073Y-112860510D01*
X184377833Y-112756435D01*
X184377834Y-112756434D01*
X184550905Y-112684746D01*
X184734633Y-112648200D01*
X184921967Y-112648200D01*
X185105695Y-112684746D01*
X185105695Y-112684746D01*
G37*
G36*
X160114499Y-113053445D02*
G01*
X160151995Y-113064820D01*
X160186554Y-113083292D01*
X160216847Y-113108153D01*
X160241708Y-113138446D01*
X160260180Y-113173005D01*
X160271555Y-113210501D01*
X160276000Y-113255638D01*
X160276000Y-113994362D01*
X160271555Y-114039499D01*
X160260180Y-114076995D01*
X160241708Y-114111554D01*
X160216847Y-114141847D01*
X160186554Y-114166708D01*
X160151995Y-114185180D01*
X160114499Y-114196555D01*
X160069362Y-114201000D01*
X159430638Y-114201000D01*
X159385501Y-114196555D01*
X159348005Y-114185180D01*
X159313446Y-114166708D01*
X159283153Y-114141847D01*
X159258292Y-114111554D01*
X159239820Y-114076995D01*
X159228445Y-114039499D01*
X159224000Y-113994362D01*
X159224000Y-113255638D01*
X159228445Y-113210501D01*
X159239820Y-113173005D01*
X159258292Y-113138446D01*
X159283153Y-113108153D01*
X159313446Y-113083292D01*
X159348005Y-113064820D01*
X159385501Y-113053445D01*
X159430638Y-113049000D01*
X160069362Y-113049000D01*
X160114499Y-113053445D01*
X160114499Y-113053445D01*
G37*
G36*
X164001000Y-112601000D02*
G01*
X162999000Y-112601000D01*
X162999000Y-111699000D01*
X164001000Y-111699000D01*
X164001000Y-112601000D01*
X164001000Y-112601000D01*
G37*
G36*
X166001000Y-111651000D02*
G01*
X164999000Y-111651000D01*
X164999000Y-110749000D01*
X166001000Y-110749000D01*
X166001000Y-111651000D01*
X166001000Y-111651000D01*
G37*
G36*
X179905695Y-109184746D02*
G01*
X180078766Y-109256434D01*
X180078767Y-109256435D01*
X180234527Y-109360510D01*
X180366990Y-109492973D01*
X180366991Y-109492975D01*
X180471066Y-109648734D01*
X180542754Y-109821805D01*
X180579300Y-110005533D01*
X180579300Y-110192867D01*
X180542754Y-110376595D01*
X180471066Y-110549666D01*
X180471065Y-110549667D01*
X180366990Y-110705427D01*
X180234527Y-110837890D01*
X180156118Y-110890281D01*
X180078766Y-110941966D01*
X179905695Y-111013654D01*
X179721967Y-111050200D01*
X179534633Y-111050200D01*
X179350905Y-111013654D01*
X179177834Y-110941966D01*
X179100482Y-110890281D01*
X179022073Y-110837890D01*
X178889610Y-110705427D01*
X178785535Y-110549667D01*
X178785534Y-110549666D01*
X178713846Y-110376595D01*
X178677300Y-110192867D01*
X178677300Y-110005533D01*
X178713846Y-109821805D01*
X178785534Y-109648734D01*
X178889609Y-109492975D01*
X178889610Y-109492973D01*
X179022073Y-109360510D01*
X179177833Y-109256435D01*
X179177834Y-109256434D01*
X179350905Y-109184746D01*
X179534633Y-109148200D01*
X179721967Y-109148200D01*
X179905695Y-109184746D01*
X179905695Y-109184746D01*
G37*
G36*
X164001000Y-110701000D02*
G01*
X162999000Y-110701000D01*
X162999000Y-109799000D01*
X164001000Y-109799000D01*
X164001000Y-110701000D01*
X164001000Y-110701000D01*
G37*
G36*
X159788674Y-108203465D02*
G01*
X159826367Y-108214899D01*
X159861103Y-108233466D01*
X159891548Y-108258452D01*
X159916534Y-108288897D01*
X159935101Y-108323633D01*
X159946535Y-108361326D01*
X159951000Y-108406661D01*
X159951000Y-109243339D01*
X159946535Y-109288674D01*
X159935101Y-109326367D01*
X159916534Y-109361103D01*
X159891548Y-109391548D01*
X159861103Y-109416534D01*
X159826367Y-109435101D01*
X159788674Y-109446535D01*
X159743339Y-109451000D01*
X158656661Y-109451000D01*
X158611326Y-109446535D01*
X158573633Y-109435101D01*
X158538897Y-109416534D01*
X158508452Y-109391548D01*
X158483466Y-109361103D01*
X158464899Y-109326367D01*
X158453465Y-109288674D01*
X158449000Y-109243339D01*
X158449000Y-108406661D01*
X158453465Y-108361326D01*
X158464899Y-108323633D01*
X158483466Y-108288897D01*
X158508452Y-108258452D01*
X158538897Y-108233466D01*
X158573633Y-108214899D01*
X158611326Y-108203465D01*
X158656661Y-108199000D01*
X159743339Y-108199000D01*
X159788674Y-108203465D01*
X159788674Y-108203465D01*
G37*
G36*
X157588674Y-108203465D02*
G01*
X157626367Y-108214899D01*
X157661103Y-108233466D01*
X157691548Y-108258452D01*
X157716534Y-108288897D01*
X157735101Y-108323633D01*
X157746535Y-108361326D01*
X157751000Y-108406661D01*
X157751000Y-109243339D01*
X157746535Y-109288674D01*
X157735101Y-109326367D01*
X157716534Y-109361103D01*
X157691548Y-109391548D01*
X157661103Y-109416534D01*
X157626367Y-109435101D01*
X157588674Y-109446535D01*
X157543339Y-109451000D01*
X156456661Y-109451000D01*
X156411326Y-109446535D01*
X156373633Y-109435101D01*
X156338897Y-109416534D01*
X156308452Y-109391548D01*
X156283466Y-109361103D01*
X156264899Y-109326367D01*
X156253465Y-109288674D01*
X156249000Y-109243339D01*
X156249000Y-108406661D01*
X156253465Y-108361326D01*
X156264899Y-108323633D01*
X156283466Y-108288897D01*
X156308452Y-108258452D01*
X156338897Y-108233466D01*
X156373633Y-108214899D01*
X156411326Y-108203465D01*
X156456661Y-108199000D01*
X157543339Y-108199000D01*
X157588674Y-108203465D01*
X157588674Y-108203465D01*
G37*
G36*
X163763674Y-107003465D02*
G01*
X163801367Y-107014899D01*
X163836103Y-107033466D01*
X163866548Y-107058452D01*
X163891534Y-107088897D01*
X163910101Y-107123633D01*
X163921535Y-107161326D01*
X163926000Y-107206661D01*
X163926000Y-108293339D01*
X163921535Y-108338674D01*
X163910101Y-108376367D01*
X163891534Y-108411103D01*
X163866548Y-108441548D01*
X163836103Y-108466534D01*
X163801367Y-108485101D01*
X163763674Y-108496535D01*
X163718339Y-108501000D01*
X162881661Y-108501000D01*
X162836326Y-108496535D01*
X162798633Y-108485101D01*
X162763897Y-108466534D01*
X162733452Y-108441548D01*
X162708466Y-108411103D01*
X162689899Y-108376367D01*
X162678465Y-108338674D01*
X162674000Y-108293339D01*
X162674000Y-107206661D01*
X162678465Y-107161326D01*
X162689899Y-107123633D01*
X162708466Y-107088897D01*
X162733452Y-107058452D01*
X162763897Y-107033466D01*
X162798633Y-107014899D01*
X162836326Y-107003465D01*
X162881661Y-106999000D01*
X163718339Y-106999000D01*
X163763674Y-107003465D01*
X163763674Y-107003465D01*
G37*
G36*
X161713674Y-107003465D02*
G01*
X161751367Y-107014899D01*
X161786103Y-107033466D01*
X161816548Y-107058452D01*
X161841534Y-107088897D01*
X161860101Y-107123633D01*
X161871535Y-107161326D01*
X161876000Y-107206661D01*
X161876000Y-108293339D01*
X161871535Y-108338674D01*
X161860101Y-108376367D01*
X161841534Y-108411103D01*
X161816548Y-108441548D01*
X161786103Y-108466534D01*
X161751367Y-108485101D01*
X161713674Y-108496535D01*
X161668339Y-108501000D01*
X160831661Y-108501000D01*
X160786326Y-108496535D01*
X160748633Y-108485101D01*
X160713897Y-108466534D01*
X160683452Y-108441548D01*
X160658466Y-108411103D01*
X160639899Y-108376367D01*
X160628465Y-108338674D01*
X160624000Y-108293339D01*
X160624000Y-107206661D01*
X160628465Y-107161326D01*
X160639899Y-107123633D01*
X160658466Y-107088897D01*
X160683452Y-107058452D01*
X160713897Y-107033466D01*
X160748633Y-107014899D01*
X160786326Y-107003465D01*
X160831661Y-106999000D01*
X161668339Y-106999000D01*
X161713674Y-107003465D01*
X161713674Y-107003465D01*
G37*
G36*
X185105695Y-105684746D02*
G01*
X185278766Y-105756434D01*
X185278767Y-105756435D01*
X185434527Y-105860510D01*
X185566990Y-105992973D01*
X185566991Y-105992975D01*
X185671066Y-106148734D01*
X185742754Y-106321805D01*
X185779300Y-106505533D01*
X185779300Y-106692867D01*
X185742754Y-106876595D01*
X185671066Y-107049666D01*
X185624096Y-107119962D01*
X185566990Y-107205427D01*
X185434527Y-107337890D01*
X185363870Y-107385101D01*
X185278766Y-107441966D01*
X185105695Y-107513654D01*
X184921967Y-107550200D01*
X184734633Y-107550200D01*
X184550905Y-107513654D01*
X184377834Y-107441966D01*
X184292730Y-107385101D01*
X184222073Y-107337890D01*
X184089610Y-107205427D01*
X184032504Y-107119962D01*
X183985534Y-107049666D01*
X183913846Y-106876595D01*
X183877300Y-106692867D01*
X183877300Y-106505533D01*
X183913846Y-106321805D01*
X183985534Y-106148734D01*
X184089609Y-105992975D01*
X184089610Y-105992973D01*
X184222073Y-105860510D01*
X184377833Y-105756435D01*
X184377834Y-105756434D01*
X184550905Y-105684746D01*
X184734633Y-105648200D01*
X184921967Y-105648200D01*
X185105695Y-105684746D01*
X185105695Y-105684746D01*
G37*
G36*
X157588674Y-106153465D02*
G01*
X157626367Y-106164899D01*
X157661103Y-106183466D01*
X157691548Y-106208452D01*
X157716534Y-106238897D01*
X157735101Y-106273633D01*
X157746535Y-106311326D01*
X157751000Y-106356661D01*
X157751000Y-107193339D01*
X157746535Y-107238674D01*
X157735101Y-107276367D01*
X157716534Y-107311103D01*
X157691548Y-107341548D01*
X157661103Y-107366534D01*
X157626367Y-107385101D01*
X157588674Y-107396535D01*
X157543339Y-107401000D01*
X156456661Y-107401000D01*
X156411326Y-107396535D01*
X156373633Y-107385101D01*
X156338897Y-107366534D01*
X156308452Y-107341548D01*
X156283466Y-107311103D01*
X156264899Y-107276367D01*
X156253465Y-107238674D01*
X156249000Y-107193339D01*
X156249000Y-106356661D01*
X156253465Y-106311326D01*
X156264899Y-106273633D01*
X156283466Y-106238897D01*
X156308452Y-106208452D01*
X156338897Y-106183466D01*
X156373633Y-106164899D01*
X156411326Y-106153465D01*
X156456661Y-106149000D01*
X157543339Y-106149000D01*
X157588674Y-106153465D01*
X157588674Y-106153465D01*
G37*
G36*
X159788674Y-106153465D02*
G01*
X159826367Y-106164899D01*
X159861103Y-106183466D01*
X159891548Y-106208452D01*
X159916534Y-106238897D01*
X159935101Y-106273633D01*
X159946535Y-106311326D01*
X159951000Y-106356661D01*
X159951000Y-107193339D01*
X159946535Y-107238674D01*
X159935101Y-107276367D01*
X159916534Y-107311103D01*
X159891548Y-107341548D01*
X159861103Y-107366534D01*
X159826367Y-107385101D01*
X159788674Y-107396535D01*
X159743339Y-107401000D01*
X158656661Y-107401000D01*
X158611326Y-107396535D01*
X158573633Y-107385101D01*
X158538897Y-107366534D01*
X158508452Y-107341548D01*
X158483466Y-107311103D01*
X158464899Y-107276367D01*
X158453465Y-107238674D01*
X158449000Y-107193339D01*
X158449000Y-106356661D01*
X158453465Y-106311326D01*
X158464899Y-106273633D01*
X158483466Y-106238897D01*
X158508452Y-106208452D01*
X158538897Y-106183466D01*
X158573633Y-106164899D01*
X158611326Y-106153465D01*
X158656661Y-106149000D01*
X159743339Y-106149000D01*
X159788674Y-106153465D01*
X159788674Y-106153465D01*
G37*
G36*
X153742343Y-104299619D02*
G01*
X153808527Y-104306137D01*
X153978366Y-104357657D01*
X154134891Y-104441322D01*
X154170629Y-104470652D01*
X154272086Y-104553914D01*
X154355348Y-104655371D01*
X154384678Y-104691109D01*
X154468343Y-104847634D01*
X154519863Y-105017473D01*
X154537259Y-105194100D01*
X154519863Y-105370727D01*
X154468343Y-105540566D01*
X154384678Y-105697091D01*
X154355348Y-105732829D01*
X154272086Y-105834286D01*
X154170629Y-105917548D01*
X154134891Y-105946878D01*
X153978366Y-106030543D01*
X153808527Y-106082063D01*
X153742342Y-106088582D01*
X153676160Y-106095100D01*
X153587640Y-106095100D01*
X153521458Y-106088582D01*
X153455273Y-106082063D01*
X153285434Y-106030543D01*
X153128909Y-105946878D01*
X153093171Y-105917548D01*
X152991714Y-105834286D01*
X152908452Y-105732829D01*
X152879122Y-105697091D01*
X152795457Y-105540566D01*
X152743937Y-105370727D01*
X152726541Y-105194100D01*
X152743937Y-105017473D01*
X152795457Y-104847634D01*
X152879122Y-104691109D01*
X152908452Y-104655371D01*
X152991714Y-104553914D01*
X153093171Y-104470652D01*
X153128909Y-104441322D01*
X153285434Y-104357657D01*
X153455273Y-104306137D01*
X153521458Y-104299618D01*
X153587640Y-104293100D01*
X153676160Y-104293100D01*
X153742343Y-104299619D01*
X153742343Y-104299619D01*
G37*
G36*
X174840200Y-106082400D02*
G01*
X173038200Y-106082400D01*
X173038200Y-104280400D01*
X174840200Y-104280400D01*
X174840200Y-106082400D01*
X174840200Y-106082400D01*
G37*
G36*
X179905695Y-102184746D02*
G01*
X180078766Y-102256434D01*
X180078767Y-102256435D01*
X180234527Y-102360510D01*
X180366990Y-102492973D01*
X180366991Y-102492975D01*
X180471066Y-102648734D01*
X180542754Y-102821805D01*
X180579300Y-103005533D01*
X180579300Y-103192867D01*
X180542754Y-103376595D01*
X180471066Y-103549666D01*
X180471065Y-103549667D01*
X180366990Y-103705427D01*
X180234527Y-103837890D01*
X180156118Y-103890281D01*
X180078766Y-103941966D01*
X179905695Y-104013654D01*
X179721967Y-104050200D01*
X179534633Y-104050200D01*
X179350905Y-104013654D01*
X179177834Y-103941966D01*
X179100482Y-103890281D01*
X179022073Y-103837890D01*
X178889610Y-103705427D01*
X178785535Y-103549667D01*
X178785534Y-103549666D01*
X178713846Y-103376595D01*
X178677300Y-103192867D01*
X178677300Y-103005533D01*
X178713846Y-102821805D01*
X178785534Y-102648734D01*
X178889609Y-102492975D01*
X178889610Y-102492973D01*
X179022073Y-102360510D01*
X179177833Y-102256435D01*
X179177834Y-102256434D01*
X179350905Y-102184746D01*
X179534633Y-102148200D01*
X179721967Y-102148200D01*
X179905695Y-102184746D01*
X179905695Y-102184746D01*
G37*
G36*
X153742343Y-101759619D02*
G01*
X153808527Y-101766137D01*
X153978366Y-101817657D01*
X154134891Y-101901322D01*
X154170629Y-101930652D01*
X154272086Y-102013914D01*
X154355348Y-102115371D01*
X154384678Y-102151109D01*
X154468343Y-102307634D01*
X154519863Y-102477473D01*
X154537259Y-102654100D01*
X154519863Y-102830727D01*
X154468343Y-103000566D01*
X154384678Y-103157091D01*
X154355348Y-103192829D01*
X154272086Y-103294286D01*
X154171791Y-103376595D01*
X154134891Y-103406878D01*
X153978366Y-103490543D01*
X153808527Y-103542063D01*
X153742343Y-103548581D01*
X153676160Y-103555100D01*
X153587640Y-103555100D01*
X153521457Y-103548581D01*
X153455273Y-103542063D01*
X153285434Y-103490543D01*
X153128909Y-103406878D01*
X153092009Y-103376595D01*
X152991714Y-103294286D01*
X152908452Y-103192829D01*
X152879122Y-103157091D01*
X152795457Y-103000566D01*
X152743937Y-102830727D01*
X152726541Y-102654100D01*
X152743937Y-102477473D01*
X152795457Y-102307634D01*
X152879122Y-102151109D01*
X152908452Y-102115371D01*
X152991714Y-102013914D01*
X153093171Y-101930652D01*
X153128909Y-101901322D01*
X153285434Y-101817657D01*
X153455273Y-101766137D01*
X153521457Y-101759619D01*
X153587640Y-101753100D01*
X153676160Y-101753100D01*
X153742343Y-101759619D01*
X153742343Y-101759619D01*
G37*
G36*
X174049642Y-101746918D02*
G01*
X174115827Y-101753437D01*
X174285666Y-101804957D01*
X174442191Y-101888622D01*
X174477929Y-101917952D01*
X174579386Y-102001214D01*
X174662648Y-102102671D01*
X174691978Y-102138409D01*
X174775643Y-102294934D01*
X174827163Y-102464773D01*
X174844559Y-102641400D01*
X174827163Y-102818027D01*
X174775643Y-102987866D01*
X174691978Y-103144391D01*
X174681557Y-103157089D01*
X174579386Y-103281586D01*
X174477929Y-103364848D01*
X174442191Y-103394178D01*
X174285666Y-103477843D01*
X174115827Y-103529363D01*
X174049643Y-103535881D01*
X173983460Y-103542400D01*
X173894940Y-103542400D01*
X173828758Y-103535882D01*
X173762573Y-103529363D01*
X173592734Y-103477843D01*
X173436209Y-103394178D01*
X173400471Y-103364848D01*
X173299014Y-103281586D01*
X173196843Y-103157089D01*
X173186422Y-103144391D01*
X173102757Y-102987866D01*
X173051237Y-102818027D01*
X173033841Y-102641400D01*
X173051237Y-102464773D01*
X173102757Y-102294934D01*
X173186422Y-102138409D01*
X173215752Y-102102671D01*
X173299014Y-102001214D01*
X173400471Y-101917952D01*
X173436209Y-101888622D01*
X173592734Y-101804957D01*
X173762573Y-101753437D01*
X173828758Y-101746918D01*
X173894940Y-101740400D01*
X173983460Y-101740400D01*
X174049642Y-101746918D01*
X174049642Y-101746918D01*
G37*
G36*
X153742342Y-99219618D02*
G01*
X153808527Y-99226137D01*
X153978366Y-99277657D01*
X154134891Y-99361322D01*
X154170629Y-99390652D01*
X154272086Y-99473914D01*
X154355348Y-99575371D01*
X154384678Y-99611109D01*
X154468343Y-99767634D01*
X154519863Y-99937473D01*
X154537259Y-100114100D01*
X154519863Y-100290727D01*
X154468343Y-100460566D01*
X154384678Y-100617091D01*
X154355348Y-100652829D01*
X154272086Y-100754286D01*
X154170629Y-100837548D01*
X154134891Y-100866878D01*
X153978366Y-100950543D01*
X153808527Y-101002063D01*
X153742343Y-101008581D01*
X153676160Y-101015100D01*
X153587640Y-101015100D01*
X153521458Y-101008582D01*
X153455273Y-101002063D01*
X153285434Y-100950543D01*
X153128909Y-100866878D01*
X153093171Y-100837548D01*
X152991714Y-100754286D01*
X152908452Y-100652829D01*
X152879122Y-100617091D01*
X152795457Y-100460566D01*
X152743937Y-100290727D01*
X152726541Y-100114100D01*
X152743937Y-99937473D01*
X152795457Y-99767634D01*
X152879122Y-99611109D01*
X152908452Y-99575371D01*
X152991714Y-99473914D01*
X153093171Y-99390652D01*
X153128909Y-99361322D01*
X153285434Y-99277657D01*
X153455273Y-99226137D01*
X153521458Y-99219618D01*
X153587640Y-99213100D01*
X153676160Y-99213100D01*
X153742342Y-99219618D01*
X153742342Y-99219618D01*
G37*
G36*
X174049643Y-99206919D02*
G01*
X174115827Y-99213437D01*
X174285666Y-99264957D01*
X174442191Y-99348622D01*
X174477929Y-99377952D01*
X174579386Y-99461214D01*
X174662648Y-99562671D01*
X174691978Y-99598409D01*
X174775643Y-99754934D01*
X174827163Y-99924773D01*
X174844559Y-100101400D01*
X174827163Y-100278027D01*
X174775643Y-100447866D01*
X174691978Y-100604391D01*
X174681557Y-100617089D01*
X174579386Y-100741586D01*
X174477929Y-100824848D01*
X174442191Y-100854178D01*
X174285666Y-100937843D01*
X174115827Y-100989363D01*
X174049642Y-100995882D01*
X173983460Y-101002400D01*
X173894940Y-101002400D01*
X173828758Y-100995882D01*
X173762573Y-100989363D01*
X173592734Y-100937843D01*
X173436209Y-100854178D01*
X173400471Y-100824848D01*
X173299014Y-100741586D01*
X173196843Y-100617089D01*
X173186422Y-100604391D01*
X173102757Y-100447866D01*
X173051237Y-100278027D01*
X173033841Y-100101400D01*
X173051237Y-99924773D01*
X173102757Y-99754934D01*
X173186422Y-99598409D01*
X173215752Y-99562671D01*
X173299014Y-99461214D01*
X173400471Y-99377952D01*
X173436209Y-99348622D01*
X173592734Y-99264957D01*
X173762573Y-99213437D01*
X173828758Y-99206918D01*
X173894940Y-99200400D01*
X173983460Y-99200400D01*
X174049643Y-99206919D01*
X174049643Y-99206919D01*
G37*
G36*
X153742343Y-96679619D02*
G01*
X153808527Y-96686137D01*
X153978366Y-96737657D01*
X154134891Y-96821322D01*
X154170629Y-96850652D01*
X154272086Y-96933914D01*
X154355348Y-97035371D01*
X154384678Y-97071109D01*
X154468343Y-97227634D01*
X154519863Y-97397473D01*
X154537259Y-97574100D01*
X154519863Y-97750727D01*
X154468343Y-97920566D01*
X154384678Y-98077091D01*
X154355348Y-98112829D01*
X154272086Y-98214286D01*
X154170629Y-98297548D01*
X154134891Y-98326878D01*
X153978366Y-98410543D01*
X153808527Y-98462063D01*
X153742342Y-98468582D01*
X153676160Y-98475100D01*
X153587640Y-98475100D01*
X153521457Y-98468581D01*
X153455273Y-98462063D01*
X153285434Y-98410543D01*
X153128909Y-98326878D01*
X153093171Y-98297548D01*
X152991714Y-98214286D01*
X152908452Y-98112829D01*
X152879122Y-98077091D01*
X152795457Y-97920566D01*
X152743937Y-97750727D01*
X152726541Y-97574100D01*
X152743937Y-97397473D01*
X152795457Y-97227634D01*
X152879122Y-97071109D01*
X152908452Y-97035371D01*
X152991714Y-96933914D01*
X153093171Y-96850652D01*
X153128909Y-96821322D01*
X153285434Y-96737657D01*
X153455273Y-96686137D01*
X153521458Y-96679618D01*
X153587640Y-96673100D01*
X153676160Y-96673100D01*
X153742343Y-96679619D01*
X153742343Y-96679619D01*
G37*
G36*
X174049642Y-96666918D02*
G01*
X174115827Y-96673437D01*
X174285666Y-96724957D01*
X174442191Y-96808622D01*
X174477929Y-96837952D01*
X174579386Y-96921214D01*
X174662648Y-97022671D01*
X174691978Y-97058409D01*
X174775643Y-97214934D01*
X174827163Y-97384773D01*
X174844559Y-97561400D01*
X174827163Y-97738027D01*
X174775643Y-97907866D01*
X174691978Y-98064391D01*
X174681557Y-98077089D01*
X174579386Y-98201586D01*
X174477929Y-98284848D01*
X174442191Y-98314178D01*
X174285666Y-98397843D01*
X174115827Y-98449363D01*
X174049643Y-98455881D01*
X173983460Y-98462400D01*
X173894940Y-98462400D01*
X173828757Y-98455881D01*
X173762573Y-98449363D01*
X173592734Y-98397843D01*
X173436209Y-98314178D01*
X173400471Y-98284848D01*
X173299014Y-98201586D01*
X173196843Y-98077089D01*
X173186422Y-98064391D01*
X173102757Y-97907866D01*
X173051237Y-97738027D01*
X173033841Y-97561400D01*
X173051237Y-97384773D01*
X173102757Y-97214934D01*
X173186422Y-97058409D01*
X173215752Y-97022671D01*
X173299014Y-96921214D01*
X173400471Y-96837952D01*
X173436209Y-96808622D01*
X173592734Y-96724957D01*
X173762573Y-96673437D01*
X173828758Y-96666918D01*
X173894940Y-96660400D01*
X173983460Y-96660400D01*
X174049642Y-96666918D01*
X174049642Y-96666918D01*
G37*
G36*
X184855695Y-95869746D02*
G01*
X185028766Y-95941434D01*
X185028767Y-95941435D01*
X185184527Y-96045510D01*
X185316990Y-96177973D01*
X185316991Y-96177975D01*
X185421066Y-96333734D01*
X185492754Y-96506805D01*
X185529300Y-96690533D01*
X185529300Y-96877867D01*
X185492754Y-97061595D01*
X185421066Y-97234666D01*
X185421065Y-97234667D01*
X185316990Y-97390427D01*
X185184527Y-97522890D01*
X185126892Y-97561400D01*
X185028766Y-97626966D01*
X184855695Y-97698654D01*
X184671967Y-97735200D01*
X184484633Y-97735200D01*
X184300905Y-97698654D01*
X184127834Y-97626966D01*
X184029708Y-97561400D01*
X183972073Y-97522890D01*
X183839610Y-97390427D01*
X183735535Y-97234667D01*
X183735534Y-97234666D01*
X183663846Y-97061595D01*
X183627300Y-96877867D01*
X183627300Y-96690533D01*
X183663846Y-96506805D01*
X183735534Y-96333734D01*
X183839609Y-96177975D01*
X183839610Y-96177973D01*
X183972073Y-96045510D01*
X184127833Y-95941435D01*
X184127834Y-95941434D01*
X184300905Y-95869746D01*
X184484633Y-95833200D01*
X184671967Y-95833200D01*
X184855695Y-95869746D01*
X184855695Y-95869746D01*
G37*
G36*
X164164499Y-95628445D02*
G01*
X164201995Y-95639820D01*
X164236554Y-95658292D01*
X164266847Y-95683153D01*
X164291708Y-95713446D01*
X164310180Y-95748005D01*
X164321555Y-95785501D01*
X164326000Y-95830638D01*
X164326000Y-96569362D01*
X164321555Y-96614499D01*
X164310180Y-96651995D01*
X164291708Y-96686554D01*
X164266847Y-96716847D01*
X164236554Y-96741708D01*
X164201995Y-96760180D01*
X164164499Y-96771555D01*
X164119362Y-96776000D01*
X163480638Y-96776000D01*
X163435501Y-96771555D01*
X163398005Y-96760180D01*
X163363446Y-96741708D01*
X163333153Y-96716847D01*
X163308292Y-96686554D01*
X163289820Y-96651995D01*
X163278445Y-96614499D01*
X163274000Y-96569362D01*
X163274000Y-95830638D01*
X163278445Y-95785501D01*
X163289820Y-95748005D01*
X163308292Y-95713446D01*
X163333153Y-95683153D01*
X163363446Y-95658292D01*
X163398005Y-95639820D01*
X163435501Y-95628445D01*
X163480638Y-95624000D01*
X164119362Y-95624000D01*
X164164499Y-95628445D01*
X164164499Y-95628445D01*
G37*
G36*
X162064499Y-95628445D02*
G01*
X162101995Y-95639820D01*
X162136554Y-95658292D01*
X162166847Y-95683153D01*
X162191708Y-95713446D01*
X162210180Y-95748005D01*
X162221555Y-95785501D01*
X162226000Y-95830638D01*
X162226000Y-96569362D01*
X162221555Y-96614499D01*
X162210180Y-96651995D01*
X162191708Y-96686554D01*
X162166847Y-96716847D01*
X162136554Y-96741708D01*
X162101995Y-96760180D01*
X162064499Y-96771555D01*
X162019362Y-96776000D01*
X161380638Y-96776000D01*
X161335501Y-96771555D01*
X161298005Y-96760180D01*
X161263446Y-96741708D01*
X161233153Y-96716847D01*
X161208292Y-96686554D01*
X161189820Y-96651995D01*
X161178445Y-96614499D01*
X161174000Y-96569362D01*
X161174000Y-95830638D01*
X161178445Y-95785501D01*
X161189820Y-95748005D01*
X161208292Y-95713446D01*
X161233153Y-95683153D01*
X161263446Y-95658292D01*
X161298005Y-95639820D01*
X161335501Y-95628445D01*
X161380638Y-95624000D01*
X162019362Y-95624000D01*
X162064499Y-95628445D01*
X162064499Y-95628445D01*
G37*
G36*
X153742343Y-94139619D02*
G01*
X153808527Y-94146137D01*
X153978366Y-94197657D01*
X154134891Y-94281322D01*
X154170629Y-94310652D01*
X154272086Y-94393914D01*
X154355348Y-94495371D01*
X154384678Y-94531109D01*
X154468343Y-94687634D01*
X154519863Y-94857473D01*
X154537259Y-95034100D01*
X154519863Y-95210727D01*
X154468343Y-95380566D01*
X154384678Y-95537091D01*
X154355348Y-95572829D01*
X154272086Y-95674286D01*
X154182258Y-95748005D01*
X154134891Y-95786878D01*
X153978366Y-95870543D01*
X153808527Y-95922063D01*
X153742343Y-95928581D01*
X153676160Y-95935100D01*
X153587640Y-95935100D01*
X153521457Y-95928581D01*
X153455273Y-95922063D01*
X153285434Y-95870543D01*
X153128909Y-95786878D01*
X153081542Y-95748005D01*
X152991714Y-95674286D01*
X152908452Y-95572829D01*
X152879122Y-95537091D01*
X152795457Y-95380566D01*
X152743937Y-95210727D01*
X152726541Y-95034100D01*
X152743937Y-94857473D01*
X152795457Y-94687634D01*
X152879122Y-94531109D01*
X152908452Y-94495371D01*
X152991714Y-94393914D01*
X153093171Y-94310652D01*
X153128909Y-94281322D01*
X153285434Y-94197657D01*
X153455273Y-94146137D01*
X153521457Y-94139619D01*
X153587640Y-94133100D01*
X153676160Y-94133100D01*
X153742343Y-94139619D01*
X153742343Y-94139619D01*
G37*
G36*
X174049643Y-94126919D02*
G01*
X174115827Y-94133437D01*
X174285666Y-94184957D01*
X174442191Y-94268622D01*
X174477929Y-94297952D01*
X174579386Y-94381214D01*
X174662648Y-94482671D01*
X174691978Y-94518409D01*
X174775643Y-94674934D01*
X174827163Y-94844773D01*
X174844559Y-95021400D01*
X174827163Y-95198027D01*
X174775643Y-95367866D01*
X174691978Y-95524391D01*
X174681557Y-95537089D01*
X174579386Y-95661586D01*
X174516193Y-95713446D01*
X174442191Y-95774178D01*
X174442189Y-95774179D01*
X174331770Y-95833200D01*
X174285666Y-95857843D01*
X174115827Y-95909363D01*
X174049642Y-95915882D01*
X173983460Y-95922400D01*
X173894940Y-95922400D01*
X173828758Y-95915882D01*
X173762573Y-95909363D01*
X173592734Y-95857843D01*
X173546631Y-95833200D01*
X173436211Y-95774179D01*
X173436209Y-95774178D01*
X173362207Y-95713446D01*
X173299014Y-95661586D01*
X173196843Y-95537089D01*
X173186422Y-95524391D01*
X173102757Y-95367866D01*
X173051237Y-95198027D01*
X173033841Y-95021400D01*
X173051237Y-94844773D01*
X173102757Y-94674934D01*
X173186422Y-94518409D01*
X173215752Y-94482671D01*
X173299014Y-94381214D01*
X173400471Y-94297952D01*
X173436209Y-94268622D01*
X173592734Y-94184957D01*
X173762573Y-94133437D01*
X173828757Y-94126919D01*
X173894940Y-94120400D01*
X173983460Y-94120400D01*
X174049643Y-94126919D01*
X174049643Y-94126919D01*
G37*
G36*
X164164499Y-93878445D02*
G01*
X164201995Y-93889820D01*
X164236554Y-93908292D01*
X164266847Y-93933153D01*
X164291708Y-93963446D01*
X164310180Y-93998005D01*
X164321555Y-94035501D01*
X164326000Y-94080638D01*
X164326000Y-94819362D01*
X164321555Y-94864499D01*
X164310180Y-94901995D01*
X164291708Y-94936554D01*
X164266847Y-94966847D01*
X164236554Y-94991708D01*
X164201995Y-95010180D01*
X164164499Y-95021555D01*
X164119362Y-95026000D01*
X163480638Y-95026000D01*
X163435501Y-95021555D01*
X163398005Y-95010180D01*
X163363446Y-94991708D01*
X163333153Y-94966847D01*
X163308292Y-94936554D01*
X163289820Y-94901995D01*
X163278445Y-94864499D01*
X163274000Y-94819362D01*
X163274000Y-94080638D01*
X163278445Y-94035501D01*
X163289820Y-93998005D01*
X163308292Y-93963446D01*
X163333153Y-93933153D01*
X163363446Y-93908292D01*
X163398005Y-93889820D01*
X163435501Y-93878445D01*
X163480638Y-93874000D01*
X164119362Y-93874000D01*
X164164499Y-93878445D01*
X164164499Y-93878445D01*
G37*
G36*
X162064499Y-93878445D02*
G01*
X162101995Y-93889820D01*
X162136554Y-93908292D01*
X162166847Y-93933153D01*
X162191708Y-93963446D01*
X162210180Y-93998005D01*
X162221555Y-94035501D01*
X162226000Y-94080638D01*
X162226000Y-94819362D01*
X162221555Y-94864499D01*
X162210180Y-94901995D01*
X162191708Y-94936554D01*
X162166847Y-94966847D01*
X162136554Y-94991708D01*
X162101995Y-95010180D01*
X162064499Y-95021555D01*
X162019362Y-95026000D01*
X161380638Y-95026000D01*
X161335501Y-95021555D01*
X161298005Y-95010180D01*
X161263446Y-94991708D01*
X161233153Y-94966847D01*
X161208292Y-94936554D01*
X161189820Y-94901995D01*
X161178445Y-94864499D01*
X161174000Y-94819362D01*
X161174000Y-94080638D01*
X161178445Y-94035501D01*
X161189820Y-93998005D01*
X161208292Y-93963446D01*
X161233153Y-93933153D01*
X161263446Y-93908292D01*
X161298005Y-93889820D01*
X161335501Y-93878445D01*
X161380638Y-93874000D01*
X162019362Y-93874000D01*
X162064499Y-93878445D01*
X162064499Y-93878445D01*
G37*
G36*
X179655695Y-92369746D02*
G01*
X179828766Y-92441434D01*
X179828767Y-92441435D01*
X179984527Y-92545510D01*
X180116990Y-92677973D01*
X180116991Y-92677975D01*
X180221066Y-92833734D01*
X180292754Y-93006805D01*
X180329300Y-93190533D01*
X180329300Y-93377867D01*
X180292754Y-93561595D01*
X180221066Y-93734666D01*
X180221065Y-93734667D01*
X180116990Y-93890427D01*
X179984527Y-94022890D01*
X179940968Y-94051995D01*
X179828766Y-94126966D01*
X179655695Y-94198654D01*
X179471967Y-94235200D01*
X179284633Y-94235200D01*
X179100905Y-94198654D01*
X178927834Y-94126966D01*
X178815632Y-94051995D01*
X178772073Y-94022890D01*
X178639610Y-93890427D01*
X178535535Y-93734667D01*
X178535534Y-93734666D01*
X178463846Y-93561595D01*
X178427300Y-93377867D01*
X178427300Y-93190533D01*
X178463846Y-93006805D01*
X178535534Y-92833734D01*
X178639609Y-92677975D01*
X178639610Y-92677973D01*
X178772073Y-92545510D01*
X178927833Y-92441435D01*
X178927834Y-92441434D01*
X179100905Y-92369746D01*
X179284633Y-92333200D01*
X179471967Y-92333200D01*
X179655695Y-92369746D01*
X179655695Y-92369746D01*
G37*
G36*
X160364499Y-93128445D02*
G01*
X160401995Y-93139820D01*
X160436554Y-93158292D01*
X160466847Y-93183153D01*
X160491708Y-93213446D01*
X160510180Y-93248005D01*
X160521555Y-93285501D01*
X160526000Y-93330638D01*
X160526000Y-93969362D01*
X160521555Y-94014499D01*
X160510180Y-94051995D01*
X160491708Y-94086554D01*
X160466847Y-94116847D01*
X160436554Y-94141708D01*
X160401995Y-94160180D01*
X160364499Y-94171555D01*
X160319362Y-94176000D01*
X159580638Y-94176000D01*
X159535501Y-94171555D01*
X159498005Y-94160180D01*
X159463446Y-94141708D01*
X159433153Y-94116847D01*
X159408292Y-94086554D01*
X159389820Y-94051995D01*
X159378445Y-94014499D01*
X159374000Y-93969362D01*
X159374000Y-93330638D01*
X159378445Y-93285501D01*
X159389820Y-93248005D01*
X159408292Y-93213446D01*
X159433153Y-93183153D01*
X159463446Y-93158292D01*
X159498005Y-93139820D01*
X159535501Y-93128445D01*
X159580638Y-93124000D01*
X160319362Y-93124000D01*
X160364499Y-93128445D01*
X160364499Y-93128445D01*
G37*
G36*
X158614499Y-93128445D02*
G01*
X158651995Y-93139820D01*
X158686554Y-93158292D01*
X158716847Y-93183153D01*
X158741708Y-93213446D01*
X158760180Y-93248005D01*
X158771555Y-93285501D01*
X158776000Y-93330638D01*
X158776000Y-93969362D01*
X158771555Y-94014499D01*
X158760180Y-94051995D01*
X158741708Y-94086554D01*
X158716847Y-94116847D01*
X158686554Y-94141708D01*
X158651995Y-94160180D01*
X158614499Y-94171555D01*
X158569362Y-94176000D01*
X157830638Y-94176000D01*
X157785501Y-94171555D01*
X157748005Y-94160180D01*
X157713446Y-94141708D01*
X157683153Y-94116847D01*
X157658292Y-94086554D01*
X157639820Y-94051995D01*
X157628445Y-94014499D01*
X157624000Y-93969362D01*
X157624000Y-93330638D01*
X157628445Y-93285501D01*
X157639820Y-93248005D01*
X157658292Y-93213446D01*
X157683153Y-93183153D01*
X157713446Y-93158292D01*
X157748005Y-93139820D01*
X157785501Y-93128445D01*
X157830638Y-93124000D01*
X158569362Y-93124000D01*
X158614499Y-93128445D01*
X158614499Y-93128445D01*
G37*
G36*
X153742343Y-91599619D02*
G01*
X153808527Y-91606137D01*
X153978366Y-91657657D01*
X154134891Y-91741322D01*
X154170629Y-91770652D01*
X154272086Y-91853914D01*
X154339906Y-91936554D01*
X154384678Y-91991109D01*
X154468343Y-92147634D01*
X154519863Y-92317473D01*
X154537259Y-92494100D01*
X154519863Y-92670727D01*
X154468343Y-92840566D01*
X154384678Y-92997091D01*
X154355348Y-93032829D01*
X154272086Y-93134286D01*
X154175628Y-93213446D01*
X154134891Y-93246878D01*
X153978366Y-93330543D01*
X153808527Y-93382063D01*
X153758400Y-93387000D01*
X153676160Y-93395100D01*
X153587640Y-93395100D01*
X153505400Y-93387000D01*
X153455273Y-93382063D01*
X153285434Y-93330543D01*
X153128909Y-93246878D01*
X153088172Y-93213446D01*
X152991714Y-93134286D01*
X152908452Y-93032829D01*
X152879122Y-92997091D01*
X152795457Y-92840566D01*
X152743937Y-92670727D01*
X152726541Y-92494100D01*
X152743937Y-92317473D01*
X152795457Y-92147634D01*
X152879122Y-91991109D01*
X152923894Y-91936554D01*
X152991714Y-91853914D01*
X153093171Y-91770652D01*
X153128909Y-91741322D01*
X153285434Y-91657657D01*
X153455273Y-91606137D01*
X153521457Y-91599619D01*
X153587640Y-91593100D01*
X153676160Y-91593100D01*
X153742343Y-91599619D01*
X153742343Y-91599619D01*
G37*
G36*
X174049642Y-91586918D02*
G01*
X174115827Y-91593437D01*
X174285666Y-91644957D01*
X174442191Y-91728622D01*
X174477929Y-91757952D01*
X174579386Y-91841214D01*
X174657628Y-91936554D01*
X174691978Y-91978409D01*
X174775643Y-92134934D01*
X174827163Y-92304773D01*
X174844559Y-92481400D01*
X174827163Y-92658027D01*
X174775643Y-92827866D01*
X174775642Y-92827868D01*
X174768855Y-92840566D01*
X174691978Y-92984391D01*
X174681557Y-92997089D01*
X174579386Y-93121586D01*
X174477929Y-93204848D01*
X174442191Y-93234178D01*
X174285666Y-93317843D01*
X174115827Y-93369363D01*
X174049642Y-93375882D01*
X173983460Y-93382400D01*
X173894940Y-93382400D01*
X173828758Y-93375882D01*
X173762573Y-93369363D01*
X173592734Y-93317843D01*
X173436209Y-93234178D01*
X173400471Y-93204848D01*
X173299014Y-93121586D01*
X173196843Y-92997089D01*
X173186422Y-92984391D01*
X173109545Y-92840566D01*
X173102758Y-92827868D01*
X173102757Y-92827866D01*
X173051237Y-92658027D01*
X173033841Y-92481400D01*
X173051237Y-92304773D01*
X173102757Y-92134934D01*
X173186422Y-91978409D01*
X173220772Y-91936554D01*
X173299014Y-91841214D01*
X173400471Y-91757952D01*
X173436209Y-91728622D01*
X173592734Y-91644957D01*
X173762573Y-91593437D01*
X173828757Y-91586919D01*
X173894940Y-91580400D01*
X173983460Y-91580400D01*
X174049642Y-91586918D01*
X174049642Y-91586918D01*
G37*
G36*
X169601000Y-92426000D02*
G01*
X160599000Y-92426000D01*
X160599000Y-90574000D01*
X169601000Y-90574000D01*
X169601000Y-92426000D01*
X169601000Y-92426000D01*
G37*
G36*
X158514499Y-90878445D02*
G01*
X158551995Y-90889820D01*
X158586554Y-90908292D01*
X158616847Y-90933153D01*
X158641708Y-90963446D01*
X158660180Y-90998005D01*
X158671555Y-91035501D01*
X158676000Y-91080638D01*
X158676000Y-91819362D01*
X158671555Y-91864499D01*
X158660180Y-91901995D01*
X158641708Y-91936554D01*
X158616847Y-91966847D01*
X158586554Y-91991708D01*
X158551995Y-92010180D01*
X158514499Y-92021555D01*
X158469362Y-92026000D01*
X157830638Y-92026000D01*
X157785501Y-92021555D01*
X157748005Y-92010180D01*
X157713446Y-91991708D01*
X157683153Y-91966847D01*
X157658292Y-91936554D01*
X157639820Y-91901995D01*
X157628445Y-91864499D01*
X157624000Y-91819362D01*
X157624000Y-91080638D01*
X157628445Y-91035501D01*
X157639820Y-90998005D01*
X157658292Y-90963446D01*
X157683153Y-90933153D01*
X157713446Y-90908292D01*
X157748005Y-90889820D01*
X157785501Y-90878445D01*
X157830638Y-90874000D01*
X158469362Y-90874000D01*
X158514499Y-90878445D01*
X158514499Y-90878445D01*
G37*
G36*
X153742342Y-89059618D02*
G01*
X153808527Y-89066137D01*
X153978366Y-89117657D01*
X154134891Y-89201322D01*
X154149664Y-89213446D01*
X154272086Y-89313914D01*
X154332065Y-89387000D01*
X154384678Y-89451109D01*
X154468343Y-89607634D01*
X154519863Y-89777473D01*
X154537259Y-89954100D01*
X154519863Y-90130727D01*
X154468343Y-90300566D01*
X154384678Y-90457091D01*
X154355348Y-90492829D01*
X154272086Y-90594286D01*
X154170629Y-90677548D01*
X154134891Y-90706878D01*
X153978366Y-90790543D01*
X153808527Y-90842063D01*
X153742342Y-90848582D01*
X153676160Y-90855100D01*
X153587640Y-90855100D01*
X153521458Y-90848582D01*
X153455273Y-90842063D01*
X153285434Y-90790543D01*
X153128909Y-90706878D01*
X153093171Y-90677548D01*
X152991714Y-90594286D01*
X152908452Y-90492829D01*
X152879122Y-90457091D01*
X152795457Y-90300566D01*
X152743937Y-90130727D01*
X152726541Y-89954100D01*
X152743937Y-89777473D01*
X152795457Y-89607634D01*
X152879122Y-89451109D01*
X152931735Y-89387000D01*
X152991714Y-89313914D01*
X153114136Y-89213446D01*
X153128909Y-89201322D01*
X153285434Y-89117657D01*
X153455273Y-89066137D01*
X153521458Y-89059618D01*
X153587640Y-89053100D01*
X153676160Y-89053100D01*
X153742342Y-89059618D01*
X153742342Y-89059618D01*
G37*
G36*
X174035342Y-89045510D02*
G01*
X174115827Y-89053437D01*
X174285666Y-89104957D01*
X174442191Y-89188622D01*
X174472439Y-89213446D01*
X174579386Y-89301214D01*
X174662648Y-89402671D01*
X174691978Y-89438409D01*
X174775643Y-89594934D01*
X174827163Y-89764773D01*
X174844559Y-89941400D01*
X174827163Y-90118027D01*
X174775643Y-90287866D01*
X174691978Y-90444391D01*
X174681557Y-90457089D01*
X174579386Y-90581586D01*
X174477929Y-90664848D01*
X174442191Y-90694178D01*
X174285666Y-90777843D01*
X174115827Y-90829363D01*
X174049642Y-90835882D01*
X173983460Y-90842400D01*
X173894940Y-90842400D01*
X173828757Y-90835881D01*
X173762573Y-90829363D01*
X173592734Y-90777843D01*
X173436209Y-90694178D01*
X173400471Y-90664848D01*
X173299014Y-90581586D01*
X173196843Y-90457089D01*
X173186422Y-90444391D01*
X173102757Y-90287866D01*
X173051237Y-90118027D01*
X173033841Y-89941400D01*
X173051237Y-89764773D01*
X173102757Y-89594934D01*
X173186422Y-89438409D01*
X173215752Y-89402671D01*
X173299014Y-89301214D01*
X173405961Y-89213446D01*
X173436209Y-89188622D01*
X173592734Y-89104957D01*
X173762573Y-89053437D01*
X173843058Y-89045510D01*
X173894940Y-89040400D01*
X173983460Y-89040400D01*
X174035342Y-89045510D01*
X174035342Y-89045510D01*
G37*
G36*
X184855695Y-88869746D02*
G01*
X185028766Y-88941434D01*
X185028767Y-88941435D01*
X185184527Y-89045510D01*
X185316990Y-89177973D01*
X185332591Y-89201322D01*
X185421066Y-89333734D01*
X185492754Y-89506805D01*
X185529300Y-89690533D01*
X185529300Y-89877867D01*
X185492754Y-90061595D01*
X185421066Y-90234666D01*
X185377033Y-90300566D01*
X185316990Y-90390427D01*
X185184527Y-90522890D01*
X185108035Y-90574000D01*
X185028766Y-90626966D01*
X184855695Y-90698654D01*
X184671967Y-90735200D01*
X184484633Y-90735200D01*
X184300905Y-90698654D01*
X184127834Y-90626966D01*
X184048565Y-90574000D01*
X183972073Y-90522890D01*
X183839610Y-90390427D01*
X183779567Y-90300566D01*
X183735534Y-90234666D01*
X183663846Y-90061595D01*
X183627300Y-89877867D01*
X183627300Y-89690533D01*
X183663846Y-89506805D01*
X183735534Y-89333734D01*
X183824009Y-89201322D01*
X183839610Y-89177973D01*
X183972073Y-89045510D01*
X184127833Y-88941435D01*
X184127834Y-88941434D01*
X184300905Y-88869746D01*
X184484633Y-88833200D01*
X184671967Y-88833200D01*
X184855695Y-88869746D01*
X184855695Y-88869746D01*
G37*
G36*
X158514499Y-89128445D02*
G01*
X158551995Y-89139820D01*
X158586554Y-89158292D01*
X158616847Y-89183153D01*
X158641708Y-89213446D01*
X158660180Y-89248005D01*
X158671555Y-89285501D01*
X158676000Y-89330638D01*
X158676000Y-90069362D01*
X158671555Y-90114499D01*
X158660180Y-90151995D01*
X158641708Y-90186554D01*
X158616847Y-90216847D01*
X158586554Y-90241708D01*
X158551995Y-90260180D01*
X158514499Y-90271555D01*
X158469362Y-90276000D01*
X157830638Y-90276000D01*
X157785501Y-90271555D01*
X157748005Y-90260180D01*
X157713446Y-90241708D01*
X157683153Y-90216847D01*
X157658292Y-90186554D01*
X157639820Y-90151995D01*
X157628445Y-90114499D01*
X157624000Y-90069362D01*
X157624000Y-89330638D01*
X157628445Y-89285501D01*
X157639820Y-89248005D01*
X157658292Y-89213446D01*
X157683153Y-89183153D01*
X157713446Y-89158292D01*
X157748005Y-89139820D01*
X157785501Y-89128445D01*
X157830638Y-89124000D01*
X158469362Y-89124000D01*
X158514499Y-89128445D01*
X158514499Y-89128445D01*
G37*
G36*
X153742343Y-86519619D02*
G01*
X153808527Y-86526137D01*
X153978366Y-86577657D01*
X154134891Y-86661322D01*
X154170629Y-86690652D01*
X154272086Y-86773914D01*
X154355348Y-86875371D01*
X154384678Y-86911109D01*
X154468343Y-87067634D01*
X154519863Y-87237473D01*
X154537259Y-87414100D01*
X154519863Y-87590727D01*
X154468343Y-87760566D01*
X154384678Y-87917091D01*
X154355348Y-87952829D01*
X154272086Y-88054286D01*
X154170629Y-88137548D01*
X154134891Y-88166878D01*
X153978366Y-88250543D01*
X153808527Y-88302063D01*
X153742342Y-88308582D01*
X153676160Y-88315100D01*
X153587640Y-88315100D01*
X153521458Y-88308582D01*
X153455273Y-88302063D01*
X153285434Y-88250543D01*
X153128909Y-88166878D01*
X153093171Y-88137548D01*
X152991714Y-88054286D01*
X152908452Y-87952829D01*
X152879122Y-87917091D01*
X152795457Y-87760566D01*
X152743937Y-87590727D01*
X152726541Y-87414100D01*
X152743937Y-87237473D01*
X152795457Y-87067634D01*
X152879122Y-86911109D01*
X152908452Y-86875371D01*
X152991714Y-86773914D01*
X153093171Y-86690652D01*
X153128909Y-86661322D01*
X153285434Y-86577657D01*
X153455273Y-86526137D01*
X153521457Y-86519619D01*
X153587640Y-86513100D01*
X153676160Y-86513100D01*
X153742343Y-86519619D01*
X153742343Y-86519619D01*
G37*
G36*
X174049642Y-86506918D02*
G01*
X174115827Y-86513437D01*
X174285666Y-86564957D01*
X174442191Y-86648622D01*
X174477929Y-86677952D01*
X174579386Y-86761214D01*
X174662648Y-86862671D01*
X174691978Y-86898409D01*
X174775643Y-87054934D01*
X174827163Y-87224773D01*
X174844559Y-87401400D01*
X174827163Y-87578027D01*
X174775643Y-87747866D01*
X174691978Y-87904391D01*
X174681557Y-87917089D01*
X174579386Y-88041586D01*
X174477929Y-88124848D01*
X174442191Y-88154178D01*
X174285666Y-88237843D01*
X174115827Y-88289363D01*
X174049643Y-88295881D01*
X173983460Y-88302400D01*
X173894940Y-88302400D01*
X173828757Y-88295881D01*
X173762573Y-88289363D01*
X173592734Y-88237843D01*
X173436209Y-88154178D01*
X173400471Y-88124848D01*
X173299014Y-88041586D01*
X173196843Y-87917089D01*
X173186422Y-87904391D01*
X173102757Y-87747866D01*
X173051237Y-87578027D01*
X173033841Y-87401400D01*
X173051237Y-87224773D01*
X173102757Y-87054934D01*
X173186422Y-86898409D01*
X173215752Y-86862671D01*
X173299014Y-86761214D01*
X173400471Y-86677952D01*
X173436209Y-86648622D01*
X173592734Y-86564957D01*
X173762573Y-86513437D01*
X173828758Y-86506918D01*
X173894940Y-86500400D01*
X173983460Y-86500400D01*
X174049642Y-86506918D01*
X174049642Y-86506918D01*
G37*
G36*
X179655695Y-85369746D02*
G01*
X179828766Y-85441434D01*
X179880544Y-85476031D01*
X179984527Y-85545510D01*
X180116990Y-85677973D01*
X180138752Y-85710542D01*
X180221066Y-85833734D01*
X180292754Y-86006805D01*
X180329300Y-86190533D01*
X180329300Y-86377867D01*
X180292754Y-86561595D01*
X180221066Y-86734666D01*
X180169381Y-86812018D01*
X180116990Y-86890427D01*
X179984527Y-87022890D01*
X179906118Y-87075281D01*
X179828766Y-87126966D01*
X179655695Y-87198654D01*
X179471967Y-87235200D01*
X179284633Y-87235200D01*
X179100905Y-87198654D01*
X178927834Y-87126966D01*
X178850482Y-87075281D01*
X178772073Y-87022890D01*
X178639610Y-86890427D01*
X178587219Y-86812018D01*
X178535534Y-86734666D01*
X178463846Y-86561595D01*
X178427300Y-86377867D01*
X178427300Y-86190533D01*
X178463846Y-86006805D01*
X178535534Y-85833734D01*
X178617848Y-85710542D01*
X178639610Y-85677973D01*
X178772073Y-85545510D01*
X178876056Y-85476031D01*
X178927834Y-85441434D01*
X179100905Y-85369746D01*
X179284633Y-85333200D01*
X179471967Y-85333200D01*
X179655695Y-85369746D01*
X179655695Y-85369746D01*
G37*
G36*
X158514499Y-85403445D02*
G01*
X158551995Y-85414820D01*
X158586554Y-85433292D01*
X158616847Y-85458153D01*
X158641708Y-85488446D01*
X158660180Y-85523005D01*
X158671555Y-85560501D01*
X158676000Y-85605638D01*
X158676000Y-86344362D01*
X158671555Y-86389499D01*
X158660180Y-86426995D01*
X158641708Y-86461554D01*
X158616847Y-86491847D01*
X158586554Y-86516708D01*
X158551995Y-86535180D01*
X158514499Y-86546555D01*
X158469362Y-86551000D01*
X157830638Y-86551000D01*
X157785501Y-86546555D01*
X157748005Y-86535180D01*
X157713446Y-86516708D01*
X157683153Y-86491847D01*
X157658292Y-86461554D01*
X157639820Y-86426995D01*
X157628445Y-86389499D01*
X157624000Y-86344362D01*
X157624000Y-85605638D01*
X157628445Y-85560501D01*
X157639820Y-85523005D01*
X157658292Y-85488446D01*
X157683153Y-85458153D01*
X157713446Y-85433292D01*
X157748005Y-85414820D01*
X157785501Y-85403445D01*
X157830638Y-85399000D01*
X158469362Y-85399000D01*
X158514499Y-85403445D01*
X158514499Y-85403445D01*
G37*
G36*
X153742342Y-83979618D02*
G01*
X153808527Y-83986137D01*
X153978366Y-84037657D01*
X154134891Y-84121322D01*
X154170629Y-84150652D01*
X154272086Y-84233914D01*
X154355348Y-84335371D01*
X154384678Y-84371109D01*
X154468343Y-84527634D01*
X154519863Y-84697473D01*
X154537259Y-84874100D01*
X154519863Y-85050727D01*
X154468343Y-85220566D01*
X154468342Y-85220568D01*
X154426510Y-85298829D01*
X154384678Y-85377091D01*
X154363050Y-85403445D01*
X154272086Y-85514286D01*
X154170629Y-85597548D01*
X154134891Y-85626878D01*
X153978366Y-85710543D01*
X153808527Y-85762063D01*
X153742343Y-85768581D01*
X153676160Y-85775100D01*
X153587640Y-85775100D01*
X153521457Y-85768581D01*
X153455273Y-85762063D01*
X153285434Y-85710543D01*
X153128909Y-85626878D01*
X153093171Y-85597548D01*
X152991714Y-85514286D01*
X152900750Y-85403445D01*
X152879122Y-85377091D01*
X152837289Y-85298828D01*
X152795458Y-85220568D01*
X152795457Y-85220566D01*
X152743937Y-85050727D01*
X152726541Y-84874100D01*
X152743937Y-84697473D01*
X152795457Y-84527634D01*
X152879122Y-84371109D01*
X152908452Y-84335371D01*
X152991714Y-84233914D01*
X153093171Y-84150652D01*
X153128909Y-84121322D01*
X153285434Y-84037657D01*
X153455273Y-83986137D01*
X153521458Y-83979618D01*
X153587640Y-83973100D01*
X153676160Y-83973100D01*
X153742342Y-83979618D01*
X153742342Y-83979618D01*
G37*
G36*
X174049643Y-83966919D02*
G01*
X174115827Y-83973437D01*
X174285666Y-84024957D01*
X174442191Y-84108622D01*
X174477929Y-84137952D01*
X174579386Y-84221214D01*
X174662648Y-84322671D01*
X174691978Y-84358409D01*
X174775643Y-84514934D01*
X174827163Y-84684773D01*
X174844559Y-84861400D01*
X174827163Y-85038027D01*
X174775643Y-85207866D01*
X174691978Y-85364391D01*
X174687583Y-85369746D01*
X174579386Y-85501586D01*
X174506557Y-85561354D01*
X174442191Y-85614178D01*
X174285666Y-85697843D01*
X174115827Y-85749363D01*
X174049642Y-85755882D01*
X173983460Y-85762400D01*
X173894940Y-85762400D01*
X173828758Y-85755882D01*
X173762573Y-85749363D01*
X173592734Y-85697843D01*
X173436209Y-85614178D01*
X173371843Y-85561354D01*
X173299014Y-85501586D01*
X173190817Y-85369746D01*
X173186422Y-85364391D01*
X173102757Y-85207866D01*
X173051237Y-85038027D01*
X173033841Y-84861400D01*
X173051237Y-84684773D01*
X173102757Y-84514934D01*
X173186422Y-84358409D01*
X173215752Y-84322671D01*
X173299014Y-84221214D01*
X173400471Y-84137952D01*
X173436209Y-84108622D01*
X173592734Y-84024957D01*
X173762573Y-83973437D01*
X173828757Y-83966919D01*
X173894940Y-83960400D01*
X173983460Y-83960400D01*
X174049643Y-83966919D01*
X174049643Y-83966919D01*
G37*
G36*
X169601000Y-85226000D02*
G01*
X160599000Y-85226000D01*
X160599000Y-83374000D01*
X169601000Y-83374000D01*
X169601000Y-85226000D01*
X169601000Y-85226000D01*
G37*
G36*
X158514499Y-83653445D02*
G01*
X158551995Y-83664820D01*
X158586554Y-83683292D01*
X158616847Y-83708153D01*
X158641708Y-83738446D01*
X158660180Y-83773005D01*
X158671555Y-83810501D01*
X158676000Y-83855638D01*
X158676000Y-84594362D01*
X158671555Y-84639499D01*
X158660180Y-84676995D01*
X158641708Y-84711554D01*
X158616847Y-84741847D01*
X158586554Y-84766708D01*
X158551995Y-84785180D01*
X158514499Y-84796555D01*
X158469362Y-84801000D01*
X157830638Y-84801000D01*
X157785501Y-84796555D01*
X157748005Y-84785180D01*
X157713446Y-84766708D01*
X157683153Y-84741847D01*
X157658292Y-84711554D01*
X157639820Y-84676995D01*
X157628445Y-84639499D01*
X157624000Y-84594362D01*
X157624000Y-83855638D01*
X157628445Y-83810501D01*
X157639820Y-83773005D01*
X157658292Y-83738446D01*
X157683153Y-83708153D01*
X157713446Y-83683292D01*
X157748005Y-83664820D01*
X157785501Y-83653445D01*
X157830638Y-83649000D01*
X158469362Y-83649000D01*
X158514499Y-83653445D01*
X158514499Y-83653445D01*
G37*
G36*
X153742343Y-81439619D02*
G01*
X153808527Y-81446137D01*
X153978366Y-81497657D01*
X154134891Y-81581322D01*
X154170629Y-81610652D01*
X154272086Y-81693914D01*
X154347248Y-81785501D01*
X154384678Y-81831109D01*
X154468343Y-81987634D01*
X154519863Y-82157473D01*
X154537259Y-82334100D01*
X154519863Y-82510727D01*
X154468343Y-82680566D01*
X154384678Y-82837091D01*
X154355348Y-82872829D01*
X154272086Y-82974286D01*
X154170629Y-83057548D01*
X154134891Y-83086878D01*
X153978366Y-83170543D01*
X153808527Y-83222063D01*
X153742343Y-83228581D01*
X153676160Y-83235100D01*
X153587640Y-83235100D01*
X153521457Y-83228581D01*
X153455273Y-83222063D01*
X153285434Y-83170543D01*
X153128909Y-83086878D01*
X153093171Y-83057548D01*
X152991714Y-82974286D01*
X152908452Y-82872829D01*
X152879122Y-82837091D01*
X152795457Y-82680566D01*
X152743937Y-82510727D01*
X152726541Y-82334100D01*
X152743937Y-82157473D01*
X152795457Y-81987634D01*
X152879122Y-81831109D01*
X152916552Y-81785501D01*
X152991714Y-81693914D01*
X153093171Y-81610652D01*
X153128909Y-81581322D01*
X153285434Y-81497657D01*
X153455273Y-81446137D01*
X153521457Y-81439619D01*
X153587640Y-81433100D01*
X153676160Y-81433100D01*
X153742343Y-81439619D01*
X153742343Y-81439619D01*
G37*
G36*
X174049643Y-81426919D02*
G01*
X174115827Y-81433437D01*
X174285666Y-81484957D01*
X174442191Y-81568622D01*
X174464584Y-81587000D01*
X174579386Y-81681214D01*
X174634199Y-81748005D01*
X174691978Y-81818409D01*
X174775643Y-81974934D01*
X174827163Y-82144773D01*
X174844559Y-82321400D01*
X174827163Y-82498027D01*
X174775643Y-82667866D01*
X174691978Y-82824391D01*
X174681557Y-82837089D01*
X174579386Y-82961586D01*
X174477929Y-83044848D01*
X174442191Y-83074178D01*
X174285666Y-83157843D01*
X174115827Y-83209363D01*
X174049642Y-83215882D01*
X173983460Y-83222400D01*
X173894940Y-83222400D01*
X173828758Y-83215882D01*
X173762573Y-83209363D01*
X173592734Y-83157843D01*
X173436209Y-83074178D01*
X173400471Y-83044848D01*
X173299014Y-82961586D01*
X173196843Y-82837089D01*
X173186422Y-82824391D01*
X173102757Y-82667866D01*
X173051237Y-82498027D01*
X173033841Y-82321400D01*
X173051237Y-82144773D01*
X173102757Y-81974934D01*
X173186422Y-81818409D01*
X173244201Y-81748005D01*
X173299014Y-81681214D01*
X173413816Y-81587000D01*
X173436209Y-81568622D01*
X173592734Y-81484957D01*
X173762573Y-81433437D01*
X173828757Y-81426919D01*
X173894940Y-81420400D01*
X173983460Y-81420400D01*
X174049643Y-81426919D01*
X174049643Y-81426919D01*
G37*
G36*
X160364499Y-81628445D02*
G01*
X160401995Y-81639820D01*
X160436554Y-81658292D01*
X160466847Y-81683153D01*
X160491708Y-81713446D01*
X160510180Y-81748005D01*
X160521555Y-81785501D01*
X160526000Y-81830638D01*
X160526000Y-82469362D01*
X160521555Y-82514499D01*
X160510180Y-82551995D01*
X160491708Y-82586554D01*
X160466847Y-82616847D01*
X160436554Y-82641708D01*
X160401995Y-82660180D01*
X160364499Y-82671555D01*
X160319362Y-82676000D01*
X159580638Y-82676000D01*
X159535501Y-82671555D01*
X159498005Y-82660180D01*
X159463446Y-82641708D01*
X159433153Y-82616847D01*
X159408292Y-82586554D01*
X159389820Y-82551995D01*
X159378445Y-82514499D01*
X159374000Y-82469362D01*
X159374000Y-81830638D01*
X159378445Y-81785501D01*
X159389820Y-81748005D01*
X159408292Y-81713446D01*
X159433153Y-81683153D01*
X159463446Y-81658292D01*
X159498005Y-81639820D01*
X159535501Y-81628445D01*
X159580638Y-81624000D01*
X160319362Y-81624000D01*
X160364499Y-81628445D01*
X160364499Y-81628445D01*
G37*
G36*
X158614499Y-81628445D02*
G01*
X158651995Y-81639820D01*
X158686554Y-81658292D01*
X158716847Y-81683153D01*
X158741708Y-81713446D01*
X158760180Y-81748005D01*
X158771555Y-81785501D01*
X158776000Y-81830638D01*
X158776000Y-82469362D01*
X158771555Y-82514499D01*
X158760180Y-82551995D01*
X158741708Y-82586554D01*
X158716847Y-82616847D01*
X158686554Y-82641708D01*
X158651995Y-82660180D01*
X158614499Y-82671555D01*
X158569362Y-82676000D01*
X157830638Y-82676000D01*
X157785501Y-82671555D01*
X157748005Y-82660180D01*
X157713446Y-82641708D01*
X157683153Y-82616847D01*
X157658292Y-82586554D01*
X157639820Y-82551995D01*
X157628445Y-82514499D01*
X157624000Y-82469362D01*
X157624000Y-81830638D01*
X157628445Y-81785501D01*
X157639820Y-81748005D01*
X157658292Y-81713446D01*
X157683153Y-81683153D01*
X157713446Y-81658292D01*
X157748005Y-81639820D01*
X157785501Y-81628445D01*
X157830638Y-81624000D01*
X158569362Y-81624000D01*
X158614499Y-81628445D01*
X158614499Y-81628445D01*
G37*
G36*
X163814499Y-81328445D02*
G01*
X163851995Y-81339820D01*
X163886554Y-81358292D01*
X163916847Y-81383153D01*
X163941708Y-81413446D01*
X163960180Y-81448005D01*
X163971555Y-81485501D01*
X163976000Y-81530638D01*
X163976000Y-82269362D01*
X163971555Y-82314499D01*
X163960180Y-82351995D01*
X163941708Y-82386554D01*
X163916847Y-82416847D01*
X163886554Y-82441708D01*
X163851995Y-82460180D01*
X163814499Y-82471555D01*
X163769362Y-82476000D01*
X163130638Y-82476000D01*
X163085501Y-82471555D01*
X163048005Y-82460180D01*
X163013446Y-82441708D01*
X162983153Y-82416847D01*
X162958292Y-82386554D01*
X162939820Y-82351995D01*
X162928445Y-82314499D01*
X162924000Y-82269362D01*
X162924000Y-81530638D01*
X162928445Y-81485501D01*
X162939820Y-81448005D01*
X162958292Y-81413446D01*
X162983153Y-81383153D01*
X163013446Y-81358292D01*
X163048005Y-81339820D01*
X163085501Y-81328445D01*
X163130638Y-81324000D01*
X163769362Y-81324000D01*
X163814499Y-81328445D01*
X163814499Y-81328445D01*
G37*
G36*
X162064499Y-81328445D02*
G01*
X162101995Y-81339820D01*
X162136554Y-81358292D01*
X162166847Y-81383153D01*
X162191708Y-81413446D01*
X162210180Y-81448005D01*
X162221555Y-81485501D01*
X162226000Y-81530638D01*
X162226000Y-82269362D01*
X162221555Y-82314499D01*
X162210180Y-82351995D01*
X162191708Y-82386554D01*
X162166847Y-82416847D01*
X162136554Y-82441708D01*
X162101995Y-82460180D01*
X162064499Y-82471555D01*
X162019362Y-82476000D01*
X161380638Y-82476000D01*
X161335501Y-82471555D01*
X161298005Y-82460180D01*
X161263446Y-82441708D01*
X161233153Y-82416847D01*
X161208292Y-82386554D01*
X161189820Y-82351995D01*
X161178445Y-82314499D01*
X161174000Y-82269362D01*
X161174000Y-81530638D01*
X161178445Y-81485501D01*
X161189820Y-81448005D01*
X161208292Y-81413446D01*
X161233153Y-81383153D01*
X161263446Y-81358292D01*
X161298005Y-81339820D01*
X161335501Y-81328445D01*
X161380638Y-81324000D01*
X162019362Y-81324000D01*
X162064499Y-81328445D01*
X162064499Y-81328445D01*
G37*
G36*
X162064499Y-79578445D02*
G01*
X162101995Y-79589820D01*
X162136554Y-79608292D01*
X162166847Y-79633153D01*
X162191708Y-79663446D01*
X162210180Y-79698005D01*
X162221555Y-79735501D01*
X162226000Y-79780638D01*
X162226000Y-80519362D01*
X162221555Y-80564499D01*
X162210180Y-80601995D01*
X162191708Y-80636554D01*
X162166847Y-80666847D01*
X162136554Y-80691708D01*
X162101995Y-80710180D01*
X162064499Y-80721555D01*
X162019362Y-80726000D01*
X161380638Y-80726000D01*
X161335501Y-80721555D01*
X161298005Y-80710180D01*
X161263446Y-80691708D01*
X161233153Y-80666847D01*
X161208292Y-80636554D01*
X161189820Y-80601995D01*
X161178445Y-80564499D01*
X161174000Y-80519362D01*
X161174000Y-79780638D01*
X161178445Y-79735501D01*
X161189820Y-79698005D01*
X161208292Y-79663446D01*
X161233153Y-79633153D01*
X161263446Y-79608292D01*
X161298005Y-79589820D01*
X161335501Y-79578445D01*
X161380638Y-79574000D01*
X162019362Y-79574000D01*
X162064499Y-79578445D01*
X162064499Y-79578445D01*
G37*
G36*
X163814499Y-79578445D02*
G01*
X163851995Y-79589820D01*
X163886554Y-79608292D01*
X163916847Y-79633153D01*
X163941708Y-79663446D01*
X163960180Y-79698005D01*
X163971555Y-79735501D01*
X163976000Y-79780638D01*
X163976000Y-80519362D01*
X163971555Y-80564499D01*
X163960180Y-80601995D01*
X163941708Y-80636554D01*
X163916847Y-80666847D01*
X163886554Y-80691708D01*
X163851995Y-80710180D01*
X163814499Y-80721555D01*
X163769362Y-80726000D01*
X163130638Y-80726000D01*
X163085501Y-80721555D01*
X163048005Y-80710180D01*
X163013446Y-80691708D01*
X162983153Y-80666847D01*
X162958292Y-80636554D01*
X162939820Y-80601995D01*
X162928445Y-80564499D01*
X162924000Y-80519362D01*
X162924000Y-79780638D01*
X162928445Y-79735501D01*
X162939820Y-79698005D01*
X162958292Y-79663446D01*
X162983153Y-79633153D01*
X163013446Y-79608292D01*
X163048005Y-79589820D01*
X163085501Y-79578445D01*
X163130638Y-79574000D01*
X163769362Y-79574000D01*
X163814499Y-79578445D01*
X163814499Y-79578445D01*
G37*
G36*
X184877395Y-78835546D02*
G01*
X185050466Y-78907234D01*
X185050467Y-78907235D01*
X185206227Y-79011310D01*
X185338690Y-79143773D01*
X185391081Y-79222182D01*
X185442766Y-79299534D01*
X185514454Y-79472605D01*
X185551000Y-79656333D01*
X185551000Y-79843667D01*
X185514454Y-80027395D01*
X185442766Y-80200466D01*
X185442765Y-80200467D01*
X185338690Y-80356227D01*
X185206227Y-80488690D01*
X185167885Y-80514309D01*
X185050466Y-80592766D01*
X184877395Y-80664454D01*
X184693667Y-80701000D01*
X184506333Y-80701000D01*
X184322605Y-80664454D01*
X184149534Y-80592766D01*
X184032115Y-80514309D01*
X183993773Y-80488690D01*
X183861310Y-80356227D01*
X183757235Y-80200467D01*
X183757234Y-80200466D01*
X183685546Y-80027395D01*
X183649000Y-79843667D01*
X183649000Y-79656333D01*
X183685546Y-79472605D01*
X183757234Y-79299534D01*
X183808919Y-79222182D01*
X183861310Y-79143773D01*
X183993773Y-79011310D01*
X184149533Y-78907235D01*
X184149534Y-78907234D01*
X184322605Y-78835546D01*
X184506333Y-78799000D01*
X184693667Y-78799000D01*
X184877395Y-78835546D01*
X184877395Y-78835546D01*
G37*
G36*
X153742342Y-78899618D02*
G01*
X153808527Y-78906137D01*
X153978366Y-78957657D01*
X154134891Y-79041322D01*
X154170629Y-79070652D01*
X154272086Y-79153914D01*
X154355348Y-79255371D01*
X154384678Y-79291109D01*
X154468343Y-79447634D01*
X154519863Y-79617473D01*
X154537259Y-79794100D01*
X154519863Y-79970727D01*
X154468343Y-80140566D01*
X154384678Y-80297091D01*
X154355348Y-80332829D01*
X154272086Y-80434286D01*
X154205792Y-80488691D01*
X154134891Y-80546878D01*
X153978366Y-80630543D01*
X153808527Y-80682063D01*
X153742342Y-80688582D01*
X153676160Y-80695100D01*
X153587640Y-80695100D01*
X153521458Y-80688582D01*
X153455273Y-80682063D01*
X153285434Y-80630543D01*
X153128909Y-80546878D01*
X153058008Y-80488691D01*
X152991714Y-80434286D01*
X152908452Y-80332829D01*
X152879122Y-80297091D01*
X152795457Y-80140566D01*
X152743937Y-79970727D01*
X152726541Y-79794100D01*
X152743937Y-79617473D01*
X152795457Y-79447634D01*
X152879122Y-79291109D01*
X152908452Y-79255371D01*
X152991714Y-79153914D01*
X153093171Y-79070652D01*
X153128909Y-79041322D01*
X153285434Y-78957657D01*
X153455273Y-78906137D01*
X153521458Y-78899618D01*
X153587640Y-78893100D01*
X153676160Y-78893100D01*
X153742342Y-78899618D01*
X153742342Y-78899618D01*
G37*
G36*
X174049642Y-78886918D02*
G01*
X174115827Y-78893437D01*
X174285666Y-78944957D01*
X174442191Y-79028622D01*
X174477929Y-79057952D01*
X174579386Y-79141214D01*
X174662648Y-79242671D01*
X174691978Y-79278409D01*
X174775643Y-79434934D01*
X174827163Y-79604773D01*
X174844559Y-79781400D01*
X174827163Y-79958027D01*
X174775643Y-80127866D01*
X174691978Y-80284391D01*
X174681557Y-80297089D01*
X174579386Y-80421586D01*
X174497618Y-80488690D01*
X174442191Y-80534178D01*
X174387061Y-80563646D01*
X174320977Y-80598969D01*
X174285666Y-80617843D01*
X174115827Y-80669363D01*
X174049643Y-80675881D01*
X173983460Y-80682400D01*
X173894940Y-80682400D01*
X173828757Y-80675881D01*
X173762573Y-80669363D01*
X173592734Y-80617843D01*
X173557424Y-80598969D01*
X173491339Y-80563646D01*
X173436209Y-80534178D01*
X173380782Y-80488690D01*
X173299014Y-80421586D01*
X173196843Y-80297089D01*
X173186422Y-80284391D01*
X173102757Y-80127866D01*
X173051237Y-79958027D01*
X173033841Y-79781400D01*
X173051237Y-79604773D01*
X173102757Y-79434934D01*
X173186422Y-79278409D01*
X173215752Y-79242671D01*
X173299014Y-79141214D01*
X173400471Y-79057952D01*
X173436209Y-79028622D01*
X173592734Y-78944957D01*
X173762573Y-78893437D01*
X173828758Y-78886918D01*
X173894940Y-78880400D01*
X173983460Y-78880400D01*
X174049642Y-78886918D01*
X174049642Y-78886918D01*
G37*
G36*
X168989499Y-79628445D02*
G01*
X169026995Y-79639820D01*
X169061554Y-79658292D01*
X169091847Y-79683153D01*
X169116708Y-79713446D01*
X169135180Y-79748005D01*
X169146555Y-79785501D01*
X169151000Y-79830638D01*
X169151000Y-80469362D01*
X169146555Y-80514499D01*
X169135180Y-80551995D01*
X169116708Y-80586554D01*
X169091847Y-80616847D01*
X169061554Y-80641708D01*
X169026995Y-80660180D01*
X168989499Y-80671555D01*
X168944362Y-80676000D01*
X168205638Y-80676000D01*
X168160501Y-80671555D01*
X168123005Y-80660180D01*
X168088446Y-80641708D01*
X168058153Y-80616847D01*
X168033292Y-80586554D01*
X168014820Y-80551995D01*
X168003445Y-80514499D01*
X167999000Y-80469362D01*
X167999000Y-79830638D01*
X168003445Y-79785501D01*
X168014820Y-79748005D01*
X168033292Y-79713446D01*
X168058153Y-79683153D01*
X168088446Y-79658292D01*
X168123005Y-79639820D01*
X168160501Y-79628445D01*
X168205638Y-79624000D01*
X168944362Y-79624000D01*
X168989499Y-79628445D01*
X168989499Y-79628445D01*
G37*
G36*
X167364499Y-79628445D02*
G01*
X167401995Y-79639820D01*
X167436554Y-79658292D01*
X167466847Y-79683153D01*
X167491708Y-79713446D01*
X167510180Y-79748005D01*
X167521555Y-79785501D01*
X167526000Y-79830638D01*
X167526000Y-80469362D01*
X167521555Y-80514499D01*
X167510180Y-80551995D01*
X167491708Y-80586554D01*
X167466847Y-80616847D01*
X167436554Y-80641708D01*
X167401995Y-80660180D01*
X167364499Y-80671555D01*
X167319362Y-80676000D01*
X166580638Y-80676000D01*
X166535501Y-80671555D01*
X166498005Y-80660180D01*
X166463446Y-80641708D01*
X166433153Y-80616847D01*
X166408292Y-80586554D01*
X166389820Y-80551995D01*
X166378445Y-80514499D01*
X166374000Y-80469362D01*
X166374000Y-79830638D01*
X166378445Y-79785501D01*
X166389820Y-79748005D01*
X166408292Y-79713446D01*
X166433153Y-79683153D01*
X166463446Y-79658292D01*
X166498005Y-79639820D01*
X166535501Y-79628445D01*
X166580638Y-79624000D01*
X167319362Y-79624000D01*
X167364499Y-79628445D01*
X167364499Y-79628445D01*
G37*
G36*
X165614499Y-79628445D02*
G01*
X165651995Y-79639820D01*
X165686554Y-79658292D01*
X165716847Y-79683153D01*
X165741708Y-79713446D01*
X165760180Y-79748005D01*
X165771555Y-79785501D01*
X165776000Y-79830638D01*
X165776000Y-80469362D01*
X165771555Y-80514499D01*
X165760180Y-80551995D01*
X165741708Y-80586554D01*
X165716847Y-80616847D01*
X165686554Y-80641708D01*
X165651995Y-80660180D01*
X165614499Y-80671555D01*
X165569362Y-80676000D01*
X164830638Y-80676000D01*
X164785501Y-80671555D01*
X164748005Y-80660180D01*
X164713446Y-80641708D01*
X164683153Y-80616847D01*
X164658292Y-80586554D01*
X164639820Y-80551995D01*
X164628445Y-80514499D01*
X164624000Y-80469362D01*
X164624000Y-79830638D01*
X164628445Y-79785501D01*
X164639820Y-79748005D01*
X164658292Y-79713446D01*
X164683153Y-79683153D01*
X164713446Y-79658292D01*
X164748005Y-79639820D01*
X164785501Y-79628445D01*
X164830638Y-79624000D01*
X165569362Y-79624000D01*
X165614499Y-79628445D01*
X165614499Y-79628445D01*
G37*
G36*
X170739499Y-79628445D02*
G01*
X170776995Y-79639820D01*
X170811554Y-79658292D01*
X170841847Y-79683153D01*
X170866708Y-79713446D01*
X170885180Y-79748005D01*
X170896555Y-79785501D01*
X170901000Y-79830638D01*
X170901000Y-80469362D01*
X170896555Y-80514499D01*
X170885180Y-80551995D01*
X170866708Y-80586554D01*
X170841847Y-80616847D01*
X170811554Y-80641708D01*
X170776995Y-80660180D01*
X170739499Y-80671555D01*
X170694362Y-80676000D01*
X169955638Y-80676000D01*
X169910501Y-80671555D01*
X169873005Y-80660180D01*
X169838446Y-80641708D01*
X169808153Y-80616847D01*
X169783292Y-80586554D01*
X169764820Y-80551995D01*
X169753445Y-80514499D01*
X169749000Y-80469362D01*
X169749000Y-79830638D01*
X169753445Y-79785501D01*
X169764820Y-79748005D01*
X169783292Y-79713446D01*
X169808153Y-79683153D01*
X169838446Y-79658292D01*
X169873005Y-79639820D01*
X169910501Y-79628445D01*
X169955638Y-79624000D01*
X170694362Y-79624000D01*
X170739499Y-79628445D01*
X170739499Y-79628445D01*
G37*
G36*
X153742343Y-76359619D02*
G01*
X153808527Y-76366137D01*
X153978366Y-76417657D01*
X154134891Y-76501322D01*
X154166661Y-76527395D01*
X154272086Y-76613914D01*
X154316683Y-76668257D01*
X154384678Y-76751109D01*
X154468343Y-76907634D01*
X154519863Y-77077473D01*
X154537259Y-77254100D01*
X154519863Y-77430727D01*
X154468343Y-77600566D01*
X154384678Y-77757091D01*
X154355348Y-77792829D01*
X154272086Y-77894286D01*
X154170629Y-77977548D01*
X154134891Y-78006878D01*
X153978366Y-78090543D01*
X153808527Y-78142063D01*
X153742342Y-78148582D01*
X153676160Y-78155100D01*
X153587640Y-78155100D01*
X153521458Y-78148582D01*
X153455273Y-78142063D01*
X153285434Y-78090543D01*
X153128909Y-78006878D01*
X153093171Y-77977548D01*
X152991714Y-77894286D01*
X152908452Y-77792829D01*
X152879122Y-77757091D01*
X152795457Y-77600566D01*
X152743937Y-77430727D01*
X152726541Y-77254100D01*
X152743937Y-77077473D01*
X152795457Y-76907634D01*
X152879122Y-76751109D01*
X152947117Y-76668257D01*
X152991714Y-76613914D01*
X153097139Y-76527395D01*
X153128909Y-76501322D01*
X153285434Y-76417657D01*
X153455273Y-76366137D01*
X153521457Y-76359619D01*
X153587640Y-76353100D01*
X153676160Y-76353100D01*
X153742343Y-76359619D01*
X153742343Y-76359619D01*
G37*
G36*
X174049643Y-76346919D02*
G01*
X174115827Y-76353437D01*
X174285666Y-76404957D01*
X174442191Y-76488622D01*
X174477929Y-76517952D01*
X174579386Y-76601214D01*
X174660839Y-76700466D01*
X174691978Y-76738409D01*
X174775643Y-76894934D01*
X174827163Y-77064773D01*
X174844559Y-77241400D01*
X174827163Y-77418027D01*
X174775643Y-77587866D01*
X174691978Y-77744391D01*
X174681557Y-77757089D01*
X174579386Y-77881586D01*
X174477929Y-77964848D01*
X174442191Y-77994178D01*
X174285666Y-78077843D01*
X174115827Y-78129363D01*
X174049643Y-78135881D01*
X173983460Y-78142400D01*
X173894940Y-78142400D01*
X173828757Y-78135881D01*
X173762573Y-78129363D01*
X173592734Y-78077843D01*
X173436209Y-77994178D01*
X173400471Y-77964848D01*
X173299014Y-77881586D01*
X173196843Y-77757089D01*
X173186422Y-77744391D01*
X173102757Y-77587866D01*
X173051237Y-77418027D01*
X173033841Y-77241400D01*
X173051237Y-77064773D01*
X173102757Y-76894934D01*
X173186422Y-76738409D01*
X173217561Y-76700466D01*
X173299014Y-76601214D01*
X173400471Y-76517952D01*
X173436209Y-76488622D01*
X173592734Y-76404957D01*
X173762573Y-76353437D01*
X173828757Y-76346919D01*
X173894940Y-76340400D01*
X173983460Y-76340400D01*
X174049643Y-76346919D01*
X174049643Y-76346919D01*
G37*
G36*
X179677395Y-75335546D02*
G01*
X179850466Y-75407234D01*
X179920723Y-75454178D01*
X180006227Y-75511310D01*
X180138690Y-75643773D01*
X180138691Y-75643775D01*
X180242766Y-75799534D01*
X180314454Y-75972605D01*
X180351000Y-76156333D01*
X180351000Y-76343667D01*
X180314454Y-76527395D01*
X180242766Y-76700466D01*
X180242765Y-76700467D01*
X180138690Y-76856227D01*
X180006227Y-76988690D01*
X179927818Y-77041081D01*
X179850466Y-77092766D01*
X179677395Y-77164454D01*
X179493667Y-77201000D01*
X179306333Y-77201000D01*
X179122605Y-77164454D01*
X178949534Y-77092766D01*
X178872182Y-77041081D01*
X178793773Y-76988690D01*
X178661310Y-76856227D01*
X178557235Y-76700467D01*
X178557234Y-76700466D01*
X178485546Y-76527395D01*
X178449000Y-76343667D01*
X178449000Y-76156333D01*
X178485546Y-75972605D01*
X178557234Y-75799534D01*
X178661309Y-75643775D01*
X178661310Y-75643773D01*
X178793773Y-75511310D01*
X178879277Y-75454178D01*
X178949534Y-75407234D01*
X179122605Y-75335546D01*
X179306333Y-75299000D01*
X179493667Y-75299000D01*
X179677395Y-75335546D01*
X179677395Y-75335546D01*
G37*
G36*
X168437142Y-75368242D02*
G01*
X168585101Y-75429529D01*
X168718255Y-75518499D01*
X168831501Y-75631745D01*
X168920471Y-75764899D01*
X168981758Y-75912858D01*
X169013000Y-76069925D01*
X169013000Y-76230075D01*
X168981758Y-76387142D01*
X168920471Y-76535101D01*
X168831501Y-76668255D01*
X168718255Y-76781501D01*
X168585101Y-76870471D01*
X168437142Y-76931758D01*
X168280075Y-76963000D01*
X168119925Y-76963000D01*
X167962858Y-76931758D01*
X167814899Y-76870471D01*
X167681745Y-76781501D01*
X167568499Y-76668255D01*
X167479529Y-76535101D01*
X167418242Y-76387142D01*
X167387000Y-76230075D01*
X167387000Y-76069925D01*
X167418242Y-75912858D01*
X167479529Y-75764899D01*
X167568499Y-75631745D01*
X167681745Y-75518499D01*
X167814899Y-75429529D01*
X167962858Y-75368242D01*
X168119925Y-75337000D01*
X168280075Y-75337000D01*
X168437142Y-75368242D01*
X168437142Y-75368242D01*
G37*
G36*
X163560342Y-75368242D02*
G01*
X163708301Y-75429529D01*
X163841455Y-75518499D01*
X163954701Y-75631745D01*
X164043671Y-75764899D01*
X164104958Y-75912858D01*
X164136200Y-76069925D01*
X164136200Y-76230075D01*
X164104958Y-76387142D01*
X164043671Y-76535101D01*
X163954701Y-76668255D01*
X163841455Y-76781501D01*
X163708301Y-76870471D01*
X163560342Y-76931758D01*
X163403275Y-76963000D01*
X163243125Y-76963000D01*
X163086058Y-76931758D01*
X162938099Y-76870471D01*
X162804945Y-76781501D01*
X162691699Y-76668255D01*
X162602729Y-76535101D01*
X162541442Y-76387142D01*
X162510200Y-76230075D01*
X162510200Y-76069925D01*
X162541442Y-75912858D01*
X162602729Y-75764899D01*
X162691699Y-75631745D01*
X162804945Y-75518499D01*
X162938099Y-75429529D01*
X163086058Y-75368242D01*
X163243125Y-75337000D01*
X163403275Y-75337000D01*
X163560342Y-75368242D01*
X163560342Y-75368242D01*
G37*
G36*
X153742342Y-73819618D02*
G01*
X153808527Y-73826137D01*
X153978366Y-73877657D01*
X154134891Y-73961322D01*
X154170629Y-73990652D01*
X154272086Y-74073914D01*
X154355348Y-74175371D01*
X154384678Y-74211109D01*
X154468343Y-74367634D01*
X154519863Y-74537473D01*
X154537259Y-74714100D01*
X154519863Y-74890727D01*
X154468343Y-75060566D01*
X154384678Y-75217091D01*
X154355348Y-75252829D01*
X154272086Y-75354286D01*
X154180401Y-75429529D01*
X154134891Y-75466878D01*
X153978366Y-75550543D01*
X153808527Y-75602063D01*
X153742343Y-75608581D01*
X153676160Y-75615100D01*
X153587640Y-75615100D01*
X153521457Y-75608581D01*
X153455273Y-75602063D01*
X153285434Y-75550543D01*
X153128909Y-75466878D01*
X153083399Y-75429529D01*
X152991714Y-75354286D01*
X152908452Y-75252829D01*
X152879122Y-75217091D01*
X152795457Y-75060566D01*
X152743937Y-74890727D01*
X152726541Y-74714100D01*
X152743937Y-74537473D01*
X152795457Y-74367634D01*
X152879122Y-74211109D01*
X152908452Y-74175371D01*
X152991714Y-74073914D01*
X153093171Y-73990652D01*
X153128909Y-73961322D01*
X153285434Y-73877657D01*
X153455273Y-73826137D01*
X153521458Y-73819618D01*
X153587640Y-73813100D01*
X153676160Y-73813100D01*
X153742342Y-73819618D01*
X153742342Y-73819618D01*
G37*
G36*
X174049643Y-73806919D02*
G01*
X174115827Y-73813437D01*
X174285666Y-73864957D01*
X174442191Y-73948622D01*
X174477929Y-73977952D01*
X174579386Y-74061214D01*
X174662648Y-74162671D01*
X174691978Y-74198409D01*
X174775643Y-74354934D01*
X174827163Y-74524773D01*
X174844559Y-74701400D01*
X174827163Y-74878027D01*
X174775643Y-75047866D01*
X174691978Y-75204391D01*
X174681557Y-75217089D01*
X174579386Y-75341586D01*
X174499392Y-75407234D01*
X174442191Y-75454178D01*
X174285666Y-75537843D01*
X174115827Y-75589363D01*
X174049642Y-75595882D01*
X173983460Y-75602400D01*
X173894940Y-75602400D01*
X173828758Y-75595882D01*
X173762573Y-75589363D01*
X173592734Y-75537843D01*
X173436209Y-75454178D01*
X173379008Y-75407234D01*
X173299014Y-75341586D01*
X173196843Y-75217089D01*
X173186422Y-75204391D01*
X173102757Y-75047866D01*
X173051237Y-74878027D01*
X173033841Y-74701400D01*
X173051237Y-74524773D01*
X173102757Y-74354934D01*
X173186422Y-74198409D01*
X173215752Y-74162671D01*
X173299014Y-74061214D01*
X173400471Y-73977952D01*
X173436209Y-73948622D01*
X173592734Y-73864957D01*
X173762573Y-73813437D01*
X173828757Y-73806919D01*
X173894940Y-73800400D01*
X173983460Y-73800400D01*
X174049643Y-73806919D01*
X174049643Y-73806919D01*
G37*
G36*
X184877395Y-71835546D02*
G01*
X185050466Y-71907234D01*
X185050467Y-71907235D01*
X185206227Y-72011310D01*
X185338690Y-72143773D01*
X185338691Y-72143775D01*
X185442766Y-72299534D01*
X185514454Y-72472605D01*
X185551000Y-72656333D01*
X185551000Y-72843667D01*
X185514454Y-73027395D01*
X185442766Y-73200466D01*
X185442765Y-73200467D01*
X185338690Y-73356227D01*
X185206227Y-73488690D01*
X185127818Y-73541081D01*
X185050466Y-73592766D01*
X184877395Y-73664454D01*
X184693667Y-73701000D01*
X184506333Y-73701000D01*
X184322605Y-73664454D01*
X184149534Y-73592766D01*
X184072182Y-73541081D01*
X183993773Y-73488690D01*
X183861310Y-73356227D01*
X183757235Y-73200467D01*
X183757234Y-73200466D01*
X183685546Y-73027395D01*
X183649000Y-72843667D01*
X183649000Y-72656333D01*
X183685546Y-72472605D01*
X183757234Y-72299534D01*
X183861309Y-72143775D01*
X183861310Y-72143773D01*
X183993773Y-72011310D01*
X184149533Y-71907235D01*
X184149534Y-71907234D01*
X184322605Y-71835546D01*
X184506333Y-71799000D01*
X184693667Y-71799000D01*
X184877395Y-71835546D01*
X184877395Y-71835546D01*
G37*
G36*
X154532900Y-73075100D02*
G01*
X152730900Y-73075100D01*
X152730900Y-71273100D01*
X154532900Y-71273100D01*
X154532900Y-73075100D01*
X154532900Y-73075100D01*
G37*
G36*
X174049642Y-71266918D02*
G01*
X174115827Y-71273437D01*
X174285666Y-71324957D01*
X174442191Y-71408622D01*
X174477929Y-71437952D01*
X174579386Y-71521214D01*
X174662648Y-71622671D01*
X174691978Y-71658409D01*
X174775643Y-71814934D01*
X174827163Y-71984773D01*
X174844559Y-72161400D01*
X174827163Y-72338027D01*
X174775643Y-72507866D01*
X174691978Y-72664391D01*
X174662648Y-72700129D01*
X174579386Y-72801586D01*
X174477929Y-72884848D01*
X174442191Y-72914178D01*
X174285666Y-72997843D01*
X174115827Y-73049363D01*
X174049643Y-73055881D01*
X173983460Y-73062400D01*
X173894940Y-73062400D01*
X173828757Y-73055881D01*
X173762573Y-73049363D01*
X173592734Y-72997843D01*
X173436209Y-72914178D01*
X173400471Y-72884848D01*
X173299014Y-72801586D01*
X173215752Y-72700129D01*
X173186422Y-72664391D01*
X173102757Y-72507866D01*
X173051237Y-72338027D01*
X173033841Y-72161400D01*
X173051237Y-71984773D01*
X173102757Y-71814934D01*
X173186422Y-71658409D01*
X173215752Y-71622671D01*
X173299014Y-71521214D01*
X173400471Y-71437952D01*
X173436209Y-71408622D01*
X173592734Y-71324957D01*
X173762573Y-71273437D01*
X173828758Y-71266918D01*
X173894940Y-71260400D01*
X173983460Y-71260400D01*
X174049642Y-71266918D01*
X174049642Y-71266918D01*
G37*
G36*
X163788674Y-69528465D02*
G01*
X163826367Y-69539899D01*
X163861103Y-69558466D01*
X163891548Y-69583452D01*
X163916534Y-69613897D01*
X163935101Y-69648633D01*
X163946535Y-69686326D01*
X163951000Y-69731661D01*
X163951000Y-70568339D01*
X163946535Y-70613674D01*
X163935101Y-70651367D01*
X163916534Y-70686103D01*
X163891548Y-70716548D01*
X163861103Y-70741534D01*
X163826367Y-70760101D01*
X163788674Y-70771535D01*
X163743339Y-70776000D01*
X162656661Y-70776000D01*
X162611326Y-70771535D01*
X162573633Y-70760101D01*
X162538897Y-70741534D01*
X162508452Y-70716548D01*
X162483466Y-70686103D01*
X162464899Y-70651367D01*
X162453465Y-70613674D01*
X162449000Y-70568339D01*
X162449000Y-69731661D01*
X162453465Y-69686326D01*
X162464899Y-69648633D01*
X162483466Y-69613897D01*
X162508452Y-69583452D01*
X162538897Y-69558466D01*
X162573633Y-69539899D01*
X162611326Y-69528465D01*
X162656661Y-69524000D01*
X163743339Y-69524000D01*
X163788674Y-69528465D01*
X163788674Y-69528465D01*
G37*
G36*
X161288674Y-69478465D02*
G01*
X161326367Y-69489899D01*
X161361103Y-69508466D01*
X161391548Y-69533452D01*
X161416534Y-69563897D01*
X161435101Y-69598633D01*
X161446535Y-69636326D01*
X161451000Y-69681661D01*
X161451000Y-70518339D01*
X161446535Y-70563674D01*
X161435101Y-70601367D01*
X161416534Y-70636103D01*
X161391548Y-70666548D01*
X161361103Y-70691534D01*
X161326367Y-70710101D01*
X161288674Y-70721535D01*
X161243339Y-70726000D01*
X160156661Y-70726000D01*
X160111326Y-70721535D01*
X160073633Y-70710101D01*
X160038897Y-70691534D01*
X160008452Y-70666548D01*
X159983466Y-70636103D01*
X159964899Y-70601367D01*
X159953465Y-70563674D01*
X159949000Y-70518339D01*
X159949000Y-69681661D01*
X159953465Y-69636326D01*
X159964899Y-69598633D01*
X159983466Y-69563897D01*
X160008452Y-69533452D01*
X160038897Y-69508466D01*
X160073633Y-69489899D01*
X160111326Y-69478465D01*
X160156661Y-69474000D01*
X161243339Y-69474000D01*
X161288674Y-69478465D01*
X161288674Y-69478465D01*
G37*
G36*
X158564499Y-69403445D02*
G01*
X158601995Y-69414820D01*
X158636554Y-69433292D01*
X158666847Y-69458153D01*
X158691708Y-69488446D01*
X158710180Y-69523005D01*
X158721555Y-69560501D01*
X158726000Y-69605638D01*
X158726000Y-70344362D01*
X158721555Y-70389499D01*
X158710180Y-70426995D01*
X158691708Y-70461554D01*
X158666847Y-70491847D01*
X158636554Y-70516708D01*
X158601995Y-70535180D01*
X158564499Y-70546555D01*
X158519362Y-70551000D01*
X157880638Y-70551000D01*
X157835501Y-70546555D01*
X157798005Y-70535180D01*
X157763446Y-70516708D01*
X157733153Y-70491847D01*
X157708292Y-70461554D01*
X157689820Y-70426995D01*
X157678445Y-70389499D01*
X157674000Y-70344362D01*
X157674000Y-69605638D01*
X157678445Y-69560501D01*
X157689820Y-69523005D01*
X157708292Y-69488446D01*
X157733153Y-69458153D01*
X157763446Y-69433292D01*
X157798005Y-69414820D01*
X157835501Y-69403445D01*
X157880638Y-69399000D01*
X158519362Y-69399000D01*
X158564499Y-69403445D01*
X158564499Y-69403445D01*
G37*
G36*
X179677395Y-68335546D02*
G01*
X179850466Y-68407234D01*
X179850467Y-68407235D01*
X180006227Y-68511310D01*
X180138690Y-68643773D01*
X180190649Y-68721535D01*
X180242766Y-68799534D01*
X180314454Y-68972605D01*
X180351000Y-69156333D01*
X180351000Y-69343667D01*
X180314454Y-69527395D01*
X180242766Y-69700466D01*
X180191081Y-69777818D01*
X180138690Y-69856227D01*
X180006227Y-69988690D01*
X179927818Y-70041081D01*
X179850466Y-70092766D01*
X179677395Y-70164454D01*
X179493667Y-70201000D01*
X179306333Y-70201000D01*
X179122605Y-70164454D01*
X178949534Y-70092766D01*
X178872182Y-70041081D01*
X178793773Y-69988690D01*
X178661310Y-69856227D01*
X178608919Y-69777818D01*
X178557234Y-69700466D01*
X178485546Y-69527395D01*
X178449000Y-69343667D01*
X178449000Y-69156333D01*
X178485546Y-68972605D01*
X178557234Y-68799534D01*
X178609351Y-68721535D01*
X178661310Y-68643773D01*
X178793773Y-68511310D01*
X178949533Y-68407235D01*
X178949534Y-68407234D01*
X179122605Y-68335546D01*
X179306333Y-68299000D01*
X179493667Y-68299000D01*
X179677395Y-68335546D01*
X179677395Y-68335546D01*
G37*
G36*
X158564499Y-67653445D02*
G01*
X158601995Y-67664820D01*
X158636554Y-67683292D01*
X158666847Y-67708153D01*
X158691708Y-67738446D01*
X158710180Y-67773005D01*
X158721555Y-67810501D01*
X158726000Y-67855638D01*
X158726000Y-68594362D01*
X158721555Y-68639499D01*
X158710180Y-68676995D01*
X158691708Y-68711554D01*
X158666847Y-68741847D01*
X158636554Y-68766708D01*
X158601995Y-68785180D01*
X158564499Y-68796555D01*
X158519362Y-68801000D01*
X157880638Y-68801000D01*
X157835501Y-68796555D01*
X157798005Y-68785180D01*
X157763446Y-68766708D01*
X157733153Y-68741847D01*
X157708292Y-68711554D01*
X157689820Y-68676995D01*
X157678445Y-68639499D01*
X157674000Y-68594362D01*
X157674000Y-67855638D01*
X157678445Y-67810501D01*
X157689820Y-67773005D01*
X157708292Y-67738446D01*
X157733153Y-67708153D01*
X157763446Y-67683292D01*
X157798005Y-67664820D01*
X157835501Y-67653445D01*
X157880638Y-67649000D01*
X158519362Y-67649000D01*
X158564499Y-67653445D01*
X158564499Y-67653445D01*
G37*
G36*
X163788674Y-67478465D02*
G01*
X163826367Y-67489899D01*
X163861103Y-67508466D01*
X163891548Y-67533452D01*
X163916534Y-67563897D01*
X163935101Y-67598633D01*
X163946535Y-67636326D01*
X163951000Y-67681661D01*
X163951000Y-68518339D01*
X163946535Y-68563674D01*
X163935101Y-68601367D01*
X163916534Y-68636103D01*
X163891548Y-68666548D01*
X163861103Y-68691534D01*
X163826367Y-68710101D01*
X163788674Y-68721535D01*
X163743339Y-68726000D01*
X162656661Y-68726000D01*
X162611326Y-68721535D01*
X162573633Y-68710101D01*
X162538897Y-68691534D01*
X162508452Y-68666548D01*
X162483466Y-68636103D01*
X162464899Y-68601367D01*
X162453465Y-68563674D01*
X162449000Y-68518339D01*
X162449000Y-67681661D01*
X162453465Y-67636326D01*
X162464899Y-67598633D01*
X162483466Y-67563897D01*
X162508452Y-67533452D01*
X162538897Y-67508466D01*
X162573633Y-67489899D01*
X162611326Y-67478465D01*
X162656661Y-67474000D01*
X163743339Y-67474000D01*
X163788674Y-67478465D01*
X163788674Y-67478465D01*
G37*
G36*
X161288674Y-67428465D02*
G01*
X161326367Y-67439899D01*
X161361103Y-67458466D01*
X161391548Y-67483452D01*
X161416534Y-67513897D01*
X161435101Y-67548633D01*
X161446535Y-67586326D01*
X161451000Y-67631661D01*
X161451000Y-68468339D01*
X161446535Y-68513674D01*
X161435101Y-68551367D01*
X161416534Y-68586103D01*
X161391548Y-68616548D01*
X161361103Y-68641534D01*
X161326367Y-68660101D01*
X161288674Y-68671535D01*
X161243339Y-68676000D01*
X160156661Y-68676000D01*
X160111326Y-68671535D01*
X160073633Y-68660101D01*
X160038897Y-68641534D01*
X160008452Y-68616548D01*
X159983466Y-68586103D01*
X159964899Y-68551367D01*
X159953465Y-68513674D01*
X159949000Y-68468339D01*
X159949000Y-67631661D01*
X159953465Y-67586326D01*
X159964899Y-67548633D01*
X159983466Y-67513897D01*
X160008452Y-67483452D01*
X160038897Y-67458466D01*
X160073633Y-67439899D01*
X160111326Y-67428465D01*
X160156661Y-67424000D01*
X161243339Y-67424000D01*
X161288674Y-67428465D01*
X161288674Y-67428465D01*
G37*
G36*
X158574274Y-64478465D02*
G01*
X158611967Y-64489899D01*
X158646703Y-64508466D01*
X158677148Y-64533452D01*
X158702134Y-64563897D01*
X158720701Y-64598633D01*
X158732135Y-64636326D01*
X158736600Y-64681661D01*
X158736600Y-65518339D01*
X158732135Y-65563674D01*
X158720701Y-65601367D01*
X158702134Y-65636103D01*
X158677148Y-65666548D01*
X158646703Y-65691534D01*
X158611967Y-65710101D01*
X158574274Y-65721535D01*
X158528939Y-65726000D01*
X157442261Y-65726000D01*
X157396926Y-65721535D01*
X157359233Y-65710101D01*
X157324497Y-65691534D01*
X157294052Y-65666548D01*
X157269066Y-65636103D01*
X157250499Y-65601367D01*
X157239065Y-65563674D01*
X157234600Y-65518339D01*
X157234600Y-64681661D01*
X157239065Y-64636326D01*
X157250499Y-64598633D01*
X157269066Y-64563897D01*
X157294052Y-64533452D01*
X157324497Y-64508466D01*
X157359233Y-64489899D01*
X157396926Y-64478465D01*
X157442261Y-64474000D01*
X158528939Y-64474000D01*
X158574274Y-64478465D01*
X158574274Y-64478465D01*
G37*
G36*
X156038674Y-64478465D02*
G01*
X156076367Y-64489899D01*
X156111103Y-64508466D01*
X156141548Y-64533452D01*
X156166534Y-64563897D01*
X156185101Y-64598633D01*
X156196535Y-64636326D01*
X156201000Y-64681661D01*
X156201000Y-65518339D01*
X156196535Y-65563674D01*
X156185101Y-65601367D01*
X156166534Y-65636103D01*
X156141548Y-65666548D01*
X156111103Y-65691534D01*
X156076367Y-65710101D01*
X156038674Y-65721535D01*
X155993339Y-65726000D01*
X154906661Y-65726000D01*
X154861326Y-65721535D01*
X154823633Y-65710101D01*
X154788897Y-65691534D01*
X154758452Y-65666548D01*
X154733466Y-65636103D01*
X154714899Y-65601367D01*
X154703465Y-65563674D01*
X154699000Y-65518339D01*
X154699000Y-64681661D01*
X154703465Y-64636326D01*
X154714899Y-64598633D01*
X154733466Y-64563897D01*
X154758452Y-64533452D01*
X154788897Y-64508466D01*
X154823633Y-64489899D01*
X154861326Y-64478465D01*
X154906661Y-64474000D01*
X155993339Y-64474000D01*
X156038674Y-64478465D01*
X156038674Y-64478465D01*
G37*
G36*
X153314499Y-64528445D02*
G01*
X153351995Y-64539820D01*
X153386554Y-64558292D01*
X153416847Y-64583153D01*
X153441708Y-64613446D01*
X153460180Y-64648005D01*
X153471555Y-64685501D01*
X153476000Y-64730638D01*
X153476000Y-65469362D01*
X153471555Y-65514499D01*
X153460180Y-65551995D01*
X153441708Y-65586554D01*
X153416847Y-65616847D01*
X153386554Y-65641708D01*
X153351995Y-65660180D01*
X153314499Y-65671555D01*
X153269362Y-65676000D01*
X152630638Y-65676000D01*
X152585501Y-65671555D01*
X152548005Y-65660180D01*
X152513446Y-65641708D01*
X152483153Y-65616847D01*
X152458292Y-65586554D01*
X152439820Y-65551995D01*
X152428445Y-65514499D01*
X152424000Y-65469362D01*
X152424000Y-64730638D01*
X152428445Y-64685501D01*
X152439820Y-64648005D01*
X152458292Y-64613446D01*
X152483153Y-64583153D01*
X152513446Y-64558292D01*
X152548005Y-64539820D01*
X152585501Y-64528445D01*
X152630638Y-64524000D01*
X153269362Y-64524000D01*
X153314499Y-64528445D01*
X153314499Y-64528445D01*
G37*
G36*
X168086425Y-62862760D02*
G01*
X168086428Y-62862761D01*
X168086429Y-62862761D01*
X168265693Y-62917140D01*
X168265696Y-62917142D01*
X168265697Y-62917142D01*
X168430903Y-63005446D01*
X168575712Y-63124288D01*
X168694554Y-63269097D01*
X168766568Y-63403827D01*
X168782860Y-63434307D01*
X168830928Y-63592766D01*
X168837240Y-63613575D01*
X168855601Y-63800000D01*
X168837240Y-63986425D01*
X168837239Y-63986428D01*
X168837239Y-63986429D01*
X168782860Y-64165693D01*
X168782858Y-64165696D01*
X168782858Y-64165697D01*
X168694554Y-64330903D01*
X168575712Y-64475712D01*
X168430903Y-64594554D01*
X168267936Y-64681661D01*
X168265693Y-64682860D01*
X168086429Y-64737239D01*
X168086428Y-64737239D01*
X168086425Y-64737240D01*
X167946718Y-64751000D01*
X166053282Y-64751000D01*
X165913575Y-64737240D01*
X165913572Y-64737239D01*
X165913571Y-64737239D01*
X165734307Y-64682860D01*
X165732064Y-64681661D01*
X165569097Y-64594554D01*
X165424288Y-64475712D01*
X165305446Y-64330903D01*
X165217142Y-64165697D01*
X165217142Y-64165696D01*
X165217140Y-64165693D01*
X165162761Y-63986429D01*
X165162761Y-63986428D01*
X165162760Y-63986425D01*
X165144399Y-63800000D01*
X165162760Y-63613575D01*
X165169072Y-63592766D01*
X165217140Y-63434307D01*
X165233432Y-63403827D01*
X165305446Y-63269097D01*
X165424288Y-63124288D01*
X165569097Y-63005446D01*
X165734303Y-62917142D01*
X165734304Y-62917142D01*
X165734307Y-62917140D01*
X165913571Y-62862761D01*
X165913572Y-62862761D01*
X165913575Y-62862760D01*
X166053282Y-62849000D01*
X167946718Y-62849000D01*
X168086425Y-62862760D01*
X168086425Y-62862760D01*
G37*
G36*
X153314499Y-62778445D02*
G01*
X153351995Y-62789820D01*
X153386554Y-62808292D01*
X153416847Y-62833153D01*
X153441708Y-62863446D01*
X153460180Y-62898005D01*
X153471555Y-62935501D01*
X153476000Y-62980638D01*
X153476000Y-63719362D01*
X153471555Y-63764499D01*
X153460180Y-63801995D01*
X153441708Y-63836554D01*
X153416847Y-63866847D01*
X153386554Y-63891708D01*
X153351995Y-63910180D01*
X153314499Y-63921555D01*
X153269362Y-63926000D01*
X152630638Y-63926000D01*
X152585501Y-63921555D01*
X152548005Y-63910180D01*
X152513446Y-63891708D01*
X152483153Y-63866847D01*
X152458292Y-63836554D01*
X152439820Y-63801995D01*
X152428445Y-63764499D01*
X152424000Y-63719362D01*
X152424000Y-62980638D01*
X152428445Y-62935501D01*
X152439820Y-62898005D01*
X152458292Y-62863446D01*
X152483153Y-62833153D01*
X152513446Y-62808292D01*
X152548005Y-62789820D01*
X152585501Y-62778445D01*
X152630638Y-62774000D01*
X153269362Y-62774000D01*
X153314499Y-62778445D01*
X153314499Y-62778445D01*
G37*
G36*
X184877395Y-61835546D02*
G01*
X185050466Y-61907234D01*
X185050467Y-61907235D01*
X185206227Y-62011310D01*
X185338690Y-62143773D01*
X185338691Y-62143775D01*
X185442766Y-62299534D01*
X185514454Y-62472605D01*
X185551000Y-62656333D01*
X185551000Y-62843667D01*
X185514454Y-63027395D01*
X185442766Y-63200466D01*
X185442765Y-63200467D01*
X185338690Y-63356227D01*
X185206227Y-63488690D01*
X185127818Y-63541081D01*
X185050466Y-63592766D01*
X184877395Y-63664454D01*
X184693667Y-63701000D01*
X184506333Y-63701000D01*
X184322605Y-63664454D01*
X184149534Y-63592766D01*
X184072182Y-63541081D01*
X183993773Y-63488690D01*
X183861310Y-63356227D01*
X183757235Y-63200467D01*
X183757234Y-63200466D01*
X183685546Y-63027395D01*
X183649000Y-62843667D01*
X183649000Y-62656333D01*
X183685546Y-62472605D01*
X183757234Y-62299534D01*
X183861309Y-62143775D01*
X183861310Y-62143773D01*
X183993773Y-62011310D01*
X184149533Y-61907235D01*
X184149534Y-61907234D01*
X184322605Y-61835546D01*
X184506333Y-61799000D01*
X184693667Y-61799000D01*
X184877395Y-61835546D01*
X184877395Y-61835546D01*
G37*
G36*
X158574274Y-62428465D02*
G01*
X158611967Y-62439899D01*
X158646703Y-62458466D01*
X158677148Y-62483452D01*
X158702134Y-62513897D01*
X158720701Y-62548633D01*
X158732135Y-62586326D01*
X158736600Y-62631661D01*
X158736600Y-63468339D01*
X158732135Y-63513674D01*
X158720701Y-63551367D01*
X158702134Y-63586103D01*
X158677148Y-63616548D01*
X158646703Y-63641534D01*
X158611967Y-63660101D01*
X158574274Y-63671535D01*
X158528939Y-63676000D01*
X157442261Y-63676000D01*
X157396926Y-63671535D01*
X157359233Y-63660101D01*
X157324497Y-63641534D01*
X157294052Y-63616548D01*
X157269066Y-63586103D01*
X157250499Y-63551367D01*
X157239065Y-63513674D01*
X157234600Y-63468339D01*
X157234600Y-62631661D01*
X157239065Y-62586326D01*
X157250499Y-62548633D01*
X157269066Y-62513897D01*
X157294052Y-62483452D01*
X157324497Y-62458466D01*
X157359233Y-62439899D01*
X157396926Y-62428465D01*
X157442261Y-62424000D01*
X158528939Y-62424000D01*
X158574274Y-62428465D01*
X158574274Y-62428465D01*
G37*
G36*
X156038674Y-62428465D02*
G01*
X156076367Y-62439899D01*
X156111103Y-62458466D01*
X156141548Y-62483452D01*
X156166534Y-62513897D01*
X156185101Y-62548633D01*
X156196535Y-62586326D01*
X156201000Y-62631661D01*
X156201000Y-63468339D01*
X156196535Y-63513674D01*
X156185101Y-63551367D01*
X156166534Y-63586103D01*
X156141548Y-63616548D01*
X156111103Y-63641534D01*
X156076367Y-63660101D01*
X156038674Y-63671535D01*
X155993339Y-63676000D01*
X154906661Y-63676000D01*
X154861326Y-63671535D01*
X154823633Y-63660101D01*
X154788897Y-63641534D01*
X154758452Y-63616548D01*
X154733466Y-63586103D01*
X154714899Y-63551367D01*
X154703465Y-63513674D01*
X154699000Y-63468339D01*
X154699000Y-62631661D01*
X154703465Y-62586326D01*
X154714899Y-62548633D01*
X154733466Y-62513897D01*
X154758452Y-62483452D01*
X154788897Y-62458466D01*
X154823633Y-62439899D01*
X154861326Y-62428465D01*
X154906661Y-62424000D01*
X155993339Y-62424000D01*
X156038674Y-62428465D01*
X156038674Y-62428465D01*
G37*
G36*
X162386425Y-58962760D02*
G01*
X162386428Y-58962761D01*
X162386429Y-58962761D01*
X162565693Y-59017140D01*
X162565696Y-59017142D01*
X162565697Y-59017142D01*
X162730903Y-59105446D01*
X162875712Y-59224288D01*
X162994554Y-59369097D01*
X163079166Y-59527396D01*
X163082860Y-59534307D01*
X163133264Y-59700467D01*
X163137240Y-59713575D01*
X163151000Y-59853282D01*
X163151000Y-61746718D01*
X163137240Y-61886425D01*
X163137239Y-61886428D01*
X163137239Y-61886429D01*
X163082860Y-62065693D01*
X163082858Y-62065696D01*
X163082858Y-62065697D01*
X162994554Y-62230903D01*
X162875712Y-62375712D01*
X162730903Y-62494554D01*
X162565696Y-62582858D01*
X162565692Y-62582860D01*
X162386428Y-62637239D01*
X162386427Y-62637239D01*
X162386424Y-62637240D01*
X162200000Y-62655601D01*
X162013575Y-62637240D01*
X162013572Y-62637239D01*
X162013571Y-62637239D01*
X161834307Y-62582860D01*
X161834303Y-62582858D01*
X161669097Y-62494554D01*
X161524288Y-62375712D01*
X161405446Y-62230903D01*
X161317142Y-62065696D01*
X161317141Y-62065693D01*
X161317140Y-62065692D01*
X161262761Y-61886428D01*
X161262761Y-61886427D01*
X161262760Y-61886424D01*
X161249000Y-61746717D01*
X161249000Y-59853283D01*
X161262761Y-59713575D01*
X161266737Y-59700467D01*
X161317141Y-59534307D01*
X161320835Y-59527396D01*
X161405447Y-59369097D01*
X161524289Y-59224288D01*
X161669098Y-59105446D01*
X161834304Y-59017142D01*
X161834305Y-59017142D01*
X161834308Y-59017140D01*
X162013572Y-58962761D01*
X162013573Y-58962761D01*
X162013576Y-58962760D01*
X162200000Y-58944399D01*
X162386425Y-58962760D01*
X162386425Y-58962760D01*
G37*
G36*
X158651000Y-60651000D02*
G01*
X156849000Y-60651000D01*
X156849000Y-58849000D01*
X158651000Y-58849000D01*
X158651000Y-60651000D01*
X158651000Y-60651000D01*
G37*
G36*
X179677395Y-58335546D02*
G01*
X179850466Y-58407234D01*
X179850467Y-58407235D01*
X180006227Y-58511310D01*
X180138690Y-58643773D01*
X180138691Y-58643775D01*
X180242766Y-58799534D01*
X180314454Y-58972605D01*
X180351000Y-59156333D01*
X180351000Y-59343667D01*
X180314454Y-59527395D01*
X180242766Y-59700466D01*
X180234007Y-59713575D01*
X180138690Y-59856227D01*
X180006227Y-59988690D01*
X179927818Y-60041081D01*
X179850466Y-60092766D01*
X179677395Y-60164454D01*
X179493667Y-60201000D01*
X179306333Y-60201000D01*
X179122605Y-60164454D01*
X178949534Y-60092766D01*
X178872182Y-60041081D01*
X178793773Y-59988690D01*
X178661310Y-59856227D01*
X178565993Y-59713575D01*
X178557234Y-59700466D01*
X178485546Y-59527395D01*
X178449000Y-59343667D01*
X178449000Y-59156333D01*
X178485546Y-58972605D01*
X178557234Y-58799534D01*
X178661309Y-58643775D01*
X178661310Y-58643773D01*
X178793773Y-58511310D01*
X178949533Y-58407235D01*
X178949534Y-58407234D01*
X179122605Y-58335546D01*
X179306333Y-58299000D01*
X179493667Y-58299000D01*
X179677395Y-58335546D01*
X179677395Y-58335546D01*
G37*
G36*
X168086425Y-57062760D02*
G01*
X168086428Y-57062761D01*
X168086429Y-57062761D01*
X168265693Y-57117140D01*
X168265696Y-57117142D01*
X168265697Y-57117142D01*
X168430903Y-57205446D01*
X168575712Y-57324288D01*
X168694554Y-57469097D01*
X168782858Y-57634303D01*
X168782860Y-57634307D01*
X168806728Y-57712991D01*
X168837240Y-57813575D01*
X168855601Y-58000000D01*
X168837240Y-58186425D01*
X168837239Y-58186428D01*
X168837239Y-58186429D01*
X168782860Y-58365693D01*
X168782858Y-58365696D01*
X168782858Y-58365697D01*
X168694554Y-58530903D01*
X168575712Y-58675712D01*
X168430903Y-58794554D01*
X168265697Y-58882858D01*
X168265693Y-58882860D01*
X168086429Y-58937239D01*
X168086428Y-58937239D01*
X168086425Y-58937240D01*
X167946718Y-58951000D01*
X166053282Y-58951000D01*
X165913575Y-58937240D01*
X165913572Y-58937239D01*
X165913571Y-58937239D01*
X165734307Y-58882860D01*
X165734303Y-58882858D01*
X165569097Y-58794554D01*
X165424288Y-58675712D01*
X165305446Y-58530903D01*
X165217142Y-58365697D01*
X165217142Y-58365696D01*
X165217140Y-58365693D01*
X165162761Y-58186429D01*
X165162761Y-58186428D01*
X165162760Y-58186425D01*
X165144399Y-58000000D01*
X165162760Y-57813575D01*
X165193272Y-57712991D01*
X165217140Y-57634307D01*
X165217142Y-57634303D01*
X165305446Y-57469097D01*
X165424288Y-57324288D01*
X165569097Y-57205446D01*
X165734303Y-57117142D01*
X165734304Y-57117142D01*
X165734307Y-57117140D01*
X165913571Y-57062761D01*
X165913572Y-57062761D01*
X165913575Y-57062760D01*
X166053282Y-57049000D01*
X167946718Y-57049000D01*
X168086425Y-57062760D01*
X168086425Y-57062760D01*
G37*
G36*
X157860442Y-56315518D02*
G01*
X157926627Y-56322037D01*
X158096466Y-56373557D01*
X158252991Y-56457222D01*
X158288729Y-56486552D01*
X158390186Y-56569814D01*
X158467853Y-56664453D01*
X158502778Y-56707009D01*
X158586443Y-56863534D01*
X158637963Y-57033373D01*
X158655359Y-57210000D01*
X158637963Y-57386627D01*
X158586443Y-57556466D01*
X158502778Y-57712991D01*
X158473448Y-57748729D01*
X158390186Y-57850186D01*
X158288729Y-57933448D01*
X158252991Y-57962778D01*
X158096466Y-58046443D01*
X157926627Y-58097963D01*
X157860443Y-58104481D01*
X157794260Y-58111000D01*
X157705740Y-58111000D01*
X157639557Y-58104481D01*
X157573373Y-58097963D01*
X157403534Y-58046443D01*
X157247009Y-57962778D01*
X157211271Y-57933448D01*
X157109814Y-57850186D01*
X157026552Y-57748729D01*
X156997222Y-57712991D01*
X156913557Y-57556466D01*
X156862037Y-57386627D01*
X156844641Y-57210000D01*
X156862037Y-57033373D01*
X156913557Y-56863534D01*
X156997222Y-56707009D01*
X157032147Y-56664453D01*
X157109814Y-56569814D01*
X157211271Y-56486552D01*
X157247009Y-56457222D01*
X157403534Y-56373557D01*
X157573373Y-56322037D01*
X157639558Y-56315518D01*
X157705740Y-56309000D01*
X157794260Y-56309000D01*
X157860442Y-56315518D01*
X157860442Y-56315518D01*
G37*
G36*
X184877395Y-54835546D02*
G01*
X185050466Y-54907234D01*
X185050467Y-54907235D01*
X185206227Y-55011310D01*
X185338690Y-55143773D01*
X185338691Y-55143775D01*
X185442766Y-55299534D01*
X185514454Y-55472605D01*
X185551000Y-55656333D01*
X185551000Y-55843667D01*
X185514454Y-56027395D01*
X185442766Y-56200466D01*
X185442765Y-56200467D01*
X185338690Y-56356227D01*
X185206227Y-56488690D01*
X185127818Y-56541081D01*
X185050466Y-56592766D01*
X184877395Y-56664454D01*
X184693667Y-56701000D01*
X184506333Y-56701000D01*
X184322605Y-56664454D01*
X184149534Y-56592766D01*
X184072182Y-56541081D01*
X183993773Y-56488690D01*
X183861310Y-56356227D01*
X183757235Y-56200467D01*
X183757234Y-56200466D01*
X183685546Y-56027395D01*
X183649000Y-55843667D01*
X183649000Y-55656333D01*
X183685546Y-55472605D01*
X183757234Y-55299534D01*
X183861309Y-55143775D01*
X183861310Y-55143773D01*
X183993773Y-55011310D01*
X184149533Y-54907235D01*
X184149534Y-54907234D01*
X184322605Y-54835546D01*
X184506333Y-54799000D01*
X184693667Y-54799000D01*
X184877395Y-54835546D01*
X184877395Y-54835546D01*
G37*
G36*
X179677395Y-51335546D02*
G01*
X179850466Y-51407234D01*
X179850467Y-51407235D01*
X180006227Y-51511310D01*
X180138690Y-51643773D01*
X180138691Y-51643775D01*
X180242766Y-51799534D01*
X180314454Y-51972605D01*
X180351000Y-52156333D01*
X180351000Y-52343667D01*
X180314454Y-52527395D01*
X180242766Y-52700466D01*
X180242765Y-52700467D01*
X180138690Y-52856227D01*
X180006227Y-52988690D01*
X179927818Y-53041081D01*
X179850466Y-53092766D01*
X179677395Y-53164454D01*
X179493667Y-53201000D01*
X179306333Y-53201000D01*
X179122605Y-53164454D01*
X178949534Y-53092766D01*
X178872182Y-53041081D01*
X178793773Y-52988690D01*
X178661310Y-52856227D01*
X178557235Y-52700467D01*
X178557234Y-52700466D01*
X178485546Y-52527395D01*
X178449000Y-52343667D01*
X178449000Y-52156333D01*
X178485546Y-51972605D01*
X178557234Y-51799534D01*
X178661309Y-51643775D01*
X178661310Y-51643773D01*
X178793773Y-51511310D01*
X178949533Y-51407235D01*
X178949534Y-51407234D01*
X179122605Y-51335546D01*
X179306333Y-51299000D01*
X179493667Y-51299000D01*
X179677395Y-51335546D01*
X179677395Y-51335546D01*
G37*
M02*
