G04 #@! TF.GenerationSoftware,KiCad,Pcbnew,(5.1.4)-1*
G04 #@! TF.CreationDate,2023-08-30T00:45:50+02:00*
G04 #@! TF.ProjectId,BeeWeight_MKRWAN_V4,42656557-6569-4676-9874-5f4d4b525741,V4*
G04 #@! TF.SameCoordinates,Original*
G04 #@! TF.FileFunction,Profile,NP*
%FSLAX46Y46*%
G04 Gerber Fmt 4.6, Leading zero omitted, Abs format (unit mm)*
G04 Created by KiCad (PCBNEW (5.1.4)-1) date 2023-08-30 00:45:50*
%MOMM*%
%LPD*%
G04 APERTURE LIST*
%ADD10C,0.050000*%
G04 APERTURE END LIST*
D10*
X153250000Y-117400000D02*
X151600000Y-117400000D01*
X161000000Y-117400000D02*
X154250000Y-117400000D01*
X189000000Y-117400000D02*
X162000000Y-117400000D01*
X161000000Y-117250000D02*
X161000000Y-117400000D01*
X162000000Y-117250000D02*
X162000000Y-117400000D01*
X154250000Y-117250000D02*
X154250000Y-117400000D01*
X153250000Y-117250000D02*
X153250000Y-117400000D01*
X158000000Y-111000000D02*
G75*
G02X158000000Y-112000000I0J-500000D01*
G01*
X156000000Y-112000000D02*
G75*
G02X156000000Y-111000000I0J500000D01*
G01*
X158000000Y-112000000D02*
X156000000Y-112000000D01*
X156000000Y-111000000D02*
X158000000Y-111000000D01*
X161000000Y-112250000D02*
G75*
G02X162000000Y-112250000I500000J0D01*
G01*
X153250000Y-112250000D02*
G75*
G02X154250000Y-112250000I500000J0D01*
G01*
X153250000Y-112250000D02*
X153250000Y-117250000D01*
X154250000Y-117250000D02*
X154250000Y-112250000D01*
X162000000Y-112250000D02*
X162000000Y-117250000D01*
X161000000Y-117250000D02*
X161000000Y-112250000D01*
X189400000Y-117000000D02*
G75*
G02X189000000Y-117400000I-400000J0D01*
G01*
X151600000Y-117400000D02*
G75*
G02X151200000Y-117000000I0J400000D01*
G01*
X151200000Y-50400000D02*
G75*
G02X151600000Y-50000000I400000J0D01*
G01*
X189000000Y-50000000D02*
G75*
G02X189400000Y-50400000I0J-400000D01*
G01*
X189400000Y-117000000D02*
X189400000Y-50400000D01*
X151200000Y-50400000D02*
X151200000Y-117000000D01*
X189000000Y-50000000D02*
X151600000Y-50000000D01*
M02*
