G04 #@! TF.GenerationSoftware,KiCad,Pcbnew,(5.1.4)-1*
G04 #@! TF.CreationDate,2023-08-23T10:41:24+02:00*
G04 #@! TF.ProjectId,BeeWeight_MKRWAN_V4,42656557-6569-4676-9874-5f4d4b525741,V4*
G04 #@! TF.SameCoordinates,Original*
G04 #@! TF.FileFunction,Legend,Top*
G04 #@! TF.FilePolarity,Positive*
%FSLAX46Y46*%
G04 Gerber Fmt 4.6, Leading zero omitted, Abs format (unit mm)*
G04 Created by KiCad (PCBNEW (5.1.4)-1) date 2023-08-23 10:41:24*
%MOMM*%
%LPD*%
G04 APERTURE LIST*
%ADD10C,0.120000*%
%ADD11C,0.150000*%
%ADD12C,0.400000*%
%ADD13C,0.200000*%
%ADD14C,0.127000*%
%ADD15C,0.100000*%
%ADD16C,0.120124*%
G04 APERTURE END LIST*
D10*
X173939200Y-106511400D02*
X172609200Y-106511400D01*
X172609200Y-106511400D02*
X172609200Y-105181400D01*
X172609200Y-103911400D02*
X172609200Y-70831400D01*
X175269200Y-70831400D02*
X172609200Y-70831400D01*
X175269200Y-103911400D02*
X175269200Y-70831400D01*
X175269200Y-103911400D02*
X172609200Y-103911400D01*
D11*
X170425000Y-90775000D02*
X169775000Y-90775000D01*
X169850000Y-85025000D02*
X169850000Y-83425000D01*
X170425000Y-85025000D02*
X170425000Y-90775000D01*
X159775000Y-90775000D02*
X160425000Y-90775000D01*
X170425000Y-85025000D02*
X169850000Y-85025000D01*
X159775000Y-85025000D02*
X159775000Y-90775000D01*
X159775000Y-85025000D02*
X160425000Y-85025000D01*
D10*
X165900000Y-114450000D02*
X165900000Y-115050000D01*
X163800000Y-113750000D02*
X165200000Y-113750000D01*
X163100000Y-115050000D02*
X163100000Y-114450000D01*
X165200000Y-115750000D02*
X163800000Y-115750000D01*
X165900000Y-115050000D02*
G75*
G02X165200000Y-115750000I-700000J0D01*
G01*
X165200000Y-113750000D02*
G75*
G02X165900000Y-114450000I0J-700000D01*
G01*
X163100000Y-114450000D02*
G75*
G02X163800000Y-113750000I700000J0D01*
G01*
X163800000Y-115750000D02*
G75*
G02X163100000Y-115050000I0J700000D01*
G01*
D12*
X186028300Y-115349200D02*
G75*
G03X186028300Y-115349200I-100000J0D01*
G01*
D13*
X189528300Y-117099200D02*
X177328300Y-117099200D01*
X189528300Y-101399200D02*
X189528300Y-117099200D01*
X177328300Y-101399200D02*
X189528300Y-101399200D01*
X177328300Y-117099200D02*
X177328300Y-101399200D01*
D12*
X185800000Y-81500000D02*
G75*
G03X185800000Y-81500000I-100000J0D01*
G01*
D13*
X189300000Y-83250000D02*
X177100000Y-83250000D01*
X189300000Y-67550000D02*
X189300000Y-83250000D01*
X177100000Y-67550000D02*
X189300000Y-67550000D01*
X177100000Y-83250000D02*
X177100000Y-67550000D01*
D10*
X159246267Y-93140000D02*
X158903733Y-93140000D01*
X159246267Y-94160000D02*
X158903733Y-94160000D01*
D13*
X177078300Y-100284200D02*
X177078300Y-84584200D01*
X177078300Y-84584200D02*
X189278300Y-84584200D01*
X189278300Y-84584200D02*
X189278300Y-100284200D01*
X189278300Y-100284200D02*
X177078300Y-100284200D01*
D12*
X185778300Y-98534200D02*
G75*
G03X185778300Y-98534200I-100000J0D01*
G01*
D10*
X156310000Y-61080000D02*
X156310000Y-55880000D01*
X156310000Y-55880000D02*
X153650000Y-55880000D01*
X153650000Y-55880000D02*
X153650000Y-61080000D01*
X153650000Y-61080000D02*
X156310000Y-61080000D01*
X156640000Y-60130000D02*
X156310000Y-60130000D01*
X156640000Y-59370000D02*
X156310000Y-59370000D01*
X156310000Y-58480000D02*
X153650000Y-58480000D01*
X156707071Y-57590000D02*
X156310000Y-57590000D01*
X156707071Y-56830000D02*
X156310000Y-56830000D01*
X159020000Y-59750000D02*
X159020000Y-61020000D01*
X159020000Y-61020000D02*
X157750000Y-61020000D01*
X153631900Y-70844100D02*
X154961900Y-70844100D01*
X154961900Y-70844100D02*
X154961900Y-72174100D01*
X154961900Y-73444100D02*
X154961900Y-106524100D01*
X152301900Y-106524100D02*
X154961900Y-106524100D01*
X152301900Y-73444100D02*
X152301900Y-106524100D01*
X152301900Y-73444100D02*
X154961900Y-73444100D01*
X162210000Y-81196267D02*
X162210000Y-80853733D01*
X161190000Y-81196267D02*
X161190000Y-80853733D01*
X159246267Y-81640000D02*
X158903733Y-81640000D01*
X159246267Y-82660000D02*
X158903733Y-82660000D01*
X157640000Y-90746267D02*
X157640000Y-90403733D01*
X158660000Y-90746267D02*
X158660000Y-90403733D01*
X162210000Y-95153733D02*
X162210000Y-95496267D01*
X161190000Y-95153733D02*
X161190000Y-95496267D01*
X162940000Y-81196267D02*
X162940000Y-80853733D01*
X163960000Y-81196267D02*
X163960000Y-80853733D01*
X158660000Y-84928733D02*
X158660000Y-85271267D01*
X157640000Y-84928733D02*
X157640000Y-85271267D01*
X163290000Y-95153733D02*
X163290000Y-95496267D01*
X164310000Y-95153733D02*
X164310000Y-95496267D01*
X157690000Y-69271267D02*
X157690000Y-68928733D01*
X158710000Y-69271267D02*
X158710000Y-68928733D01*
X152440000Y-64396267D02*
X152440000Y-64053733D01*
X153460000Y-64396267D02*
X153460000Y-64053733D01*
X169621267Y-79640000D02*
X169278733Y-79640000D01*
X169621267Y-80660000D02*
X169278733Y-80660000D01*
X166246267Y-79640000D02*
X165903733Y-79640000D01*
X166246267Y-80660000D02*
X165903733Y-80660000D01*
X159240000Y-114328733D02*
X159240000Y-114671267D01*
X160260000Y-114328733D02*
X160260000Y-114671267D01*
D12*
X185800000Y-64500000D02*
G75*
G03X185800000Y-64500000I-100000J0D01*
G01*
D13*
X189300000Y-66250000D02*
X177100000Y-66250000D01*
X189300000Y-50550000D02*
X189300000Y-66250000D01*
X177100000Y-50550000D02*
X189300000Y-50550000D01*
X177100000Y-66250000D02*
X177100000Y-50550000D01*
X171600000Y-64800000D02*
X171600000Y-50100000D01*
X162400000Y-64800000D02*
X162400000Y-62900000D01*
X171600000Y-64800000D02*
X168600000Y-64800000D01*
X171600000Y-50100000D02*
X162400000Y-50100000D01*
X162400000Y-58700000D02*
X162400000Y-50100000D01*
X165400000Y-64800000D02*
X162400000Y-64800000D01*
D10*
X165260000Y-112780000D02*
X165260000Y-111850000D01*
X165260000Y-109620000D02*
X165260000Y-110550000D01*
X165260000Y-109620000D02*
X163100000Y-109620000D01*
X165260000Y-112780000D02*
X163800000Y-112780000D01*
X162013748Y-108460000D02*
X162536252Y-108460000D01*
X162013748Y-107040000D02*
X162536252Y-107040000D01*
X162490000Y-69386252D02*
X162490000Y-68863748D01*
X163910000Y-69386252D02*
X163910000Y-68863748D01*
X159990000Y-68813748D02*
X159990000Y-69336252D01*
X161410000Y-68813748D02*
X161410000Y-69336252D01*
X157275600Y-63813748D02*
X157275600Y-64336252D01*
X158695600Y-63813748D02*
X158695600Y-64336252D01*
X154740000Y-64336252D02*
X154740000Y-63813748D01*
X156160000Y-64336252D02*
X156160000Y-63813748D01*
X156290000Y-108061252D02*
X156290000Y-107538748D01*
X157710000Y-108061252D02*
X157710000Y-107538748D01*
X158490000Y-108061252D02*
X158490000Y-107538748D01*
X159910000Y-108061252D02*
X159910000Y-107538748D01*
D14*
X155750000Y-115750000D02*
X158250000Y-115750000D01*
X158250000Y-113250000D02*
X155750000Y-113250000D01*
D15*
X155600000Y-113300000D02*
G75*
G03X155600000Y-113300000I-100000J0D01*
G01*
D11*
X173656666Y-69175380D02*
X173656666Y-69889666D01*
X173609047Y-70032523D01*
X173513809Y-70127761D01*
X173370952Y-70175380D01*
X173275714Y-70175380D01*
X174275714Y-69603952D02*
X174180476Y-69556333D01*
X174132857Y-69508714D01*
X174085238Y-69413476D01*
X174085238Y-69365857D01*
X174132857Y-69270619D01*
X174180476Y-69223000D01*
X174275714Y-69175380D01*
X174466190Y-69175380D01*
X174561428Y-69223000D01*
X174609047Y-69270619D01*
X174656666Y-69365857D01*
X174656666Y-69413476D01*
X174609047Y-69508714D01*
X174561428Y-69556333D01*
X174466190Y-69603952D01*
X174275714Y-69603952D01*
X174180476Y-69651571D01*
X174132857Y-69699190D01*
X174085238Y-69794428D01*
X174085238Y-69984904D01*
X174132857Y-70080142D01*
X174180476Y-70127761D01*
X174275714Y-70175380D01*
X174466190Y-70175380D01*
X174561428Y-70127761D01*
X174609047Y-70080142D01*
X174656666Y-69984904D01*
X174656666Y-69794428D01*
X174609047Y-69699190D01*
X174561428Y-69651571D01*
X174466190Y-69603952D01*
X170688095Y-87530180D02*
X170688095Y-88339704D01*
X170735714Y-88434942D01*
X170783333Y-88482561D01*
X170878571Y-88530180D01*
X171069047Y-88530180D01*
X171164285Y-88482561D01*
X171211904Y-88434942D01*
X171259523Y-88339704D01*
X171259523Y-87530180D01*
X172259523Y-88530180D02*
X171688095Y-88530180D01*
X171973809Y-88530180D02*
X171973809Y-87530180D01*
X171878571Y-87673038D01*
X171783333Y-87768276D01*
X171688095Y-87815895D01*
X163766666Y-116052380D02*
X163766666Y-116766666D01*
X163719047Y-116909523D01*
X163623809Y-117004761D01*
X163480952Y-117052380D01*
X163385714Y-117052380D01*
X164242857Y-117052380D02*
X164242857Y-116052380D01*
X164623809Y-116052380D01*
X164719047Y-116100000D01*
X164766666Y-116147619D01*
X164814285Y-116242857D01*
X164814285Y-116385714D01*
X164766666Y-116480952D01*
X164719047Y-116528571D01*
X164623809Y-116576190D01*
X164242857Y-116576190D01*
X165766666Y-117052380D02*
X165195238Y-117052380D01*
X165480952Y-117052380D02*
X165480952Y-116052380D01*
X165385714Y-116195238D01*
X165290476Y-116290476D01*
X165195238Y-116338095D01*
X160285409Y-76126190D02*
X160285409Y-76602380D01*
X159952076Y-75602380D02*
X160285409Y-76126190D01*
X160618742Y-75602380D01*
X161475885Y-76602380D02*
X160904457Y-76602380D01*
X161190171Y-76602380D02*
X161190171Y-75602380D01*
X161094933Y-75745238D01*
X160999695Y-75840476D01*
X160904457Y-75888095D01*
X156033333Y-94007142D02*
X155985714Y-94054761D01*
X155842857Y-94102380D01*
X155747619Y-94102380D01*
X155604761Y-94054761D01*
X155509523Y-93959523D01*
X155461904Y-93864285D01*
X155414285Y-93673809D01*
X155414285Y-93530952D01*
X155461904Y-93340476D01*
X155509523Y-93245238D01*
X155604761Y-93150000D01*
X155747619Y-93102380D01*
X155842857Y-93102380D01*
X155985714Y-93150000D01*
X156033333Y-93197619D01*
X156366666Y-93102380D02*
X157033333Y-93102380D01*
X156604761Y-94102380D01*
X157416666Y-54202380D02*
X157416666Y-54916666D01*
X157369047Y-55059523D01*
X157273809Y-55154761D01*
X157130952Y-55202380D01*
X157035714Y-55202380D01*
X158321428Y-54202380D02*
X158130952Y-54202380D01*
X158035714Y-54250000D01*
X157988095Y-54297619D01*
X157892857Y-54440476D01*
X157845238Y-54630952D01*
X157845238Y-55011904D01*
X157892857Y-55107142D01*
X157940476Y-55154761D01*
X158035714Y-55202380D01*
X158226190Y-55202380D01*
X158321428Y-55154761D01*
X158369047Y-55107142D01*
X158416666Y-55011904D01*
X158416666Y-54773809D01*
X158369047Y-54678571D01*
X158321428Y-54630952D01*
X158226190Y-54583333D01*
X158035714Y-54583333D01*
X157940476Y-54630952D01*
X157892857Y-54678571D01*
X157845238Y-54773809D01*
X153298566Y-68856480D02*
X153298566Y-69570766D01*
X153250947Y-69713623D01*
X153155709Y-69808861D01*
X153012852Y-69856480D01*
X152917614Y-69856480D01*
X153679519Y-68856480D02*
X154346185Y-68856480D01*
X153917614Y-69856480D01*
X161033333Y-79057142D02*
X160985714Y-79104761D01*
X160842857Y-79152380D01*
X160747619Y-79152380D01*
X160604761Y-79104761D01*
X160509523Y-79009523D01*
X160461904Y-78914285D01*
X160414285Y-78723809D01*
X160414285Y-78580952D01*
X160461904Y-78390476D01*
X160509523Y-78295238D01*
X160604761Y-78200000D01*
X160747619Y-78152380D01*
X160842857Y-78152380D01*
X160985714Y-78200000D01*
X161033333Y-78247619D01*
X161985714Y-79152380D02*
X161414285Y-79152380D01*
X161700000Y-79152380D02*
X161700000Y-78152380D01*
X161604761Y-78295238D01*
X161509523Y-78390476D01*
X161414285Y-78438095D01*
X158783333Y-81007142D02*
X158735714Y-81054761D01*
X158592857Y-81102380D01*
X158497619Y-81102380D01*
X158354761Y-81054761D01*
X158259523Y-80959523D01*
X158211904Y-80864285D01*
X158164285Y-80673809D01*
X158164285Y-80530952D01*
X158211904Y-80340476D01*
X158259523Y-80245238D01*
X158354761Y-80150000D01*
X158497619Y-80102380D01*
X158592857Y-80102380D01*
X158735714Y-80150000D01*
X158783333Y-80197619D01*
X159164285Y-80197619D02*
X159211904Y-80150000D01*
X159307142Y-80102380D01*
X159545238Y-80102380D01*
X159640476Y-80150000D01*
X159688095Y-80197619D01*
X159735714Y-80292857D01*
X159735714Y-80388095D01*
X159688095Y-80530952D01*
X159116666Y-81102380D01*
X159735714Y-81102380D01*
X155983333Y-90932142D02*
X155935714Y-90979761D01*
X155792857Y-91027380D01*
X155697619Y-91027380D01*
X155554761Y-90979761D01*
X155459523Y-90884523D01*
X155411904Y-90789285D01*
X155364285Y-90598809D01*
X155364285Y-90455952D01*
X155411904Y-90265476D01*
X155459523Y-90170238D01*
X155554761Y-90075000D01*
X155697619Y-90027380D01*
X155792857Y-90027380D01*
X155935714Y-90075000D01*
X155983333Y-90122619D01*
X156316666Y-90027380D02*
X156935714Y-90027380D01*
X156602380Y-90408333D01*
X156745238Y-90408333D01*
X156840476Y-90455952D01*
X156888095Y-90503571D01*
X156935714Y-90598809D01*
X156935714Y-90836904D01*
X156888095Y-90932142D01*
X156840476Y-90979761D01*
X156745238Y-91027380D01*
X156459523Y-91027380D01*
X156364285Y-90979761D01*
X156316666Y-90932142D01*
X161533333Y-98157142D02*
X161485714Y-98204761D01*
X161342857Y-98252380D01*
X161247619Y-98252380D01*
X161104761Y-98204761D01*
X161009523Y-98109523D01*
X160961904Y-98014285D01*
X160914285Y-97823809D01*
X160914285Y-97680952D01*
X160961904Y-97490476D01*
X161009523Y-97395238D01*
X161104761Y-97300000D01*
X161247619Y-97252380D01*
X161342857Y-97252380D01*
X161485714Y-97300000D01*
X161533333Y-97347619D01*
X162390476Y-97585714D02*
X162390476Y-98252380D01*
X162152380Y-97204761D02*
X161914285Y-97919047D01*
X162533333Y-97919047D01*
X163233333Y-79057142D02*
X163185714Y-79104761D01*
X163042857Y-79152380D01*
X162947619Y-79152380D01*
X162804761Y-79104761D01*
X162709523Y-79009523D01*
X162661904Y-78914285D01*
X162614285Y-78723809D01*
X162614285Y-78580952D01*
X162661904Y-78390476D01*
X162709523Y-78295238D01*
X162804761Y-78200000D01*
X162947619Y-78152380D01*
X163042857Y-78152380D01*
X163185714Y-78200000D01*
X163233333Y-78247619D01*
X164138095Y-78152380D02*
X163661904Y-78152380D01*
X163614285Y-78628571D01*
X163661904Y-78580952D01*
X163757142Y-78533333D01*
X163995238Y-78533333D01*
X164090476Y-78580952D01*
X164138095Y-78628571D01*
X164185714Y-78723809D01*
X164185714Y-78961904D01*
X164138095Y-79057142D01*
X164090476Y-79104761D01*
X163995238Y-79152380D01*
X163757142Y-79152380D01*
X163661904Y-79104761D01*
X163614285Y-79057142D01*
X156033333Y-85507142D02*
X155985714Y-85554761D01*
X155842857Y-85602380D01*
X155747619Y-85602380D01*
X155604761Y-85554761D01*
X155509523Y-85459523D01*
X155461904Y-85364285D01*
X155414285Y-85173809D01*
X155414285Y-85030952D01*
X155461904Y-84840476D01*
X155509523Y-84745238D01*
X155604761Y-84650000D01*
X155747619Y-84602380D01*
X155842857Y-84602380D01*
X155985714Y-84650000D01*
X156033333Y-84697619D01*
X156890476Y-84602380D02*
X156700000Y-84602380D01*
X156604761Y-84650000D01*
X156557142Y-84697619D01*
X156461904Y-84840476D01*
X156414285Y-85030952D01*
X156414285Y-85411904D01*
X156461904Y-85507142D01*
X156509523Y-85554761D01*
X156604761Y-85602380D01*
X156795238Y-85602380D01*
X156890476Y-85554761D01*
X156938095Y-85507142D01*
X156985714Y-85411904D01*
X156985714Y-85173809D01*
X156938095Y-85078571D01*
X156890476Y-85030952D01*
X156795238Y-84983333D01*
X156604761Y-84983333D01*
X156509523Y-85030952D01*
X156461904Y-85078571D01*
X156414285Y-85173809D01*
X163633333Y-98157142D02*
X163585714Y-98204761D01*
X163442857Y-98252380D01*
X163347619Y-98252380D01*
X163204761Y-98204761D01*
X163109523Y-98109523D01*
X163061904Y-98014285D01*
X163014285Y-97823809D01*
X163014285Y-97680952D01*
X163061904Y-97490476D01*
X163109523Y-97395238D01*
X163204761Y-97300000D01*
X163347619Y-97252380D01*
X163442857Y-97252380D01*
X163585714Y-97300000D01*
X163633333Y-97347619D01*
X164204761Y-97680952D02*
X164109523Y-97633333D01*
X164061904Y-97585714D01*
X164014285Y-97490476D01*
X164014285Y-97442857D01*
X164061904Y-97347619D01*
X164109523Y-97300000D01*
X164204761Y-97252380D01*
X164395238Y-97252380D01*
X164490476Y-97300000D01*
X164538095Y-97347619D01*
X164585714Y-97442857D01*
X164585714Y-97490476D01*
X164538095Y-97585714D01*
X164490476Y-97633333D01*
X164395238Y-97680952D01*
X164204761Y-97680952D01*
X164109523Y-97728571D01*
X164061904Y-97776190D01*
X164014285Y-97871428D01*
X164014285Y-98061904D01*
X164061904Y-98157142D01*
X164109523Y-98204761D01*
X164204761Y-98252380D01*
X164395238Y-98252380D01*
X164490476Y-98204761D01*
X164538095Y-98157142D01*
X164585714Y-98061904D01*
X164585714Y-97871428D01*
X164538095Y-97776190D01*
X164490476Y-97728571D01*
X164395238Y-97680952D01*
X158033333Y-71957142D02*
X157985714Y-72004761D01*
X157842857Y-72052380D01*
X157747619Y-72052380D01*
X157604761Y-72004761D01*
X157509523Y-71909523D01*
X157461904Y-71814285D01*
X157414285Y-71623809D01*
X157414285Y-71480952D01*
X157461904Y-71290476D01*
X157509523Y-71195238D01*
X157604761Y-71100000D01*
X157747619Y-71052380D01*
X157842857Y-71052380D01*
X157985714Y-71100000D01*
X158033333Y-71147619D01*
X158509523Y-72052380D02*
X158700000Y-72052380D01*
X158795238Y-72004761D01*
X158842857Y-71957142D01*
X158938095Y-71814285D01*
X158985714Y-71623809D01*
X158985714Y-71242857D01*
X158938095Y-71147619D01*
X158890476Y-71100000D01*
X158795238Y-71052380D01*
X158604761Y-71052380D01*
X158509523Y-71100000D01*
X158461904Y-71147619D01*
X158414285Y-71242857D01*
X158414285Y-71480952D01*
X158461904Y-71576190D01*
X158509523Y-71623809D01*
X158604761Y-71671428D01*
X158795238Y-71671428D01*
X158890476Y-71623809D01*
X158938095Y-71576190D01*
X158985714Y-71480952D01*
X152307142Y-66957142D02*
X152259523Y-67004761D01*
X152116666Y-67052380D01*
X152021428Y-67052380D01*
X151878571Y-67004761D01*
X151783333Y-66909523D01*
X151735714Y-66814285D01*
X151688095Y-66623809D01*
X151688095Y-66480952D01*
X151735714Y-66290476D01*
X151783333Y-66195238D01*
X151878571Y-66100000D01*
X152021428Y-66052380D01*
X152116666Y-66052380D01*
X152259523Y-66100000D01*
X152307142Y-66147619D01*
X153259523Y-67052380D02*
X152688095Y-67052380D01*
X152973809Y-67052380D02*
X152973809Y-66052380D01*
X152878571Y-66195238D01*
X152783333Y-66290476D01*
X152688095Y-66338095D01*
X153592857Y-66052380D02*
X154211904Y-66052380D01*
X153878571Y-66433333D01*
X154021428Y-66433333D01*
X154116666Y-66480952D01*
X154164285Y-66528571D01*
X154211904Y-66623809D01*
X154211904Y-66861904D01*
X154164285Y-66957142D01*
X154116666Y-67004761D01*
X154021428Y-67052380D01*
X153735714Y-67052380D01*
X153640476Y-67004761D01*
X153592857Y-66957142D01*
X168757142Y-79157142D02*
X168709523Y-79204761D01*
X168566666Y-79252380D01*
X168471428Y-79252380D01*
X168328571Y-79204761D01*
X168233333Y-79109523D01*
X168185714Y-79014285D01*
X168138095Y-78823809D01*
X168138095Y-78680952D01*
X168185714Y-78490476D01*
X168233333Y-78395238D01*
X168328571Y-78300000D01*
X168471428Y-78252380D01*
X168566666Y-78252380D01*
X168709523Y-78300000D01*
X168757142Y-78347619D01*
X169709523Y-79252380D02*
X169138095Y-79252380D01*
X169423809Y-79252380D02*
X169423809Y-78252380D01*
X169328571Y-78395238D01*
X169233333Y-78490476D01*
X169138095Y-78538095D01*
X170566666Y-78585714D02*
X170566666Y-79252380D01*
X170328571Y-78204761D02*
X170090476Y-78919047D01*
X170709523Y-78919047D01*
X165432142Y-79157142D02*
X165384523Y-79204761D01*
X165241666Y-79252380D01*
X165146428Y-79252380D01*
X165003571Y-79204761D01*
X164908333Y-79109523D01*
X164860714Y-79014285D01*
X164813095Y-78823809D01*
X164813095Y-78680952D01*
X164860714Y-78490476D01*
X164908333Y-78395238D01*
X165003571Y-78300000D01*
X165146428Y-78252380D01*
X165241666Y-78252380D01*
X165384523Y-78300000D01*
X165432142Y-78347619D01*
X166384523Y-79252380D02*
X165813095Y-79252380D01*
X166098809Y-79252380D02*
X166098809Y-78252380D01*
X166003571Y-78395238D01*
X165908333Y-78490476D01*
X165813095Y-78538095D01*
X167289285Y-78252380D02*
X166813095Y-78252380D01*
X166765476Y-78728571D01*
X166813095Y-78680952D01*
X166908333Y-78633333D01*
X167146428Y-78633333D01*
X167241666Y-78680952D01*
X167289285Y-78728571D01*
X167336904Y-78823809D01*
X167336904Y-79061904D01*
X167289285Y-79157142D01*
X167241666Y-79204761D01*
X167146428Y-79252380D01*
X166908333Y-79252380D01*
X166813095Y-79204761D01*
X166765476Y-79157142D01*
X160097142Y-112022857D02*
X160144761Y-112070476D01*
X160192380Y-112213333D01*
X160192380Y-112308571D01*
X160144761Y-112451428D01*
X160049523Y-112546666D01*
X159954285Y-112594285D01*
X159763809Y-112641904D01*
X159620952Y-112641904D01*
X159430476Y-112594285D01*
X159335238Y-112546666D01*
X159240000Y-112451428D01*
X159192380Y-112308571D01*
X159192380Y-112213333D01*
X159240000Y-112070476D01*
X159287619Y-112022857D01*
X160192380Y-111070476D02*
X160192380Y-111641904D01*
X160192380Y-111356190D02*
X159192380Y-111356190D01*
X159335238Y-111451428D01*
X159430476Y-111546666D01*
X159478095Y-111641904D01*
X159192380Y-110213333D02*
X159192380Y-110403809D01*
X159240000Y-110499047D01*
X159287619Y-110546666D01*
X159430476Y-110641904D01*
X159620952Y-110689523D01*
X160001904Y-110689523D01*
X160097142Y-110641904D01*
X160144761Y-110594285D01*
X160192380Y-110499047D01*
X160192380Y-110308571D01*
X160144761Y-110213333D01*
X160097142Y-110165714D01*
X160001904Y-110118095D01*
X159763809Y-110118095D01*
X159668571Y-110165714D01*
X159620952Y-110213333D01*
X159573333Y-110308571D01*
X159573333Y-110499047D01*
X159620952Y-110594285D01*
X159668571Y-110641904D01*
X159763809Y-110689523D01*
X165504761Y-109147619D02*
X165409523Y-109100000D01*
X165314285Y-109004761D01*
X165171428Y-108861904D01*
X165076190Y-108814285D01*
X164980952Y-108814285D01*
X165028571Y-109052380D02*
X164933333Y-109004761D01*
X164838095Y-108909523D01*
X164790476Y-108719047D01*
X164790476Y-108385714D01*
X164838095Y-108195238D01*
X164933333Y-108100000D01*
X165028571Y-108052380D01*
X165219047Y-108052380D01*
X165314285Y-108100000D01*
X165409523Y-108195238D01*
X165457142Y-108385714D01*
X165457142Y-108719047D01*
X165409523Y-108909523D01*
X165314285Y-109004761D01*
X165219047Y-109052380D01*
X165028571Y-109052380D01*
X166409523Y-109052380D02*
X165838095Y-109052380D01*
X166123809Y-109052380D02*
X166123809Y-108052380D01*
X166028571Y-108195238D01*
X165933333Y-108290476D01*
X165838095Y-108338095D01*
X162108333Y-106552380D02*
X161775000Y-106076190D01*
X161536904Y-106552380D02*
X161536904Y-105552380D01*
X161917857Y-105552380D01*
X162013095Y-105600000D01*
X162060714Y-105647619D01*
X162108333Y-105742857D01*
X162108333Y-105885714D01*
X162060714Y-105980952D01*
X162013095Y-106028571D01*
X161917857Y-106076190D01*
X161536904Y-106076190D01*
X163060714Y-106552380D02*
X162489285Y-106552380D01*
X162775000Y-106552380D02*
X162775000Y-105552380D01*
X162679761Y-105695238D01*
X162584523Y-105790476D01*
X162489285Y-105838095D01*
X163033333Y-72052380D02*
X162700000Y-71576190D01*
X162461904Y-72052380D02*
X162461904Y-71052380D01*
X162842857Y-71052380D01*
X162938095Y-71100000D01*
X162985714Y-71147619D01*
X163033333Y-71242857D01*
X163033333Y-71385714D01*
X162985714Y-71480952D01*
X162938095Y-71528571D01*
X162842857Y-71576190D01*
X162461904Y-71576190D01*
X163414285Y-71147619D02*
X163461904Y-71100000D01*
X163557142Y-71052380D01*
X163795238Y-71052380D01*
X163890476Y-71100000D01*
X163938095Y-71147619D01*
X163985714Y-71242857D01*
X163985714Y-71338095D01*
X163938095Y-71480952D01*
X163366666Y-72052380D01*
X163985714Y-72052380D01*
X160533333Y-72052380D02*
X160200000Y-71576190D01*
X159961904Y-72052380D02*
X159961904Y-71052380D01*
X160342857Y-71052380D01*
X160438095Y-71100000D01*
X160485714Y-71147619D01*
X160533333Y-71242857D01*
X160533333Y-71385714D01*
X160485714Y-71480952D01*
X160438095Y-71528571D01*
X160342857Y-71576190D01*
X159961904Y-71576190D01*
X160866666Y-71052380D02*
X161485714Y-71052380D01*
X161152380Y-71433333D01*
X161295238Y-71433333D01*
X161390476Y-71480952D01*
X161438095Y-71528571D01*
X161485714Y-71623809D01*
X161485714Y-71861904D01*
X161438095Y-71957142D01*
X161390476Y-72004761D01*
X161295238Y-72052380D01*
X161009523Y-72052380D01*
X160914285Y-72004761D01*
X160866666Y-71957142D01*
X157783333Y-67052380D02*
X157450000Y-66576190D01*
X157211904Y-67052380D02*
X157211904Y-66052380D01*
X157592857Y-66052380D01*
X157688095Y-66100000D01*
X157735714Y-66147619D01*
X157783333Y-66242857D01*
X157783333Y-66385714D01*
X157735714Y-66480952D01*
X157688095Y-66528571D01*
X157592857Y-66576190D01*
X157211904Y-66576190D01*
X158640476Y-66385714D02*
X158640476Y-67052380D01*
X158402380Y-66004761D02*
X158164285Y-66719047D01*
X158783333Y-66719047D01*
X155283333Y-67052380D02*
X154950000Y-66576190D01*
X154711904Y-67052380D02*
X154711904Y-66052380D01*
X155092857Y-66052380D01*
X155188095Y-66100000D01*
X155235714Y-66147619D01*
X155283333Y-66242857D01*
X155283333Y-66385714D01*
X155235714Y-66480952D01*
X155188095Y-66528571D01*
X155092857Y-66576190D01*
X154711904Y-66576190D01*
X156188095Y-66052380D02*
X155711904Y-66052380D01*
X155664285Y-66528571D01*
X155711904Y-66480952D01*
X155807142Y-66433333D01*
X156045238Y-66433333D01*
X156140476Y-66480952D01*
X156188095Y-66528571D01*
X156235714Y-66623809D01*
X156235714Y-66861904D01*
X156188095Y-66957142D01*
X156140476Y-67004761D01*
X156045238Y-67052380D01*
X155807142Y-67052380D01*
X155711904Y-67004761D01*
X155664285Y-66957142D01*
X156833333Y-105652380D02*
X156500000Y-105176190D01*
X156261904Y-105652380D02*
X156261904Y-104652380D01*
X156642857Y-104652380D01*
X156738095Y-104700000D01*
X156785714Y-104747619D01*
X156833333Y-104842857D01*
X156833333Y-104985714D01*
X156785714Y-105080952D01*
X156738095Y-105128571D01*
X156642857Y-105176190D01*
X156261904Y-105176190D01*
X157690476Y-104652380D02*
X157500000Y-104652380D01*
X157404761Y-104700000D01*
X157357142Y-104747619D01*
X157261904Y-104890476D01*
X157214285Y-105080952D01*
X157214285Y-105461904D01*
X157261904Y-105557142D01*
X157309523Y-105604761D01*
X157404761Y-105652380D01*
X157595238Y-105652380D01*
X157690476Y-105604761D01*
X157738095Y-105557142D01*
X157785714Y-105461904D01*
X157785714Y-105223809D01*
X157738095Y-105128571D01*
X157690476Y-105080952D01*
X157595238Y-105033333D01*
X157404761Y-105033333D01*
X157309523Y-105080952D01*
X157261904Y-105128571D01*
X157214285Y-105223809D01*
X158833333Y-105652380D02*
X158500000Y-105176190D01*
X158261904Y-105652380D02*
X158261904Y-104652380D01*
X158642857Y-104652380D01*
X158738095Y-104700000D01*
X158785714Y-104747619D01*
X158833333Y-104842857D01*
X158833333Y-104985714D01*
X158785714Y-105080952D01*
X158738095Y-105128571D01*
X158642857Y-105176190D01*
X158261904Y-105176190D01*
X159166666Y-104652380D02*
X159833333Y-104652380D01*
X159404761Y-105652380D01*
D16*
X156357629Y-112330108D02*
X156357629Y-112719079D01*
X156380510Y-112764841D01*
X156403390Y-112787721D01*
X156449152Y-112810602D01*
X156540674Y-112810602D01*
X156586436Y-112787721D01*
X156609316Y-112764841D01*
X156632197Y-112719079D01*
X156632197Y-112330108D01*
X156838123Y-112375869D02*
X156861004Y-112352989D01*
X156906765Y-112330108D01*
X157021168Y-112330108D01*
X157066930Y-112352989D01*
X157089810Y-112375869D01*
X157112691Y-112421631D01*
X157112691Y-112467392D01*
X157089810Y-112536034D01*
X156815242Y-112810602D01*
X157112691Y-112810602D01*
D11*
M02*
