G04 #@! TF.GenerationSoftware,KiCad,Pcbnew,(5.1.4)-1*
G04 #@! TF.CreationDate,2023-08-23T10:41:25+02:00*
G04 #@! TF.ProjectId,BeeWeight_MKRWAN_V4,42656557-6569-4676-9874-5f4d4b525741,V4*
G04 #@! TF.SameCoordinates,Original*
G04 #@! TF.FileFunction,Legend,Bot*
G04 #@! TF.FilePolarity,Positive*
%FSLAX46Y46*%
G04 Gerber Fmt 4.6, Leading zero omitted, Abs format (unit mm)*
G04 Created by KiCad (PCBNEW (5.1.4)-1) date 2023-08-23 10:41:25*
%MOMM*%
%LPD*%
G04 APERTURE LIST*
%ADD10C,0.150000*%
%ADD11C,0.120000*%
G04 APERTURE END LIST*
D10*
X156571428Y-57603571D02*
X156428571Y-57651190D01*
X156380952Y-57698809D01*
X156333333Y-57794047D01*
X156333333Y-57936904D01*
X156380952Y-58032142D01*
X156428571Y-58079761D01*
X156523809Y-58127380D01*
X156904761Y-58127380D01*
X156904761Y-57127380D01*
X156571428Y-57127380D01*
X156476190Y-57175000D01*
X156428571Y-57222619D01*
X156380952Y-57317857D01*
X156380952Y-57413095D01*
X156428571Y-57508333D01*
X156476190Y-57555952D01*
X156571428Y-57603571D01*
X156904761Y-57603571D01*
X155476190Y-58127380D02*
X155476190Y-57603571D01*
X155523809Y-57508333D01*
X155619047Y-57460714D01*
X155809523Y-57460714D01*
X155904761Y-57508333D01*
X155476190Y-58079761D02*
X155571428Y-58127380D01*
X155809523Y-58127380D01*
X155904761Y-58079761D01*
X155952380Y-57984523D01*
X155952380Y-57889285D01*
X155904761Y-57794047D01*
X155809523Y-57746428D01*
X155571428Y-57746428D01*
X155476190Y-57698809D01*
X155142857Y-57460714D02*
X154761904Y-57460714D01*
X155000000Y-57127380D02*
X155000000Y-57984523D01*
X154952380Y-58079761D01*
X154857142Y-58127380D01*
X154761904Y-58127380D01*
X154571428Y-57460714D02*
X154190476Y-57460714D01*
X154428571Y-57127380D02*
X154428571Y-57984523D01*
X154380952Y-58079761D01*
X154285714Y-58127380D01*
X154190476Y-58127380D01*
X153476190Y-58079761D02*
X153571428Y-58127380D01*
X153761904Y-58127380D01*
X153857142Y-58079761D01*
X153904761Y-57984523D01*
X153904761Y-57603571D01*
X153857142Y-57508333D01*
X153761904Y-57460714D01*
X153571428Y-57460714D01*
X153476190Y-57508333D01*
X153428571Y-57603571D01*
X153428571Y-57698809D01*
X153904761Y-57794047D01*
X153000000Y-58127380D02*
X153000000Y-57460714D01*
X153000000Y-57651190D02*
X152952380Y-57555952D01*
X152904761Y-57508333D01*
X152809523Y-57460714D01*
X152714285Y-57460714D01*
X152476190Y-57460714D02*
X152238095Y-58127380D01*
X152000000Y-57460714D02*
X152238095Y-58127380D01*
X152333333Y-58365476D01*
X152380952Y-58413095D01*
X152476190Y-58460714D01*
X155976190Y-58777380D02*
X155357142Y-58777380D01*
X155690476Y-59158333D01*
X155547619Y-59158333D01*
X155452380Y-59205952D01*
X155404761Y-59253571D01*
X155357142Y-59348809D01*
X155357142Y-59586904D01*
X155404761Y-59682142D01*
X155452380Y-59729761D01*
X155547619Y-59777380D01*
X155833333Y-59777380D01*
X155928571Y-59729761D01*
X155976190Y-59682142D01*
X154928571Y-59682142D02*
X154880952Y-59729761D01*
X154928571Y-59777380D01*
X154976190Y-59729761D01*
X154928571Y-59682142D01*
X154928571Y-59777380D01*
X154547619Y-58777380D02*
X153880952Y-58777380D01*
X154309523Y-59777380D01*
X153642857Y-58777380D02*
X153309523Y-59777380D01*
X152976190Y-58777380D01*
X169988095Y-52004761D02*
X169845238Y-52052380D01*
X169607142Y-52052380D01*
X169511904Y-52004761D01*
X169464285Y-51957142D01*
X169416666Y-51861904D01*
X169416666Y-51766666D01*
X169464285Y-51671428D01*
X169511904Y-51623809D01*
X169607142Y-51576190D01*
X169797619Y-51528571D01*
X169892857Y-51480952D01*
X169940476Y-51433333D01*
X169988095Y-51338095D01*
X169988095Y-51242857D01*
X169940476Y-51147619D01*
X169892857Y-51100000D01*
X169797619Y-51052380D01*
X169559523Y-51052380D01*
X169416666Y-51100000D01*
X168845238Y-52052380D02*
X168940476Y-52004761D01*
X168988095Y-51957142D01*
X169035714Y-51861904D01*
X169035714Y-51576190D01*
X168988095Y-51480952D01*
X168940476Y-51433333D01*
X168845238Y-51385714D01*
X168702380Y-51385714D01*
X168607142Y-51433333D01*
X168559523Y-51480952D01*
X168511904Y-51576190D01*
X168511904Y-51861904D01*
X168559523Y-51957142D01*
X168607142Y-52004761D01*
X168702380Y-52052380D01*
X168845238Y-52052380D01*
X167940476Y-52052380D02*
X168035714Y-52004761D01*
X168083333Y-51909523D01*
X168083333Y-51052380D01*
X167130952Y-52052380D02*
X167130952Y-51528571D01*
X167178571Y-51433333D01*
X167273809Y-51385714D01*
X167464285Y-51385714D01*
X167559523Y-51433333D01*
X167130952Y-52004761D02*
X167226190Y-52052380D01*
X167464285Y-52052380D01*
X167559523Y-52004761D01*
X167607142Y-51909523D01*
X167607142Y-51814285D01*
X167559523Y-51719047D01*
X167464285Y-51671428D01*
X167226190Y-51671428D01*
X167130952Y-51623809D01*
X166654761Y-52052380D02*
X166654761Y-51385714D01*
X166654761Y-51576190D02*
X166607142Y-51480952D01*
X166559523Y-51433333D01*
X166464285Y-51385714D01*
X166369047Y-51385714D01*
X165273809Y-52052380D02*
X165273809Y-51052380D01*
X164892857Y-51052380D01*
X164797619Y-51100000D01*
X164750000Y-51147619D01*
X164702380Y-51242857D01*
X164702380Y-51385714D01*
X164750000Y-51480952D01*
X164797619Y-51528571D01*
X164892857Y-51576190D01*
X165273809Y-51576190D01*
X163845238Y-52052380D02*
X163845238Y-51528571D01*
X163892857Y-51433333D01*
X163988095Y-51385714D01*
X164178571Y-51385714D01*
X164273809Y-51433333D01*
X163845238Y-52004761D02*
X163940476Y-52052380D01*
X164178571Y-52052380D01*
X164273809Y-52004761D01*
X164321428Y-51909523D01*
X164321428Y-51814285D01*
X164273809Y-51719047D01*
X164178571Y-51671428D01*
X163940476Y-51671428D01*
X163845238Y-51623809D01*
X163369047Y-51385714D02*
X163369047Y-52052380D01*
X163369047Y-51480952D02*
X163321428Y-51433333D01*
X163226190Y-51385714D01*
X163083333Y-51385714D01*
X162988095Y-51433333D01*
X162940476Y-51528571D01*
X162940476Y-52052380D01*
X162083333Y-52004761D02*
X162178571Y-52052380D01*
X162369047Y-52052380D01*
X162464285Y-52004761D01*
X162511904Y-51909523D01*
X162511904Y-51528571D01*
X162464285Y-51433333D01*
X162369047Y-51385714D01*
X162178571Y-51385714D01*
X162083333Y-51433333D01*
X162035714Y-51528571D01*
X162035714Y-51623809D01*
X162511904Y-51719047D01*
X161464285Y-52052380D02*
X161559523Y-52004761D01*
X161607142Y-51909523D01*
X161607142Y-51052380D01*
X166130952Y-53702380D02*
X166226190Y-53654761D01*
X166273809Y-53607142D01*
X166321428Y-53511904D01*
X166321428Y-53226190D01*
X166273809Y-53130952D01*
X166226190Y-53083333D01*
X166130952Y-53035714D01*
X165988095Y-53035714D01*
X165892857Y-53083333D01*
X165845238Y-53130952D01*
X165797619Y-53226190D01*
X165797619Y-53511904D01*
X165845238Y-53607142D01*
X165892857Y-53654761D01*
X165988095Y-53702380D01*
X166130952Y-53702380D01*
X165369047Y-53702380D02*
X165369047Y-53035714D01*
X165369047Y-53226190D02*
X165321428Y-53130952D01*
X165273809Y-53083333D01*
X165178571Y-53035714D01*
X165083333Y-53035714D01*
X169369047Y-54685714D02*
X169369047Y-55352380D01*
X169607142Y-54304761D02*
X169845238Y-55019047D01*
X169226190Y-55019047D01*
X168988095Y-54352380D02*
X168654761Y-55352380D01*
X168321428Y-54352380D01*
X167988095Y-54971428D02*
X167226190Y-54971428D01*
X166226190Y-55352380D02*
X166797619Y-55352380D01*
X166511904Y-55352380D02*
X166511904Y-54352380D01*
X166607142Y-54495238D01*
X166702380Y-54590476D01*
X166797619Y-54638095D01*
X165892857Y-54352380D02*
X165226190Y-54352380D01*
X165654761Y-55352380D01*
X164988095Y-54352380D02*
X164654761Y-55352380D01*
X164321428Y-54352380D01*
X163226190Y-55352380D02*
X163226190Y-54352380D01*
X162988095Y-54352380D01*
X162845238Y-54400000D01*
X162750000Y-54495238D01*
X162702380Y-54590476D01*
X162654761Y-54780952D01*
X162654761Y-54923809D01*
X162702380Y-55114285D01*
X162750000Y-55209523D01*
X162845238Y-55304761D01*
X162988095Y-55352380D01*
X163226190Y-55352380D01*
X161654761Y-55257142D02*
X161702380Y-55304761D01*
X161845238Y-55352380D01*
X161940476Y-55352380D01*
X162083333Y-55304761D01*
X162178571Y-55209523D01*
X162226190Y-55114285D01*
X162273809Y-54923809D01*
X162273809Y-54780952D01*
X162226190Y-54590476D01*
X162178571Y-54495238D01*
X162083333Y-54400000D01*
X161940476Y-54352380D01*
X161845238Y-54352380D01*
X161702380Y-54400000D01*
X161654761Y-54447619D01*
X183044952Y-89940333D02*
X182664000Y-89940333D01*
X183121142Y-90168904D02*
X182854476Y-89368904D01*
X182587809Y-90168904D01*
X182321142Y-90168904D02*
X182321142Y-89368904D01*
X181940190Y-90168904D02*
X181940190Y-89368904D01*
X181483047Y-90168904D01*
X181483047Y-89368904D01*
X181140190Y-89445095D02*
X181102095Y-89407000D01*
X181025904Y-89368904D01*
X180835428Y-89368904D01*
X180759238Y-89407000D01*
X180721142Y-89445095D01*
X180683047Y-89521285D01*
X180683047Y-89597476D01*
X180721142Y-89711761D01*
X181178285Y-90168904D01*
X180683047Y-90168904D01*
X183044952Y-86511333D02*
X182664000Y-86511333D01*
X183121142Y-86739904D02*
X182854476Y-85939904D01*
X182587809Y-86739904D01*
X182321142Y-86739904D02*
X182321142Y-85939904D01*
X181940190Y-86739904D02*
X181940190Y-85939904D01*
X181483047Y-86739904D01*
X181483047Y-85939904D01*
X181178285Y-85939904D02*
X180683047Y-85939904D01*
X180949714Y-86244666D01*
X180835428Y-86244666D01*
X180759238Y-86282761D01*
X180721142Y-86320857D01*
X180683047Y-86397047D01*
X180683047Y-86587523D01*
X180721142Y-86663714D01*
X180759238Y-86701809D01*
X180835428Y-86739904D01*
X181064000Y-86739904D01*
X181140190Y-86701809D01*
X181178285Y-86663714D01*
X183294952Y-103326333D02*
X182914000Y-103326333D01*
X183371142Y-103554904D02*
X183104476Y-102754904D01*
X182837809Y-103554904D01*
X182571142Y-103554904D02*
X182571142Y-102754904D01*
X182190190Y-103554904D02*
X182190190Y-102754904D01*
X181733047Y-103554904D01*
X181733047Y-102754904D01*
X181428285Y-102754904D02*
X180894952Y-102754904D01*
X181237809Y-103554904D01*
X183294952Y-106628333D02*
X182914000Y-106628333D01*
X183371142Y-106856904D02*
X183104476Y-106056904D01*
X182837809Y-106856904D01*
X182571142Y-106856904D02*
X182571142Y-106056904D01*
X182190190Y-106856904D02*
X182190190Y-106056904D01*
X181733047Y-106856904D01*
X181733047Y-106056904D01*
X181009238Y-106056904D02*
X181161619Y-106056904D01*
X181237809Y-106095000D01*
X181275904Y-106133095D01*
X181352095Y-106247380D01*
X181390190Y-106399761D01*
X181390190Y-106704523D01*
X181352095Y-106780714D01*
X181314000Y-106818809D01*
X181237809Y-106856904D01*
X181085428Y-106856904D01*
X181009238Y-106818809D01*
X180971142Y-106780714D01*
X180933047Y-106704523D01*
X180933047Y-106514047D01*
X180971142Y-106437857D01*
X181009238Y-106399761D01*
X181085428Y-106361666D01*
X181237809Y-106361666D01*
X181314000Y-106399761D01*
X181352095Y-106437857D01*
X181390190Y-106514047D01*
X182794952Y-52471333D02*
X182414000Y-52471333D01*
X182871142Y-52699904D02*
X182604476Y-51899904D01*
X182337809Y-52699904D01*
X182071142Y-52699904D02*
X182071142Y-51899904D01*
X181690190Y-52699904D02*
X181690190Y-51899904D01*
X181233047Y-52699904D01*
X181233047Y-51899904D01*
X180471142Y-51899904D02*
X180852095Y-51899904D01*
X180890190Y-52280857D01*
X180852095Y-52242761D01*
X180775904Y-52204666D01*
X180585428Y-52204666D01*
X180509238Y-52242761D01*
X180471142Y-52280857D01*
X180433047Y-52357047D01*
X180433047Y-52547523D01*
X180471142Y-52623714D01*
X180509238Y-52661809D01*
X180585428Y-52699904D01*
X180775904Y-52699904D01*
X180852095Y-52661809D01*
X180890190Y-52623714D01*
X182794952Y-55900333D02*
X182414000Y-55900333D01*
X182871142Y-56128904D02*
X182604476Y-55328904D01*
X182337809Y-56128904D01*
X182071142Y-56128904D02*
X182071142Y-55328904D01*
X181690190Y-56128904D02*
X181690190Y-55328904D01*
X181233047Y-56128904D01*
X181233047Y-55328904D01*
X180509238Y-55595571D02*
X180509238Y-56128904D01*
X180699714Y-55290809D02*
X180890190Y-55862238D01*
X180394952Y-55862238D01*
X182544952Y-69739333D02*
X182164000Y-69739333D01*
X182621142Y-69967904D02*
X182354476Y-69167904D01*
X182087809Y-69967904D01*
X181821142Y-69967904D02*
X181821142Y-69167904D01*
X181440190Y-69967904D02*
X181440190Y-69167904D01*
X180983047Y-69967904D01*
X180983047Y-69167904D01*
X180183047Y-69967904D02*
X180640190Y-69967904D01*
X180411619Y-69967904D02*
X180411619Y-69167904D01*
X180487809Y-69282190D01*
X180564000Y-69358380D01*
X180640190Y-69396476D01*
X182544952Y-73168333D02*
X182164000Y-73168333D01*
X182621142Y-73396904D02*
X182354476Y-72596904D01*
X182087809Y-73396904D01*
X181821142Y-73396904D02*
X181821142Y-72596904D01*
X181440190Y-73396904D02*
X181440190Y-72596904D01*
X180983047Y-73396904D01*
X180983047Y-72596904D01*
X180449714Y-72596904D02*
X180373523Y-72596904D01*
X180297333Y-72635000D01*
X180259238Y-72673095D01*
X180221142Y-72749285D01*
X180183047Y-72901666D01*
X180183047Y-73092142D01*
X180221142Y-73244523D01*
X180259238Y-73320714D01*
X180297333Y-73358809D01*
X180373523Y-73396904D01*
X180449714Y-73396904D01*
X180525904Y-73358809D01*
X180564000Y-73320714D01*
X180602095Y-73244523D01*
X180640190Y-73092142D01*
X180640190Y-72901666D01*
X180602095Y-72749285D01*
X180564000Y-72673095D01*
X180525904Y-72635000D01*
X180449714Y-72596904D01*
X188927380Y-106856904D02*
X188927380Y-106056904D01*
X188736904Y-106056904D01*
X188622619Y-106095000D01*
X188546428Y-106171190D01*
X188508333Y-106247380D01*
X188470238Y-106399761D01*
X188470238Y-106514047D01*
X188508333Y-106666428D01*
X188546428Y-106742619D01*
X188622619Y-106818809D01*
X188736904Y-106856904D01*
X188927380Y-106856904D01*
X188127380Y-106856904D02*
X188127380Y-106323571D01*
X188127380Y-106056904D02*
X188165476Y-106095000D01*
X188127380Y-106133095D01*
X188089285Y-106095000D01*
X188127380Y-106056904D01*
X188127380Y-106133095D01*
X187860714Y-106323571D02*
X187555952Y-106323571D01*
X187746428Y-106856904D02*
X187746428Y-106171190D01*
X187708333Y-106095000D01*
X187632142Y-106056904D01*
X187555952Y-106056904D01*
X187403571Y-106323571D02*
X187098809Y-106323571D01*
X187289285Y-106856904D02*
X187289285Y-106171190D01*
X187251190Y-106095000D01*
X187175000Y-106056904D01*
X187098809Y-106056904D01*
X186832142Y-106552142D02*
X186222619Y-106552142D01*
X186527380Y-106856904D02*
X186527380Y-106247380D01*
X189194047Y-113613333D02*
X188813095Y-113613333D01*
X189270238Y-113841904D02*
X189003571Y-113041904D01*
X188736904Y-113841904D01*
X188355952Y-113841904D02*
X188432142Y-113803809D01*
X188470238Y-113727619D01*
X188470238Y-113041904D01*
X188051190Y-113841904D02*
X188051190Y-113308571D01*
X188051190Y-113041904D02*
X188089285Y-113080000D01*
X188051190Y-113118095D01*
X188013095Y-113080000D01*
X188051190Y-113041904D01*
X188051190Y-113118095D01*
X187670238Y-113841904D02*
X187670238Y-113308571D01*
X187670238Y-113384761D02*
X187632142Y-113346666D01*
X187555952Y-113308571D01*
X187441666Y-113308571D01*
X187365476Y-113346666D01*
X187327380Y-113422857D01*
X187327380Y-113841904D01*
X187327380Y-113422857D02*
X187289285Y-113346666D01*
X187213095Y-113308571D01*
X187098809Y-113308571D01*
X187022619Y-113346666D01*
X186984523Y-113422857D01*
X186984523Y-113841904D01*
X186603571Y-113537142D02*
X185994047Y-113537142D01*
X186298809Y-113841904D02*
X186298809Y-113232380D01*
X188927380Y-103427904D02*
X188927380Y-102627904D01*
X188736904Y-102627904D01*
X188622619Y-102666000D01*
X188546428Y-102742190D01*
X188508333Y-102818380D01*
X188470238Y-102970761D01*
X188470238Y-103085047D01*
X188508333Y-103237428D01*
X188546428Y-103313619D01*
X188622619Y-103389809D01*
X188736904Y-103427904D01*
X188927380Y-103427904D01*
X188127380Y-103427904D02*
X188127380Y-102894571D01*
X188127380Y-102627904D02*
X188165476Y-102666000D01*
X188127380Y-102704095D01*
X188089285Y-102666000D01*
X188127380Y-102627904D01*
X188127380Y-102704095D01*
X187860714Y-102894571D02*
X187555952Y-102894571D01*
X187746428Y-103427904D02*
X187746428Y-102742190D01*
X187708333Y-102666000D01*
X187632142Y-102627904D01*
X187555952Y-102627904D01*
X187403571Y-102894571D02*
X187098809Y-102894571D01*
X187289285Y-103427904D02*
X187289285Y-102742190D01*
X187251190Y-102666000D01*
X187175000Y-102627904D01*
X187098809Y-102627904D01*
X186832142Y-103123142D02*
X186222619Y-103123142D01*
X189194047Y-109930333D02*
X188813095Y-109930333D01*
X189270238Y-110158904D02*
X189003571Y-109358904D01*
X188736904Y-110158904D01*
X188355952Y-110158904D02*
X188432142Y-110120809D01*
X188470238Y-110044619D01*
X188470238Y-109358904D01*
X188051190Y-110158904D02*
X188051190Y-109625571D01*
X188051190Y-109358904D02*
X188089285Y-109397000D01*
X188051190Y-109435095D01*
X188013095Y-109397000D01*
X188051190Y-109358904D01*
X188051190Y-109435095D01*
X187670238Y-110158904D02*
X187670238Y-109625571D01*
X187670238Y-109701761D02*
X187632142Y-109663666D01*
X187555952Y-109625571D01*
X187441666Y-109625571D01*
X187365476Y-109663666D01*
X187327380Y-109739857D01*
X187327380Y-110158904D01*
X187327380Y-109739857D02*
X187289285Y-109663666D01*
X187213095Y-109625571D01*
X187098809Y-109625571D01*
X187022619Y-109663666D01*
X186984523Y-109739857D01*
X186984523Y-110158904D01*
X186603571Y-109854142D02*
X185994047Y-109854142D01*
X188694047Y-59202333D02*
X188313095Y-59202333D01*
X188770238Y-59430904D02*
X188503571Y-58630904D01*
X188236904Y-59430904D01*
X187855952Y-59430904D02*
X187932142Y-59392809D01*
X187970238Y-59316619D01*
X187970238Y-58630904D01*
X187551190Y-59430904D02*
X187551190Y-58897571D01*
X187551190Y-58630904D02*
X187589285Y-58669000D01*
X187551190Y-58707095D01*
X187513095Y-58669000D01*
X187551190Y-58630904D01*
X187551190Y-58707095D01*
X187170238Y-59430904D02*
X187170238Y-58897571D01*
X187170238Y-58973761D02*
X187132142Y-58935666D01*
X187055952Y-58897571D01*
X186941666Y-58897571D01*
X186865476Y-58935666D01*
X186827380Y-59011857D01*
X186827380Y-59430904D01*
X186827380Y-59011857D02*
X186789285Y-58935666D01*
X186713095Y-58897571D01*
X186598809Y-58897571D01*
X186522619Y-58935666D01*
X186484523Y-59011857D01*
X186484523Y-59430904D01*
X186103571Y-59126142D02*
X185494047Y-59126142D01*
X188427380Y-52699904D02*
X188427380Y-51899904D01*
X188236904Y-51899904D01*
X188122619Y-51938000D01*
X188046428Y-52014190D01*
X188008333Y-52090380D01*
X187970238Y-52242761D01*
X187970238Y-52357047D01*
X188008333Y-52509428D01*
X188046428Y-52585619D01*
X188122619Y-52661809D01*
X188236904Y-52699904D01*
X188427380Y-52699904D01*
X187627380Y-52699904D02*
X187627380Y-52166571D01*
X187627380Y-51899904D02*
X187665476Y-51938000D01*
X187627380Y-51976095D01*
X187589285Y-51938000D01*
X187627380Y-51899904D01*
X187627380Y-51976095D01*
X187360714Y-52166571D02*
X187055952Y-52166571D01*
X187246428Y-52699904D02*
X187246428Y-52014190D01*
X187208333Y-51938000D01*
X187132142Y-51899904D01*
X187055952Y-51899904D01*
X186903571Y-52166571D02*
X186598809Y-52166571D01*
X186789285Y-52699904D02*
X186789285Y-52014190D01*
X186751190Y-51938000D01*
X186675000Y-51899904D01*
X186598809Y-51899904D01*
X186332142Y-52395142D02*
X185722619Y-52395142D01*
X188427380Y-56128904D02*
X188427380Y-55328904D01*
X188236904Y-55328904D01*
X188122619Y-55367000D01*
X188046428Y-55443190D01*
X188008333Y-55519380D01*
X187970238Y-55671761D01*
X187970238Y-55786047D01*
X188008333Y-55938428D01*
X188046428Y-56014619D01*
X188122619Y-56090809D01*
X188236904Y-56128904D01*
X188427380Y-56128904D01*
X187627380Y-56128904D02*
X187627380Y-55595571D01*
X187627380Y-55328904D02*
X187665476Y-55367000D01*
X187627380Y-55405095D01*
X187589285Y-55367000D01*
X187627380Y-55328904D01*
X187627380Y-55405095D01*
X187360714Y-55595571D02*
X187055952Y-55595571D01*
X187246428Y-56128904D02*
X187246428Y-55443190D01*
X187208333Y-55367000D01*
X187132142Y-55328904D01*
X187055952Y-55328904D01*
X186903571Y-55595571D02*
X186598809Y-55595571D01*
X186789285Y-56128904D02*
X186789285Y-55443190D01*
X186751190Y-55367000D01*
X186675000Y-55328904D01*
X186598809Y-55328904D01*
X186332142Y-55824142D02*
X185722619Y-55824142D01*
X186027380Y-56128904D02*
X186027380Y-55519380D01*
X188694047Y-62885333D02*
X188313095Y-62885333D01*
X188770238Y-63113904D02*
X188503571Y-62313904D01*
X188236904Y-63113904D01*
X187855952Y-63113904D02*
X187932142Y-63075809D01*
X187970238Y-62999619D01*
X187970238Y-62313904D01*
X187551190Y-63113904D02*
X187551190Y-62580571D01*
X187551190Y-62313904D02*
X187589285Y-62352000D01*
X187551190Y-62390095D01*
X187513095Y-62352000D01*
X187551190Y-62313904D01*
X187551190Y-62390095D01*
X187170238Y-63113904D02*
X187170238Y-62580571D01*
X187170238Y-62656761D02*
X187132142Y-62618666D01*
X187055952Y-62580571D01*
X186941666Y-62580571D01*
X186865476Y-62618666D01*
X186827380Y-62694857D01*
X186827380Y-63113904D01*
X186827380Y-62694857D02*
X186789285Y-62618666D01*
X186713095Y-62580571D01*
X186598809Y-62580571D01*
X186522619Y-62618666D01*
X186484523Y-62694857D01*
X186484523Y-63113904D01*
X186103571Y-62809142D02*
X185494047Y-62809142D01*
X185798809Y-63113904D02*
X185798809Y-62504380D01*
X188177380Y-73396904D02*
X188177380Y-72596904D01*
X187986904Y-72596904D01*
X187872619Y-72635000D01*
X187796428Y-72711190D01*
X187758333Y-72787380D01*
X187720238Y-72939761D01*
X187720238Y-73054047D01*
X187758333Y-73206428D01*
X187796428Y-73282619D01*
X187872619Y-73358809D01*
X187986904Y-73396904D01*
X188177380Y-73396904D01*
X187377380Y-73396904D02*
X187377380Y-72863571D01*
X187377380Y-72596904D02*
X187415476Y-72635000D01*
X187377380Y-72673095D01*
X187339285Y-72635000D01*
X187377380Y-72596904D01*
X187377380Y-72673095D01*
X187110714Y-72863571D02*
X186805952Y-72863571D01*
X186996428Y-73396904D02*
X186996428Y-72711190D01*
X186958333Y-72635000D01*
X186882142Y-72596904D01*
X186805952Y-72596904D01*
X186653571Y-72863571D02*
X186348809Y-72863571D01*
X186539285Y-73396904D02*
X186539285Y-72711190D01*
X186501190Y-72635000D01*
X186425000Y-72596904D01*
X186348809Y-72596904D01*
X186082142Y-73092142D02*
X185472619Y-73092142D01*
X185777380Y-73396904D02*
X185777380Y-72787380D01*
X188444047Y-80153333D02*
X188063095Y-80153333D01*
X188520238Y-80381904D02*
X188253571Y-79581904D01*
X187986904Y-80381904D01*
X187605952Y-80381904D02*
X187682142Y-80343809D01*
X187720238Y-80267619D01*
X187720238Y-79581904D01*
X187301190Y-80381904D02*
X187301190Y-79848571D01*
X187301190Y-79581904D02*
X187339285Y-79620000D01*
X187301190Y-79658095D01*
X187263095Y-79620000D01*
X187301190Y-79581904D01*
X187301190Y-79658095D01*
X186920238Y-80381904D02*
X186920238Y-79848571D01*
X186920238Y-79924761D02*
X186882142Y-79886666D01*
X186805952Y-79848571D01*
X186691666Y-79848571D01*
X186615476Y-79886666D01*
X186577380Y-79962857D01*
X186577380Y-80381904D01*
X186577380Y-79962857D02*
X186539285Y-79886666D01*
X186463095Y-79848571D01*
X186348809Y-79848571D01*
X186272619Y-79886666D01*
X186234523Y-79962857D01*
X186234523Y-80381904D01*
X185853571Y-80077142D02*
X185244047Y-80077142D01*
X185548809Y-80381904D02*
X185548809Y-79772380D01*
X188177380Y-69967904D02*
X188177380Y-69167904D01*
X187986904Y-69167904D01*
X187872619Y-69206000D01*
X187796428Y-69282190D01*
X187758333Y-69358380D01*
X187720238Y-69510761D01*
X187720238Y-69625047D01*
X187758333Y-69777428D01*
X187796428Y-69853619D01*
X187872619Y-69929809D01*
X187986904Y-69967904D01*
X188177380Y-69967904D01*
X187377380Y-69967904D02*
X187377380Y-69434571D01*
X187377380Y-69167904D02*
X187415476Y-69206000D01*
X187377380Y-69244095D01*
X187339285Y-69206000D01*
X187377380Y-69167904D01*
X187377380Y-69244095D01*
X187110714Y-69434571D02*
X186805952Y-69434571D01*
X186996428Y-69967904D02*
X186996428Y-69282190D01*
X186958333Y-69206000D01*
X186882142Y-69167904D01*
X186805952Y-69167904D01*
X186653571Y-69434571D02*
X186348809Y-69434571D01*
X186539285Y-69967904D02*
X186539285Y-69282190D01*
X186501190Y-69206000D01*
X186425000Y-69167904D01*
X186348809Y-69167904D01*
X186082142Y-69663142D02*
X185472619Y-69663142D01*
X188444047Y-76470333D02*
X188063095Y-76470333D01*
X188520238Y-76698904D02*
X188253571Y-75898904D01*
X187986904Y-76698904D01*
X187605952Y-76698904D02*
X187682142Y-76660809D01*
X187720238Y-76584619D01*
X187720238Y-75898904D01*
X187301190Y-76698904D02*
X187301190Y-76165571D01*
X187301190Y-75898904D02*
X187339285Y-75937000D01*
X187301190Y-75975095D01*
X187263095Y-75937000D01*
X187301190Y-75898904D01*
X187301190Y-75975095D01*
X186920238Y-76698904D02*
X186920238Y-76165571D01*
X186920238Y-76241761D02*
X186882142Y-76203666D01*
X186805952Y-76165571D01*
X186691666Y-76165571D01*
X186615476Y-76203666D01*
X186577380Y-76279857D01*
X186577380Y-76698904D01*
X186577380Y-76279857D02*
X186539285Y-76203666D01*
X186463095Y-76165571D01*
X186348809Y-76165571D01*
X186272619Y-76203666D01*
X186234523Y-76279857D01*
X186234523Y-76698904D01*
X185853571Y-76394142D02*
X185244047Y-76394142D01*
X188677380Y-86739904D02*
X188677380Y-85939904D01*
X188486904Y-85939904D01*
X188372619Y-85978000D01*
X188296428Y-86054190D01*
X188258333Y-86130380D01*
X188220238Y-86282761D01*
X188220238Y-86397047D01*
X188258333Y-86549428D01*
X188296428Y-86625619D01*
X188372619Y-86701809D01*
X188486904Y-86739904D01*
X188677380Y-86739904D01*
X187877380Y-86739904D02*
X187877380Y-86206571D01*
X187877380Y-85939904D02*
X187915476Y-85978000D01*
X187877380Y-86016095D01*
X187839285Y-85978000D01*
X187877380Y-85939904D01*
X187877380Y-86016095D01*
X187610714Y-86206571D02*
X187305952Y-86206571D01*
X187496428Y-86739904D02*
X187496428Y-86054190D01*
X187458333Y-85978000D01*
X187382142Y-85939904D01*
X187305952Y-85939904D01*
X187153571Y-86206571D02*
X186848809Y-86206571D01*
X187039285Y-86739904D02*
X187039285Y-86054190D01*
X187001190Y-85978000D01*
X186925000Y-85939904D01*
X186848809Y-85939904D01*
X186582142Y-86435142D02*
X185972619Y-86435142D01*
X188677380Y-90168904D02*
X188677380Y-89368904D01*
X188486904Y-89368904D01*
X188372619Y-89407000D01*
X188296428Y-89483190D01*
X188258333Y-89559380D01*
X188220238Y-89711761D01*
X188220238Y-89826047D01*
X188258333Y-89978428D01*
X188296428Y-90054619D01*
X188372619Y-90130809D01*
X188486904Y-90168904D01*
X188677380Y-90168904D01*
X187877380Y-90168904D02*
X187877380Y-89635571D01*
X187877380Y-89368904D02*
X187915476Y-89407000D01*
X187877380Y-89445095D01*
X187839285Y-89407000D01*
X187877380Y-89368904D01*
X187877380Y-89445095D01*
X187610714Y-89635571D02*
X187305952Y-89635571D01*
X187496428Y-90168904D02*
X187496428Y-89483190D01*
X187458333Y-89407000D01*
X187382142Y-89368904D01*
X187305952Y-89368904D01*
X187153571Y-89635571D02*
X186848809Y-89635571D01*
X187039285Y-90168904D02*
X187039285Y-89483190D01*
X187001190Y-89407000D01*
X186925000Y-89368904D01*
X186848809Y-89368904D01*
X186582142Y-89864142D02*
X185972619Y-89864142D01*
X186277380Y-90168904D02*
X186277380Y-89559380D01*
X188944047Y-93242333D02*
X188563095Y-93242333D01*
X189020238Y-93470904D02*
X188753571Y-92670904D01*
X188486904Y-93470904D01*
X188105952Y-93470904D02*
X188182142Y-93432809D01*
X188220238Y-93356619D01*
X188220238Y-92670904D01*
X187801190Y-93470904D02*
X187801190Y-92937571D01*
X187801190Y-92670904D02*
X187839285Y-92709000D01*
X187801190Y-92747095D01*
X187763095Y-92709000D01*
X187801190Y-92670904D01*
X187801190Y-92747095D01*
X187420238Y-93470904D02*
X187420238Y-92937571D01*
X187420238Y-93013761D02*
X187382142Y-92975666D01*
X187305952Y-92937571D01*
X187191666Y-92937571D01*
X187115476Y-92975666D01*
X187077380Y-93051857D01*
X187077380Y-93470904D01*
X187077380Y-93051857D02*
X187039285Y-92975666D01*
X186963095Y-92937571D01*
X186848809Y-92937571D01*
X186772619Y-92975666D01*
X186734523Y-93051857D01*
X186734523Y-93470904D01*
X186353571Y-93166142D02*
X185744047Y-93166142D01*
X188944047Y-96925333D02*
X188563095Y-96925333D01*
X189020238Y-97153904D02*
X188753571Y-96353904D01*
X188486904Y-97153904D01*
X188105952Y-97153904D02*
X188182142Y-97115809D01*
X188220238Y-97039619D01*
X188220238Y-96353904D01*
X187801190Y-97153904D02*
X187801190Y-96620571D01*
X187801190Y-96353904D02*
X187839285Y-96392000D01*
X187801190Y-96430095D01*
X187763095Y-96392000D01*
X187801190Y-96353904D01*
X187801190Y-96430095D01*
X187420238Y-97153904D02*
X187420238Y-96620571D01*
X187420238Y-96696761D02*
X187382142Y-96658666D01*
X187305952Y-96620571D01*
X187191666Y-96620571D01*
X187115476Y-96658666D01*
X187077380Y-96734857D01*
X187077380Y-97153904D01*
X187077380Y-96734857D02*
X187039285Y-96658666D01*
X186963095Y-96620571D01*
X186848809Y-96620571D01*
X186772619Y-96658666D01*
X186734523Y-96734857D01*
X186734523Y-97153904D01*
X186353571Y-96849142D02*
X185744047Y-96849142D01*
X186048809Y-97153904D02*
X186048809Y-96544380D01*
X176571428Y-111028571D02*
X176428571Y-111076190D01*
X176380952Y-111123809D01*
X176333333Y-111219047D01*
X176333333Y-111361904D01*
X176380952Y-111457142D01*
X176428571Y-111504761D01*
X176523809Y-111552380D01*
X176904761Y-111552380D01*
X176904761Y-110552380D01*
X176571428Y-110552380D01*
X176476190Y-110600000D01*
X176428571Y-110647619D01*
X176380952Y-110742857D01*
X176380952Y-110838095D01*
X176428571Y-110933333D01*
X176476190Y-110980952D01*
X176571428Y-111028571D01*
X176904761Y-111028571D01*
X175523809Y-111504761D02*
X175619047Y-111552380D01*
X175809523Y-111552380D01*
X175904761Y-111504761D01*
X175952380Y-111409523D01*
X175952380Y-111028571D01*
X175904761Y-110933333D01*
X175809523Y-110885714D01*
X175619047Y-110885714D01*
X175523809Y-110933333D01*
X175476190Y-111028571D01*
X175476190Y-111123809D01*
X175952380Y-111219047D01*
X174666666Y-111504761D02*
X174761904Y-111552380D01*
X174952380Y-111552380D01*
X175047619Y-111504761D01*
X175095238Y-111409523D01*
X175095238Y-111028571D01*
X175047619Y-110933333D01*
X174952380Y-110885714D01*
X174761904Y-110885714D01*
X174666666Y-110933333D01*
X174619047Y-111028571D01*
X174619047Y-111123809D01*
X175095238Y-111219047D01*
X173523809Y-110552380D02*
X173285714Y-111552380D01*
X173095238Y-110838095D01*
X172904761Y-111552380D01*
X172666666Y-110552380D01*
X171904761Y-111504761D02*
X172000000Y-111552380D01*
X172190476Y-111552380D01*
X172285714Y-111504761D01*
X172333333Y-111409523D01*
X172333333Y-111028571D01*
X172285714Y-110933333D01*
X172190476Y-110885714D01*
X172000000Y-110885714D01*
X171904761Y-110933333D01*
X171857142Y-111028571D01*
X171857142Y-111123809D01*
X172333333Y-111219047D01*
X171428571Y-111552380D02*
X171428571Y-110885714D01*
X171428571Y-110552380D02*
X171476190Y-110600000D01*
X171428571Y-110647619D01*
X171380952Y-110600000D01*
X171428571Y-110552380D01*
X171428571Y-110647619D01*
X170523809Y-110885714D02*
X170523809Y-111695238D01*
X170571428Y-111790476D01*
X170619047Y-111838095D01*
X170714285Y-111885714D01*
X170857142Y-111885714D01*
X170952380Y-111838095D01*
X170523809Y-111504761D02*
X170619047Y-111552380D01*
X170809523Y-111552380D01*
X170904761Y-111504761D01*
X170952380Y-111457142D01*
X171000000Y-111361904D01*
X171000000Y-111076190D01*
X170952380Y-110980952D01*
X170904761Y-110933333D01*
X170809523Y-110885714D01*
X170619047Y-110885714D01*
X170523809Y-110933333D01*
X170047619Y-111552380D02*
X170047619Y-110552380D01*
X169619047Y-111552380D02*
X169619047Y-111028571D01*
X169666666Y-110933333D01*
X169761904Y-110885714D01*
X169904761Y-110885714D01*
X170000000Y-110933333D01*
X170047619Y-110980952D01*
X169285714Y-110885714D02*
X168904761Y-110885714D01*
X169142857Y-110552380D02*
X169142857Y-111409523D01*
X169095238Y-111504761D01*
X169000000Y-111552380D01*
X168904761Y-111552380D01*
X167809523Y-111552380D02*
X167809523Y-110552380D01*
X167476190Y-111266666D01*
X167142857Y-110552380D01*
X167142857Y-111552380D01*
X166666666Y-111552380D02*
X166666666Y-110552380D01*
X166095238Y-111552380D02*
X166523809Y-110980952D01*
X166095238Y-110552380D02*
X166666666Y-111123809D01*
X165095238Y-111552380D02*
X165428571Y-111076190D01*
X165666666Y-111552380D02*
X165666666Y-110552380D01*
X165285714Y-110552380D01*
X165190476Y-110600000D01*
X165142857Y-110647619D01*
X165095238Y-110742857D01*
X165095238Y-110885714D01*
X165142857Y-110980952D01*
X165190476Y-111028571D01*
X165285714Y-111076190D01*
X165666666Y-111076190D01*
X164761904Y-110552380D02*
X164523809Y-111552380D01*
X164333333Y-110838095D01*
X164142857Y-111552380D01*
X163904761Y-110552380D01*
X163571428Y-111266666D02*
X163095238Y-111266666D01*
X163666666Y-111552380D02*
X163333333Y-110552380D01*
X163000000Y-111552380D01*
X162666666Y-111552380D02*
X162666666Y-110552380D01*
X162095238Y-111552380D01*
X162095238Y-110552380D01*
X178285714Y-112202380D02*
X178285714Y-113011904D01*
X178238095Y-113107142D01*
X178190476Y-113154761D01*
X178095238Y-113202380D01*
X177904761Y-113202380D01*
X177809523Y-113154761D01*
X177761904Y-113107142D01*
X177714285Y-113011904D01*
X177714285Y-112202380D01*
X177238095Y-112535714D02*
X177238095Y-113202380D01*
X177238095Y-112630952D02*
X177190476Y-112583333D01*
X177095238Y-112535714D01*
X176952380Y-112535714D01*
X176857142Y-112583333D01*
X176809523Y-112678571D01*
X176809523Y-113202380D01*
X176333333Y-113202380D02*
X176333333Y-112535714D01*
X176333333Y-112202380D02*
X176380952Y-112250000D01*
X176333333Y-112297619D01*
X176285714Y-112250000D01*
X176333333Y-112202380D01*
X176333333Y-112297619D01*
X175952380Y-112535714D02*
X175714285Y-113202380D01*
X175476190Y-112535714D01*
X174380952Y-113154761D02*
X174238095Y-113202380D01*
X174000000Y-113202380D01*
X173904761Y-113154761D01*
X173857142Y-113107142D01*
X173809523Y-113011904D01*
X173809523Y-112916666D01*
X173857142Y-112821428D01*
X173904761Y-112773809D01*
X174000000Y-112726190D01*
X174190476Y-112678571D01*
X174285714Y-112630952D01*
X174333333Y-112583333D01*
X174380952Y-112488095D01*
X174380952Y-112392857D01*
X174333333Y-112297619D01*
X174285714Y-112250000D01*
X174190476Y-112202380D01*
X173952380Y-112202380D01*
X173809523Y-112250000D01*
X172952380Y-113202380D02*
X172952380Y-112678571D01*
X173000000Y-112583333D01*
X173095238Y-112535714D01*
X173285714Y-112535714D01*
X173380952Y-112583333D01*
X172952380Y-113154761D02*
X173047619Y-113202380D01*
X173285714Y-113202380D01*
X173380952Y-113154761D01*
X173428571Y-113059523D01*
X173428571Y-112964285D01*
X173380952Y-112869047D01*
X173285714Y-112821428D01*
X173047619Y-112821428D01*
X172952380Y-112773809D01*
X172571428Y-112535714D02*
X172333333Y-113202380D01*
X172095238Y-112535714D01*
X171571428Y-113202380D02*
X171666666Y-113154761D01*
X171714285Y-113107142D01*
X171761904Y-113011904D01*
X171761904Y-112726190D01*
X171714285Y-112630952D01*
X171666666Y-112583333D01*
X171571428Y-112535714D01*
X171428571Y-112535714D01*
X171333333Y-112583333D01*
X171285714Y-112630952D01*
X171238095Y-112726190D01*
X171238095Y-113011904D01*
X171285714Y-113107142D01*
X171333333Y-113154761D01*
X171428571Y-113202380D01*
X171571428Y-113202380D01*
X170809523Y-113202380D02*
X170809523Y-112535714D01*
X170809523Y-112202380D02*
X170857142Y-112250000D01*
X170809523Y-112297619D01*
X170761904Y-112250000D01*
X170809523Y-112202380D01*
X170809523Y-112297619D01*
X169952380Y-113154761D02*
X170047619Y-113202380D01*
X170238095Y-113202380D01*
X170333333Y-113154761D01*
X170380952Y-113059523D01*
X170380952Y-112678571D01*
X170333333Y-112583333D01*
X170238095Y-112535714D01*
X170047619Y-112535714D01*
X169952380Y-112583333D01*
X169904761Y-112678571D01*
X169904761Y-112773809D01*
X170380952Y-112869047D01*
X168714285Y-113202380D02*
X168714285Y-112202380D01*
X168380952Y-112916666D01*
X168047619Y-112202380D01*
X168047619Y-113202380D01*
X167428571Y-113202380D02*
X167523809Y-113154761D01*
X167571428Y-113107142D01*
X167619047Y-113011904D01*
X167619047Y-112726190D01*
X167571428Y-112630952D01*
X167523809Y-112583333D01*
X167428571Y-112535714D01*
X167285714Y-112535714D01*
X167190476Y-112583333D01*
X167142857Y-112630952D01*
X167095238Y-112726190D01*
X167095238Y-113011904D01*
X167142857Y-113107142D01*
X167190476Y-113154761D01*
X167285714Y-113202380D01*
X167428571Y-113202380D01*
X166666666Y-112535714D02*
X166666666Y-113202380D01*
X166666666Y-112630952D02*
X166619047Y-112583333D01*
X166523809Y-112535714D01*
X166380952Y-112535714D01*
X166285714Y-112583333D01*
X166238095Y-112678571D01*
X166238095Y-113202380D01*
X165904761Y-112535714D02*
X165523809Y-112535714D01*
X165761904Y-112202380D02*
X165761904Y-113059523D01*
X165714285Y-113154761D01*
X165619047Y-113202380D01*
X165523809Y-113202380D01*
X164095238Y-112678571D02*
X163952380Y-112726190D01*
X163904761Y-112773809D01*
X163857142Y-112869047D01*
X163857142Y-113011904D01*
X163904761Y-113107142D01*
X163952380Y-113154761D01*
X164047619Y-113202380D01*
X164428571Y-113202380D01*
X164428571Y-112202380D01*
X164095238Y-112202380D01*
X164000000Y-112250000D01*
X163952380Y-112297619D01*
X163904761Y-112392857D01*
X163904761Y-112488095D01*
X163952380Y-112583333D01*
X164000000Y-112630952D01*
X164095238Y-112678571D01*
X164428571Y-112678571D01*
X163285714Y-113202380D02*
X163380952Y-113154761D01*
X163428571Y-113059523D01*
X163428571Y-112202380D01*
X162476190Y-113202380D02*
X162476190Y-112678571D01*
X162523809Y-112583333D01*
X162619047Y-112535714D01*
X162809523Y-112535714D01*
X162904761Y-112583333D01*
X162476190Y-113154761D02*
X162571428Y-113202380D01*
X162809523Y-113202380D01*
X162904761Y-113154761D01*
X162952380Y-113059523D01*
X162952380Y-112964285D01*
X162904761Y-112869047D01*
X162809523Y-112821428D01*
X162571428Y-112821428D01*
X162476190Y-112773809D01*
X162000000Y-112535714D02*
X162000000Y-113202380D01*
X162000000Y-112630952D02*
X161952380Y-112583333D01*
X161857142Y-112535714D01*
X161714285Y-112535714D01*
X161619047Y-112583333D01*
X161571428Y-112678571D01*
X161571428Y-113202380D01*
X160666666Y-113154761D02*
X160761904Y-113202380D01*
X160952380Y-113202380D01*
X161047619Y-113154761D01*
X161095238Y-113107142D01*
X161142857Y-113011904D01*
X161142857Y-112726190D01*
X161095238Y-112630952D01*
X161047619Y-112583333D01*
X160952380Y-112535714D01*
X160761904Y-112535714D01*
X160666666Y-112583333D01*
X172976190Y-113852380D02*
X172642857Y-114852380D01*
X172309523Y-113852380D01*
X171595238Y-114804761D02*
X171690476Y-114852380D01*
X171880952Y-114852380D01*
X171976190Y-114804761D01*
X172023809Y-114709523D01*
X172023809Y-114328571D01*
X171976190Y-114233333D01*
X171880952Y-114185714D01*
X171690476Y-114185714D01*
X171595238Y-114233333D01*
X171547619Y-114328571D01*
X171547619Y-114423809D01*
X172023809Y-114519047D01*
X171119047Y-114852380D02*
X171119047Y-114185714D01*
X171119047Y-114376190D02*
X171071428Y-114280952D01*
X171023809Y-114233333D01*
X170928571Y-114185714D01*
X170833333Y-114185714D01*
X170547619Y-114804761D02*
X170452380Y-114852380D01*
X170261904Y-114852380D01*
X170166666Y-114804761D01*
X170119047Y-114709523D01*
X170119047Y-114661904D01*
X170166666Y-114566666D01*
X170261904Y-114519047D01*
X170404761Y-114519047D01*
X170500000Y-114471428D01*
X170547619Y-114376190D01*
X170547619Y-114328571D01*
X170500000Y-114233333D01*
X170404761Y-114185714D01*
X170261904Y-114185714D01*
X170166666Y-114233333D01*
X169690476Y-114852380D02*
X169690476Y-114185714D01*
X169690476Y-113852380D02*
X169738095Y-113900000D01*
X169690476Y-113947619D01*
X169642857Y-113900000D01*
X169690476Y-113852380D01*
X169690476Y-113947619D01*
X169071428Y-114852380D02*
X169166666Y-114804761D01*
X169214285Y-114757142D01*
X169261904Y-114661904D01*
X169261904Y-114376190D01*
X169214285Y-114280952D01*
X169166666Y-114233333D01*
X169071428Y-114185714D01*
X168928571Y-114185714D01*
X168833333Y-114233333D01*
X168785714Y-114280952D01*
X168738095Y-114376190D01*
X168738095Y-114661904D01*
X168785714Y-114757142D01*
X168833333Y-114804761D01*
X168928571Y-114852380D01*
X169071428Y-114852380D01*
X168309523Y-114185714D02*
X168309523Y-114852380D01*
X168309523Y-114280952D02*
X168261904Y-114233333D01*
X168166666Y-114185714D01*
X168023809Y-114185714D01*
X167928571Y-114233333D01*
X167880952Y-114328571D01*
X167880952Y-114852380D01*
X166119047Y-114852380D02*
X166690476Y-114852380D01*
X166404761Y-114852380D02*
X166404761Y-113852380D01*
X166500000Y-113995238D01*
X166595238Y-114090476D01*
X166690476Y-114138095D01*
D11*
X169490000Y-79828733D02*
X169490000Y-80171267D01*
X170510000Y-79828733D02*
X170510000Y-80171267D01*
X166010000Y-79953733D02*
X166010000Y-80296267D01*
X164990000Y-79953733D02*
X164990000Y-80296267D01*
X165310000Y-91846267D02*
X165310000Y-91503733D01*
X164290000Y-91846267D02*
X164290000Y-91503733D01*
D10*
X171442857Y-77832142D02*
X171490476Y-77879761D01*
X171633333Y-77927380D01*
X171728571Y-77927380D01*
X171871428Y-77879761D01*
X171966666Y-77784523D01*
X172014285Y-77689285D01*
X172061904Y-77498809D01*
X172061904Y-77355952D01*
X172014285Y-77165476D01*
X171966666Y-77070238D01*
X171871428Y-76975000D01*
X171728571Y-76927380D01*
X171633333Y-76927380D01*
X171490476Y-76975000D01*
X171442857Y-77022619D01*
X170490476Y-77927380D02*
X171061904Y-77927380D01*
X170776190Y-77927380D02*
X170776190Y-76927380D01*
X170871428Y-77070238D01*
X170966666Y-77165476D01*
X171061904Y-77213095D01*
X169871428Y-76927380D02*
X169776190Y-76927380D01*
X169680952Y-76975000D01*
X169633333Y-77022619D01*
X169585714Y-77117857D01*
X169538095Y-77308333D01*
X169538095Y-77546428D01*
X169585714Y-77736904D01*
X169633333Y-77832142D01*
X169680952Y-77879761D01*
X169776190Y-77927380D01*
X169871428Y-77927380D01*
X169966666Y-77879761D01*
X170014285Y-77832142D01*
X170061904Y-77736904D01*
X170109523Y-77546428D01*
X170109523Y-77308333D01*
X170061904Y-77117857D01*
X170014285Y-77022619D01*
X169966666Y-76975000D01*
X169871428Y-76927380D01*
X166242857Y-77907142D02*
X166290476Y-77954761D01*
X166433333Y-78002380D01*
X166528571Y-78002380D01*
X166671428Y-77954761D01*
X166766666Y-77859523D01*
X166814285Y-77764285D01*
X166861904Y-77573809D01*
X166861904Y-77430952D01*
X166814285Y-77240476D01*
X166766666Y-77145238D01*
X166671428Y-77050000D01*
X166528571Y-77002380D01*
X166433333Y-77002380D01*
X166290476Y-77050000D01*
X166242857Y-77097619D01*
X165290476Y-78002380D02*
X165861904Y-78002380D01*
X165576190Y-78002380D02*
X165576190Y-77002380D01*
X165671428Y-77145238D01*
X165766666Y-77240476D01*
X165861904Y-77288095D01*
X164338095Y-78002380D02*
X164909523Y-78002380D01*
X164623809Y-78002380D02*
X164623809Y-77002380D01*
X164719047Y-77145238D01*
X164814285Y-77240476D01*
X164909523Y-77288095D01*
X165442857Y-94607142D02*
X165490476Y-94654761D01*
X165633333Y-94702380D01*
X165728571Y-94702380D01*
X165871428Y-94654761D01*
X165966666Y-94559523D01*
X166014285Y-94464285D01*
X166061904Y-94273809D01*
X166061904Y-94130952D01*
X166014285Y-93940476D01*
X165966666Y-93845238D01*
X165871428Y-93750000D01*
X165728571Y-93702380D01*
X165633333Y-93702380D01*
X165490476Y-93750000D01*
X165442857Y-93797619D01*
X164490476Y-94702380D02*
X165061904Y-94702380D01*
X164776190Y-94702380D02*
X164776190Y-93702380D01*
X164871428Y-93845238D01*
X164966666Y-93940476D01*
X165061904Y-93988095D01*
X164109523Y-93797619D02*
X164061904Y-93750000D01*
X163966666Y-93702380D01*
X163728571Y-93702380D01*
X163633333Y-93750000D01*
X163585714Y-93797619D01*
X163538095Y-93892857D01*
X163538095Y-93988095D01*
X163585714Y-94130952D01*
X164157142Y-94702380D01*
X163538095Y-94702380D01*
M02*
